<svg xmlns="http://www.w3.org/2000/svg" xmlns:xlink="http://www.w3.org/1999/xlink"><symbol class="si si-Agreement_handshakeicons" viewBox="0 0 16 16" id="Agreement_handshakeicons"><path d="M6.711 12.877c-.327 0-.573-.123-.818-.328a1.15 1.15 0 0 1-.328-.82c0-.327.123-.573.328-.819L7.16 9.64c.041-.042.164-.042.205 0 .04.04.04.163 0 .204l-1.228 1.312a.8.8 0 0 0-.245.574c0 .205.081.45.245.574a.8.8 0 0 0 .573.245c.205 0 .45-.082.573-.245.04-.041.164-.041.204 0 .041.04.041.163 0 .204-.163.246-.49.37-.777.37"/><path d="M5.074 13.041H4.46c-.286 0-.573-.123-.777-.328l-.45-.45c-.082-.082-.123-.123-.246-.164s-.204-.082-.327-.082H1.105c-.287 0-.573-.123-.778-.328C.123 11.525 0 11.238 0 10.91V7.303c0-.287.123-.574.327-.779.164-.204.45-.327.778-.327h1.923a.66.66 0 0 0 .532-.246l.941-.943c.082-.082.205-.205.328-.246.122-.04.286-.082.409-.082h3.765c.163 0 .286.041.409.082s.245.164.368.246l1.923 1.926c.082.082.205.246.246.37.082.163.082.327.082.45 0 .164-.041.287-.082.41v.04l-.246.37a1.25 1.25 0 0 1-.818.287c-.287 0-.573-.123-.778-.328L8.88 7.303c-.041-.04-.041-.164 0-.205.04-.04.163-.04.204 0l1.228 1.23a.8.8 0 0 0 .532.246c.205 0 .41-.082.614-.205.04-.041.123-.164.204-.287.041-.123.082-.205.082-.287 0-.123 0-.205-.04-.287v-.04c-.042-.083-.083-.206-.164-.288L9.616 5.254a.9.9 0 0 0-.245-.164.8.8 0 0 0-.287-.082H5.32c-.082 0-.205.041-.328.082a.8.8 0 0 0-.245.164l-.941.943a1.12 1.12 0 0 1-.778.327H1.105a.64.64 0 0 0-.532.246.8.8 0 0 0-.246.574v3.607c0 .164.041.369.246.533a.8.8 0 0 0 .573.246h1.596c.163 0 .286.04.409.082.164.04.245.164.327.246l.45.45a.8.8 0 0 0 .532.247h.614c.082 0 .164.081.164.163s-.082.123-.164.123"/><path d="M5.36 11.525c-.327 0-.572-.123-.818-.328a1.15 1.15 0 0 1-.327-.82c0-.328.123-.574.327-.82l2.537-2.54c.041-.042.082-.042.123-.042h1.76c.081 0 .163.082.163.164s-.082.164-.163.164H7.284l-2.496 2.5a.8.8 0 0 0-.246.574c0 .205.082.451.246.574a.8.8 0 0 0 .573.246.58.58 0 0 0 .49-.246c.042-.04.164-.04.205 0 .041.041.041.164 0 .205-.123.205-.327.369-.695.369m2.742 2.746c-.163 0-.286-.041-.409-.082a1.1 1.1 0 0 1-.41-.246c-.04-.04-.081-.082-.081-.123-.04-.082-.123-.164-.164-.287a1.5 1.5 0 0 1-.082-.41c0-.164.041-.287.082-.41.041-.122.123-.286.246-.368l1.268-1.271c.041-.041.164-.041.205 0s.04.164 0 .205l-1.269 1.27a.66.66 0 0 0-.163.287c-.041.123-.082.205-.082.328 0 .082.04.205.082.328.04.082.04.123.123.164.04.041.04.082.081.123s.164.123.246.164c.245.082.41.082.655 0 .081-.04.122-.04.204-.123.041-.04.082-.04.123-.082l1.228-1.27c.04-.041.163-.041.204 0 .041.04.041.164 0 .204l-1.268 1.271c-.041.041-.082.082-.123.082-.082.041-.164.123-.287.164a1.2 1.2 0 0 1-.409.082"/><path d="M10.107 14.968c-.286 0-.572-.082-.777-.287-.123-.123-.246-.246-.287-.41a1.5 1.5 0 0 1-.081-.41c0-.164.04-.287.081-.41s.164-.246.246-.328c.04 0 .04-.04.04-.04.042-.042.165-.042.206 0 .04.04.04.163 0 .204l-.082.082c-.082.041-.164.164-.164.205-.04.123-.082.205-.082.328 0 .082.041.205.082.328.04.082.082.164.205.287a.98.98 0 0 0 .572.205.66.66 0 0 0 .532-.246l2.578-2.582c.082-.082.246-.205.328-.246.164-.041.286-.082.45-.082h.982a.64.64 0 0 0 .532-.246.8.8 0 0 0 .245-.574v-3.36c0-.083-.04-.206-.081-.329a.9.9 0 0 0-.164-.246c-.082-.082-.164-.123-.245-.164a.8.8 0 0 0-.287-.082H12.44a.176.176 0 0 1-.164-.163c0-.082.082-.164.164-.164h2.496c.164 0 .287.04.41.082.122.04.245.163.327.245s.204.205.245.328.082.287.082.41v3.361c0 .287-.123.574-.327.779-.164.205-.45.328-.778.328h-.9c-.082 0-.205.04-.327.082-.041.04-.164.082-.246.164l-2.578 2.582c-.164.246-.45.369-.737.369M8.061 3.819c-.081 0-.163-.082-.163-.164V1.196c0-.082.082-.164.163-.164.082 0 .164.082.164.164v2.46c0 .081-.082.163-.164.163m2.128 0h-.082c-.081-.04-.122-.123-.081-.205l.859-1.721c.04-.082.123-.123.204-.082.082.041.123.123.082.205l-.859 1.721c0 .041-.082.082-.123.082m-4.296 0c-.041 0-.123-.04-.123-.082l-.86-1.721c-.04-.082 0-.164.082-.205s.164 0 .205.082l.86 1.721c.04.082 0 .164-.083.205z"/></symbol><symbol class="si si-Biomassicons" viewBox="0 0 16 16" id="Biomassicons"><path fill-rule="evenodd" d="M22.16 1.69c-3.658.297-7.416 1.602-10.508 3.648-1.806 1.195-3.839 3.056-5.15 4.714C1.482 16.398.244 24.774 3.215 32.28c.611 1.542 2.047 4.137 2.356 4.255.146.056.337-.041.458-.232.061-.098-.051-.346-.486-1.075-2.241-3.753-3.251-7.606-3.119-11.901.129-4.194 1.319-7.897 3.66-11.394C7.746 9.451 9.649 7.575 12.2 5.902c4.593-3.013 10.299-4.149 15.764-3.14a21.65 21.65 0 0 1 10.545 5.234c.391.354.772.644.848.644.205 0 .426-.28.367-.466-.11-.348-2.46-2.261-3.884-3.162-.761-.482-2.37-1.301-3.381-1.721-3.157-1.311-6.83-1.882-10.299-1.601m.32 8.201a14.8 14.8 0 0 0-7.24 2.958c-.786.607-2.018 1.866-2.615 2.673-2.046 2.768-2.992 5.964-2.777 9.391.083 1.331.266 2.298.669 3.526 2.248 6.852 9.305 10.943 16.348 9.479 1.601-.333 3.607-1.156 4.833-1.983.642-.433.75-.576.619-.821s-.398-.183-1.08.252a13.46 13.46 0 0 1-14.255.143c-3.217-1.969-5.308-4.939-6.188-8.789-.249-1.087-.308-3.45-.118-4.68.789-5.096 4.293-9.238 9.164-10.833 1.442-.472 2.337-.603 4.12-.605 1.895-.002 2.648.112 4.28.651 4.59 1.517 8.021 5.413 8.969 10.186.24 1.209.292 3.196.116 4.401-.28 1.92-.853 3.566-1.763 5.064-.199.328-.362.649-.362.714s.074.184.165.266c.124.113.197.129.3.066.33-.203 1.221-1.85 1.661-3.07.646-1.793.869-3.236.813-5.28-.044-1.632-.245-2.806-.707-4.145-.36-1.041-1.277-2.837-1.886-3.695-.688-.968-2.328-2.603-3.308-3.298-1.56-1.106-3.645-2.001-5.558-2.386-.687-.138-1.214-.182-2.4-.198-.836-.012-1.646-.006-1.8.013m19.733 1.922c-.129.13-.029.487.266.956 1.574 2.492 2.671 5.751 3.039 9.031.118 1.057.1 3.531-.036 4.69a21.44 21.44 0 0 1-6.16 12.756c-3.523 3.533-7.779 5.6-12.842 6.237-1.337.168-4.378.126-5.64-.079-4.46-.722-7.948-2.389-11.5-5.498-.342-.299-.4-.323-.58-.241-.359.164-.262.422.38 1.017 3.478 3.224 8.558 5.334 13.548 5.628 11.565.684 21.745-7.596 23.429-19.055.684-4.65-.153-9.54-2.335-13.655-.769-1.45-1.044-1.84-1.296-1.84-.121 0-.243.024-.273.053M22.64 16.759c-.587.132-1.429.42-1.58.54-.139.112-.125.421.026.546.105.087.233.069.78-.111.984-.325 1.513-.399 2.454-.344 1.743.101 3.02.636 4.226 1.77a6.7 6.7 0 0 1 1.943 3.317c.146.579.165.826.129 1.72-.05 1.216-.225 1.924-.705 2.848-.8 1.537-2.284 2.763-3.956 3.269-1.519.459-3.444.309-4.797-.374-2.245-1.134-3.584-3.163-3.7-5.607-.05-1.05.053-1.761.385-2.663.205-.56.214-.625.102-.785-.302-.431-.704.074-1.031 1.294-.237.884-.222 2.824.028 3.701.259.906.811 2.001 1.351 2.679.912 1.144 2.539 2.193 3.985 2.57.818.213 2.436.234 3.299.042a7.37 7.37 0 0 0 5.696-5.926c.122-.68.105-2.1-.034-2.759-.303-1.443-1.092-2.828-2.207-3.877-.918-.864-1.788-1.346-3.125-1.734-.775-.225-2.507-.286-3.269-.116"/></symbol><symbol class="si si-Calendar_whiteicons" viewBox="0 0 16 16" id="Calendar_whiteicons"><g stroke="#1F1F1F" stroke-linecap="round" stroke-linejoin="round" clip-path="url(#aca)"><path d="M5.897 14.65h6.39c.357 0 .71-.069 1.04-.202a2.7 2.7 0 0 0 .88-.575A2.6 2.6 0 0 0 15 11.998V5.346a2.6 2.6 0 0 0-.206-1.014 2.7 2.7 0 0 0-.588-.861 2.7 2.7 0 0 0-.88-.575 2.8 2.8 0 0 0-1.039-.202H3.713a2.73 2.73 0 0 0-1.92.777 2.7 2.7 0 0 0-.587.86A2.6 2.6 0 0 0 1 5.347v6.652a2.6 2.6 0 0 0 .794 1.875c.252.246.55.442.88.575s.682.202 1.039.202v0M1 5.895h14M4.336 1.35v2.686m7.46-2.686v2.686"/></g><defs><clipPath id="aca"><path d="M0 0h16v16H0z"/></clipPath></defs></symbol><symbol class="si si-Calendaricons" viewBox="0 0 16 16" id="Calendaricons"><g stroke="#3D3D3D" stroke-linecap="round" stroke-linejoin="round" clip-path="url(#ada)"><path d="M5.897 14.65h6.39c.357 0 .71-.069 1.04-.202a2.7 2.7 0 0 0 .88-.575A2.6 2.6 0 0 0 15 11.998V5.346a2.6 2.6 0 0 0-.206-1.014 2.7 2.7 0 0 0-.588-.861 2.7 2.7 0 0 0-.88-.575 2.8 2.8 0 0 0-1.039-.202H3.713a2.73 2.73 0 0 0-1.92.777 2.7 2.7 0 0 0-.587.86A2.6 2.6 0 0 0 1 5.347v6.652a2.6 2.6 0 0 0 .794 1.875c.252.246.55.442.88.575s.682.202 1.039.202v0M1 5.895h14M4.336 1.35v2.686m7.46-2.686v2.686"/></g><defs><clipPath id="ada"><path d="M0 0h16v16H0z"/></clipPath></defs></symbol><symbol class="si si-Checkmarkicons" viewBox="0 0 16 16" id="Checkmarkicons"><path stroke="#3D3D3D" stroke-linecap="round" stroke-linejoin="round" stroke-width="1.2" d="m1.219 8.613 4.526 4.566L15 3.9"/></symbol><symbol class="si si-Cloudicons" viewBox="0 0 16 16" id="Cloudicons"><path stroke="#3D3D3D" stroke-linecap="round" stroke-miterlimit="10" stroke-width=".75" d="M9.887 12.196h3.143c1.23 0 2.256-.962 2.256-2.198 0-1.03-.479-1.716-1.572-1.922"/><path stroke="#3D3D3D" stroke-linecap="round" stroke-miterlimit="10" stroke-width=".75" d="M12.962 7.32c.274-1.167-.341-1.785-1.23-1.991-.273-.069-.683-.069-1.025 0C10.23 3.956 8.726 3.2 7.36 3.612c-.82.275-1.503.893-1.777 1.717-1.913-.55-3.895.55-4.441 2.335-.547 1.854.546 3.776 2.46 4.326.341.068.683.137 1.025.137h5.671"/></symbol><symbol class="si si-Communications_infraicons" viewBox="0 0 16 16" id="Communications_infraicons"><g clip-path="url(#aga)"><path d="M5.714 16H1.562c-.196 0-.391-.1-.489-.252s-.097-.303 0-.505l1.417-3.23c.342-.909.44-.404.781-.253l.098.101c.147.202.537.555 1.661 1.01l.098.05.049.152s.635 1.463 1.025 2.12c.098.15.05.353 0 .504-.146.202-.293.303-.488.303m-2.736-3.634-1.367 3.028h3.956c-.342-.605-.781-1.615-.928-1.968-.733-.303-1.319-.707-1.66-1.06"/><path d="M6.69 13.527c-1.367 0-2.735-.505-3.76-1.514-.977-.909-1.515-2.17-1.564-3.534-.048-1.413.489-2.725 1.466-3.735l.537-.555 3.273 3.23.098-.1a1.4 1.4 0 0 1-.147-.606c0-.808.635-1.413 1.466-1.413.83 0 1.367.605 1.367 1.413 0 .858-.732 1.413-1.367 1.413-.196 0-.342-.05-.489-.1l-.098.1.929.909c.097.1.097.303 0 .403-.098.101-.294.152-.391 0L6.642 8.177l-3.273-3.18-.098.1A4.66 4.66 0 0 0 1.953 8.38c0 1.21.488 2.27 1.367 3.129a4.79 4.79 0 0 0 6.693 0l.048-.05h.05l-.782-.758c-.098-.1-.147-.302 0-.403.146-.101.293-.101.39 0l1.222 1.16-.245.202-.048.05-.293.304c-.977 1.01-2.345 1.514-3.664 1.514m.831-6.208.098.05c.147.05.244.152.44.152.39 0 .781-.354.781-.808s-.342-.808-.781-.808c-.44 0-.88.354-.88.808 0 .151.05.353.147.454zm7.23-.152c-.195 0-.293-.151-.293-.303 0 0 .195-2.22-1.417-4.189S9.231.605 9.182.605c-.146 0-.293-.15-.293-.302S8.987 0 9.182 0c.098 0 2.491.1 4.25 2.271s1.563 4.543 1.563 4.644-.098.252-.244.252m-2.59 0c-.194 0-.292-.151-.292-.353 0 0 .098-1.312-.88-2.524-.976-1.16-2.295-1.262-2.295-1.262-.147 0-.293-.151-.293-.302 0-.152.146-.303.293-.303.048 0 1.514.1 2.686 1.463 1.173 1.363 1.026 2.928 1.026 2.978.049.152-.098.303-.244.303"/></g><defs><clipPath id="aga"><path d="M1 0h14v16H1z"/></clipPath></defs></symbol><symbol class="si si-Data_analysis_statusicons" viewBox="0 0 16 16" id="Data_analysis_statusicons"><g clip-path="url(#aha)"><path d="M8.594 11.617A3.75 3.75 0 0 1 4.82 7.861a3.75 3.75 0 0 1 3.773-3.757c.908 0 1.747.348 2.585 1.044.35.348.559.626.769 1.043.07.14 0 .279-.14.348-.14.07-.28 0-.35-.139-.21-.348-.349-.626-.628-.904-.769-.626-1.468-.905-2.236-.905-1.817 0-3.214 1.392-3.214 3.2s1.397 3.2 3.214 3.2c1.607 0 2.934-1.113 3.144-2.574 0-.139.14-.208.28-.208s.21.139.21.278c-.21 1.878-1.817 3.13-3.634 3.13"/><path d="M10.97 5.217c-.07 0-.14 0-.21-.07-.07-.069-.07-.277 0-.347L15.022.626c.07-.07.28-.07.35 0s.069.278 0 .348l-4.263 4.174s-.07.07-.14.07m-4.822.14c-.07 0-.14 0-.21-.07L3.145 2.365a.44.44 0 0 1 0-.417c.14-.14.28-.07.42 0L6.357 4.87q.105.208 0 .417c-.07.07-.14.07-.21.07m-5.03 8.695c-.07 0-.14 0-.21-.07-.07-.138-.07-.278 0-.347L5.24 9.739c.14-.07.28-.07.35 0 .07.14.07.278 0 .348l-4.332 3.896s-.07.07-.14.07m6.568.765c-.21 0-.28-.139-.28-.278l.42-3.2c0-.139.139-.209.279-.209s.28.14.21.279l-.42 3.2c0 .07-.07.208-.21.208m6.986-1.67c-.07 0-.07 0-.14-.069l-3.493-2.365c-.14-.07-.14-.278-.07-.348.07-.139.28-.139.35-.07l3.493 2.366c.14.07.14.278.07.348s-.14.139-.21.139"/><path d="M15.232 1.252a.488.488 0 1 0 .002-.976.488.488 0 0 0-.002.976"/><path d="M15.232 1.53a.774.774 0 0 1-.77-.765c0-.417.35-.765.77-.765.419 0 .768.348.768.765s-.35.765-.768.765m0-.973q-.21 0-.21.208 0 .21.21.209.21 0 .21-.209 0-.208-.21-.208m0 13.287a.488.488 0 1 0 .001-.977.488.488 0 0 0-.002.976"/><path d="M15.232 14.122a.774.774 0 0 1-.77-.765c0-.418.35-.766.77-.766.419 0 .768.348.768.766 0 .417-.35.765-.768.765m0-.974q-.21 0-.21.209 0 .208.21.208t.21-.208-.21-.21M.769 14.54a.488.488 0 1 0 .002-.977.488.488 0 0 0-.002.976"/><path d="M.769 14.817A.774.774 0 0 1 0 14.052c0-.417.35-.765.769-.765s.768.348.768.765-.35.765-.768.765m0-.974q-.21 0-.21.21 0 .207.21.208.21 0 .21-.209t-.21-.209M3.214 2.435a.488.488 0 1 0 .002-.976.488.488 0 0 0-.002.976"/><path d="M3.214 2.713a.774.774 0 0 1-.769-.765c0-.418.35-.765.769-.765s.769.347.769.765c0 .417-.35.765-.769.765m0-.974q-.21 0-.21.209t.21.209.21-.21q0-.207-.21-.208m4.402 13.983a.488.488 0 1 0 .002-.976.488.488 0 0 0-.002.976"/><path d="M7.616 16a.774.774 0 0 1-.769-.765c0-.418.35-.765.769-.765s.768.347.768.765a.773.773 0 0 1-.768.765m0-.974q-.21 0-.21.209t.21.209.21-.21-.21-.208"/></g><defs><clipPath id="aha"><path d="M0 0h16v16H0z"/></clipPath></defs></symbol><symbol class="si si-Document Contracticons" viewBox="0 0 16 16" id="Document_Contracticons"><path d="M12.295 15H3.474a.68.68 0 0 1-.674-.674V1.89a.81.81 0 0 1 .796-.796h6.494c.245 0 .49.061.674.245l.551.49c.123.061.123.245 0 .307-.061.122-.245.122-.306 0l-.552-.49c-.06-.062-.183-.123-.367-.123H3.596c-.183 0-.306.122-.306.306v12.497q0 .184.184.184h8.821a.42.42 0 0 0 .429-.429V4.035q0-.184-.184-.368l-.612-.551a.174.174 0 0 1 0-.307c.06-.122.245-.122.306 0l.613.552c.245.245.306.429.306.735v10.046c.061.43-.368.858-.858.858"/><path d="M11.376 8.261H4.7a.264.264 0 0 1-.245-.245c0-.122.123-.245.245-.245h6.677c.123 0 .245.123.245.245a.263.263 0 0 1-.245.245m0 2.022H4.7a.263.263 0 0 1-.245-.245c0-.123.123-.245.245-.245h6.677c.123 0 .245.122.245.245a.263.263 0 0 1-.245.245m0 2.022H4.7a.263.263 0 0 1-.245-.245c0-.123.123-.245.245-.245h6.677c.123 0 .245.122.245.245a.263.263 0 0 1-.245.245"/></symbol><symbol class="si si-Down-righticons" viewBox="0 0 16 16" id="Down-righticons"><path stroke="#3D3D3D" stroke-linecap="round" stroke-miterlimit="10" stroke-width=".75" d="M45.69 2v43.69M2 45.69h43.69M5.197 5.22 45.69 45.69"/></symbol><symbol class="si si-Downloadicons" viewBox="0 0 16 16" id="Downloadicons"><g stroke="#3D3D3D" stroke-width=".1" clip-path="url(#aka)"><path d="M15.622 7.16c.232 0 .425.175.428.4v6.14c0 .749-.645 1.35-1.433 1.35H1.423c-.787-.005-1.43-.602-1.438-1.349l-.035-6.14V7.56c0-.226.194-.404.427-.404s.427.178.427.404h-.05.05zm0 0a.42.42 0 0 0-.427.404v6.142c0 .295-.256.54-.578.54H1.424zM.84 13.7H.79z"/><path d="m7.931 11.102.002.003a.46.46 0 0 0 .233.134l.006.001q.045.004.088 0h.155a.44.44 0 0 0 .234-.136l.001-.002 2.81-3.414.001-.002a.397.397 0 0 0-.069-.548l-.002-.001a.45.45 0 0 0-.603.065l-2.055 2.45V1.36a.42.42 0 0 0-.428-.41.42.42 0 0 0-.43.41v8.33L5.796 7.163a.443.443 0 0 0-.599-.066V7.1a.393.393 0 0 0-.075.549v.001z"/></g><defs><clipPath id="aka"><path d="M0 0h16v16H0z"/></clipPath></defs></symbol><symbol class="si si-Earthicons" viewBox="0 0 16 16" id="Earthicons"><path stroke="#3D3D3D" stroke-linecap="round" stroke-linejoin="round" stroke-width=".75" d="M9.93 7.624a19.93 19.93 0 0 1 13.533-5.217A21.59 21.59 0 0 1 43.74 15.23a21.61 21.61 0 0 1-4.079 23.648 21.59 21.59 0 0 1-23.4 5.284A21.59 21.59 0 0 1 2.423 24.56a19.83 19.83 0 0 1 3.932-12.84"/><path stroke="#3D3D3D" stroke-linecap="round" stroke-linejoin="round" stroke-width=".75" d="M3.3 19.294a14.6 14.6 0 0 1 5.768 4.177l.195.243a7.9 7.9 0 0 1 1.625 5.218 25.3 25.3 0 0 0 .178 4.697 34 34 0 0 0 1.983 8.857q1.236.758 2.567 1.333c.91-2.39 1.38-5.932 3.558-7.33a17.5 17.5 0 0 0 1.82-1.414l.422-.406a5.397 5.397 0 0 0 0-7.818c-2.047-1.853-4.143-1.625-6.905-3.608l-.504-.406a2.31 2.31 0 0 1 .179-3.738 10.7 10.7 0 0 0 2.372-1.983 4.6 4.6 0 0 0 .91-2.763c-.829-3.007-6.5-6.225-7.49-6.761M40.31 37.79a4 4 0 0 1-1.153-2.536c-.012-1.202.07-2.403.244-3.592v-.163a5.35 5.35 0 0 0-2.746-4.778l-.536-.309c-2.323-1.365-3.477-2.048-4.143-3.25a4.6 4.6 0 0 1-.406-1.17 5.316 5.316 0 0 1 3.867-6.095 3.93 3.93 0 0 1 1.982-.147c1.364.31 2.193 1.366 4.127 1.48a6.4 6.4 0 0 0 2.404-.374M28.678 2.748c-1.625 1.886-.601 5.559-2.03 7.509-1.626 2.275-2.048 4.876-.082 5.705 2.534 1.121 4.744-3.25 7.165-4.47 1.218-.617 3.964-.455 7.83-.097M16.087 4.634a13.5 13.5 0 0 0 2.99 3.965c.763.667 1.25.488 2.209-.601.568-.65.243-1.398.503-2.406a5.14 5.14 0 0 1 2.275-2.844"/></symbol><symbol class="si si-Electrical_Power" viewBox="0 0 16 16" id="Electrical_Power"><path stroke="#3D3D3D" stroke-width=".25" d="M38.778 9.206c-3.712-3.655-9.165-5.441-15.709-5.181-5.238 0-10.107 2.148-13.714 6.047a20.3 20.3 0 0 0-4.302 7.254 20.1 20.1 0 0 0-.96 8.345c.91 9.398 9.3 17.277 19.512 18.326a.56.56 0 0 0 .548-.284.54.54 0 0 0-.224-.743.6.6 0 0 0-.208-.063c-9.697-.996-17.656-8.451-18.518-17.338-.258-2.665.05-5.354.908-7.896a19.2 19.2 0 0 1 4.068-6.863c3.393-3.67 7.971-5.69 12.912-5.69 6.254-.251 11.414 1.427 14.9 4.861 3.378 3.329 5.11 8.2 4.874 13.693-.728 8.582-5.927 11.786-10.14 11.92-2.693 0-4.806-.846-6.278-2.515-1.647-1.87-2.016-4.244-1.955-5.36 3.188-.336 5.23-3.171 5.214-7.252h.494a.56.56 0 0 0 .393-.16.544.544 0 0 0 0-.776.56.56 0 0 0-.393-.16h-2.86V14.22a.54.54 0 0 0-.163-.388.56.56 0 0 0-.788 0 .54.54 0 0 0-.163.388v5.152h-4.977V14.22a.54.54 0 0 0-.163-.388.56.56 0 0 0-.788 0 .54.54 0 0 0-.163.388v5.152h-2.86a.56.56 0 0 0-.393.16.544.544 0 0 0 0 .776c.104.102.246.16.394.16h11.32c.005 3.055-1.35 6.077-4.524 6.212-2.34.152-3.67-1.346-4.375-2.635a.55.55 0 0 0-.33-.272.57.57 0 0 0-.598.18.55.55 0 0 0-.052.612c1.093 1.998 2.699 3.084 4.658 3.2-.05 1.47.468 4.033 2.231 6.033 1.694 1.92 4.089 2.894 7.137 2.894 4.69-.15 10.446-3.625 11.235-12.95.25-5.824-1.597-10.987-5.2-14.534z"/></symbol><symbol class="si si-Electronic_devices" viewBox="0 0 16 16" id="Electronic_devices"><g stroke="#3D3D3D" stroke-linecap="round" stroke-linejoin="round" stroke-miterlimit="10" stroke-width=".75" clip-path="url(#ana)"><path d="M12.114 1.737h2.59c.305 0 .61.22.61.59v6.778a.59.59 0 0 1-.61.59h-5.79m-4.647 0H1.295c-.305 0-.61-.221-.61-.59V2.253a.59.59 0 0 1 .61-.59H9.22"/><path d="M4.343 14.19v-7c0-.148.152-.295.305-.295h3.885c.153 0 .305.147.305.294v7c0 .148-.152.295-.305.295H4.648c-.153.074-.305-.073-.305-.294m9.371-8.032a.225.225 0 0 0 .229-.221.225.225 0 0 0-.229-.221.225.225 0 0 0-.228.22c0 .123.102.222.228.222"/><path d="M6.629 13.6a.15.15 0 0 0 .152-.147.15.15 0 0 0-.152-.148.15.15 0 0 0-.153.148.15.15 0 0 0 .153.147"/></g><defs><clipPath id="ana"><path d="M0 1h16v14H0z"/></clipPath></defs></symbol><symbol class="si si-Email_white" viewBox="0 0 16 16" id="Email_white"><path d="M13.177 13.533H2.824A2.815 2.815 0 0 1 0 10.703V5.23A2.815 2.815 0 0 1 2.824 2.4h8.282c.125 0 .25.126.25.252 0 .125-.125.251-.25.251H2.824A2.32 2.32 0 0 0 .502 5.231v5.472a2.32 2.32 0 0 0 2.322 2.327h10.353a2.32 2.32 0 0 0 2.321-2.327V5.23a2.32 2.32 0 0 0-2.321-2.328c-.126 0-.252-.126-.252-.251 0-.126.126-.252.252-.252A2.815 2.815 0 0 1 16 5.23v5.473a2.815 2.815 0 0 1-2.823 2.83"/><path d="M8.031 9.005h-.125c-1.004-.504-2.07-1.07-3.137-1.573-1.067-.566-2.134-1.07-3.138-1.635-.125-.063-.188-.19-.125-.315.063-.126.188-.189.314-.126 1.066.566 2.07 1.07 3.137 1.636 1.067.503 2.07 1.069 3.137 1.572.126.063.188.189.126.315 0 .063-.126.126-.189.126"/><path d="M8.031 9.005c-.062 0-.188-.063-.188-.126-.063-.126 0-.252.126-.315 1.004-.503 2.07-1.07 3.137-1.572 1.066-.566 2.133-1.07 3.137-1.636.126-.063.251 0 .314.126s0 .252-.126.315c-1.066.566-2.07 1.069-3.137 1.635-1.067.503-2.07 1.07-3.137 1.573z"/><path d="M14.369 10.01h-.063c-.753-.314-1.569-.628-2.322-.943a89 89 0 0 0-2.321-.943c-.126-.063-.188-.189-.126-.315.063-.125.188-.188.314-.125.753.314 1.569.629 2.321.943.753.315 1.506.63 2.322.944.126.063.188.188.126.314a.5.5 0 0 1-.251.126m-12.863 0c-.063 0-.188-.062-.188-.125-.063-.126 0-.251.125-.314.753-.315 1.569-.63 2.322-.944s1.568-.629 2.321-.943c.126-.063.251 0 .314.125.063.126 0 .252-.125.315-.753.314-1.57.629-2.322.943-.753.315-1.569.63-2.322.944z"/></symbol><symbol class="si si-Emailicons" viewBox="0 0 16 16" id="Emailicons"><path d="M13.177 13.533H2.824A2.815 2.815 0 0 1 0 10.703V5.23A2.815 2.815 0 0 1 2.824 2.4h8.282c.125 0 .25.126.25.252 0 .125-.125.251-.25.251H2.824A2.32 2.32 0 0 0 .502 5.231v5.472a2.32 2.32 0 0 0 2.322 2.327h10.353a2.32 2.32 0 0 0 2.321-2.327V5.23a2.32 2.32 0 0 0-2.321-2.328c-.126 0-.252-.126-.252-.251 0-.126.126-.252.252-.252A2.815 2.815 0 0 1 16 5.23v5.473a2.815 2.815 0 0 1-2.823 2.83"/><path d="M8.031 9.005h-.125c-1.004-.504-2.07-1.07-3.137-1.573-1.067-.566-2.134-1.07-3.138-1.635-.125-.063-.188-.19-.125-.315.063-.126.188-.189.314-.126 1.066.566 2.07 1.07 3.137 1.636 1.067.503 2.07 1.069 3.137 1.572.126.063.188.189.126.315 0 .063-.126.126-.189.126"/><path d="M8.031 9.005c-.062 0-.188-.063-.188-.126-.063-.126 0-.252.126-.315 1.004-.503 2.07-1.07 3.137-1.572 1.066-.566 2.133-1.07 3.137-1.636.126-.063.251 0 .314.126s0 .252-.126.315c-1.066.566-2.07 1.069-3.137 1.635-1.067.503-2.07 1.07-3.137 1.573z"/><path d="M14.369 10.01h-.063c-.753-.314-1.569-.628-2.322-.943a89 89 0 0 0-2.321-.943c-.126-.063-.188-.189-.126-.315.063-.125.188-.188.314-.125.753.314 1.569.629 2.321.943.753.315 1.506.63 2.322.944.126.063.188.188.126.314a.5.5 0 0 1-.251.126m-12.863 0c-.063 0-.188-.062-.188-.125-.063-.126 0-.251.125-.314.753-.315 1.569-.63 2.322-.944s1.568-.629 2.321-.943c.126-.063.251 0 .314.125.063.126 0 .252-.125.315-.753.314-1.57.629-2.322.943-.753.315-1.569.63-2.322.944z"/></symbol><symbol class="si si-Gasicons" viewBox="0 0 16 16" id="Gasicons"><path stroke="#3D3D3D" stroke-linecap="round" stroke-miterlimit="10" stroke-width=".75" d="M23.939 2 10.265 24.544a14.34 14.34 0 0 0-.234 13.07 14.8 14.8 0 0 0 1.674 2.662A15.78 15.78 0 0 0 23.939 46a16.05 16.05 0 0 0 12.803-6.444l.301-.451a14.43 14.43 0 0 0 .77-14.561C33.361 16.879 28.307 9.665 23.855 2"/><path stroke="#3D3D3D" stroke-linecap="round" stroke-miterlimit="10" stroke-width=".75" d="m23.939 24.26-6.326 9.556a6.26 6.26 0 0 0-.1 5.74A12 12 0 0 0 18.6 41.08a6.85 6.85 0 0 0 5.339 2.51 7.01 7.01 0 0 0 5.623-2.828l.134-.2a6.53 6.53 0 0 0 .787-6.377c-1.071-1.841-2.327-3.598-3.565-5.372"/></symbol><symbol class="si si-Grid_Biogas" viewBox="0 0 16 16" id="Grid_Biogas"><g clip-path="url(#ara)"><path d="M11.656 12.186c.397.17.34.454 0 .567-.284-.057-.51-.113-.737-.17-.737-.34-1.304-.907-1.7-1.587a20 20 0 0 0-1.53-2.267c-.228-.284-.68-.397-.964-.68-.17-.114-.397-.227-.284-.51.17-.284.397-.17.51-.114.737.227 1.304.737 1.7 1.417.284.454.568.907.908 1.417.17-2.324-2.268-3.854-4.421-4.08.34 1.473.68 2.947 1.7 4.08.453.51 1.02.964 1.814.907.113 0 .453 0 .397.283 0 .17-.227.284-.34.284-.85.113-1.53-.17-2.154-.85C5.25 9.466 4.798 7.765 4.4 6.008c-.114-.51.056-.737.567-.567.85.227 1.7.397 2.437.737 1.587.737 2.607 1.927 2.777 3.741v.624c-.056.68.057.963.68 1.247.227.17.51.226.794.396"/><path d="M13.923 15.87H2.02c-.567 0-1.02-.453-1.02-1.02V2.947c0-.566.453-1.02 1.02-1.02h11.903c.567 0 1.02.454 1.02 1.02v1.984a.244.244 0 0 1-.226.227.244.244 0 0 1-.227-.227V2.947a.63.63 0 0 0-.624-.623H2.02a.63.63 0 0 0-.623.623v11.846c0 .34.283.624.623.624h11.903a.63.63 0 0 0 .624-.623V8.105c0-.113.113-.226.226-.226.114 0 .227.113.227.226v6.688c-.057.624-.51 1.078-1.077 1.078"/><path d="M3.04 2.21c-.056 0-.113 0-.17-.056-.113-.057-.113-.227 0-.284.057-.056 1.814-1.927 5.102-1.927 3.514 0 5.044 1.87 5.1 1.927.058.114.058.227-.056.284-.113.057-.226.057-.283-.057 0 0-1.474-1.757-4.761-1.757C4.91.34 3.21 2.097 3.21 2.097c-.057.114-.114.114-.17.114"/></g><defs><clipPath id="ara"><path d="M0 0h16v16H0z"/></clipPath></defs></symbol><symbol class="si si-Ground_area" viewBox="0 0 16 16" id="Ground_area"><g clip-path="url(#asa)"><path d="M.81 14.427c-.096 0-.174-.07-.174-.156V2.156C.641 2.07.72 2 .81 2c.092 0 .174.07.174.156v12.12c0 .085-.078.155-.174.155z"/><path d="M1.41 3.126a.17.17 0 0 1-.142-.07l-.6-.819a.147.147 0 0 1 .05-.212c.084-.045.189-.025.24.045l.595.819c.05.07.027.167-.05.212a.2.2 0 0 1-.092.025"/><path d="M.17 3.126a.2.2 0 0 1-.092-.024.147.147 0 0 1-.05-.213l.595-.819c.05-.07.155-.09.238-.045.077.045.1.143.05.213l-.595.819a.17.17 0 0 1-.142.07zm15.615 11.301H2.738c-.097 0-.174-.07-.174-.156s.077-.155.174-.155h13.047c.096 0 .174.07.174.155 0 .086-.078.156-.174.156"/><path d="M14.91 15a.2.2 0 0 1-.142-.066c-.054-.07-.036-.163.042-.212l.915-.574a.183.183 0 0 1 .238.037c.055.07.037.164-.04.213l-.916.573a.17.17 0 0 1-.097.029"/><path d="M15.826 14.427a.16.16 0 0 1-.096-.029l-.916-.573c-.078-.05-.096-.143-.04-.213a.18.18 0 0 1 .237-.037l.916.573c.078.05.096.144.041.213a.18.18 0 0 1-.142.066M2.55 2.307h-.916c-.096 0-.174-.07-.174-.155 0-.086.083-.152.174-.152h.916c.096 0 .174.07.174.156s-.078.155-.174.155zm10.204 0h-1.272c-.097 0-.174-.07-.174-.155 0-.086.077-.152.174-.152h1.272c.096 0 .174.07.174.156s-.078.155-.174.155zm-2.55 0H8.932c-.097 0-.174-.07-.174-.155 0-.086.077-.152.174-.152h1.272c.096 0 .174.07.174.156s-.078.155-.174.155zm-2.55 0H6.382c-.096 0-.174-.07-.174-.155 0-.086.082-.152.174-.152h1.272c.096 0 .174.07.174.156s-.078.155-.174.155zm-2.55 0H3.832c-.096 0-.174-.07-.174-.155 0-.086.082-.152.178-.152H5.11c.096 0 .174.07.174.156s-.078.155-.174.155zm9.856 0h-.915c-.096 0-.174-.07-.174-.155 0-.086.078-.152.174-.152h.916c.096 0 .174.07.174.156s-.078.155-.174.155zm.866.86c-.096 0-.174-.07-.174-.156v-.814c0-.086.078-.156.174-.156s.174.07.174.156v.818c0 .086-.078.156-.174.156zm0 8.758c-.096 0-.174-.07-.174-.156v-1.093c0-.086.078-.155.174-.155s.174.07.174.155v1.093c0 .086-.078.156-.174.156m0-2.186c-.096 0-.174-.07-.174-.156V8.49c0-.086.078-.156.174-.156s.174.07.174.156v1.093c0 .086-.078.156-.174.156m0-2.187c-.096 0-.174-.07-.174-.155V6.303c0-.086.078-.155.174-.155s.174.07.174.155v1.094c0 .086-.078.155-.174.155m0-2.186c-.096 0-.174-.07-.174-.156V4.117c0-.086.078-.156.174-.156s.174.07.174.156V5.21c0 .086-.078.156-.174.156m0 8.447c-.096 0-.174-.07-.174-.156v-.819c0-.086.078-.155.174-.155s.174.07.174.155v.819c0 .086-.078.156-.174.156"/></g><defs><clipPath id="asa"><path d="M0 2h16v13H0z"/></clipPath></defs></symbol><symbol class="si si-Home_Electricity" viewBox="0 0 16 16" id="Home_Electricity"><g clip-path="url(#ata)"><path d="M11.989 13.145h-1.44a.18.18 0 0 1-.177-.18c0-.1.079-.181.177-.181h1.44c.98 0 1.78-.819 1.78-1.818v-6.47c0-.1.079-.18.176-.18.098 0 .177.08.177.18v6.47c0 1.2-.953 2.175-2.128 2.175zm-6.459.048H4.043c-1.17 0-2.123-.975-2.123-2.179V4.496c0-.1.079-.18.177-.18s.176.08.176.18v6.518c0 1.004.8 1.822 1.775 1.822h1.487c.098 0 .177.081.177.18 0 .1-.08.182-.177.182z"/><path d="M14.684 4.486H1.35c-.163 0-.293-.09-.335-.233a.35.35 0 0 1 .144-.38L7.844.066a.25.25 0 0 1 .344 0l1.887 1.085a.176.176 0 0 1 .065.243.17.17 0 0 1-.237.066L8.016.38 1.428 4.125h13.177L11.53 2.369a.176.176 0 0 1-.065-.242.17.17 0 0 1 .237-.067l3.197 1.836c.098.1.125.257.074.39a.31.31 0 0 1-.288.2m-4.508 3.949H5.902a.18.18 0 0 1-.176-.18c0-.1.079-.181.176-.181h4.275c.098 0 .177.08.177.18s-.08.181-.177.181"/><path d="M7.157 8.388a.18.18 0 0 1-.177-.181V6.494c0-.1.08-.18.177-.18s.176.08.176.18v1.713c0 .1-.079.18-.176.18m1.905.001a.18.18 0 0 1-.177-.181V6.494c0-.1.08-.18.177-.18s.176.08.176.18v1.713c0 .1-.079.18-.176.18"/><path d="M8.077 10.576c-.93 0-1.733-.628-1.97-1.565a.18.18 0 0 1 .125-.219.176.176 0 0 1 .214.129 1.7 1.7 0 0 0 1.728 1.294c.86-.043 1.548-.852 1.51-1.765 0-.1.07-.181.168-.186.097-.01.176.071.18.171.052 1.123-.775 2.084-1.84 2.137h-.11z"/><path d="M9.759 16H4.6a.18.18 0 0 1-.176-.18c0-.1.078-.182.176-.182h5.16c.167 0 .385-.238.385-.485 0-.295-.213-.533-.478-.533H7.064c-.41 0-.73-.352-.73-.794s.349-.847.776-.847h.233c.25 0 .571-.228.571-.49v-1.95c0-.1.079-.182.177-.182s.176.081.176.181v1.95c0 .477-.492.848-.92.848h-.232c-.237 0-.428.219-.428.49 0 .219.144.438.381.438H9.67c.456 0 .828.4.828.894 0 .433-.358.842-.735.842z"/></g><defs><clipPath id="ata"><path d="M0 0h16v16H0z"/></clipPath></defs></symbol><symbol class="si si-Hydrogenicons" viewBox="0 0 16 16" id="Hydrogenicons"><g clip-path="url(#aua)"><path d="M11.039 15.8a4.97 4.97 0 0 1-4.964-4.964c0-2.735 2.229-5.014 4.964-5.014 1.367 0 2.684.557 3.596 1.57.05.102.05.203 0 .253-.05.051-.203.051-.253 0a4.6 4.6 0 0 0-3.343-1.418c-2.532 0-4.61 2.077-4.61 4.61 0 2.532 2.078 4.608 4.61 4.608s4.61-2.076 4.61-4.609c0-.557-.102-1.114-.305-1.62-.05-.102 0-.203.101-.254s.203 0 .254.102a5.2 5.2 0 0 1 .304 1.772c0 2.685-2.229 4.964-4.964 4.964"/><path d="M9.216 7.95v1.62h1.874V7.95h.506v3.849h-.506V9.975H9.216V11.8h-.507V7.95zm2.684 5.672v-.203l.253-.202c.557-.507.81-.81.81-1.114 0-.203-.1-.406-.404-.406a.64.64 0 0 0-.456.203L12 11.697c.152-.1.355-.202.608-.202.456 0 .659.304.659.608 0 .405-.254.76-.76 1.165-.05.05-.203.1-.203.1h.963v.254zM4.404 4.05H2.175v-.405h2.229a.91.91 0 0 0 .912-.912.91.91 0 0 0-.912-.911H2.175v-.405h2.229a1.34 1.34 0 0 1 1.317 1.316A1.34 1.34 0 0 1 4.404 4.05"/><path d="M1.871 4.455h-.303c-.355 0-.659-.254-.659-.608V1.669c0-.355.304-.608.659-.608h.253c.304 0 .608.203.658.507v.253h-.405v-.152c-.05-.152-.152-.253-.304-.253h-.202c-.152 0-.304.1-.304.253v2.178c0 .152.152.253.304.253h.253a.34.34 0 0 0 .304-.203l.05-.202.355.05-.05.203c0 .304-.305.507-.609.507"/><path d="M1.061 2.327H.2a.22.22 0 0 1-.203-.202c0-.102.102-.203.203-.203h.861c.101 0 .203.101.203.203a.22.22 0 0 1-.203.202m0 1.216H.2a.22.22 0 0 1-.203-.203c0-.101.102-.202.203-.202h.861c.101 0 .203.101.203.202a.22.22 0 0 1-.203.203m10.08 2.482a.22.22 0 0 1-.203-.203v-4.71a.51.51 0 0 0-.507-.507c-.253 0-.506.253-.506.507v.911a.22.22 0 0 1-.203.203.22.22 0 0 1-.202-.203v-.911c0-.507.405-.912.911-.912.507 0 .912.405.912.912v4.71a.22.22 0 0 1-.203.203"/><path d="M9.013 4.86a.91.91 0 0 1-.912-.912v-.506c0-.102.102-.203.203-.203s.203.101.203.203v.506c0 .304.253.507.506.507s.507-.254.507-.507V2.023c0-.1.1-.202.202-.202.101 0 .203.101.203.202v1.925a.91.91 0 0 1-.912.912"/><path d="M8.304 3.695a.22.22 0 0 1-.203-.203.51.51 0 0 0-.506-.506H5.67a.22.22 0 0 1-.202-.203c0-.101.1-.202.202-.202h1.925c.506 0 .912.405.912.911a.22.22 0 0 1-.203.203"/></g><defs><clipPath id="aua"><path d="M0 0h16v16H0z"/></clipPath></defs></symbol><symbol class="si si-Infopointicons" viewBox="0 0 16 16" id="Infopointicons"><path stroke="#3D3D3D" stroke-miterlimit="10" stroke-width=".75" d="M22.764 11.2a4.6 4.6 0 1 0 0-9.2 4.6 4.6 0 0 0 0 9.2Z"/><path stroke="#3D3D3D" stroke-linecap="round" stroke-linejoin="round" stroke-width=".75" d="M13.09 19.909h7.971v20.648H13.09V46h21.824v-5.022h-7.55l.334-20.7a5.67 5.67 0 0 0-5.671-5.742H13.09"/></symbol><symbol class="si si-Instagramicons" viewBox="0 0 16 16" id="Instagramicons"><g clip-path="url(#awa)"><path d="M14.005 3.047a1.052 1.052 0 1 0-1.052 1.051c.58 0 1.052-.472 1.052-1.051m-1.569 0a.517.517 0 1 1 1.035 0 .517.517 0 0 1-1.034 0m-.143 4.917a4.19 4.19 0 0 0-4.187-4.187A4.19 4.19 0 0 0 3.92 7.964a4.19 4.19 0 0 0 4.187 4.187 4.19 4.19 0 0 0 4.187-4.187m-7.84 0a3.656 3.656 0 0 1 3.653-3.653 3.656 3.656 0 0 1 3.652 3.653 3.656 3.656 0 0 1-3.652 3.653 3.657 3.657 0 0 1-3.653-3.653"/><path d="M11.6 0H4.4A4.406 4.406 0 0 0 0 4.4v7.2c0 2.071 1.433 3.849 3.485 4.323a.267.267 0 1 0 .12-.52C1.797 14.985.535 13.421.535 11.6V4.4A3.87 3.87 0 0 1 4.4.535h7.198A3.87 3.87 0 0 1 15.466 4.4v7.198a3.87 3.87 0 0 1-3.867 3.866H5.755a.267.267 0 0 0 0 .535H11.6a4.404 4.404 0 0 0 4.4-4.4V4.4C16 1.974 14.026 0 11.6 0"/></g><defs><clipPath id="awa"><path d="M0 0h16v16H0z"/></clipPath></defs></symbol><symbol class="si si-Inteviewicons" viewBox="0 0 16 16" id="Inteviewicons"><path d="M6.432 8.899a3.26 3.26 0 0 1-1.668-.437c-.08-.04-.397 0-.635.04-.397.079-.754.158-.953-.04-.198-.199-.119-.596-.04-.993.04-.239.12-.517.04-.636-.238-.477-.357-.993-.397-1.589 0-.556.12-1.112.318-1.629.278-.556.595-.993.992-1.27.397-.358.914-.597 1.509-.756a3.9 3.9 0 0 1 1.668 0q.714.18 1.429.715a3.7 3.7 0 0 1 1.032 1.272c.238.476.357 1.072.357 1.628 0 .517-.079.993-.278 1.43-.158.437-.436.835-.794 1.192a3.7 3.7 0 0 1-1.19.795c-.398.119-.834.278-1.39.278m-1.787-.755c.12 0 .199 0 .278.04.437.238.953.397 1.509.397.476 0 .953-.12 1.31-.278.397-.159.754-.397 1.112-.715.317-.318.595-.715.714-1.112.199-.398.278-.835.278-1.311 0-.517-.119-1.033-.357-1.47-.278-.517-.556-.914-.953-1.192-.437-.318-.913-.556-1.39-.636a3.2 3.2 0 0 0-1.508 0c-.516.12-.993.358-1.35.676-.357.278-.675.715-.913 1.192a3.9 3.9 0 0 0-.318 1.47c.04.555.159 1.032.397 1.47.08.198.04.516-.04.833-.04.278-.119.636-.04.715.08.08.477 0 .715-.04.199 0 .397-.039.556-.039"/><path d="M8.02 11.084c-.635 0-1.31-.16-1.826-.517a4.1 4.1 0 0 1-1.31-1.31c-.04-.08-.04-.16.04-.2.078-.039.158-.039.198.04.317.477.714.914 1.23 1.232a3.37 3.37 0 0 0 1.668.437c.556 0 1.072-.12 1.509-.358.198-.119.516-.04.833 0 .239.04.636.12.715.04.08-.08 0-.437-.04-.715-.08-.318-.119-.636-.04-.834.318-.596.437-1.311.358-2.026a3.43 3.43 0 0 0-.874-1.828c-.04-.04-.04-.158 0-.198s.16-.04.199 0a3.6 3.6 0 0 1 .953 1.986c.08.755-.04 1.55-.358 2.185-.04.12 0 .397.04.636.08.397.159.794-.04.993-.198.198-.595.119-.992.04-.238-.04-.556-.12-.635-.04-.437.278-.993.437-1.628.437m-5.757 1.35c-.715 0-1.35-.596-1.39-1.35 0-.755.636-1.351 1.39-1.351s1.39.596 1.39 1.35c0 .716-.636 1.351-1.39 1.351m0-2.383c-.596 0-1.072.476-1.072 1.033.04.596.516 1.033 1.072 1.033.596 0 1.072-.477 1.072-1.033 0-.596-.476-1.033-1.072-1.033"/><path d="M4.367 14.5a.17.17 0 0 1-.159-.159 1.78 1.78 0 0 0-.595-1.35 1.96 1.96 0 0 0-1.35-.557 1.9 1.9 0 0 0-1.35.557c-.397.397-.595.873-.595 1.35a.17.17 0 0 1-.16.159.17.17 0 0 1-.158-.159c0-.596.238-1.152.675-1.589s.953-.636 1.588-.636c.596 0 1.191.239 1.588.636.437.437.675.993.675 1.59a.17.17 0 0 1-.159.158m9.37-2.423c-.754 0-1.39-.596-1.39-1.35 0-.756.636-1.352 1.39-1.352s1.39.596 1.39 1.351-.636 1.35-1.39 1.35m0-2.384c-.596 0-1.072.477-1.072 1.033s.476 1.033 1.072 1.033c.595 0 1.072-.477 1.072-1.033s-.476-1.033-1.072-1.033"/><path d="M15.841 14.182a.17.17 0 0 1-.159-.159 1.78 1.78 0 0 0-.595-1.35 1.96 1.96 0 0 0-1.35-.556 1.9 1.9 0 0 0-1.35.556c-.397.397-.595.874-.595 1.35a.17.17 0 0 1-.16.16.17.17 0 0 1-.158-.16c0-.596.238-1.152.675-1.589s.953-.635 1.588-.635c.595 0 1.191.238 1.588.635.437.437.675.993.675 1.59a.17.17 0 0 1-.159.158"/></symbol><symbol class="si si-LED_Bulb" viewBox="0 0 16 16" id="LED_Bulb"><g clip-path="url(#aya)"><path d="M5.089 7.782c.009.01.013.022.022.031-.009-.013-.013-.022-.022-.03M7.99 13.89c-.929 0-2.169-1.058-2.169-1.542V9.636a.58.58 0 0 0-.106-.352c-.05-.075-.032-.182.044-.23a.165.165 0 0 1 .231.044c.111.169.16.333.16.538v2.71c0 .236 1 1.21 1.836 1.21.937 0 1.92-1.005 1.92-1.21V9.592a.9.9 0 0 1 .16-.493c.08-.142.222-.382.364-.622.116-.196.231-.387.316-.538H5.19c.067.102.133.209.196.338.04.08.009.182-.076.222a.165.165 0 0 1-.222-.076c-.085-.169-.173-.298-.258-.426-.044-.04-.062-.138-.027-.227a.27.27 0 0 1 .254-.165h5.822c.111 0 .213.067.253.165a.24.24 0 0 1-.026.231l-.378.644c-.142.24-.28.476-.369.632a.6.6 0 0 0-.111.315v2.756c0 .506-1.245 1.542-2.258 1.542M5.458 6.244a.17.17 0 0 1-.165-.128.167.167 0 0 1 .125-.2l5.11-1.156a.165.165 0 0 1 .2.124.17.17 0 0 1-.124.2L5.494 6.24c-.01 0-.023.004-.036.004m0-1.155a.167.167 0 0 1-.036-.329l5.111-1.2a.165.165 0 0 1 .2.124.167.167 0 0 1-.124.2l-5.111 1.2c-.014 0-.027.005-.04.005m0-1.022a.167.167 0 0 1-.036-.329l5.067-1.2a.165.165 0 0 1 .2.124.167.167 0 0 1-.125.2l-5.066 1.2c-.014 0-.027.005-.04.005m0-1.023a.167.167 0 0 1-.036-.329l2.667-.622c.04-.013.049-.03.049-.066v-.218a.169.169 0 1 1 .338 0v.222c0 .173-.107.333-.272.373l-2.706.636z"/><path d="M8.969 7.933a.166.166 0 0 1-.16-.129c-.009-.03-.178-.777.262-1.328.293-.374.787-.565 1.458-.565a.169.169 0 1 1 0 .338c-.565 0-.965.147-1.191.435-.338.427-.2 1.045-.2 1.05a.167.167 0 0 1-.125.2c-.017-.005-.03 0-.044 0m-1.911-.001q-.02.001-.04-.004a.167.167 0 0 1-.125-.2c0-.005.138-.622-.2-1.049-.23-.289-.63-.436-1.19-.436a.169.169 0 1 1 0-.337c.67 0 1.16.19 1.457.564.44.556.271 1.298.262 1.329a.174.174 0 0 1-.164.133m2.266 2.045H6.702a.169.169 0 1 1 0-.338h2.622a.169.169 0 1 1 0 .338m0 2.355H6.702a.169.169 0 1 1 0-.337h2.622a.169.169 0 1 1 0 .337m0-1.155H6.702a.17.17 0 0 1-.169-.165.17.17 0 0 1 .17-.169h2.621a.17.17 0 0 1 .17.17.17.17 0 0 1-.17.164m-1.333 3.333q-.454 0-.689-.267c-.23-.262-.19-.617-.19-.635.012-.093.092-.16.186-.142a.17.17 0 0 1 .146.186s-.022.227.112.374c.088.097.235.15.435.15q.301.002.436-.15c.133-.147.11-.374.11-.374a.17.17 0 0 1 .147-.186.17.17 0 0 1 .187.142c0 .013.045.369-.187.635q-.24.267-.693.267"/></g><defs><clipPath id="aya"><path d="M0 0h16v16H0z"/></clipPath></defs></symbol><symbol class="si si-Lightbulbicons" viewBox="0 0 16 16" id="Lightbulbicons"><g clip-path="url(#aza)"><path d="M9.643 13.12c-.121 0-.243-.128-.243-.256 0-.64.426-1.152.913-1.856.67-.896 1.46-1.92 1.46-3.392 0-.64-.06-1.216-.243-1.728-.06-.128 0-.256.122-.32s.244 0 .305.128c.182.576.304 1.216.304 1.856 0 1.664-.852 2.816-1.583 3.712-.426.576-.852 1.088-.852 1.536.061.192-.06.32-.183.32m-2.86 0c-.122 0-.183-.064-.244-.192-.122-1.024-.609-1.664-1.096-2.304-.608-.768-1.217-1.6-1.217-3.136 0-2.624 1.644-4.416 4.078-4.416.974 0 1.887.32 2.557.96.122.064.122.256 0 .32a.169.169 0 0 1-.305 0c-.608-.576-1.4-.832-2.252-.832-2.191 0-3.652 1.6-3.652 3.968 0 1.344.548 2.048 1.096 2.816.548.704 1.035 1.408 1.217 2.56.061.064 0 .192-.182.256m.121 1.152c-.121 0-.182-.064-.243-.192 0-.128.06-.256.182-.256l2.496-.448c.122 0 .244.064.244.192s-.061.256-.183.256zc.061 0 .061-.064 0 0m.305.704c-.122 0-.183-.064-.244-.192 0-.128.061-.256.183-.256l2.191-.448c.122 0 .244.064.244.192s-.061.256-.183.256zm.426.768c-.122 0-.183-.064-.244-.192 0-.128.061-.256.183-.256l1.704-.32c.122 0 .244.064.244.192s-.061.256-.183.256zM8.243 2.56C8.122 2.56 8 2.432 8 2.304V.64c0-.128.122-.256.243-.256.122 0 .244.128.244.256v1.664c0 .128-.122.256-.244.256m6.453 4.928h-1.583c-.122 0-.243-.128-.243-.256s.121-.256.243-.256h1.583c.121 0 .243.128.243.256s-.122.256-.243.256M3.374 7.424H1.79c-.121 0-.243-.128-.243-.256s.122-.256.243-.256h1.583c.122 0 .243.128.243.256s-.121.256-.243.256m1.218-3.712c-.06 0-.06 0-.121-.064l-1.34-.896c-.06-.064-.121-.192-.06-.32.06-.128.182-.128.304-.064l1.339.896c.122.064.122.192.06.32-.06.128-.12.128-.182.128m7.183 0c-.061 0-.122-.064-.183-.128-.06-.128-.06-.256.061-.32l1.34-.896c.121-.064.243-.064.304.064.06.128.06.256-.061.32l-1.34.896c0 .064-.06.064-.121.064m-8.765 8.064c-.061 0-.122-.064-.183-.128-.06-.128 0-.256.061-.32l1.34-.896c.12-.064.243-.064.303.064.061.128.061.256-.06.32l-1.34.896s-.06.064-.121.064m10.651-.128c-.06 0-.06 0-.12-.064l-1.34-.896c-.122-.064-.122-.192-.06-.32.06-.128.182-.128.303-.064l1.34.896c.121.064.121.192.06.32-.06.064-.121.128-.182.128"/></g><defs><clipPath id="aza"><path d="M1 0h14v16H1z"/></clipPath></defs></symbol><symbol class="si si-Mailicons" viewBox="0 0 16 16" id="Mailicons"><g clip-path="url(#baa)"><mask id="bab" width="18" height="12" x="-1" y="1.6" maskUnits="userSpaceOnUse"><path d="M-1 1.6h18v12H-1z"/><path fill-rule="evenodd" d="M14.809 2.6H1.19C.511 2.6 0 3.12 0 3.814v8.239c0 .65.51 1.214 1.191 1.214H14.81A1.2 1.2 0 0 0 16 12.053V3.814c-.043-.694-.553-1.214-1.191-1.214m-.17.65-6.64 4.9-6.723-4.9zm.17 9.323c.255 0 .51-.217.51-.52V3.814c0-.087 0-.173-.042-.217L8.213 8.844a.314.314 0 0 1-.383 0L.723 3.64c-.042.043-.042.13-.042.173v8.239c0 .26.212.52.51.52z"/></mask><path fill-rule="evenodd" d="M14.809 2.6H1.19C.511 2.6 0 3.12 0 3.814v8.239c0 .65.51 1.214 1.191 1.214H14.81A1.2 1.2 0 0 0 16 12.053V3.814c-.043-.694-.553-1.214-1.191-1.214m-.17.65-6.64 4.9-6.723-4.9zm.17 9.323c.255 0 .51-.217.51-.52V3.814c0-.087 0-.173-.042-.217L8.213 8.844a.314.314 0 0 1-.383 0L.723 3.64c-.042.043-.042.13-.042.173v8.239c0 .26.212.52.51.52z"/><path d="M16 3.814h.1v-.006zM8 8.15l-.059.081.06.043.058-.043zm6.638-4.9.06.08.244-.18h-.304zm-13.362 0v-.1H.97l.249.181zm14 .347.072-.07-.061-.062-.07.052zM8.214 8.844l.056.083.003-.003zm-.383 0-.06.08.004.003zM.723 3.64l.06-.081-.07-.051-.061.062zm.468-.941H14.81v-.2H1.19zM.1 3.814C.1 3.174.568 2.7 1.19 2.7v-.2C.454 2.5-.1 3.067-.1 3.814zm0 8.239V3.814h-.2v8.239zm1.091 1.114C.57 13.167.1 12.652.1 12.053h-.2c0 .701.551 1.314 1.291 1.314zm13.618 0H1.19v.2h13.62zm1.091-1.114a1.1 1.1 0 0 1-1.091 1.114v.2a1.3 1.3 0 0 0 1.291-1.314zm0-8.239v8.239h.2V3.814zM14.809 2.7c.578 0 1.051.472 1.091 1.12l.2-.012c-.046-.74-.593-1.308-1.292-1.308zm-6.75 5.53 6.639-4.9-.12-.16-6.637 4.9zM1.218 3.332l6.723 4.9.118-.162-6.724-4.9zm13.42-.18H1.276v.2h13.362zm.581 8.902c0 .244-.207.42-.41.42v.2c.306 0 .61-.258.61-.62zm0-8.239v8.239h.2v-8.24zm-.014-.147c-.001-.001.005.005.01.036q.005.044.004.111h.2c0-.041 0-.092-.006-.138a.26.26 0 0 0-.065-.149zM8.272 8.924l7.064-5.246-.12-.161-7.063 5.247zm-.498.003c.076.052.16.082.247.082a.44.44 0 0 0 .248-.082l-.113-.166a.24.24 0 0 1-.135.048.24.24 0 0 1-.135-.048zM.664 3.72l7.107 5.204.118-.162L.782 3.56zm.117.093q-.001-.034.004-.07c.004-.026.01-.034.01-.033l-.143-.14a.26.26 0 0 0-.065.14c-.006.042-.006.082-.006.103zm0 8.239V3.814h-.2v8.239zm.41.42a.423.423 0 0 1-.41-.42h-.2c0 .308.25.62.61.62zm13.618 0H1.19v.2h13.62z" mask="url(#bab)"/></g><defs><clipPath id="baa"><path d="M0 0h16v16H0z"/></clipPath></defs></symbol><symbol class="si si-Neutral_line" viewBox="0 0 16 16" id="Neutral_line"><g clip-path="url(#bba)"><path d="M15.975 7.361c-.173-2.002-.921-3.604-2.245-4.862-.057-.115-.23-.115-.287 0a.162.162 0 0 0 0 .286c1.266 1.201 1.956 2.688 2.129 4.634.345 4.176-2.705 7.78-6.963 8.18-4.201.344-7.884-2.745-8.23-6.922C.034 4.501 3.084.897 7.343.497c1.726-.172 3.222.17 4.603 1.086.115.057.23.057.288-.057s0-.229-.057-.286Q10.018-.22 7.343.039C2.853.439-.37 4.272.034 8.677.379 12.854 3.89 16 8.091 16h.633c4.373-.4 7.596-4.233 7.25-8.639"/><path fill-rule="evenodd" d="M4.02 7.989c0-.118.097-.214.217-.213l7.71.057c.12.001.216.098.215.216a.215.215 0 0 1-.217.213l-7.712-.057a.215.215 0 0 1-.214-.216"/></g><defs><clipPath id="bba"><path d="M0 0h16v16H0z"/></clipPath></defs></symbol><symbol class="si si-No_X" viewBox="0 0 16 16" id="No_X"><g clip-path="url(#bca)"><path d="M15.966 7.335c-.172-1.995-.917-3.591-2.236-4.845-.058-.057-.23-.114-.287 0-.057.057-.115.228 0 .285 1.262 1.197 1.95 2.679 2.122 4.617.344 4.162-2.695 7.753-6.939 8.152-4.185.342-7.855-2.736-8.2-6.898C.084 4.485 3.123.894 7.366.495c1.72-.171 3.211.228 4.587 1.083.115.057.23.057.287-.057s0-.228-.057-.285Q10.03-.22 7.365.038C2.892.495-.32 4.257.025 8.703.37 12.865 3.867 16 8.053 16h.63c4.473-.456 7.685-4.275 7.283-8.665"/><path fill-rule="evenodd" d="M4.065 4.063a.22.22 0 0 1 .308.001l7.564 7.567a.215.215 0 0 1-.002.306.22.22 0 0 1-.308-.001L4.063 4.369a.216.216 0 0 1 .002-.306"/><path fill-rule="evenodd" d="M11.94 4.068a.227.227 0 0 1-.005.313l-7.573 7.557a.21.21 0 0 1-.302-.006.227.227 0 0 1 .005-.313l7.573-7.557a.21.21 0 0 1 .302.006"/></g><defs><clipPath id="bca"><path d="M0 0h16v16H0z"/></clipPath></defs></symbol><symbol class="si si-Nuclear akwicons" viewBox="0 0 16 16" id="Nuclear_akwicons"><g clip-path="url(#bda)"><path d="M8.637 15.673H.702c-.216 0-.378-.108-.54-.216a1.04 1.04 0 0 1-.162-.54c0-.054 1.08-4.696 1.35-6.208.162-1.134.431-4.48.431-4.534.054-.378.378-.648.702-.648h4.265c.27 0 .54.216.594.486 0 .054.324 3.454.54 4.534.27 1.566 1.403 6.208 1.457 6.262a.61.61 0 0 1-.162.594.67.67 0 0 1-.54.27m-6.1-11.768c-.162 0-.27.108-.324.27 0 .107-.27 3.4-.432 4.534-.27 1.566-1.35 6.208-1.35 6.262s0 .162.055.216c.054.054.108.108.216.108h7.99c.107 0 .161-.054.27-.108.107-.054.107-.162.053-.27 0-.054-1.134-4.696-1.457-6.262-.216-1.134-.486-4.427-.54-4.588 0-.054-.108-.162-.216-.162zm12.848 8.637H9.501a.49.49 0 0 1-.432-.216.42.42 0 0 1-.108-.432c0-.054.81-3.455.972-4.589.108-.81.324-3.292.324-3.346.054-.324.27-.486.594-.486h3.13c.27 0 .432.162.486.432 0 0 .054.54.108 1.187 0 .108-.054.216-.162.216s-.216-.054-.216-.162c-.054-.648-.108-1.187-.108-1.187 0-.054-.053-.054-.107-.054H10.85q-.163 0-.163.162c0 .107-.215 2.483-.323 3.346-.216 1.134-.972 4.481-.972 4.589 0 .054 0 .108.054.108s.054.054.108.054h5.83c.054 0 .108-.054.162-.054 0 0 .054-.054.054-.162-.054-.108-.864-3.455-1.08-4.589 0-.107.054-.215.162-.215s.216.054.216.161c.216 1.134 1.026 4.589 1.08 4.589a.52.52 0 0 1-.108.486.87.87 0 0 1-.486.162"/><path d="M2.537 3.905a.23.23 0 0 1-.216-.216c0-.108.108-.216.216-.216.864 0 1.512-.216 1.998-.648.27-.216.377-.486.54-.756.161-.27.323-.594.647-.917C6.208.666 6.856.396 7.72.342c.107 0 .215.054.215.162S7.881.72 7.773.72a2.95 2.95 0 0 0-1.727.701c-.27.27-.432.54-.594.81s-.324.594-.648.864q-.81.81-2.267.81m2.375 0a.23.23 0 0 1-.216-.216c0-.108.108-.216.216-.216.54 0 .972-.162 1.242-.378.162-.162.216-.27.324-.486.108-.162.216-.378.432-.594.324-.324.756-.486 1.295-.54.108 0 .216.054.216.162s-.054.216-.162.216c-.432.054-.81.216-1.08.432-.161.162-.27.324-.377.486a2.1 2.1 0 0 1-.432.594c-.27.378-.81.54-1.458.54m5.993 0c-.108 0-.162-.108-.162-.216s.107-.216.162-.216c.593 0 1.08-.162 1.403-.486.162-.162.27-.378.378-.594s.216-.486.486-.702q.567-.566 1.457-.647c.108 0 .216.054.216.162 0 .107-.054.215-.162.215a2.37 2.37 0 0 0-1.241.54c-.216.216-.324.378-.378.594-.108.216-.216.432-.432.702-.486.432-1.026.648-1.727.648"/><path d="M12.416 3.905a.23.23 0 0 1-.216-.216c0-.108.108-.216.216-.216.378 0 .702-.108.918-.27.108-.108.162-.216.27-.324q.081-.243.324-.486c.27-.27.593-.378 1.025-.432.108 0 .216.054.216.162s-.054.216-.162.216a1.8 1.8 0 0 0-.81.324c-.107.108-.215.216-.27.378a1.3 1.3 0 0 1-.323.486c-.27.216-.702.378-1.188.378M7.072 4.93H1.997a.23.23 0 0 1-.216-.216c0-.108.108-.216.216-.216h5.075c.108 0 .216.108.216.216a.23.23 0 0 1-.216.216m7.18 0h-3.78a.23.23 0 0 1-.215-.216c0-.108.108-.216.216-.216h3.778c.108 0 .216.108.216.216a.23.23 0 0 1-.216.216"/></g><defs><clipPath id="bda"><path d="M0 0h16v16H0z"/></clipPath></defs></symbol><symbol class="si si-PV_Panel_Sun" viewBox="0 0 16 16" id="PV_Panel_Sun"><g clip-path="url(#bea)"><path d="M8.001 12.691h-6.71c-.524 0-.982-.458-.982-.978l.425-3.378c0-.501.458-.96.978-.96h5.911c.52 0 .978.459.978.979l.43 3.364v.028c-.109.468-.496.94-1.03.94zM1.717 7.73a.65.65 0 0 0-.624.624l-.425 3.378c0 .307.298.605.628.605h6.71c.335 0 .59-.317.67-.633l-.42-3.322c0-.35-.298-.647-.628-.647H1.717zm6.005 8.278q-.079.001-.18-.005c-.075 0-.16-.005-.25-.005H2q-.13-.001-.26.005c-.35.014-.51.014-.609-.08l-.052-.052-.01-.16.61-.714c.028-.029.213-.203.605-.203h4.678c.34 0 .576.094.633.24l.486.68v.133l-.066.08c-.066.067-.16.08-.293.08m-5.438-.865c-.241 0-.345.09-.35.095l-.354.415h.146c.09 0 .185-.004.274-.004h5.292q.144-.001.265.005h.047l-.326-.454a.8.8 0 0 0-.316-.047H2.284z"/><path d="M8.658 10.896H.63a.18.18 0 1 1 0-.36h8.028a.18.18 0 1 1 0 .36m-.279-1.512H.866a.18.18 0 1 1 0-.36H8.38a.18.18 0 1 1 0 .36"/><path d="M1.859 12.691a.18.18 0 0 1-.18-.18V7.787a.18.18 0 1 1 .36 0v4.724c0 .1-.081.18-.18.18m.756 0a.18.18 0 0 1-.18-.18V7.787a.18.18 0 1 1 .36 0v4.724c0 .1-.081.18-.18.18m1.653 0a.18.18 0 0 1-.18-.18V7.787a.18.18 0 1 1 .36 0v4.724c0 .1-.08.18-.18.18m.378 2.409a.18.18 0 0 1-.18-.179v-2.41a.18.18 0 1 1 .36 0v2.41c0 .1-.08.18-.18.18m.378-2.41a.18.18 0 0 1-.18-.18V7.787a.18.18 0 1 1 .36 0v4.724c0 .1-.08.18-.18.18m1.606 0a.18.18 0 0 1-.179-.18V7.787a.18.18 0 1 1 .36 0v4.724c0 .1-.081.18-.18.18m.756 0a.18.18 0 0 1-.18-.18V7.787a.18.18 0 1 1 .36 0v4.724c0 .1-.081.18-.18.18m3.255-4.81c-1.502 0-2.778-1.27-2.778-2.778 0-1.507 1.271-2.778 2.778-2.778.544 0 1.059.165 1.564.5.08.057.104.166.047.246a.175.175 0 0 1-.245.047c-.454-.302-.889-.444-1.366-.444-1.313 0-2.424 1.11-2.424 2.42 0 1.308 1.11 2.419 2.424 2.419s2.42-1.11 2.42-2.42c0-.326-.076-.68-.223-1.015a.173.173 0 0 1 .095-.232c.09-.038.194 0 .231.095.166.382.25.784.25 1.157 0 1.503-1.27 2.778-2.777 2.778zm4.82-2.599h-1.276a.18.18 0 1 1 0-.359h1.276a.18.18 0 1 1 0 .36m-8.363-.001H5.823a.18.18 0 1 1 0-.359h1.276a.18.18 0 1 1 0 .36m5.858-2.788a.18.18 0 0 1-.141-.071.174.174 0 0 1 .037-.246c.005-.005.199-.156.927-.879.07-.07.184-.07.25 0 .07.071.07.18 0 .25-.756.757-.954.908-.964.917a.2.2 0 0 1-.104.033zm-2.523-.837h-.019a.177.177 0 0 1-.155-.198c0-.01.023-.25 0-1.28 0-.1.075-.18.174-.18.1 0 .18.076.18.175.023 1.068 0 1.318 0 1.328a.175.175 0 0 1-.175.155zm.194 8.552h-.019a.177.177 0 0 1-.156-.198c0-.01.024-.25 0-1.28 0-.1.076-.18.175-.18.1 0 .18.076.18.175.023 1.068 0 1.318 0 1.328a.174.174 0 0 1-.175.155zm-2.57-7.715a.18.18 0 0 1-.142-.071c-.005-.005-.156-.199-.893-.917a.174.174 0 0 1 0-.25.173.173 0 0 1 .25 0c.766.746.922.945.926.954a.176.176 0 0 1-.033.25.2.2 0 0 1-.108.039zm6.118 5.972a.18.18 0 0 1-.141-.07c-.005-.01-.156-.2-.893-.917a.174.174 0 0 1 0-.25.17.17 0 0 1 .25 0c.766.746.921.944.926.954a.176.176 0 0 1-.033.25.2.2 0 0 1-.109.038z"/></g><defs><clipPath id="bea"><path d="M0 0h16v16H0z"/></clipPath></defs></symbol><symbol class="si si-Renewablesicons" viewBox="0 0 16 16" id="Renewablesicons"><g clip-path="url(#bga)"><path d="M14.76 15.685H9.228a.675.675 0 0 1-.691-.69l.444-2.664c0-.345.296-.641.691-.641h4.691c.395 0 .692.296.692.69l.444 2.615c-.05.345-.346.69-.74.69m-5.087-3.65c-.148 0-.247.148-.247.296l-.444 2.664c0 .099.099.197.247.197h5.53c.149 0 .247-.098.247-.247l-.444-2.614c0-.148-.099-.296-.247-.296z"/><path d="m9.823 15.274.196-3.35.444.027-.197 3.348zm1.332-3.337h.444v3.255h-.444z"/><path d="m8.979 13.32 6.024-.1.007.443-6.023.1z"/><path d="M12.34 11.937h.444v3.255h-.444zm1.184.007.445-.013.099 3.254-.445.013zM5.081 6.758l-.395-.05.346-5.08c0-.444.345-.79.84-.79.493 0 .839.346.839.84l.296 5.03-.444.05-.346-5.08c0-.198-.148-.396-.346-.396a.337.337 0 0 0-.345.346z"/><path d="M10.315 11.098c-.148 0-.345-.05-.444-.148L5.575 8.435l.148-.444 4.395 2.565c.197.098.395.098.493-.1a.38.38 0 0 0-.098-.492l-3.95-3.207.246-.345 4 3.206c.346.247.445.74.198 1.135a.94.94 0 0 1-.692.345"/><path d="M1.328 11.098c-.246.05-.493-.099-.69-.345-.248-.395-.149-.888.197-1.135l3.95-3.206.296.345-4 3.207c-.197.098-.197.345-.098.493a.38.38 0 0 0 .494.098l4.246-2.564.247.394-4.247 2.516c-.197.098-.197.148-.395.197"/><path d="M5.822 7.695a.444.444 0 1 0 0-.888.444.444 0 0 0 0 .888m.691 8.138H5.328c-.247 0-.494-.197-.494-.69l.346-4.785c0-.148.099-.246.247-.197.148 0 .247.099.197.247l-.345 4.784c0 .148.05.197.05.197h1.184c.05 0 .05-.049.05-.049l-.346-4.932c0-.148.099-.247.197-.247.149 0 .247.099.247.197l.346 4.933c0 .296-.247.542-.494.542m5.234-14.255a.21.21 0 0 1-.197-.197V.247c0-.099.098-.198.197-.198s.198.099.198.198V1.43c0 .1-.099.148-.198.148"/><path d="M11.747 1.677c-.148 0-.247-.099-.247-.247V.247c0-.148.1-.247.247-.247.148 0 .247.099.247.247V1.43c0 .1-.099.247-.247.247m0-1.578c-.05 0-.099.049-.099.098v1.184c0 .05.05.099.1.099.049 0 .098-.05.098-.099V.247c0-.05-.05-.148-.099-.148m0 6.856a.21.21 0 0 1-.197-.197V5.574c0-.099.098-.198.197-.198s.197.1.197.198v1.184c0 .148-.098.197-.197.197"/><path d="M11.747 7.054a.234.234 0 0 1-.247-.247V5.623c0-.148.1-.247.247-.247.148 0 .247.1.247.247v1.184c0 .099-.099.246-.247.246m0-1.579c-.05 0-.098.05-.098.099v1.184c0 .049.049.098.098.098.05 0 .099-.05.099-.098V5.574c0-.05-.05-.099-.099-.099m1.926-1.973c0-.099.099-.197.197-.197h1.186c.098 0 .197.098.197.197a.21.21 0 0 1-.197.197H13.87c-.149 0-.198-.098-.198-.197"/><path d="M13.574 3.502c0-.148.099-.247.247-.247h1.185c.148 0 .247.1.247.247 0 .148-.099.247-.247.247h-1.185c-.099 0-.247-.099-.247-.247m1.58 0c0-.05-.049-.099-.098-.099H13.87c-.05 0-.1.05-.1.1 0 .048.05.098.1.098h1.185c0 .05.098 0 .098-.099m-6.863 0c0-.099.1-.197.198-.197h1.185c.1 0 .198.098.198.197a.21.21 0 0 1-.198.197H8.488c-.148 0-.197-.098-.197-.197"/><path d="M8.192 3.502c0-.148.099-.247.247-.247h1.185c.148 0 .247.1.247.247 0 .148-.099.247-.247.247H8.439c-.099 0-.247-.099-.247-.247m1.58 0c0-.05-.05-.099-.099-.099H8.488c-.05 0-.098.05-.098.1 0 .048.049.098.098.098h1.185c.05.05.1 0 .1-.099m3.307-1.381c-.049-.05-.098-.197 0-.247l.79-.838c.05-.05.198-.099.247 0 .05.05.1.197 0 .246l-.79.839c-.049.099-.197.099-.246 0"/><path d="M13.031 2.17a.24.24 0 0 1 0-.345l.79-.839a.24.24 0 0 1 .346 0 .24.24 0 0 1 0 .346l-.79.838a.24.24 0 0 1-.346 0m1.086-1.085a.15.15 0 0 0-.197 0l-.79.839a.15.15 0 0 0 0 .197c.05.05.148.05.197 0l.79-.839c.05-.098.05-.148 0-.197M9.328 6.018c-.05-.05-.1-.198 0-.247l.79-.839c.05-.049.197-.098.247 0 .049.05.098.198 0 .247l-.79.839c-.05.049-.149.049-.247 0"/><path d="M9.328 6.067a.24.24 0 0 1 0-.345l.79-.839a.24.24 0 0 1 .345 0 .24.24 0 0 1 0 .345l-.79.839c-.098.099-.296.099-.345 0m1.037-1.135a.15.15 0 0 0-.198 0l-.79.839a.15.15 0 0 0 0 .197c.05.05.148.05.198 0l.79-.838a.15.15 0 0 0 0-.198m.049-2.811c.05-.05.099-.197 0-.247l-.79-.838c-.05-.05-.198-.099-.247 0-.05.05-.099.197 0 .246l.79.839c.05.099.198.099.247 0"/><path d="m10.118 2.17-.79-.838a.24.24 0 0 1 0-.345.24.24 0 0 1 .345 0l.79.838a.24.24 0 0 1 0 .345.24.24 0 0 1-.345 0m-.74-.937.79.839c.049.049.147.049.197 0a.15.15 0 0 0 0-.198l-.79-.838a.15.15 0 0 0-.198 0 .15.15 0 0 0 0 .197m4.74 4.785c.05-.05.1-.198 0-.247l-.79-.839c-.05-.049-.197-.098-.247 0-.049.05-.098.198 0 .247l.79.839c.1.049.198.049.247 0"/><path d="m13.821 6.067-.79-.839a.24.24 0 0 1 0-.345.24.24 0 0 1 .346 0l.79.839a.24.24 0 0 1 0 .345.24.24 0 0 1-.346 0m-.691-.937.79.838c.05.05.148.05.197 0a.15.15 0 0 0 0-.197l-.79-.839a.15.15 0 0 0-.197 0 .15.15 0 0 0 0 .198m-1.383-.296c-.74 0-1.333-.592-1.333-1.332s.593-1.332 1.333-1.332c.247 0 .494.05.692.198.098.049.098.148.049.246-.05.099-.148.099-.247.05a.95.95 0 0 0-.494-.148.937.937 0 0 0-.938.937c0 .493.445.937.938.937.494 0 .938-.444.938-.937 0-.099 0-.198-.049-.296-.05-.099 0-.197.099-.247s.197 0 .247.099c.05.148.05.246.05.394 0 .839-.544 1.43-1.285 1.43"/></g><defs><clipPath id="bga"><path d="M0 0h16v16H0z"/></clipPath></defs></symbol><symbol class="si si-Schweizicons" viewBox="0 0 16 16" id="Schweizicons"><path stroke="#3D3D3D" stroke-linecap="round" stroke-miterlimit="10" stroke-width=".6" d="M10.514 4.256a1.5 1.5 0 0 1-.596-.255c-.17-.127-.34-.383-.553-.468-.212-.085-.467 0-.638.17s-.042.426-.127.681c-.17.468-.893.17-1.361.213-.383 0-.723-.085-1.02-.298"/><path stroke="#3D3D3D" stroke-linecap="round" stroke-miterlimit="10" stroke-width=".6" d="M6.218 4.299c-.255.042-.383.51-.638.68-.255.213-.595-.127-.893-.212-.34-.085-.723.17-.808.51-.043.213.042.425 0 .638-.043.298-.255.553-.51.766-.256.212-.51.34-.723.595-.17.213-.298.51-.256.808 0 .128 0 .298-.085.383s-.17.085-.255.085c-.425.085-.808.468-.808.893 0 .383.17.808-.085 1.106-.085.085-.17.127-.255.213s-.128.212-.085.297c.042.043.085.043.127.085.426.128.893-.085 1.064-.468.085-.17.085-.382.212-.552.128-.213.383-.34.638-.383s.596-.17.766.042c.425.468.127 1.276.34 1.872.085.17.128.383.298.468.17.127.382.127.595.127.638-.042 1.234-.17 1.829-.298.255-.042.553-.127.723-.297.255-.298.043-.766.17-1.149.128-.382.723-.467 1.148-.297.383.127.256.638.468.978.17.255.638-.17.85.042.299.256.213.723.299 1.106 0 .043.042.128.085.17.085.085.212 0 .297-.042.256-.213.383-.51.34-.808 0-.128-.042-.213 0-.34.043-.086.17-.17.256-.256.17-.17.17-.467.127-.723a.96.96 0 0 1 .043-.595c.085-.17.298-.34.468-.255.255.127.212.51.383.765.212.298.85.425 1.063.128.085-.128.255-.213.383-.128.127.085.255.383.382.298.426-.298-.467-1.063-.212-1.489.127-.255.553 0 .85-.042.085 0 .128 0 .17-.043s.043-.127.043-.212c0-.468.213-1.021 0-1.446-.085-.17-.34 0-.468.127-.127.128-.213.298-.383.34-.34.17-.723-.127-.808-.467-.042-.085-.042-.17-.127-.213-.128-.128-.34-.043-.51-.043-.383 0-.681-.467-.554-.85.085-.213.298-.34.34-.553.086-.213-.042-.51-.212-.68a1 1 0 0 0-.213-.17"/></symbol><symbol class="si si-Screenicons" viewBox="0 0 16 16" id="Screenicons"><path stroke="#3D3D3D" stroke-linecap="round" stroke-linejoin="round" stroke-miterlimit="10" stroke-width=".5" d="M15 5.514v5.185c0 .389-.26.648-.648.648H1.648c-.389 0-.648-.259-.648-.648V2.403c0-.39.26-.648.648-.648h12.704c.389 0 .648.259.648.648zm-4.732 8.555H6.057l.648-1.944h2.981z"/></symbol><symbol class="si si-Search-Nav whiteicons" viewBox="0 0 16 16" id="Search-Nav_whiteicons"><g clip-path="url(#bka)"><path fill-rule="evenodd" d="M1.6 7a5.4 5.4 0 1 1 10.8 0A5.4 5.4 0 0 1 1.6 7M7 .4a6.6 6.6 0 1 0 4.406 11.514.6.6 0 0 0 .17.51l3 3a.6.6 0 0 0 .848-.848l-3-3a.6.6 0 0 0-.51-.17A6.6 6.6 0 0 0 7 .4"/></g><defs><clipPath id="bka"><path d="M0 0h16v16H0z"/></clipPath></defs></symbol><symbol class="si si-Search-Navicons" viewBox="0 0 16 16" id="Search-Navicons"><g clip-path="url(#bla)"><path fill-rule="evenodd" d="M1.6 7a5.4 5.4 0 1 1 10.8 0A5.4 5.4 0 0 1 1.6 7M7 .4a6.6 6.6 0 1 0 4.406 11.514.6.6 0 0 0 .17.51l3 3a.6.6 0 1 0 .848-.848l-3-3a.6.6 0 0 0-.51-.17A6.6 6.6 0 0 0 7 .4"/></g><defs><clipPath id="bla"><path d="M0 0h16v16H0z"/></clipPath></defs></symbol><symbol class="si si-Search_white" viewBox="0 0 16 16" id="Search_white"><g clip-path="url(#bja)"><mask id="bjb" width="16" height="16" x="0" y="0" maskUnits="userSpaceOnUse"><path d="M0 0h16v16H0z"/><path fill-rule="evenodd" d="m11.032 10.596 3.86 3.865c.135.134.135.36.045.45-.09.044-.18.089-.269.089a.34.34 0 0 1-.224-.09l-3.86-3.865c-2.29 2.022-5.746 1.932-7.9-.225a5.756 5.756 0 0 1 0-8.135 5.74 5.74 0 0 1 8.124 0c2.154 2.158 2.244 5.618.224 7.91m-7.9-7.416c-1.975 1.977-1.975 5.213 0 7.19.943.99 2.244 1.484 3.591 1.484s2.648-.54 3.591-1.483c1.975-1.978 1.975-5.214 0-7.191a5.09 5.09 0 0 0-7.182 0"/></mask><path fill-rule="evenodd" d="m11.032 10.596 3.86 3.865c.135.134.135.36.045.45-.09.044-.18.089-.269.089a.34.34 0 0 1-.224-.09l-3.86-3.865c-2.29 2.022-5.746 1.932-7.9-.225a5.756 5.756 0 0 1 0-8.135 5.74 5.74 0 0 1 8.124 0c2.154 2.158 2.244 5.618.224 7.91m-7.9-7.416c-1.975 1.977-1.975 5.213 0 7.19.943.99 2.244 1.484 3.591 1.484s2.648-.54 3.591-1.483c1.975-1.978 1.975-5.214 0-7.191a5.09 5.09 0 0 0-7.182 0"/><path d="m14.893 14.46.106-.105zm-3.86-3.865-.113-.099-.093.106.1.1zm3.904 4.315.068.134.021-.01.018-.018zm-.493 0-.107.106zm-3.86-3.865.106-.106-.1-.1-.106.093zm-7.9-.225-.107.106zm0-8.135.105.106zm8.124 0-.106.106zm-7.676 7.686.109-.104-.003-.002zm0-7.191-.106-.106zm7.182 7.19-.106-.105zm0-7.19-.106.106zm4.685 11.175-3.86-3.866-.213.212 3.86 3.866zm.045.661a.42.42 0 0 0 .105-.324.53.53 0 0 0-.15-.337l-.213.212a.23.23 0 0 1 .064.145c.003.059-.015.088-.019.092zm-.376.134c.132 0 .256-.065.337-.106l-.135-.268c-.098.05-.154.074-.202.074zm-.33-.134a.5.5 0 0 0 .33.134v-.3a.2.2 0 0 1-.07-.016.2.2 0 0 1-.048-.03zm-3.86-3.865 3.86 3.865.212-.212-3.86-3.865zm-7.9-.225c2.21 2.214 5.757 2.306 8.105.231l-.199-.225c-2.23 1.971-5.597 1.883-7.695-.218zm0-8.347a5.906 5.906 0 0 0 0 8.347l.211-.212a5.606 5.606 0 0 1 0-7.923zm8.336 0a5.89 5.89 0 0 0-8.337 0l.212.212a5.59 5.59 0 0 1 7.913 0zm.23 8.116c2.072-2.351 1.981-5.902-.23-8.116l-.212.212c2.098 2.101 2.186 5.472.218 7.705zm-7.906-.43c-1.916-1.92-1.916-5.06 0-6.98l-.212-.211C.992 5.11.992 8.44 3.026 10.477zm3.485 1.439c-1.31 0-2.571-.48-3.482-1.437l-.217.207c.974 1.022 2.316 1.53 3.7 1.53zm3.485-1.44a4.94 4.94 0 0 1-3.485 1.44v.3a5.24 5.24 0 0 0 3.697-1.527zm0-6.978c1.916 1.919 1.916 5.06 0 6.979l.212.212c2.034-2.036 2.034-5.367 0-7.403zm-6.97 0a4.94 4.94 0 0 1 6.97 0l.212-.212a5.24 5.24 0 0 0-7.394 0z" mask="url(#bjb)"/></g><defs><clipPath id="bja"><path d="M0 0h16v16H0z"/></clipPath></defs></symbol><symbol class="si si-Searchicons" viewBox="0 0 16 16" id="Searchicons"><g clip-path="url(#bma)"><mask id="bmb" width="16" height="16" x="0" y="0" maskUnits="userSpaceOnUse"><path d="M0 0h16v16H0z"/><path fill-rule="evenodd" d="m11.032 10.596 3.86 3.865c.135.134.135.36.045.45-.09.044-.18.089-.269.089a.34.34 0 0 1-.224-.09l-3.86-3.865c-2.29 2.022-5.746 1.932-7.9-.225a5.756 5.756 0 0 1 0-8.135 5.74 5.74 0 0 1 8.124 0c2.154 2.158 2.244 5.618.224 7.91m-7.9-7.416c-1.975 1.977-1.975 5.213 0 7.19.943.99 2.244 1.484 3.591 1.484s2.648-.54 3.591-1.483c1.975-1.978 1.975-5.214 0-7.191a5.09 5.09 0 0 0-7.182 0"/></mask><path fill-rule="evenodd" d="m11.032 10.596 3.86 3.865c.135.134.135.36.045.45-.09.044-.18.089-.269.089a.34.34 0 0 1-.224-.09l-3.86-3.865c-2.29 2.022-5.746 1.932-7.9-.225a5.756 5.756 0 0 1 0-8.135 5.74 5.74 0 0 1 8.124 0c2.154 2.158 2.244 5.618.224 7.91m-7.9-7.416c-1.975 1.977-1.975 5.213 0 7.19.943.99 2.244 1.484 3.591 1.484s2.648-.54 3.591-1.483c1.975-1.978 1.975-5.214 0-7.191a5.09 5.09 0 0 0-7.182 0"/><path d="m14.893 14.46.106-.105zm-3.86-3.865-.113-.099-.093.106.1.1zm3.904 4.315.068.134.021-.01.018-.018zm-.493 0-.107.106zm-3.86-3.865.106-.106-.1-.1-.106.093zm-7.9-.225-.107.106zm0-8.135.105.106zm8.124 0-.106.106zm-7.676 7.686.109-.104-.003-.002zm0-7.191-.106-.106zm7.182 7.19-.106-.105zm0-7.19-.106.106zm4.685 11.175-3.86-3.866-.213.212 3.86 3.866zm.045.661a.42.42 0 0 0 .105-.324.53.53 0 0 0-.15-.337l-.213.212a.23.23 0 0 1 .064.145c.003.059-.015.088-.019.092zm-.376.134c.132 0 .256-.065.337-.106l-.135-.268c-.098.05-.154.074-.202.074zm-.33-.134a.5.5 0 0 0 .33.134v-.3a.2.2 0 0 1-.07-.016.2.2 0 0 1-.048-.03zm-3.86-3.865 3.86 3.865.212-.212-3.86-3.865zm-7.9-.225c2.21 2.214 5.757 2.306 8.105.231l-.199-.225c-2.23 1.971-5.597 1.883-7.695-.218zm0-8.347a5.906 5.906 0 0 0 0 8.347l.211-.212a5.606 5.606 0 0 1 0-7.923zm8.336 0a5.89 5.89 0 0 0-8.337 0l.212.212a5.59 5.59 0 0 1 7.913 0zm.23 8.116c2.072-2.351 1.981-5.902-.23-8.116l-.212.212c2.098 2.101 2.186 5.472.218 7.705zm-7.906-.43c-1.916-1.92-1.916-5.06 0-6.98l-.212-.211C.992 5.11.992 8.44 3.026 10.477zm3.485 1.439c-1.31 0-2.571-.48-3.482-1.437l-.217.207c.974 1.022 2.316 1.53 3.7 1.53zm3.485-1.44a4.94 4.94 0 0 1-3.485 1.44v.3a5.24 5.24 0 0 0 3.697-1.527zm0-6.978c1.916 1.919 1.916 5.06 0 6.979l.212.212c2.034-2.036 2.034-5.367 0-7.403zm-6.97 0a4.94 4.94 0 0 1 6.97 0l.212-.212a5.24 5.24 0 0 0-7.394 0z" mask="url(#bmb)"/></g><defs><clipPath id="bma"><path d="M0 0h16v16H0z"/></clipPath></defs></symbol><symbol class="si si-Settingsicons" viewBox="0 0 16 16" id="Settingsicons"><g stroke="#3D3D3D" stroke-miterlimit="10" stroke-width=".75" clip-path="url(#bna)"><path d="M13.37 8.303a.275.275 0 0 1 0-.466l1.493-.874c.114-.058.172-.175.114-.291-.057-.35-.172-.699-.23-.99-.057-.117-.114-.175-.229-.175l-1.723.058a.261.261 0 0 1-.23-.407l.92-1.514c.057-.117.057-.233 0-.292-.23-.233-.46-.524-.69-.698-.115-.059-.23-.059-.287 0l-1.493.931c-.172.117-.402 0-.402-.233l.057-1.805c0-.116-.057-.233-.172-.233-.287-.116-.632-.175-.976-.291a.44.44 0 0 0-.287.116l-.862 1.573a.267.267 0 0 1-.46 0l-.86-1.573c-.058-.116-.173-.174-.288-.116-.344.058-.631.175-.976.233-.115.058-.172.116-.172.233l.057 1.805c0 .233-.23.35-.402.233l-1.723-.99c-.115-.058-.23-.058-.287 0l-.689.699c-.057.116-.057.233 0 .291L3.492 5.1a.261.261 0 0 1-.23.407l-1.78-.058c-.115 0-.23.058-.23.175-.115.29-.172.64-.23.931 0 .117.058.233.115.292l1.55.873a.275.275 0 0 1 0 .466l-1.55.874c-.114.058-.172.174-.114.29.057.35.172.642.287.99.057.117.115.176.23.176l1.78-.059c.23 0 .344.233.23.408l-.92 1.572c-.057.117-.057.234 0 .292l.69.699c.114.058.23.058.287 0l1.55-.932c.173-.117.402 0 .402.233l-.057 1.805c0 .117.057.233.172.233.287.117.632.175.976.233.115 0 .23-.058.288-.117l.861-1.572a.267.267 0 0 1 .46 0l.86 1.514c.058.117.173.175.288.117.345-.059.69-.175.976-.291.115-.059.173-.117.173-.233V12.67c0-.233.23-.35.402-.233l1.493.931c.114.059.23.059.287 0 .23-.233.517-.466.689-.757.057-.116.057-.233 0-.291l-.919-1.34a.261.261 0 0 1 .23-.407h1.723c.114 0 .23-.058.23-.175.114-.35.172-.64.286-.99a.45.45 0 0 0-.114-.291l-1.493-.815Z"/><path stroke-linecap="round" d="M10.958 5.915a3.84 3.84 0 0 1 .689 2.155c0 2.038-1.608 3.669-3.618 3.669S4.41 10.108 4.41 8.069s1.608-3.668 3.618-3.668c.746 0 1.435.233 2.01.582"/></g><defs><clipPath id="bna"><path d="M0 0h16v16H0z"/></clipPath></defs></symbol><symbol class="si si-Shareicons" viewBox="0 0 16 16" id="Shareicons"><path d="M11.904 10.804a2.08 2.08 0 0 0-1.54.62 2 2 0 0 0-.244.302L5.782 9.05q.107-.194.168-.411a2.12 2.12 0 0 0-.159-1.544l4.385-2.707a.2.2 0 0 0 .05-.046 2.08 2.08 0 0 0 2.22.734 2.06 2.06 0 0 0 1.539-1.758c.034-.278.011-.56-.066-.83-.306-.975-1.28-1.594-2.326-1.472a.207.207 0 0 0 .048.413c.843-.103 1.636.398 1.88 1.177a1.653 1.653 0 0 1-1.184 2.068 1.68 1.68 0 0 1-1.295-.156 1.66 1.66 0 0 1-.778-1.037c-.129-.386-.077-.817.155-1.28a.21.21 0 0 0-.024-.234.208.208 0 0 0-.347.048c-.282.565-.343 1.102-.182 1.584q.059.217.157.412a.2.2 0 0 0-.065.023l-4.392 2.71a2 2 0 0 0-1.03-.685C3.53 5.764 2.472 6.252 2.02 7.22a.208.208 0 1 0 .376.177c.365-.783 1.215-1.178 2.026-.94.424.118.774.399.987.792.211.39.261.844.14 1.277a1.6 1.6 0 0 1-.79.987c-.389.21-.843.263-1.268.145a1.8 1.8 0 0 1-.992-.791.205.205 0 0 0-.283-.078.207.207 0 0 0-.078.282c.257.45.702.807 1.232.984.532.15 1.101.087 1.586-.177.227-.123.428-.288.593-.486l4.354 2.688c.01.006.022.005.033.009a2.17 2.17 0 0 0 .299 2.098.206.206 0 0 0 .291.038.21.21 0 0 0 .074-.218.2.2 0 0 0-.036-.073c-.51-.662-.468-1.656.093-2.217a1.65 1.65 0 0 1 1.239-.5c.433.008.83.184 1.124.5.326.325.508.778.5 1.24a1.55 1.55 0 0 1-.5 1.123 1.6 1.6 0 0 1-1.181.492.207.207 0 1 0 0 .416c.579 0 1.062-.201 1.469-.61a1.96 1.96 0 0 0 .627-1.415 2.13 2.13 0 0 0-.616-1.534 1.96 1.96 0 0 0-1.415-.626"/></symbol><symbol class="si si-Solar2-icons" viewBox="0 0 16 16" id="Solar2-icons"><g clip-path="url(#bpa)"><path d="M7.97 1.726a.22.22 0 0 0 .22-.22V.22A.22.22 0 0 0 7.97 0a.22.22 0 0 0-.22.22v1.286c0 .121.1.22.22.22m7.81 6.055h-1.292a.22.22 0 0 0-.22.219.22.22 0 0 0 .22.22h1.292A.22.22 0 0 0 16 8a.22.22 0 0 0-.22-.22m-3.17-4.125a.22.22 0 0 0 .168-.079l.881-1.053a.22.22 0 0 0-.272-.337.2.2 0 0 0-.066.057l-.88 1.053a.218.218 0 0 0 .05.325.2.2 0 0 0 .118.034M1.452 7.781H.22A.22.22 0 0 0 0 8a.22.22 0 0 0 .22.22h1.233a.22.22 0 0 0 .22-.22.22.22 0 0 0-.22-.22m1.773-4.198a.22.22 0 0 0 .312.018.22.22 0 0 0 .017-.31l-.94-1.053a.22.22 0 0 0-.328.292zm4.745 10.691a.22.22 0 0 0-.22.22v1.287a.22.22 0 0 0 .22.219.22.22 0 0 0 .22-.22v-1.286a.22.22 0 0 0-.22-.22m4.803-1.797a.22.22 0 0 0-.385.13.22.22 0 0 0 .055.16l.88.994a.22.22 0 0 0 .374-.216.2.2 0 0 0-.043-.074zm-9.543-.006-.94.995a.22.22 0 0 0 .007.313.22.22 0 0 0 .314-.013l.94-.994a.219.219 0 0 0-.167-.373.22.22 0 0 0-.154.072m7.41-7.265a.22.22 0 0 0-.014.31c.64.693.997 1.6.999 2.543 0 2.008-1.614 3.641-3.597 3.641-2.017 0-3.596-1.6-3.596-3.641s1.58-3.642 3.596-3.642c.459 0 .862.075 1.135.21a.22.22 0 0 0 .288-.1.22.22 0 0 0-.091-.292c-.427-.212-.96-.257-1.332-.257-2.263 0-4.036 1.793-4.036 4.08 0 2.289 1.773 4.08 4.036 4.08 2.226 0 4.037-1.83 4.037-4.08a4.2 4.2 0 0 0-1.114-2.84.22.22 0 0 0-.312-.012"/></g><defs><clipPath id="bpa"><path d="M0 0h16v16H0z"/></clipPath></defs></symbol><symbol class="si si-Spainicons" viewBox="0 0 16 16" id="Spainicons"><g clip-path="url(#bqa)"><g clip-path="url(#bqb)"><path d="M1.291 14.643a.22.22 0 0 1-.129-.048l-.505-.414a.22.22 0 0 1-.04-.308.21.21 0 0 1 .298-.042l.505.415a.24.24 0 0 1 .04.314.22.22 0 0 1-.169.083m3.779.711a.22.22 0 0 1-.158-.071.227.227 0 0 1 .017-.314l.562-.534a.2.2 0 0 1 .297.018.227.227 0 0 1-.017.314l-.561.534a.2.2 0 0 1-.14.053m1.122-1.126a.2.2 0 0 1-.157-.077.227.227 0 0 1 .023-.314l.449-.415a.2.2 0 0 1 .297.024.227.227 0 0 1-.022.314l-.45.415a.2.2 0 0 1-.14.053m9.275-7.941a.2.2 0 0 1-.14-.053l-.45-.415a.233.233 0 0 1-.022-.314.21.21 0 0 1 .297-.024l.45.415c.09.083.095.22.022.314a.2.2 0 0 1-.157.077m-2.465 3.112a.2.2 0 0 1-.168-.09.226.226 0 0 1 .045-.308l.449-.355a.2.2 0 0 1 .292.047.227.227 0 0 1-.045.308l-.45.356a.2.2 0 0 1-.123.042m.511.853a.2.2 0 0 1-.152-.065q-.026-.035-.045-.077a.22.22 0 0 1 .045-.237.2.2 0 0 1 .23-.048.13.13 0 0 1 .068.048.22.22 0 0 1 .045.237.2.2 0 0 1-.045.077.3.3 0 0 1-.067.047.2.2 0 0 1-.079.018M.747 15.864a.2.2 0 0 1-.152-.066.2.2 0 0 1-.045-.07.2.2 0 0 1-.017-.084c0-.059.023-.118.062-.16a.21.21 0 0 1 .23-.047q.042.02.068.047a.24.24 0 0 1 .061.16q0 .047-.016.083a.15.15 0 0 1-.045.072.2.2 0 0 1-.146.065m1.145-.468a.18.18 0 0 1-.152-.066.22.22 0 0 1-.061-.154c0-.059.022-.118.061-.154a.2.2 0 0 1 .23-.053q.034.018.068.053a.2.2 0 0 1 .062.154q0 .047-.017.083a.15.15 0 0 1-.045.071.3.3 0 0 1-.067.054c-.029.006-.051.011-.08.011m1.23-.503c-.129.107-.022.409 0 .468.062.071.45.213.562.172.04-.03.095-.237.123-.338.034-.124.068-.243.118-.338.028-.047.062-.095.09-.142-.253.024-.78.119-.893.178m.523 1.09c-.332 0-.82-.201-.916-.456-.168-.439-.112-.806.152-1.002.174-.13 1.24-.337 1.476-.183a.32.32 0 0 1 .146.213c.029.16-.056.296-.146.42l-.072.113a1.3 1.3 0 0 0-.073.232c-.068.248-.146.55-.393.64a.5.5 0 0 1-.175.023m9.674-8.746c.01.284.387.681.51.705.13-.024.55-.462.607-.599.005-.1-.101-.515-.186-.575-.151.006-.808.309-.931.469m.505 1.143c-.22 0-.444-.213-.556-.338-.09-.106-.393-.474-.37-.865.027-.438 1.14-.847 1.375-.847.084 0 .208.03.32.178.19.249.286.758.247.942-.05.243-.674.93-1.016.93"/><path d="M5.423 13.215a.5.5 0 0 1-.09-.012c-.27-.06-.634-.385-1.05-.776a4 4 0 0 0-.28-.25c-.017-.005-.14-.011-.236-.023-.45-.036-1.201-.1-1.359-.67-.14-.527.169-.977.354-1.25.04-.06.096-.136.101-.166.028-.1-.028-.545-.056-.776a5 5 0 0 1-.04-.35c-.039-.03-.117-.065-.162-.089-.14-.065-.258-.124-.309-.254-.028-.078-.017-.143.006-.232.045-.195.04-.266.028-.29-.05-.071-.107-.1-.169-.142-.174-.107-.33-.231-.454-.634a.29.29 0 0 1 .039-.261c.118-.178.376-.184.825-.19.107 0 .258 0 .343-.011.134-.433.348-2.406.27-2.85-.32-.066-.517-.143-.624-.315a.54.54 0 0 1-.062-.391c-.196-.036-.69.006-.943.03-.51.047-.696.059-.814-.03-.168-.13-.225-.409-.28-.7C.437 2.478.42 2.37.392 2.3c-.112-.308.062-1.126.32-1.262.152-.083.37-.089.578-.095.084 0 .197-.006.258-.018a1 1 0 0 0 .068-.183c.112-.302.236-.646.5-.7.477-.1 1.184.226 1.442.486.287.149 2.796.048 3.868.006.45-.017.792-.03.932-.03q.118.001.253-.005c.539-.018 1.437-.048 1.64.936.078.036.269.065.431.071a.22.22 0 0 1 .208.225c-.005.125-.09.226-.213.22-.505-.012-.786-.143-.825-.38C9.746.954 9.297.924 8.629.942q-.143.007-.27.006c-.134.006-.477.012-.91.03-2.98.118-3.957.089-4.17-.13C3.088.657 2.515.414 2.2.473c-.045.036-.146.308-.186.427-.067.178-.106.284-.168.35-.112.118-.292.124-.545.13-.134.006-.33.006-.404.047-.045.077-.157.58-.112.705.034.09.062.22.084.35.023.118.068.332.112.415.101.006.349-.018.54-.036.785-.07 1.167-.083 1.341.125.068.083.09.183.068.29-.029.119-.012.148-.012.148.017.024.09.077.438.142.079.012.18.072.225.25.129.473-.118 3.128-.37 3.365-.107.101-.281.107-.63.113-.112 0-.291 0-.41.018.068.148.13.19.22.243a.9.9 0 0 1 .286.243c.146.19.107.45.067.622.017.012.04.018.056.03.174.082.388.183.405.408.01.101.028.231.045.374.061.491.1.806.039.983-.028.083-.084.166-.157.279-.158.23-.377.55-.292.87.073.274.668.32.988.35.219.018.325.03.404.078.073.041.174.13.36.302.235.22.679.634.864.675.095-.03.264-.438.32-.569.095-.219.14-.325.241-.379.062-.035.135-.07 1.538-.1h.085c.045 0 .123.011.224.023.22.03.579.09.82.006.135-.047.264-.468.354-.747.112-.355.219-.687.415-.847.213-.172.584-.172.943-.172.14 0 .331 0 .432-.018-.005-.035-.01-.083-.016-.118-.05-.35-.152-1.008.544-1.416l.096-.06c.527-.308.584-.42.572-.462-.028-.077-.196-.267-.32-.403-.325-.361-.662-.729-.516-1.078.292-.706.73-1.577 1.128-1.701.28-.089.331-.231.399-.433.056-.16.118-.361.325-.468l.191-.1c1.454-.771 1.83-1.073 1.887-1.192.14-.296.162-.705.117-.794-.112-.03-1.094-.1-1.375-.053a2 2 0 0 1-.28.018c-.36.006-.534.035-.556.19a.4.4 0 0 1-.152.272c-.202.154-.51.095-.758.053l-.118-.018a.22.22 0 0 1-.18-.248c.017-.119.118-.208.236-.19q.06.008.135.024c.101.017.37.065.438.03.056-.528.612-.54.949-.546.084 0 .163 0 .224-.012.32-.053 1.404.006 1.64.113.061.03.146.089.196.23.107.303.011.825-.14 1.139-.152.32-.91.77-2.077 1.386l-.191.101c-.05.03-.079.089-.124.225-.073.225-.185.557-.68.711-.145.042-.493.57-.858 1.452-.006.107.292.433.432.593.191.207.354.391.41.557.163.468-.393.788-.764 1.001l-.09.054c-.404.243-.392.563-.33.96.016.124.033.237.016.337-.062.315-.426.315-.847.315-.236 0-.59 0-.69.082-.09.072-.192.398-.265.629-.14.45-.286.912-.617 1.03-.332.12-.758.054-1.01.019-.068-.012-.13-.024-.158-.018h-.09c-.887.018-1.218.041-1.336.059-.022.041-.05.113-.073.16-.168.32-.382.818-.73.818"/></g></g><defs><clipPath id="bqa"><path d="M0 0h16v16H0z"/></clipPath><clipPath id="bqb"><path d="M0 0h16v16H0z"/></clipPath></defs></symbol><symbol class="si si-Spotifyicons" viewBox="0 0 16 16" id="Spotifyicons"><path d="M7.995 15C4.14 15 1 11.86 1 8s3.16-7 7.044-7a6.5 6.5 0 0 1 3.658 1.12c.084.06.109.173.05.257a.19.19 0 0 1-.257.05 6.14 6.14 0 0 0-3.45-1.052c-3.683 0-6.675 2.972-6.675 6.63a6.63 6.63 0 0 0 6.625 6.625c3.653 0 6.63-2.972 6.63-6.625 0-1.703-.696-3.387-1.866-4.507a.18.18 0 0 1-.005-.262.186.186 0 0 1 .261-.005C14.276 4.436 15 6.178 15 8.005 14.995 11.86 11.855 15 7.995 15"/><path d="M8.138 8.198h.09c1.322.014 2.388.33 3.257.641a.17.17 0 0 0 .217-.103.17.17 0 0 0-.005-.129.18.18 0 0 0-.098-.089c-.894-.32-1.995-.646-3.372-.661-1.49-.03-2.794.306-3.623.587a.16.16 0 0 0-.1.09.18.18 0 0 0-.009.132c.03.09.128.139.217.11a10.9 10.9 0 0 1 3.426-.578m3.406 1.021a.6.6 0 0 1-.182-.03c-.84-.3-1.866-.606-3.135-.621a10.7 10.7 0 0 0-3.386.548.54.54 0 0 1-.687-.336.55.55 0 0 1 .025-.415.53.53 0 0 1 .311-.271 11.2 11.2 0 0 1 3.747-.607c1.432.014 2.567.355 3.49.68a.53.53 0 0 1 .306.277c.06.129.07.277.02.415a.54.54 0 0 1-.509.36M8.03 10.286c1.051 0 1.97.261 2.735.513a.167.167 0 0 0 .217-.109.167.167 0 0 0-.109-.212c-.84-.281-1.762-.518-2.868-.533-1.086.01-1.97.158-2.853.484a.14.14 0 0 0-.094.089.17.17 0 0 0-.005.128.18.18 0 0 0 .222.104c.844-.311 1.693-.454 2.74-.46 0-.004.01-.004.015-.004m2.789.893a.5.5 0 0 1-.173-.03c-.77-.256-1.62-.493-2.616-.493h-.02c-1.002.01-1.807.143-2.616.44a.545.545 0 0 1-.682-.736.52.52 0 0 1 .306-.282c.928-.34 1.847-.493 2.982-.503 1.165.01 2.162.276 2.987.553a.53.53 0 0 1 .31.271.55.55 0 0 1 .03.415.53.53 0 0 1-.508.365M7.99 5.744c-1.604 0-3.258.346-4.295.913a.17.17 0 0 0-.069.232.175.175 0 0 0 .232.07c1.052-.573 2.849-.919 4.453-.864 1.506.044 2.913.345 3.954.849a.18.18 0 0 0 .133.01.17.17 0 0 0 .1-.084.18.18 0 0 0 .01-.134.16.16 0 0 0-.09-.098c-1.086-.524-2.537-.84-4.092-.884-.114-.005-.222-.01-.336-.01M3.78 7.348a.54.54 0 0 1-.257-1.017c1.16-.631 3.045-1.007 4.813-.952 1.604.05 3.115.375 4.245.923a.55.55 0 0 1 .277.31.53.53 0 0 1-.025.416.56.56 0 0 1-.306.276.53.53 0 0 1-.415-.025c-.997-.484-2.345-.77-3.806-.814-1.555-.055-3.263.276-4.265.82a.6.6 0 0 1-.262.063"/></symbol><symbol class="si si-Staricons" viewBox="0 0 16 16" id="Staricons"><g clip-path="url(#bsa)"><path stroke="#3D3D3D" stroke-linecap="round" stroke-linejoin="round" d="m10.044 4.128.256.534c.073.115.146.229.255.343.11.077.256.153.366.153l3.358.534c.146.038.292.076.438.19.11.115.22.23.256.382.036.153.036.305 0 .496a.9.9 0 0 1-.22.42l-2.445 2.48a.9.9 0 0 0-.22.343c-.036.152-.036.267-.036.42l.584 3.509c.037.152 0 .343-.036.496a.96.96 0 0 1-.292.381c-.11.115-.292.153-.438.153a.84.84 0 0 1-.438-.115l-3.03-1.64A.7.7 0 0 0 8 13.093a.8.8 0 0 0-.402.114l-3.03 1.679A.94.94 0 0 1 4.13 15c-.146 0-.292-.076-.438-.153a1.5 1.5 0 0 1-.292-.381c-.073-.153-.073-.305-.036-.496l.584-3.51c.036-.152 0-.267-.037-.42a.56.56 0 0 0-.219-.342l-2.446-2.48a.9.9 0 0 1-.219-.42 1.1 1.1 0 0 1 0-.496.7.7 0 0 1 .256-.381.6.6 0 0 1 .438-.19l3.359-.497c.146-.038.255-.076.365-.152.11-.077.182-.191.255-.305l1.57-3.32a.73.73 0 0 1 .328-.343A.94.94 0 0 1 8.037 1c.146 0 .328.038.438.114s.219.191.292.344l.365.8m0 0 .11.23"/></g><defs><clipPath id="bsa"><path d="M0 0h16v16H0z"/></clipPath></defs></symbol><symbol class="si si-Sun_stroke_icons" viewBox="0 0 16 16" id="Sun_stroke_icons"><path stroke="#3D3D3D" stroke-linecap="round" stroke-miterlimit="10" stroke-width=".75" d="M23.934 2v3.55M46 24.041h-3.581M39.585 8.136l-2.587 2.853M2 24.041h3.581M8.4 8.136l2.602 2.853M23.934 46v-3.566m15.651-2.57-2.587-2.853M8.4 39.864l2.602-2.853m20.84-20.565a10.97 10.97 0 0 1 3.017 7.579 10.82 10.82 0 0 1-6.757 9.925 10.806 10.806 0 0 1-14.668-7.992 10.82 10.82 0 0 1 4.67-11.063 10.8 10.8 0 0 1 6.012-1.783 10.5 10.5 0 0 1 3.531.597"/></symbol><symbol class="si si-Targeticons" viewBox="0 0 16 16" id="Targeticons"><g clip-path="url(#bua)"><path d="M7.994 16C3.586 16 0 12.41 0 8.003 0 3.589 3.608 0 8.05 0a7.2 7.2 0 0 1 2.267.35c.113.04.17.158.135.265a.21.21 0 0 1-.265.136 6.7 6.7 0 0 0-2.13-.328C3.85.423.427 3.821.427 7.997S3.822 15.571 8 15.571c4.172 0 7.571-3.397 7.571-7.574 0-.728-.135-1.546-.383-2.365a.212.212 0 1 1 .406-.124c.265.858.406 1.722.406 2.49C15.989 12.415 12.403 16 7.994 16"/><path d="M7.994 13.297a5.24 5.24 0 0 1-5.232-5.238 5.24 5.24 0 0 1 5.232-5.237c.615 0 1.116.079 1.494.243a.21.21 0 0 1 .113.276.213.213 0 0 1-.276.113c-.322-.136-.767-.209-1.325-.209a4.815 4.815 0 0 0-4.81 4.809A4.816 4.816 0 0 0 8 12.868a4.81 4.81 0 0 0 4.803-4.814c0-.486-.084-.949-.27-1.513a.205.205 0 0 1 .135-.265.204.204 0 0 1 .265.135c.197.599.293 1.123.293 1.648-.006 2.884-2.35 5.238-5.232 5.238"/><path d="M7.994 10.475a2.474 2.474 0 0 1-2.47-2.472 2.474 2.474 0 0 1 2.47-2.472.214.214 0 0 1 0 .429c-1.127 0-2.04.92-2.04 2.043 0 1.128.918 2.043 2.04 2.043s2.047-.92 2.047-2.043a.214.214 0 1 1 .428 0 2.486 2.486 0 0 1-2.475 2.472"/><path d="M11.81 4.126h1.732l1.55-1.592-1.51.04a.26.26 0 0 1-.159-.063.22.22 0 0 1-.062-.158l.04-1.5-1.59 1.59zM7.995 8.217a.2.2 0 0 1-.146-.062.21.21 0 0 1 0-.299l3.546-3.606V2.359q.001-.084.062-.152l2.03-2.032a.21.21 0 0 1 .23-.045c.08.034.13.113.13.197l-.05 1.806 1.803-.05c.108-.006.164.045.198.124a.21.21 0 0 1-.045.231L13.778 4.47a.22.22 0 0 1-.152.062h-1.94L8.142 8.138a.17.17 0 0 1-.147.08"/></g><defs><clipPath id="bua"><path d="M0 0h16v16H0z"/></clipPath></defs></symbol><symbol class="si si-TikTok" viewBox="0 0 16 16" id="TikTok"><path d="M6.36 15.026c-2.53 0-4.594-2.038-4.594-4.549 0-1.077.405-2.131 1.11-2.884a.21.21 0 0 1 .294-.011.206.206 0 0 1 .011.291c-.633.681-.999 1.632-.999 2.61 0 2.28 1.876 4.137 4.178 4.137 2.425 0 4.117-1.698 4.117-4.137l.056-5a.2.2 0 0 1 .117-.181.2.2 0 0 1 .216.022c.904.67 1.942 1.06 2.94 1.11V4.538c-1.753-.099-3.162-1.445-3.267-3.126H8.896l-.055 9.082c0 1.73-1.227 2.346-2.375 2.346-1.332 0-2.375-1.033-2.375-2.352 0-1.225.954-2.236 2.164-2.34V6.35a4.6 4.6 0 0 0-1.648.418.21.21 0 0 1-.277-.105.206.206 0 0 1 .105-.274 4.95 4.95 0 0 1 2.03-.456.21.21 0 0 1 .212.208V8.34a.21.21 0 0 1-.211.209 1.95 1.95 0 0 0-1.959 1.94c0 1.087.86 1.939 1.959 1.939.46 0 1.958-.138 1.958-1.94l.056-9.285c0-.115.094-.203.21-.203h2.054a.21.21 0 0 1 .21.209c0 1.615 1.377 2.928 3.07 2.928a.21.21 0 0 1 .21.209v2.307a.21.21 0 0 1-.21.21c-1.033 0-2.11-.341-3.07-.968l-.05 4.61c-.01 2.648-1.875 4.521-4.544 4.521"/></symbol><symbol class="si si-Time_stroke" viewBox="0 0 16 16" id="Time_stroke"><path stroke="#3D3D3D" stroke-linecap="round" stroke-linejoin="round" stroke-width=".75" d="M40.373 23.822H38.87m-31.384.032h1.486m3.392-11.702 1.081 1.195m22.307-1.162-1.194 1.081m-10.58 27.133v-1.485m0-29.877V7.552m11.71 28.021-1.082-1.195m-22.404 1.243 1.082-1.178m10.742-20.112v9.653m.049.032h9.449m6.267-15.334a20.15 20.15 0 0 1 6.122 13.38 21.97 21.97 0 0 1-2.611 12.503 22 22 0 0 1-9.127 8.942 22.01 22.01 0 0 1-24.316-2.65 21.968 21.968 0 0 1 .393-34.003c3.4-2.72 7.53-4.37 11.868-4.741A20.3 20.3 0 0 1 35.414 5.34"/></symbol><symbol class="si si-Timei" viewBox="0 0 16 16" id="Timei"><g stroke="#3D3D3D" stroke-linecap="round" stroke-linejoin="round" clip-path="url(#bxa)"><path stroke-width=".65" d="M13.458 7.94h-.501m-10.462.011h.496m1.13-3.901.36.399m7.436-.387-.398.36m-3.526 9.044v-.495m0-9.959v-.495m3.903 9.341-.36-.399m-7.469.415.36-.393m3.582-6.704v3.218m.016.01h3.15"/><path stroke-width=".75" d="M13.264 2.894a6.72 6.72 0 0 1 2.04 4.46 7.32 7.32 0 0 1-3.912 7.148 7.338 7.338 0 0 1-10.433-4.45 7.32 7.32 0 0 1 2.458-7.767A7.34 7.34 0 0 1 7.373.705a6.77 6.77 0 0 1 4.432 1.075"/></g><defs><clipPath id="bxa"><path d="M0 0h16v16H0z"/></clipPath></defs></symbol><symbol class="si si-Transformator" viewBox="0 0 16 16" id="Transformator"><path stroke="#3D3D3D" stroke-linecap="round" stroke-linejoin="round" stroke-width=".75" d="m17.088 5.524-6.122-.063M33.92 2.4v6.121m3.061-2.997-6.12-.063M10.619 45.552H7.932a4.1 4.1 0 0 1-1.484-.291 3.9 3.9 0 0 1-1.254-.806 3.7 3.7 0 0 1-.831-1.197 3.5 3.5 0 0 1-.283-1.407v-27.12a3.57 3.57 0 0 1 1.132-2.573 4 4 0 0 1 2.72-1.08h32.1a4 4 0 0 1 2.727 1.103 3.56 3.56 0 0 1 1.109 2.598V41.9c.009.97-.39 1.905-1.109 2.598a4 4 0 0 1-2.727 1.103H16.246"/><path stroke="#3D3D3D" stroke-linecap="round" stroke-linejoin="round" stroke-width=".75" d="m23.25 17.444-4.842 9.699 9.39.048-4.792 9.587"/></symbol><symbol class="si si-Transmissionicons" viewBox="0 0 16 16" id="Transmissionicons"><path stroke="#3D3D3D" stroke-linecap="round" stroke-linejoin="round" stroke-width=".75" d="m15.698 30.308 16.45 15.847h4.093L26.715 2.034l11.74 7.043.72.42a1.56 1.56 0 0 1-.771 2.934H9.61a1.41 1.41 0 0 1-.738-2.616l1.677-1.107L21.4 2l-9.66 44.155h4.076L32.182 30.19"/><path stroke="#3D3D3D" stroke-linecap="round" stroke-linejoin="round" stroke-width=".75" d="M18.414 13.52 9.51 20.23l-.905.687a1.476 1.476 0 0 0 .872 2.667H38.27a1.577 1.577 0 0 0 .905-2.901l-.687-.487-9.224-6.825"/></symbol><symbol class="si si-Twittericons" viewBox="0 0 16 16" id="Twittericons"><g clip-path="url(#caa)"><path d="M15.91 3.02a.26.26 0 0 0-.32-.022c-.153.101-.41.213-.784.343q.158-.168.297-.387c.244-.325.393-.714.46-.918a.264.264 0 0 0-.408-.293c-.271.203-.526.395-.944.537-.315.157-.638.23-.896.289l-.02.006c-.85-.887-2.195-1.203-3.467-.806-1.748.476-2.736 2.212-2.297 4.038a.263.263 0 0 0 .513-.123c-.37-1.543.456-3.007 1.932-3.41 1.14-.354 2.326-.055 3.027.763a.26.26 0 0 0 .264.085l.166-.04c.271-.062.642-.146.98-.317q.132-.043.246-.096c-.344.541-.845.792-1.011.875a.264.264 0 0 0 .118.498c.227 0 .605 0 1.068-.154q.16-.054.296-.103-.125.166-.284.3c-.233.232-.538.392-.932.491a.264.264 0 0 0-.2.273c.203 3.171-1.392 6.172-4.165 7.833-2.42 1.472-5.514 1.576-8.154.335a5.5 5.5 0 0 0 1.322-.206c1.435-.358 2.274-.991 2.497-1.177a.264.264 0 0 0-.169-.465c-.157 0-.982-.028-1.814-.582a5.2 5.2 0 0 1-.967-.898c.421.039.844-.055 1.21-.268a.264.264 0 0 0-.053-.491 3.47 3.47 0 0 1-1.629-.906 3 3 0 0 1-.727-1.472c.663.299 1.116.299 1.307.299a.264.264 0 0 0 .146-.483c-.258-.172-1.05-.911-1.294-2.01a3.5 3.5 0 0 1 .044-1.6 8.2 8.2 0 0 0 2.886 2.1c.441.219.877.364 1.3.505a.265.265 0 0 0 .307-.366.26.26 0 0 0-.14-.134c-.405-.134-.824-.274-1.244-.483a7.66 7.66 0 0 1-2.992-2.307.264.264 0 0 0-.444.044c-.052.102-.495 1.04-.233 2.35a4.1 4.1 0 0 0 .865 1.72 4 4 0 0 1-.686-.319.265.265 0 0 0-.396.228c0 .302.066 1.361.921 2.292q.49.488 1.113.781a2.4 2.4 0 0 1-.714-.096.263.263 0 1 0-.328.317c.089.353.61 1.023 1.446 1.63.424.28.897.48 1.393.588a6.8 6.8 0 0 1-1.741.695c-.896.255-1.659.209-2.286.132a.264.264 0 0 0-.174.483A9.54 9.54 0 0 0 5.214 14.4a8.85 8.85 0 0 0 4.609-1.268c2.878-1.724 4.561-4.815 4.429-8.104q.586-.19.949-.555c.395-.33.572-.711.7-.99l.07-.147a.26.26 0 0 0-.061-.316"/></g><defs><clipPath id="caa"><path d="M0 0h16v16H0z"/></clipPath></defs></symbol><symbol class="si si-User-Navicons" viewBox="0 0 16 16" id="User-Navicons"><g clip-path="url(#cda)"><path fill-rule="evenodd" d="M6.485 1.5c.437-.45 1.027-.7 1.64-.7s1.203.25 1.64.7.685 1.063.685 1.705c0 .692-.28 1.66-.748 2.456-.231.394-.497.725-.776.953s-.548.336-.801.336c-.252 0-.521-.108-.8-.337-.28-.229-.545-.561-.777-.956C6.08 4.859 5.8 3.89 5.8 3.205c0-.642.248-1.255.685-1.705m1.64-1.55c-.846 0-1.655.346-2.25.958a3.3 3.3 0 0 0-.925 2.297c0 .866.337 1.982.865 2.882.266.453.592.873.97 1.183.38.311.834.53 1.34.53s.96-.218 1.339-.528c.378-.31.705-.728.971-1.18.528-.899.865-2.015.865-2.887 0-.86-.332-1.686-.926-2.297A3.14 3.14 0 0 0 8.125-.05M5.782 8.378l.03-.424h-.007l-.014-.001a2 2 0 0 0-.208-.002 4.64 4.64 0 0 0-2.22.636C2.11 9.329.95 10.865.95 13.913q0 .103.047.194l.378-.194c-.378.194-.378.195-.377.195v.002l.002.002.003.006.007.012.019.031q.021.034.06.082c.05.062.122.14.225.225.205.171.528.376 1.032.572 1.005.392 2.75.76 5.78.76s4.776-.368 5.78-.76c.504-.197.826-.401 1.031-.572.103-.086.175-.163.225-.226a1 1 0 0 0 .079-.112l.007-.013.003-.005.001-.003v-.001c.001 0 .001-.002-.377-.195l.378.194a.4.4 0 0 0 .047-.194c0-3.047-1.16-4.583-2.41-5.325a4.64 4.64 0 0 0-2.427-.635h-.021l.029.425-.03-.424a.4.4 0 0 0-.206.07L8.127 9.43 6.018 8.024a.4.4 0 0 0-.206-.07zm-3.924 5.437-.057-.051c.036-2.694 1.06-3.892 1.994-4.446A3.8 3.8 0 0 1 5.65 8.8l2.241 1.493a.43.43 0 0 0 .471 0L10.604 8.8h.046a3.8 3.8 0 0 1 1.806.518c.935.556 1.957 1.754 1.993 4.446l-.057.052c-.123.102-.362.263-.795.432-.87.34-2.5.702-5.47.702-2.972 0-4.602-.363-5.472-.702-.434-.169-.673-.33-.797-.433M10.5 8.802"/></g><defs><clipPath id="cda"><path d="M0 0h16v16H0z"/></clipPath></defs></symbol><symbol class="si si-User_2_whiteicons" viewBox="0 0 16 16" id="User_2_whiteicons"><path stroke="#1F1F1F" stroke-linecap="round" stroke-linejoin="round" stroke-width=".75" d="M8.022 6.223a2.872 2.872 0 1 0 0-5.743 2.872 2.872 0 0 0 0 5.743m-3.694 8.895H2.333v-1.55A5.667 5.667 0 0 1 8 7.9v0a5.667 5.667 0 0 1 5.667 5.666v1.551H6.142"/></symbol><symbol class="si si-User_stroke" viewBox="0 0 16 16" id="User_stroke"><path stroke="#3D3D3D" stroke-linecap="round" stroke-linejoin="round" stroke-width=".75" d="M24.066 19.23a8.615 8.615 0 1 0 0-17.23 8.615 8.615 0 0 0 0 17.23M12.985 45.355H7v-4.653a17 17 0 0 1 17-17v0a17 17 0 0 1 17 17v4.653H18.427"/></symbol><symbol class="si si-Usericons" viewBox="0 0 16 16" id="Usericons"><path stroke="#3D3D3D" stroke-linecap="round" stroke-linejoin="round" stroke-width=".75" d="M8.022 6.223a2.872 2.872 0 1 0 0-5.743 2.872 2.872 0 0 0 0 5.743m-3.694 8.895H2.333v-1.55A5.667 5.667 0 0 1 8 7.9v0a5.667 5.667 0 0 1 5.667 5.666v1.551H6.142"/></symbol><symbol class="si si-Wifi_communication" viewBox="0 0 16 16" id="Wifi_communication"><g clip-path="url(#cfa)"><path d="M-.183 7.583c-.048 0-.095 0-.095-.048-.096-.047-.096-.19-.048-.238s3-3.966 8.145-3.966c4.668 0 8.098 3.918 8.145 3.966.048.095.048.19 0 .238-.095.048-.19.048-.238 0-.048-.047-3.382-3.822-7.86-3.822-4.953 0-7.81 3.775-7.859 3.822-.095.048-.142.048-.19.048"/><path d="M1.77 9.064c-.048 0-.095 0-.095-.047-.096-.048-.096-.192-.048-.24 0-.047 2.286-3.01 6.192-3.01 3.525 0 6.05 2.867 6.192 3.01.048.096.048.192 0 .24-.095.047-.19.047-.238 0-.047-.048-2.524-2.867-5.906-2.867-3.716 0-5.859 2.819-5.907 2.867-.047.047-.095.047-.19.047"/><path d="M3.77 10.498c-.047 0-.095 0-.095-.048-.095-.048-.095-.191-.048-.239.048-.095 1.572-2.054 4.192-2.054 2.43 0 4.144 1.959 4.192 2.054.047.096.047.191 0 .239-.095.048-.19.048-.238 0 0 0-1.668-1.911-3.906-1.911-2.477 0-3.906 1.863-3.906 1.91-.095.049-.143.049-.19.049"/><path d="M7.82 12.6a1.11 1.11 0 0 1-1.096-1.099 1.08 1.08 0 0 1 1.095-1.099 1.11 1.11 0 0 1 1.096 1.099A1.08 1.08 0 0 1 7.819 12.6m0-1.816a.734.734 0 0 0-.715.717c0 .382.333.717.714.717a.734.734 0 0 0 .715-.717.734.734 0 0 0-.715-.717"/></g><defs><clipPath id="cfa"><path d="M0 0h16v16H0z"/></clipPath></defs></symbol><symbol class="si si-Wind" viewBox="0 0 16 16" id="Wind"><path d="m7.23 6.429-.394-.04.355-5.001c0-.434.356-.788.83-.788s.83.354.83.827l.276 4.962-.435.04-.316-5.002c0-.197-.158-.394-.355-.394a.354.354 0 0 0-.356.355z"/><path d="M12.406 10.682c-.159 0-.356-.04-.435-.158l-4.227-2.48.158-.434 4.346 2.52c.197.08.395.08.474-.078s.04-.394-.08-.473l-3.91-3.15.237-.355 3.95 3.15c.356.237.435.71.198 1.104-.198.197-.474.354-.711.354"/><path d="M3.557 10.682c-.237.04-.474-.079-.672-.354-.237-.394-.158-.867.198-1.103l3.91-3.15.277.354-3.95 3.15c-.198.079-.198.355-.079.473s.356.197.474.079l4.187-2.52.237.393-4.226 2.481c-.198.118-.198.158-.356.197"/><path d="M7.981 7.334a.434.434 0 1 0 .002-.867.434.434 0 0 0-.002.867m.553 8.035H7.35c-.237 0-.474-.197-.474-.67l.355-4.726c0-.157.08-.236.237-.197.159 0 .238.079.198.236l-.356 4.726c0 .158.04.197.04.197h1.185c.04 0 .04-.039.04-.039l-.356-4.844c0-.158.08-.236.198-.236.158 0 .237.078.237.196l.395 4.805c0 .276-.277.552-.514.552"/></symbol><symbol class="si si-Wind_Sun" viewBox="0 0 16 16" id="Wind_Sun"><g clip-path="url(#cha)"><path d="M11.423 7.6c-1.375 0-2.543-1.16-2.543-2.537s1.163-2.539 2.543-2.539c.498 0 .97.151 1.432.458a.16.16 0 0 1 .043.224.16.16 0 0 1-.224.044c-.416-.277-.814-.406-1.25-.406-1.203 0-2.216 1.014-2.216 2.21s1.017 2.21 2.215 2.21 2.215-1.014 2.215-2.21c0-.298-.07-.622-.203-.928a.16.16 0 0 1 .086-.212.16.16 0 0 1 .212.087c.152.35.23.716.23 1.057 0 1.373-1.164 2.538-2.544 2.538zm0-5.61a.164.164 0 0 1-.164-.165V.664a.164.164 0 0 1 .329 0v1.165a.165.165 0 0 1-.165.165zm0 7.64a.164.164 0 0 1-.164-.164V8.3a.164.164 0 0 1 .329 0v1.166c0 .09-.074.164-.165.164m4.413-4.403h-1.168a.164.164 0 1 1 0-.329h1.168a.164.164 0 1 1 0 .329m-7.657 0H7.01a.164.164 0 1 1 0-.329h1.168a.164.164 0 1 1 0 .329m5.365-2.547a.162.162 0 0 1-.1-.29c.01-.004.182-.142.848-.807a.16.16 0 0 1 .23 0 .16.16 0 0 1 0 .23c-.693.69-.874.828-.883.832a.17.17 0 0 1-.1.035zM8.01 8.205a.162.162 0 0 1-.1-.29c.01-.003.182-.142.849-.806a.16.16 0 0 1 .229 0 .16.16 0 0 1 0 .229c-.692.69-.874.828-.883.833a.17.17 0 0 1-.095.034m6.571-.043a.18.18 0 0 1-.117-.048c-.666-.664-.839-.798-.848-.807-.069-.056-.086-.155-.03-.224a.156.156 0 0 1 .225-.03c.009.004.19.142.883.837a.16.16 0 0 1 0 .229.17.17 0 0 1-.113.047zM9.087 2.81a.18.18 0 0 1-.116-.048c-.667-.665-.84-.799-.848-.807-.07-.056-.087-.156-.03-.225a.156.156 0 0 1 .224-.03c.009.004.19.142.883.833a.16.16 0 0 1 0 .229.17.17 0 0 1-.117.047zM5.67 7.903a.163.163 0 0 1-.16-.147L5.12 3.57c0-.185-.142-.371-.358-.371a.36.36 0 0 0-.355.358l-.26 4.196a.164.164 0 0 1-.173.15.16.16 0 0 1-.151-.172l.26-4.187c0-.397.35-.669.679-.669.406 0 .683.35.683.682l.39 4.174a.16.16 0 0 1-.148.177H5.67z"/><path d="M.7 11.2a.69.69 0 0 1-.623-.366c-.173-.35-.044-.786.29-.95L3.9 7.648a.16.16 0 0 1 .225.052.16.16 0 0 1-.052.224l-3.547 2.24c-.186.096-.251.338-.16.527.086.173.328.238.519.143L4.783 9.02A.165.165 0 0 1 5 9.099a.164.164 0 0 1-.077.215l-3.898 1.813a.7.7 0 0 1-.324.078z"/><path d="M8.919 11.175a.6.6 0 0 1-.35-.108L4.782 9.31a.16.16 0 0 1-.078-.216.16.16 0 0 1 .217-.077l3.806 1.77q.143.09.281.051a.38.38 0 0 0 .243-.194.34.34 0 0 0 .052-.276.38.38 0 0 0-.195-.242L5.592 7.873a.164.164 0 0 1-.048-.225.16.16 0 0 1 .225-.047l3.504 2.244a.68.68 0 0 1 .346.44.65.65 0 0 1-.082.523.7.7 0 0 1-.61.367zM4.848 8.52a.216.216 0 1 0 0-.432.216.216 0 0 0 0 .432"/><path d="M4.848 8.68a.38.38 0 0 1-.38-.38c0-.212.168-.38.38-.38s.38.168.38.38-.168.38-.38.38m0-.432a.053.053 0 0 0-.052.052c0 .06.108.06.108 0a.053.053 0 0 0-.052-.052zm.346 7.252h-.606a.55.55 0 0 1-.549-.553l.26-4.325c.004-.09.086-.164.173-.15a.16.16 0 0 1 .151.172l-.26 4.316c0 .117.1.216.23.216h.605a.224.224 0 0 0 .225-.229l-.26-4.307a.167.167 0 0 1 .152-.173c.087-.013.165.06.173.151l.26 4.317a.55.55 0 0 1-.55.56z"/></g><defs><clipPath id="cha"><path d="M0 0h16v16H0z"/></clipPath></defs></symbol><symbol class="si si-Wind_stroke" viewBox="0 0 16 16" id="Wind_stroke"><path stroke="#3D3D3D" stroke-linecap="round" stroke-linejoin="round" stroke-width=".75" d="M21.423 19.932 7.807 28.876c-1.23.997.133 3.076 1.663 2.477l14.563-7.315 13.932 7.066c2.162.964 3.724-1.13 1.88-2.61l-13.301-8.562-.765-16.343a1.895 1.895 0 0 0-3.74 0l-.649 16.31"/><path stroke="#3D3D3D" stroke-linecap="round" stroke-linejoin="round" stroke-width=".75" d="M22.388 29.624 21.423 46h5.154l-.881-16.376"/><path stroke="#3D3D3D" stroke-miterlimit="10" stroke-width=".59" d="M24 21.827a.582.582 0 1 0 0-1.164.582.582 0 0 0 0 1.164Z"/></symbol><symbol class="si si-Yes_checkicons" viewBox="0 0 16 16" id="Yes_checkicons"><g clip-path="url(#cja)"><path d="M15.975 7.335c-.172-1.995-.915-3.591-2.23-4.845-.057-.057-.228-.114-.285 0-.058.057-.115.228 0 .285 1.257 1.197 1.943 2.679 2.115 4.617.286 4.162-2.744 7.753-6.975 8.152-4.173.342-7.832-2.736-8.175-6.898S3.112.894 7.343.495c1.715-.171 3.2.17 4.573 1.083.114.057.229.057.286-.057s0-.228-.057-.285Q10-.22 7.343.038C2.883.495-.317 4.257.025 8.703.368 12.865 3.855 16 8.03 16h.628c4.46-.456 7.66-4.218 7.318-8.665"/><path fill-rule="evenodd" d="M4.163 8.608a.215.215 0 0 1 .303.003l2.972 3.02a.213.213 0 0 1-.002.303.215.215 0 0 1-.304-.003L4.16 8.91a.213.213 0 0 1 .003-.302"/><path fill-rule="evenodd" d="M12.5 4.712c.096.07.116.204.046.299l-5.088 6.897a.215.215 0 0 1-.3.046.213.213 0 0 1-.045-.3L12.2 4.758a.215.215 0 0 1 .3-.045"/></g><defs><clipPath id="cja"><path d="M0 0h16v16H0z"/></clipPath></defs></symbol><symbol class="si si-Youtubeicons" viewBox="0 0 16 16" id="Youtubeicons"><g clip-path="url(#cka)"><path d="M6.46 10.454a.23.23 0 0 0 .12-.034l4.023-2.41a.24.24 0 0 0 .116-.208.24.24 0 0 0-.12-.204L6.574 5.314a.234.234 0 0 0-.32.088.24.24 0 0 0-.032.118v4.696a.24.24 0 0 0 .07.168c.044.045.104.07.167.07m.236-4.527 3.316 1.884-3.317 1.987z"/><path d="M13.187 2.3H2.813c-.746 0-1.46.3-1.988.833A2.86 2.86 0 0 0 0 5.14v5.52c0 .753.298 1.475.825 2.007a2.8 2.8 0 0 0 1.988.833.24.24 0 0 0 .167-.07.24.24 0 0 0-.167-.406c-.62 0-1.216-.25-1.655-.693a2.38 2.38 0 0 1-.686-1.67V5.14c0-.627.247-1.228.686-1.67a2.33 2.33 0 0 1 1.655-.694h10.374c.62 0 1.216.25 1.655.693s.686 1.044.686 1.67v5.521a2.37 2.37 0 0 1-.686 1.67 2.33 2.33 0 0 1-1.655.694H4.888a.23.23 0 0 0-.167.07.239.239 0 0 0 .167.406h8.299a2.8 2.8 0 0 0 1.988-.833A2.86 2.86 0 0 0 16 10.66V5.14a2.85 2.85 0 0 0-.825-2.007 2.8 2.8 0 0 0-1.988-.833"/></g><defs><clipPath id="cka"><path d="M0 0h16v16H0z"/></clipPath></defs></symbol><symbol class="si si-renewable-energy-seal" viewBox="0 0 16 16" id="renewable-energy-seal"><g clip-path="url(#bfa)"><path d="M83.504.791H.595v72.13c0 .39.298.782.794.782.495 0 .793-.293.793-.783V2.26h81.421c19.24 0 34.909 15.462 34.909 34.449v36.31H14.082c-.396 0-.793.293-.793.782s.298.783.794.783H120V36.807C120 16.939 103.636.79 83.504.79"/><path d="M17.554 58.73h-1.786l-2.181-3.133h-1.29v3.132H10.71v-8.22h4.265c1.388 0 2.678 1.174 2.678 2.544 0 1.468-.992 2.544-2.281 2.642zm-2.777-4.405c.892 0 1.289-.685 1.289-1.272s-.496-1.272-1.091-1.272h-2.678v2.544zm9.521 1.762h-4.562c.099.979.793 1.468 1.487 1.468.496 0 .893-.196 1.19-.685H24c-.496 1.272-1.587 1.957-2.876 1.957-1.587 0-3.074-1.174-3.074-3.132 0-1.957 1.487-3.131 3.074-3.131s3.075 1.174 3.075 3.131c.099.098.099.294.099.392M22.71 55.01c-.298-.783-.893-1.174-1.488-1.174s-1.19.391-1.487 1.174zm8.034-.293v4.012h-1.488v-3.914c0-.49-.496-.98-1.19-.98s-1.19.49-1.19.98v3.914h-1.488v-6.068h1.488v.783c.198-.391.595-.783 1.389-.88.991-.196 2.479.587 2.479 2.153m7.041 1.37h-4.562c.1.979.793 1.468 1.488 1.468.495 0 .892-.196 1.19-.685h1.586c-.495 1.272-1.586 1.957-2.876 1.957-1.586 0-3.074-1.174-3.074-3.132 0-1.957 1.488-3.131 3.074-3.131 1.587 0 3.075 1.174 3.075 3.131.099.098.099.294.099.392m-1.488-1.077c-.297-.783-.892-1.174-1.487-1.174s-1.19.391-1.488 1.174zm10.81-2.348-1.785 6.067h-1.686l-.991-4.306-.992 4.306h-1.686l-1.785-6.068h1.785l.892 4.405.893-4.405h1.686l.893 4.405.892-4.405zm5.653 1.565v4.502h-1.487v-.88c-.1.391-.596.978-1.587 1.076-1.488 0-2.281-1.076-2.281-1.957 0-1.273.992-1.958 2.28-1.958h.893c.397 0 .595-.195.595-.489 0-.49-.396-.685-.991-.685-.397 0-.794.294-.893.587h-1.488c.298-1.272 1.389-1.762 2.38-1.762 1.092-.195 2.58.392 2.58 1.566m-1.487 1.566c-.199.098-.397.098-.695.098h-.595c-.396 0-.991.098-1.09.783-.1.49.396.979 1.09.979s1.29-.49 1.29-.979zm8.626 0c0 1.86-1.288 3.132-2.776 3.132-.794 0-1.389-.587-1.587-1.076v.88H54.05v-8.22h1.487v3.033c.298-.489.893-.88 1.587-.88 1.388 0 2.777 1.174 2.777 3.131m-1.487 0c0-.978-.595-1.86-1.487-1.86s-1.488.784-1.488 1.86.595 1.86 1.488 1.86c.892 0 1.487-.881 1.487-1.86m2.478 2.937v-8.222h1.488v8.221zm8.628-2.643h-4.56c.099.979.793 1.468 1.487 1.468.496 0 .893-.196 1.19-.685h1.587c-.496 1.272-1.587 1.957-2.876 1.957-1.587 0-3.074-1.174-3.074-3.132 0-1.957 1.487-3.131 3.074-3.131s3.074 1.174 3.074 3.131c.1.098.1.294.1.392m-1.586-1.077c-.298-.783-.893-1.174-1.488-1.174s-1.19.391-1.487 1.174zm7.535-3.23v2.154h4.165v1.272h-4.165v2.153h4.562v1.273h-6.149V50.41h6.149v1.272h-4.562zm11.107 2.937v4.012h-1.487v-3.914c0-.49-.496-.98-1.19-.98s-1.19.49-1.19.98v3.914h-1.488v-6.068h1.488v.783c.198-.391.595-.783 1.388-.88.893-.196 2.48.587 2.48 2.153m7.041 1.37h-4.562c.099.979.793 1.468 1.487 1.468.496 0 .893-.196 1.19-.685h1.587c-.496 1.272-1.586 1.957-2.876 1.957-1.587 0-3.074-1.174-3.074-3.132 0-1.957 1.487-3.131 3.074-3.131s3.075 1.174 3.075 3.131c.099.098.099.294.099.392m-1.587-1.077c-.297-.783-.892-1.174-1.487-1.174s-1.19.391-1.488 1.174zm6.247-2.349v1.37s-.297-.097-.793-.097c-.892 0-1.289.49-1.289 1.076v3.72h-1.487v-6.07h1.487v.881c.199-.49.695-1.076 1.29-1.076.198.098.495.098.793.195m6.347 6.167c0 1.175-1.388 2.056-2.876 2.056s-2.876-.881-2.876-2.056v-.195h1.488v.097c0 .49.694.783 1.487.783s1.389-.391 1.389-.88c0-.49-.298-.98-1.389-.98-2.082 0-2.975-1.174-2.975-2.446 0-1.37 1.488-2.545 2.975-2.545.298 0 .695.098.992.196l.992-.978.992.978-.695.685c.496.49.794 1.077.794 1.664 0 .979-.595 1.664-1.29 1.957.397.294.992.881.992 1.664m-1.388-3.62c0-.588-.694-1.273-1.488-1.273-.892 0-1.487.587-1.487 1.272 0 .783.495 1.37 1.487 1.37.893 0 1.488-.685 1.488-1.37m8.231-2.544-2.876 7.242c-.297.685-.595.978-1.587.978h-.694v-1.37h.595a.55.55 0 0 0 .496-.293l.198-.49-2.38-6.068h1.587l1.488 4.111 1.487-4.11z"/><path stroke="#85BE4C" stroke-miterlimit="10" stroke-width="1.4" d="M20.231 18.114v25.054h-4.76V26.237c-1.19.294-2.876.587-5.256.587v-4.013c5.355 0 5.85-3.033 5.85-4.697zM43.14 30.837c0 7.242-3.074 13.114-9.421 13.114s-9.422-5.872-9.422-13.114 3.075-13.115 9.422-13.115c6.446 0 9.422 5.872 9.422 13.115Zm-4.76 0c0-4.796-1.587-9.102-4.562-9.102s-4.562 4.306-4.562 9.102c0 4.795 1.587 9.101 4.562 9.101s4.562-4.306 4.562-9.101Zm27.471 0c0 7.242-3.074 13.114-9.421 13.114s-9.422-5.872-9.422-13.114 3.075-13.115 9.422-13.115c6.446 0 9.421 5.872 9.421 13.115Zm-4.76 0c0-4.796-1.587-9.102-4.562-9.102s-4.562 4.306-4.562 9.102c0 4.795 1.587 9.101 4.562 9.101s4.562-4.306 4.562-9.101Zm16.463-1.272c-3.273 0-6.15-2.35-6.15-6.362s2.976-6.361 6.15-6.361c3.173 0 6.148 2.348 6.148 6.361-.099 4.013-2.975 6.361-6.148 6.361Zm19.537-12.43L78.347 42.287h-4.264l18.743-25.152zm-19.537 9.69c1.487 0 2.975-1.175 2.975-3.622 0-2.251-1.388-3.523-2.975-3.621-1.488 0-2.975 1.272-2.975 3.621 0 2.447 1.388 3.621 2.975 3.621Zm22.314 9.101c0 4.013-2.876 6.361-6.15 6.361-3.272 0-6.148-2.348-6.148-6.361s2.975-6.362 6.149-6.362 6.149 2.35 6.149 6.362Zm-3.174 0c0-2.251-1.388-3.523-2.975-3.621-1.488 0-2.975 1.272-2.975 3.621 0 2.447 1.487 3.621 2.975 3.621s2.975-1.174 2.975-3.621Z"/></g><defs><clipPath id="bfa"><path d="M0 0h120v75H0z"/></clipPath></defs></symbol></svg>