<svg xmlns="http://www.w3.org/2000/svg" width="16" height="16" fill="currentColor" class="si si-Agreement_handshakeicons" viewBox="0 0 16 16">
  <path d="M6.711 12.877c-.327 0-.573-.123-.818-.328a1.15 1.15 0 0 1-.328-.82c0-.327.123-.573.328-.819L7.16 9.64c.041-.042.164-.042.205 0 .04.04.04.163 0 .204l-1.228 1.312a.8.8 0 0 0-.245.574c0 .205.081.45.245.574a.8.8 0 0 0 .573.245c.205 0 .45-.082.573-.245.04-.041.164-.041.204 0 .041.04.041.163 0 .204-.163.246-.49.37-.777.37"/>
  <path d="M5.074 13.041H4.46c-.286 0-.573-.123-.777-.328l-.45-.45c-.082-.082-.123-.123-.246-.164s-.204-.082-.327-.082H1.105c-.287 0-.573-.123-.778-.328C.123 11.525 0 11.238 0 10.91V7.303c0-.287.123-.574.327-.779.164-.204.45-.327.778-.327h1.923a.66.66 0 0 0 .532-.246l.941-.943c.082-.082.205-.205.328-.246.122-.04.286-.082.409-.082h3.765c.163 0 .286.041.409.082s.245.164.368.246l1.923 1.926c.082.082.205.246.246.37.082.163.082.327.082.45 0 .164-.041.287-.082.41v.04l-.246.37a1.25 1.25 0 0 1-.818.287c-.287 0-.573-.123-.778-.328L8.88 7.303c-.041-.04-.041-.164 0-.205.04-.04.163-.04.204 0l1.228 1.23a.8.8 0 0 0 .532.246c.205 0 .41-.082.614-.205.04-.041.123-.164.204-.287.041-.123.082-.205.082-.287 0-.123 0-.205-.04-.287v-.04c-.042-.083-.083-.206-.164-.288L9.616 5.254a.9.9 0 0 0-.245-.164.8.8 0 0 0-.287-.082H5.32c-.082 0-.205.041-.328.082a.8.8 0 0 0-.245.164l-.941.943a1.12 1.12 0 0 1-.778.327H1.105a.64.64 0 0 0-.532.246.8.8 0 0 0-.246.574v3.607c0 .164.041.369.246.533a.8.8 0 0 0 .573.246h1.596c.163 0 .286.04.409.082.164.04.245.164.327.246l.45.45a.8.8 0 0 0 .532.247h.614c.082 0 .164.081.164.163s-.082.123-.164.123"/>
  <path d="M5.36 11.525c-.327 0-.572-.123-.818-.328a1.15 1.15 0 0 1-.327-.82c0-.328.123-.574.327-.82l2.537-2.54c.041-.042.082-.042.123-.042h1.76c.081 0 .163.082.163.164s-.082.164-.163.164H7.284l-2.496 2.5a.8.8 0 0 0-.246.574c0 .205.082.451.246.574a.8.8 0 0 0 .573.246.58.58 0 0 0 .49-.246c.042-.04.164-.04.205 0 .041.041.041.164 0 .205-.123.205-.327.369-.695.369m2.742 2.746c-.163 0-.286-.041-.409-.082a1.1 1.1 0 0 1-.41-.246c-.04-.04-.081-.082-.081-.123-.04-.082-.123-.164-.164-.287a1.5 1.5 0 0 1-.082-.41c0-.164.041-.287.082-.41.041-.122.123-.286.246-.368l1.268-1.271c.041-.041.164-.041.205 0s.04.164 0 .205l-1.269 1.27a.66.66 0 0 0-.163.287c-.041.123-.082.205-.082.328 0 .082.04.205.082.328.04.082.04.123.123.164.04.041.04.082.081.123s.164.123.246.164c.245.082.41.082.655 0 .081-.04.122-.04.204-.123.041-.04.082-.04.123-.082l1.228-1.27c.04-.041.163-.041.204 0 .041.04.041.164 0 .204l-1.268 1.271c-.041.041-.082.082-.123.082-.082.041-.164.123-.287.164a1.2 1.2 0 0 1-.409.082"/>
  <path d="M10.107 14.968c-.286 0-.572-.082-.777-.287-.123-.123-.246-.246-.287-.41a1.5 1.5 0 0 1-.081-.41c0-.164.04-.287.081-.41s.164-.246.246-.328c.04 0 .04-.04.04-.04.042-.042.165-.042.206 0 .04.04.04.163 0 .204l-.082.082c-.082.041-.164.164-.164.205-.04.123-.082.205-.082.328 0 .082.041.205.082.328.04.082.082.164.205.287a.98.98 0 0 0 .572.205.66.66 0 0 0 .532-.246l2.578-2.582c.082-.082.246-.205.328-.246.164-.041.286-.082.45-.082h.982a.64.64 0 0 0 .532-.246.8.8 0 0 0 .245-.574v-3.36c0-.083-.04-.206-.081-.329a.9.9 0 0 0-.164-.246c-.082-.082-.164-.123-.245-.164a.8.8 0 0 0-.287-.082H12.44a.176.176 0 0 1-.164-.163c0-.082.082-.164.164-.164h2.496c.164 0 .287.04.41.082.122.04.245.163.327.245s.204.205.245.328.082.287.082.41v3.361c0 .287-.123.574-.327.779-.164.205-.45.328-.778.328h-.9c-.082 0-.205.04-.327.082-.041.04-.164.082-.246.164l-2.578 2.582c-.164.246-.45.369-.737.369M8.061 3.819c-.081 0-.163-.082-.163-.164V1.196c0-.082.082-.164.163-.164.082 0 .164.082.164.164v2.46c0 .081-.082.163-.164.163m2.128 0h-.082c-.081-.04-.122-.123-.081-.205l.859-1.721c.04-.082.123-.123.204-.082.082.041.123.123.082.205l-.859 1.721c0 .041-.082.082-.123.082m-4.296 0c-.041 0-.123-.04-.123-.082l-.86-1.721c-.04-.082 0-.164.082-.205s.164 0 .205.082l.86 1.721c.04.082 0 .164-.083.205z"/>
</svg>