<svg xmlns="http://www.w3.org/2000/svg" width="16" height="16" fill="currentColor" class="si si-agreement_handshake_" viewBox="0 0 16 16">
  <path fill-rule="evenodd" d="M7.984 1.06c-.085.057-.091.141-.091 1.375 0 1.212.001 1.239.056 1.308.064.082.157.091.22.022.04-.044.044-.177.044-1.343 0-1.219-.002-1.296-.048-1.338-.052-.046-.131-.057-.181-.024m-3.002.764c-.122.061-.099.13.366 1.06.245.489.459.898.475.909.066.042.176.02.218-.044.04-.062.027-.094-.425-.996-.486-.973-.501-.995-.634-.929m5.997-.017c-.056.012-.952 1.782-.952 1.881 0 .034.014.076.032.093.035.036.151.042.198.012.05-.032.916-1.788.916-1.856 0-.091-.092-.153-.194-.13M4.88 4.751c-.17.054-.187.068-.819.699-.396.395-.684.661-.746.689-.09.041-.216.046-1.128.048-1.113.001-1.349.019-1.557.116-.16.073-.384.293-.48.47C0 7.048 0 7.047 0 9.12c0 2.033.002 2.062.131 2.315.077.152.316.371.501.46.229.111.428.13 1.352.131 1.048.001.98-.02 1.456.442.391.38.516.467.759.531.185.048.893.058.976.013a.11.11 0 0 0 .051-.086c-.001-.151-.086-.179-.539-.179-.507 0-.533-.013-1.039-.517-.514-.511-.405-.479-1.701-.497C1 11.721.94 11.717.827 11.664a1.1 1.1 0 0 1-.435-.394l-.059-.11v-4l.073-.147c.088-.179.264-.364.407-.43.098-.044.198-.049 1.134-.05.564 0 1.11-.013 1.212-.028.345-.049.42-.102 1.068-.745.485-.482.615-.597.747-.659l.159-.074L7.17 5.02l2.036-.008.151.069c.127.058.305.223 1.185 1.1.705.703 1.055 1.071 1.098 1.154.034.067.076.194.092.283a.5.5 0 0 1-.02.318c-.069.222-.222.425-.383.506-.183.093-.435.153-.552.132-.239-.044-.324-.111-.973-.755-.35-.348-.665-.677-.7-.732l-.065-.1H7.106l-1.296 1.3c-.713.715-1.331 1.354-1.374 1.42-.263.407-.286.8-.07 1.226a.75.75 0 0 0 .265.324c.241.182.425.246.706.248l.231.002.01.269c.009.247.018.285.11.471.203.412.655.666 1.11.624l.177-.017.001.246c.001.277.037.405.184.648.124.206.177.259.356.354.295.157.594.2.859.122.145-.042.451-.197.537-.271.041-.035.047-.032.063.037.079.352.155.498.348.675.24.219.512.312.848.288.104-.007.243-.037.309-.066.093-.041.436-.371 1.52-1.46.77-.774 1.46-1.446 1.533-1.493.233-.149.27-.156.987-.172.665-.015.667-.016.834-.093.183-.084.419-.313.513-.497.131-.255.133-.294.133-2.166 0-1.939-.005-2.003-.164-2.244a1.4 1.4 0 0 0-.528-.449c-.146-.059-.169-.06-1.518-.067-1.511-.009-1.497-.011-1.497.15 0 .166-.038.161 1.441.17l1.346.007.155.079c.178.09.32.235.401.411.057.122.057.148.065 1.975.008 2.161.025 2.015-.259 2.297-.229.23-.266.238-1.02.239-.641 0-.861.03-1.018.137a68 68 0 0 0-1.524 1.49c-1.607 1.599-1.532 1.538-1.873 1.513-.216-.015-.452-.121-.569-.253-.178-.203-.262-.487-.21-.708.03-.131.062-.17.511-.624.448-.453.478-.49.47-.573-.008-.081-.018-.09-.102-.097-.087-.007-.114.013-.4.3a4 4 0 0 1-.326.308c-.042 0-.164.125-.279.285-.151.212-.452.491-.615.571-.106.052-.169.063-.38.063-.23.001-.267-.006-.393-.076a1.1 1.1 0 0 1-.25-.209c-.212-.252-.262-.526-.152-.848.057-.167.081-.196.76-.881.621-.627.701-.717.701-.792 0-.083-.055-.14-.136-.14-.018 0-.318.279-.665.62-.702.688-.764.742-.949.825-.365.163-.851-.018-1.043-.389-.058-.113-.071-.173-.072-.349-.002-.332.037-.39.812-1.214.581-.617.665-.717.666-.792.001-.084-.054-.141-.136-.141-.018 0-.382.347-.808.771-.687.683-.789.774-.895.803-.248.066-.528-.012-.75-.209-.171-.153-.247-.334-.247-.592-.001-.346-.014-.329 1.432-1.78l1.283-1.286h1.626l.695.688c.835.829.861.845 1.321.844.241 0 .303-.01.448-.07.248-.104.328-.169.464-.379.226-.349.268-.759.114-1.111-.07-.158-.159-.257-1.104-1.208-.566-.57-1.096-1.088-1.178-1.152a1.3 1.3 0 0 0-.313-.171c-.159-.053-.21-.055-2.224-.053-2.003.001-2.066.003-2.234.056"/>
</svg>