<svg width="48" height="48" viewBox="0 0 48 48" fill="currentColor" xmlns="http://www.w3.org/2000/svg" class="bi bi-Biomassicons">
<path d="M42.4831 12.0821C45.4002 16.5993 46.561 22.0288 45.7458 27.3438C44.9307 32.6589 42.1962 37.491 38.0594 40.9266C33.9226 44.3621 28.6703 46.1629 23.2956 45.9884C17.921 45.8139 12.7966 43.6762 8.89136 39.9796" stroke="pink" stroke-width="0.75" stroke-miterlimit="10" stroke-linecap="round"/>
<path d="M5.6882 36.1791C2.67543 31.6561 1.44439 26.1777 2.23251 20.8006C3.02064 15.4236 5.77211 10.5288 9.95619 7.0605C14.1403 3.59218 19.4606 1.79601 24.8908 2.01844C30.3211 2.24087 35.4766 4.46615 39.363 8.26505" stroke="pink" stroke-width="0.75" stroke-miterlimit="10" stroke-linecap="round"/>
<path d="M5.6882 36.1791C2.67543 31.6561 1.44439 26.1777 2.23251 20.8006C3.02064 15.4236 5.77211 10.5288 9.95619 7.0605C14.1403 3.59218 19.4606 1.79601 24.8908 2.01844C30.3211 2.24087 35.4766 4.46615 39.363 8.26505" stroke="pink" stroke-width="0.75" stroke-miterlimit="10" stroke-linecap="round"/>
<path d="M32.0106 35.2996C29.1995 37.2971 25.7439 38.1733 22.3206 37.7567C18.8973 37.3401 15.7527 35.6607 13.5028 33.0473C11.2529 30.434 10.0596 27.0749 10.1566 23.6278C10.2536 20.1808 11.6339 16.8941 14.0273 14.4114C16.4207 11.9287 19.6547 10.4288 23.0961 10.2054C26.5374 9.98202 29.9382 11.0512 32.6325 13.2037C35.3268 15.3561 37.1206 18.4367 37.6625 21.8422C38.2044 25.2478 37.4554 28.733 35.5623 31.6153" stroke="pink" stroke-width="0.75" stroke-miterlimit="10" stroke-linecap="round"/>
<path d="M21.2891 17.5587C22.7881 16.9159 24.4647 16.8176 26.0285 17.281C27.5923 17.7444 28.9446 18.7402 29.8513 20.0959C30.758 21.4516 31.1618 23.0817 30.9928 24.7038C30.8238 26.326 30.0927 27.8379 28.926 28.9776C27.7594 30.1173 26.2308 30.813 24.605 30.9441C22.9793 31.0752 21.3589 30.6335 20.0247 29.6956C18.6904 28.7576 17.7264 27.3824 17.2995 25.8084C16.8727 24.2343 17.01 22.5605 17.6876 21.077" stroke="pink" stroke-width="0.75" stroke-miterlimit="10" stroke-linecap="round"/>
</svg>
