<svg xmlns="http://www.w3.org/2000/svg" width="16" height="16" fill="currentColor" class="si si-biomass_" viewBox="0 0 16 16">
  <path fill-rule="evenodd" d="M7.373.312a10 10 0 0 0-1.276.22 7.75 7.75 0 0 0-4.334 2.934c-.535.723-.996 1.707-1.23 2.625C.354 6.792.31 7.16.308 7.973c-.001.737.013.9.135 1.527.135.696.34 1.288.676 1.953.264.524.481.866.588.93.162.096.41.035.507-.124s.073-.269-.135-.617a7 7 0 0 1-.76-1.725 6.94 6.94 0 0 1 .778-5.59 6.94 6.94 0 0 1 5.035-3.225c.397-.051 1.32-.058 1.668-.013.338.044.839.146 1.13.231a7.2 7.2 0 0 1 2.772 1.558c.09.084.194.172.231.197.081.056.27.058.372.006.171-.088.24-.343.138-.51-.107-.176-.676-.651-1.19-.993A7.7 7.7 0 0 0 8.794.334 11 11 0 0 0 7.373.312m.094 2.742A5 5 0 0 0 3.711 5.47a4.99 4.99 0 0 0-.331 4.397c.213.52.412.854.772 1.297.825 1.015 1.986 1.638 3.354 1.799.325.038.975.017 1.307-.041a5.1 5.1 0 0 0 1.899-.743c.168-.11.259-.189.287-.248.119-.25-.049-.527-.321-.527-.094 0-.157.026-.324.131-.763.48-1.517.705-2.359.705a4.24 4.24 0 0 1-2.412-.751 4.3 4.3 0 0 1-1.759-2.73c-.062-.324-.07-1.115-.015-1.426.306-1.741 1.588-3.095 3.282-3.468a4.24 4.24 0 0 1 3.082.503c1.039.622 1.747 1.64 1.992 2.865.071.355.084 1.072.025 1.407a4.3 4.3 0 0 1-.56 1.547c-.108.179-.137.25-.137.341 0 .291.25.453.521.34.111-.046.24-.238.453-.673a4.97 4.97 0 0 0-.561-5.275 6 6 0 0 0-.92-.898 4.94 4.94 0 0 0-2.623-.982 3.5 3.5 0 0 0-.896.014m6.535.645a.37.37 0 0 0-.206.29c-.014.115-.011.121.257.584.415.715.702 1.559.846 2.486.07.452.062 1.509-.014 1.98-.176 1.076-.528 1.977-1.115 2.847a6 6 0 0 1-.849 1.034 6.9 6.9 0 0 1-4.001 1.975c-2.008.268-4.076-.368-5.556-1.708a1.6 1.6 0 0 0-.262-.202c-.263-.1-.548.13-.501.407.022.129.151.264.594.621 2.348 1.891 5.625 2.222 8.322.84a7.703 7.703 0 0 0 3.65-9.666c-.24-.61-.657-1.371-.805-1.468a.38.38 0 0 0-.36-.02M7.813 5.298c-.343.034-.746.144-.924.252a.46.46 0 0 0-.169.309c0 .084.106.262.184.308.107.064.245.058.472-.02a2 2 0 0 1 1.212-.024c.243.071.547.246.74.425.897.83.849 2.21-.103 2.975-1.092.879-2.729.329-3.108-1.045a2 2 0 0 1-.048-.505c0-.315.006-.348.099-.617.11-.317.115-.358.06-.49-.075-.179-.346-.258-.526-.153-.241.141-.444.983-.373 1.547.1.799.449 1.421 1.051 1.876.795.598 1.794.72 2.718.33.55-.232 1.054-.716 1.341-1.287.191-.381.303-.96.269-1.389a2.714 2.714 0 0 0-2.401-2.48 1.7 1.7 0 0 0-.494-.012"/>
</svg>