<svg xmlns="http://www.w3.org/2000/svg" width="16" height="16" fill="currentColor" class="si si-Biomassicons" viewBox="0 0 16 16">
  <path fill-rule="evenodd" d="M22.16 1.69c-3.658.297-7.416 1.602-10.508 3.648-1.806 1.195-3.839 3.056-5.15 4.714C1.482 16.398.244 24.774 3.215 32.28c.611 1.542 2.047 4.137 2.356 4.255.146.056.337-.041.458-.232.061-.098-.051-.346-.486-1.075-2.241-3.753-3.251-7.606-3.119-11.901.129-4.194 1.319-7.897 3.66-11.394C7.746 9.451 9.649 7.575 12.2 5.902c4.593-3.013 10.299-4.149 15.764-3.14a21.65 21.65 0 0 1 10.545 5.234c.391.354.772.644.848.644.205 0 .426-.28.367-.466-.11-.348-2.46-2.261-3.884-3.162-.761-.482-2.37-1.301-3.381-1.721-3.157-1.311-6.83-1.882-10.299-1.601m.32 8.201a14.8 14.8 0 0 0-7.24 2.958c-.786.607-2.018 1.866-2.615 2.673-2.046 2.768-2.992 5.964-2.777 9.391.083 1.331.266 2.298.669 3.526 2.248 6.852 9.305 10.943 16.348 9.479 1.601-.333 3.607-1.156 4.833-1.983.642-.433.75-.576.619-.821s-.398-.183-1.08.252a13.46 13.46 0 0 1-14.255.143c-3.217-1.969-5.308-4.939-6.188-8.789-.249-1.087-.308-3.45-.118-4.68.789-5.096 4.293-9.238 9.164-10.833 1.442-.472 2.337-.603 4.12-.605 1.895-.002 2.648.112 4.28.651 4.59 1.517 8.021 5.413 8.969 10.186.24 1.209.292 3.196.116 4.401-.28 1.92-.853 3.566-1.763 5.064-.199.328-.362.649-.362.714s.074.184.165.266c.124.113.197.129.3.066.33-.203 1.221-1.85 1.661-3.07.646-1.793.869-3.236.813-5.28-.044-1.632-.245-2.806-.707-4.145-.36-1.041-1.277-2.837-1.886-3.695-.688-.968-2.328-2.603-3.308-3.298-1.56-1.106-3.645-2.001-5.558-2.386-.687-.138-1.214-.182-2.4-.198-.836-.012-1.646-.006-1.8.013m19.733 1.922c-.129.13-.029.487.266.956 1.574 2.492 2.671 5.751 3.039 9.031.118 1.057.1 3.531-.036 4.69a21.44 21.44 0 0 1-6.16 12.756c-3.523 3.533-7.779 5.6-12.842 6.237-1.337.168-4.378.126-5.64-.079-4.46-.722-7.948-2.389-11.5-5.498-.342-.299-.4-.323-.58-.241-.359.164-.262.422.38 1.017 3.478 3.224 8.558 5.334 13.548 5.628 11.565.684 21.745-7.596 23.429-19.055.684-4.65-.153-9.54-2.335-13.655-.769-1.45-1.044-1.84-1.296-1.84-.121 0-.243.024-.273.053M22.64 16.759c-.587.132-1.429.42-1.58.54-.139.112-.125.421.026.546.105.087.233.069.78-.111.984-.325 1.513-.399 2.454-.344 1.743.101 3.02.636 4.226 1.77a6.7 6.7 0 0 1 1.943 3.317c.146.579.165.826.129 1.72-.05 1.216-.225 1.924-.705 2.848-.8 1.537-2.284 2.763-3.956 3.269-1.519.459-3.444.309-4.797-.374-2.245-1.134-3.584-3.163-3.7-5.607-.05-1.05.053-1.761.385-2.663.205-.56.214-.625.102-.785-.302-.431-.704.074-1.031 1.294-.237.884-.222 2.824.028 3.701.259.906.811 2.001 1.351 2.679.912 1.144 2.539 2.193 3.985 2.57.818.213 2.436.234 3.299.042a7.37 7.37 0 0 0 5.696-5.926c.122-.68.105-2.1-.034-2.759-.303-1.443-1.092-2.828-2.207-3.877-.918-.864-1.788-1.346-3.125-1.734-.775-.225-2.507-.286-3.269-.116"/>
</svg>