<svg xmlns="http://www.w3.org/2000/svg" width="16" height="16" fill="currentColor" class="si si-calendar_" viewBox="0 0 16 16">
  <path fill-rule="evenodd" d="M4.147.889a.6.6 0 0 0-.271.277c-.026.061-.036.218-.036.551v.465l-.207.016c-.332.025-.708.089-.891.15C1.559 2.744.738 3.682.548 4.853c-.061.375-.062 7.287-.002 7.635.251 1.434 1.373 2.474 2.849 2.637.355.04.488.018.626-.1a.48.48 0 0 0 .098-.652c-.104-.151-.196-.189-.556-.229a3.4 3.4 0 0 1-.51-.093 2.18 2.18 0 0 1-1.358-1.175c-.2-.434-.185-.177-.195-3.496L1.492 6.4h13.016L14.5 9.38c-.01 3.319.005 3.062-.195 3.496-.276.598-.785 1.019-1.465 1.21l-.213.06-3.454.013c-2.634.011-3.466.022-3.509.047a.6.6 0 0 0-.239.315c-.048.254.056.48.265.575.106.047.245.05 3.457.05 3.578 0 3.57.001 4.053-.133a4.1 4.1 0 0 0 1.027-.51 3.18 3.18 0 0 0 1.225-2.013c.062-.355.062-7.254 0-7.637-.187-1.153-.998-2.093-2.147-2.488a3.2 3.2 0 0 0-.8-.152c-.222 0-.212.023-.212-.476 0-.244-.012-.487-.027-.541-.04-.144-.229-.307-.383-.33a.46.46 0 0 0-.372.084c-.176.116-.203.216-.204.763v.474h-6.48v-.472c0-.546-.03-.65-.219-.775-.125-.083-.34-.106-.461-.051M3.84 3.668c0 .531.014.586.181.737.238.215.61.143.749-.145.051-.106.057-.162.057-.588V3.2h6.48v.472c0 .426.005.482.056.588q.126.26.436.26c.183-.001.281-.054.408-.22.073-.095.073-.097.082-.598l.008-.502h.12c.065 0 .211.019.324.042a2.17 2.17 0 0 1 1.755 1.947l.018.198H1.493l.001-.087c0-.142.051-.422.11-.607a2.18 2.18 0 0 1 2.029-1.491L3.84 3.2z"/>
</svg>