<svg xmlns="http://www.w3.org/2000/svg" width="16" height="16" fill="currentColor" class="si si-Calendar_whiteicons" viewBox="0 0 16 16">
  <g stroke="#1F1F1F" stroke-linecap="round" stroke-linejoin="round" clip-path="url(#a)">
    <path d="M5.897 14.65h6.39c.357 0 .71-.069 1.04-.202a2.7 2.7 0 0 0 .88-.575A2.6 2.6 0 0 0 15 11.998V5.346a2.6 2.6 0 0 0-.206-1.014 2.7 2.7 0 0 0-.588-.861 2.7 2.7 0 0 0-.88-.575 2.8 2.8 0 0 0-1.039-.202H3.713a2.73 2.73 0 0 0-1.92.777 2.7 2.7 0 0 0-.587.86A2.6 2.6 0 0 0 1 5.347v6.652a2.6 2.6 0 0 0 .794 1.875c.252.246.55.442.88.575s.682.202 1.039.202v0M1 5.895h14M4.336 1.35v2.686m7.46-2.686v2.686"/>
  </g>
  <defs>
    <clipPath id="a">
      <path d="M0 0h16v16H0z"/>
    </clipPath>
  </defs>
</svg>