<svg xmlns="http://www.w3.org/2000/svg" width="16" height="16" fill="currentColor" class="si si-calendar_white_" viewBox="0 0 16 16">
  <path fill-rule="evenodd" d="M4.111.911a.54.54 0 0 0-.187.164c-.069.106-.071.117-.079.61-.006.365-.017.502-.04.502-.219.003-.7.065-.906.118a3.19 3.19 0 0 0-2.23 2.057c-.167.503-.162.364-.162 4.3 0 2.431.009 3.643.029 3.773a3.16 3.16 0 0 0 1.771 2.389q.635.304 1.295.307c.254.002.29-.004.374-.061a.46.46 0 0 0 .223-.417c.001-.121-.014-.184-.061-.258-.101-.164-.206-.21-.573-.25a3.5 3.5 0 0 1-.512-.094 2.18 2.18 0 0 1-1.519-1.681c-.035-.186-.041-.618-.041-3.093V6.4h13.014v2.863c0 2.406-.007 2.899-.04 3.089-.146.838-.758 1.491-1.627 1.734l-.213.06-3.454.013c-2.556.011-3.467.022-3.506.045a.8.8 0 0 0-.224.241c-.041.08-.037.312.007.417.046.11.177.221.305.259.069.02 1.125.026 3.538.019 3.412-.009 3.442-.009 3.68-.066.302-.072.48-.134.734-.256.666-.319 1.234-.903 1.513-1.554.115-.269.133-.321.199-.571l.06-.226.008-3.68c.008-3.272.004-3.708-.034-3.934a3.14 3.14 0 0 0-1.354-2.099c-.448-.299-.991-.495-1.467-.528-.375-.027-.334.037-.344-.541-.008-.48-.011-.507-.072-.596-.223-.324-.684-.307-.857.032-.046.092-.052.158-.052.585v.481h-6.48v-.481c0-.42-.007-.494-.051-.58a.43.43 0 0 0-.249-.232.49.49 0 0 0-.416.017m-.266 2.791c.008.48.011.506.073.596a.45.45 0 0 0 .415.222c.135 0 .184-.013.278-.075.189-.125.214-.216.215-.772l.001-.473h6.48v.481c0 .426.006.493.052.584.173.34.634.357.857.033.061-.09.064-.116.072-.6l.009-.506.205.017a2.19 2.19 0 0 1 1.994 1.985l.018.193H1.486l.018-.197a2.16 2.16 0 0 1 1.194-1.752c.31-.156.599-.228.934-.234l.205-.004z"/>
</svg>