<svg xmlns="http://www.w3.org/2000/svg" width="16" height="16" fill="currentColor" class="si si-checkmark_" viewBox="0 0 16 16">
  <path fill-rule="evenodd" d="M14.76 3.358c-.075.034-1.444 1.388-4.558 4.506-2.449 2.451-4.459 4.454-4.467 4.45s-.937-.937-2.065-2.074-2.091-2.096-2.141-2.132c-.122-.086-.363-.106-.529-.043a.64.64 0 0 0-.358.416.56.56 0 0 0 .054.402c.071.142 4.634 4.741 4.78 4.819a.66.66 0 0 0 .511.02c.073-.031 1.4-1.346 4.784-4.739 2.575-2.582 4.709-4.739 4.742-4.792a.57.57 0 0 0-.068-.674.584.584 0 0 0-.685-.159"/>
</svg>