<svg xmlns="http://www.w3.org/2000/svg" width="16" height="16" fill="currentColor" class="si si-check_roudend" viewBox="0 0 16 16">
  <path fill-rule="evenodd" d="M19.14 6.597c-.066.042-1.365 1.306-2.887 2.81l-4.869 4.808-2.103 2.074-2.183-2.154c-1.2-1.185-2.245-2.188-2.321-2.229-.193-.104-.383-.061-.591.134-.157.146-.166.166-.166.384v.229l2.36 2.338c1.743 1.726 2.406 2.358 2.536 2.418.221.1.5.103.717.006.122-.055 1.514-1.405 5.21-5.053 2.774-2.738 5.069-5.027 5.1-5.088.116-.224.041-.47-.197-.652a.56.56 0 0 0-.606-.025"/>
</svg>