<svg xmlns="http://www.w3.org/2000/svg" width="16" height="16" fill="currentColor" class="si si-chevron_arrow_up" viewBox="0 0 16 16">
  <path fill-rule="evenodd" d="M7.809 4.702c-.181.068-.337.177-.614.428-.557.505-4.674 4.697-4.93 5.018-.096.122-.139.27-.136.474.002.183.069.34.207.482a.63.63 0 0 0 .504.215c.354.002.312.036 1.553-1.248.612-.633 1.679-1.721 2.372-2.418l1.26-1.266.616.613a323 323 0 0 1 3.488 3.577c.634.662.705.712 1.004.712a.73.73 0 0 0 .739-.745c-.002-.243-.07-.371-.357-.672-1.947-2.039-4.093-4.224-4.64-4.724-.373-.341-.57-.457-.805-.472a.7.7 0 0 0-.261.026"/>
</svg>