<svg xmlns="http://www.w3.org/2000/svg" width="16" height="16" fill="currentColor" class="si si-chevron_arrow_rounded_left" viewBox="0 0 16 16">
  <path fill-rule="evenodd" d="M11.24.424a1 1 0 0 0-.187.076c-.254.132-6.092 5.83-6.81 6.646-.307.349-.43.579-.43.804 0 .306.099.473.598 1.015.859.935 6.478 6.436 6.68 6.541a.76.76 0 0 0 .954-.221.75.75 0 0 0-.011-.894 37 37 0 0 0-.821-.804c-2.234-2.151-5.61-5.481-5.671-5.595-.022-.041.153-.226 1.17-1.242a295 295 0 0 1 4.368-4.254c.857-.817.943-.907 1.007-1.053a.8.8 0 0 0-.008-.586.88.88 0 0 0-.385-.392.95.95 0 0 0-.454-.041"/>
</svg>