<svg xmlns="http://www.w3.org/2000/svg" width="16" height="16" fill="currentColor" class="si si-chevron_arrow_rounded_down" viewBox="0 0 16 16">
  <path fill-rule="evenodd" d="M.897 3.852c-.411.147-.607.661-.402 1.057.105.203 5.6 5.817 6.538 6.679.544.5.711.599 1.017.599.225 0 .455-.123.804-.43.573-.505 3.243-3.211 5.837-5.917.851-.888.893-.946.892-1.24a.63.63 0 0 0-.195-.502.73.73 0 0 0-.554-.238c-.303 0-.351.038-1.232.959a311 311 0 0 1-4.365 4.483c-1.011 1.011-1.188 1.177-1.23 1.155-.027-.014-.734-.714-1.571-1.555a301 301 0 0 1-4.023-4.115c-.41-.426-.771-.795-.804-.821a.8.8 0 0 0-.712-.114"/>
</svg>