<svg xmlns="http://www.w3.org/2000/svg" width="16" height="16" fill="currentColor" class="si si-chevron_arrow_rounded_right" viewBox="0 0 16 16">
  <path fill-rule="evenodd" d="M4.373.431c-.23.054-.471.279-.532.496a.79.79 0 0 0 .139.696c.033.039.402.4.82.803 2.464 2.374 5.591 5.459 5.657 5.582.022.041-.152.227-1.155 1.228a312 312 0 0 1-4.483 4.366c-.921.881-.959.929-.959 1.232 0 .219.082.411.238.554a.63.63 0 0 0 .489.194c.306.003.367-.04 1.253-.89 2.801-2.689 5.415-5.268 5.917-5.838.307-.349.43-.579.43-.804a.94.94 0 0 0-.18-.533c-.232-.334-1.677-1.8-4.075-4.131C5.474.995 4.984.529 4.868.478a.86.86 0 0 0-.495-.047"/>
</svg>