<svg xmlns="http://www.w3.org/2000/svg" width="16" height="16" fill="currentColor" class="si si-chevron_arrow_down" viewBox="0 0 16 16">
  <path fill-rule="evenodd" d="M2.632 4.703c-.253.095-.46.331-.495.566a1 1 0 0 0 .065.496c.106.204 4.798 4.977 5.21 5.299.255.2.387.255.615.255.383.001.54-.127 2.187-1.789.861-.868 2.192-2.24 3.301-3.402.287-.301.355-.429.357-.672.003-.572-.579-.921-1.095-.658-.054.028-.355.318-.67.646a308 308 0 0 1-3.479 3.569l-.603.6-1.273-1.28a267 267 0 0 1-2.353-2.4c-.818-.848-1.111-1.135-1.207-1.183-.157-.078-.417-.1-.56-.047"/>
</svg>