<svg xmlns="http://www.w3.org/2000/svg" width="16" height="16" fill="currentColor" class="si si-chevron_arrow_left" viewBox="0 0 16 16">
  <path fill-rule="evenodd" d="M10.371 2.134a.8.8 0 0 0-.21.066c-.187.096-4.185 3.983-4.993 4.853-.445.48-.539.64-.539.917.001.23.082.409.306.672.354.415 2.394 2.437 4.705 4.663.519.5.628.568.905.567a.9.9 0 0 0 .267-.043c.39-.163.576-.623.403-.995-.069-.148-.038-.116-1.802-1.821a256 256 0 0 1-1.96-1.925l-1.12-1.113.467-.47a435 435 0 0 1 3.658-3.567c.711-.684.763-.752.787-1.025a.8.8 0 0 0-.146-.502c-.101-.119-.298-.246-.411-.264-.063-.01-.133-.021-.155-.026a.7.7 0 0 0-.162.013"/>
</svg>