<svg xmlns="http://www.w3.org/2000/svg" width="16" height="16" fill="currentColor" class="si si-chevron_arrow_roudend_up" viewBox="0 0 16 16">
  <path fill-rule="evenodd" d="M7.758 3.864c-.182.071-.318.174-.729.552C6.09 5.278.6 10.887.495 11.091a.76.76 0 0 0 .22.954.74.74 0 0 0 .908-.025c.039-.033.394-.396.789-.807 2.336-2.425 5.473-5.604 5.596-5.67.041-.023.229.154 1.255 1.182a294 294 0 0 1 4.24 4.355c.819.858.908.943 1.055 1.008a.76.76 0 0 0 .83-.186.63.63 0 0 0 .195-.502c.001-.294-.041-.352-.892-1.24-2.608-2.721-5.259-5.407-5.837-5.916-.355-.313-.579-.431-.811-.429a1 1 0 0 0-.285.049"/>
</svg>