<svg xmlns="http://www.w3.org/2000/svg" width="16" height="16" fill="currentColor" class="si si-clear" viewBox="0 0 16 16">
  <path fill-rule="evenodd" d="M3.047 2.815a.62.62 0 0 0-.303.323.76.76 0 0 0 .02.477c.027.053 1.02 1.064 2.205 2.249l2.156 2.152-2.162 2.148c-1.573 1.562-2.174 2.175-2.205 2.25-.056.134-.056.381.001.499a.8.8 0 0 0 .293.308c.115.063.425.06.548-.005.051-.027 1.054-1.008 2.229-2.179 1.175-1.172 2.151-2.13 2.17-2.13.018 0 1 .96 2.181 2.134s2.184 2.155 2.23 2.179a.6.6 0 0 0 .272.046c.164.001.205-.01.319-.08a.7.7 0 0 0 .21-.209c.068-.11.08-.155.079-.306a.6.6 0 0 0-.056-.285c-.035-.068-.852-.896-2.209-2.24L8.872 8.013l2.161-2.146c1.188-1.181 2.182-2.189 2.208-2.24a.72.72 0 0 0-.008-.551.62.62 0 0 0-.806-.274c-.093.042-.615.549-2.256 2.186C8.997 6.161 8.024 7.12 8.009 7.12s-.994-.96-2.176-2.134C4.245 3.41 3.653 2.838 3.568 2.8a.6.6 0 0 0-.521.015"/>
</svg>