<svg xmlns="http://www.w3.org/2000/svg" width="16" height="16" fill="currentColor" class="si si-clear_circle_2" viewBox="0 0 16 16">
  <path fill-rule="evenodd" d="M5.187 4.745a.627.627 0 0 0-.428.845c.031.073.378.439 1.204 1.265l1.161 1.163-1.112 1.091c-.611.6-1.146 1.142-1.189 1.203a.63.63 0 0 0 .109.829.7.7 0 0 0 .372.138c.275.002.247.024 1.52-1.234l1.183-1.17 1.15 1.148c.865.863 1.179 1.161 1.27 1.202a.614.614 0 0 0 .749-.923c-.04-.056-.573-.594-1.184-1.195L8.881 8.013l1.171-1.173c1.122-1.125 1.172-1.179 1.212-1.318.052-.177.052-.174.002-.344a.64.64 0 0 0-.317-.384.68.68 0 0 0-.536-.007c-.068.032-.522.464-1.26 1.197L7.999 7.13 6.833 5.968C5.718 4.857 5.66 4.804 5.522 4.763c-.155-.046-.209-.049-.335-.018"/>
</svg>