<svg xmlns="http://www.w3.org/2000/svg" width="16" height="16" fill="currentColor" class="si si-close_x_" viewBox="0 0 16 16">
  <path fill-rule="evenodd" d="M3.08 2.784a.614.614 0 0 0-.347.753l.045.156 2.175 2.16 2.174 2.16-2.152 2.132c-1.2 1.189-2.174 2.174-2.201 2.228a.614.614 0 0 0 .27.838c.171.085.36.09.524.016.084-.038.681-.614 2.265-2.186 1.183-1.174 2.162-2.134 2.176-2.134.013 0 .991.964 2.174 2.142 2.376 2.368 2.243 2.253 2.56 2.224.245-.022.408-.143.512-.378a.6.6 0 0 0-.014-.503c-.031-.065-.815-.862-2.205-2.242L8.879 8.008l2.151-2.13c2.287-2.265 2.276-2.253 2.276-2.502a.65.65 0 0 0-.387-.591.67.67 0 0 0-.576.063c-.064.045-.53.497-1.036 1.005S9.85 5.305 9.193 5.952L8 7.126l-2.171-2.15c-1.441-1.427-2.202-2.163-2.265-2.19-.117-.048-.376-.05-.484-.002"/>
</svg>