<svg xmlns="http://www.w3.org/2000/svg" width="16" height="16" fill="currentColor" class="si si-Cloudicons" viewBox="0 0 16 16">
  <path stroke="#3D3D3D" stroke-linecap="round" stroke-miterlimit="10" stroke-width=".75" d="M9.887 12.196h3.143c1.23 0 2.256-.962 2.256-2.198 0-1.03-.479-1.716-1.572-1.922"/>
  <path stroke="#3D3D3D" stroke-linecap="round" stroke-miterlimit="10" stroke-width=".75" d="M12.962 7.32c.274-1.167-.341-1.785-1.23-1.991-.273-.069-.683-.069-1.025 0C10.23 3.956 8.726 3.2 7.36 3.612c-.82.275-1.503.893-1.777 1.717-1.913-.55-3.895.55-4.441 2.335-.547 1.854.546 3.776 2.46 4.326.341.068.683.137 1.025.137h5.671"/>
</svg>