<svg xmlns="http://www.w3.org/2000/svg" width="16" height="16" fill="currentColor" class="si si-cloud_" viewBox="0 0 16 16">
  <path fill-rule="evenodd" d="M7.867 3.139c-.963.075-1.928.712-2.431 1.603l-.08.143-.165-.023a8 8 0 0 0-.658-.021c-.408.001-.541.012-.77.061-1.056.229-1.951.832-2.522 1.698-.394.598-.568 1.16-.592 1.907-.023.708.077 1.168.391 1.8.214.431.438.741.757 1.047q.912.876 2.07 1.058c.154.024.304.052.333.061s1.289.027 2.8.039l4.48.036c1.813.015 1.979.008 2.33-.099a2.8 2.8 0 0 0 1.259-.833c.19-.228.43-.695.51-.989.076-.282.083-.991.013-1.276Q15.28 8.09 13.98 7.758c-.254-.065-.345-.065-.452.001a.347.347 0 0 0-.146.464c.063.141.112.17.456.268.305.086.473.174.66.345.169.154.311.423.369.697.05.239.05.642 0 .877-.105.496-.502.98-1.007 1.229-.349.172-.411.177-1.987.162-.774-.008-2.798-.023-4.5-.035-3.033-.02-3.099-.022-3.386-.079a3.24 3.24 0 0 1-1.304-.551 3.18 3.18 0 0 1-1.26-1.96 4.4 4.4 0 0 1-.023-.955c.162-1.008.759-1.821 1.683-2.294a3.28 3.28 0 0 1 2.359-.25l.34.088c.023.005.067-.08.125-.241a2.5 2.5 0 0 1 .351-.689c.401-.562 1.186-.968 1.875-.968.591 0 1.241.278 1.681.719.241.241.412.52.551.897.076.206.112.273.142.264.14-.042.549-.094.746-.094.623 0 1.169.303 1.334.739.068.18.079.503.028.779q-.06.327.143.455c.165.101.44.047.52-.103.104-.194.144-.892.068-1.191-.217-.858-1.06-1.424-2.125-1.425h-.287l-.057-.114a3.3 3.3 0 0 0-.728-.906 3.2 3.2 0 0 0-1.722-.74 2.3 2.3 0 0 0-.56-.008"/>
</svg>