<svg xmlns="http://www.w3.org/2000/svg" width="16" height="16" fill="currentColor" class="si si-Communications_infraicons" viewBox="0 0 16 16">
  <g clip-path="url(#a)">
    <path d="M5.714 16H1.562c-.196 0-.391-.1-.489-.252s-.097-.303 0-.505l1.417-3.23c.342-.909.44-.404.781-.253l.098.101c.147.202.537.555 1.661 1.01l.098.05.049.152s.635 1.463 1.025 2.12c.098.15.05.353 0 .504-.146.202-.293.303-.488.303m-2.736-3.634-1.367 3.028h3.956c-.342-.605-.781-1.615-.928-1.968-.733-.303-1.319-.707-1.66-1.06"/>
    <path d="M6.69 13.527c-1.367 0-2.735-.505-3.76-1.514-.977-.909-1.515-2.17-1.564-3.534-.048-1.413.489-2.725 1.466-3.735l.537-.555 3.273 3.23.098-.1a1.4 1.4 0 0 1-.147-.606c0-.808.635-1.413 1.466-1.413.83 0 1.367.605 1.367 1.413 0 .858-.732 1.413-1.367 1.413-.196 0-.342-.05-.489-.1l-.098.1.929.909c.097.1.097.303 0 .403-.098.101-.294.152-.391 0L6.642 8.177l-3.273-3.18-.098.1A4.66 4.66 0 0 0 1.953 8.38c0 1.21.488 2.27 1.367 3.129a4.79 4.79 0 0 0 6.693 0l.048-.05h.05l-.782-.758c-.098-.1-.147-.302 0-.403.146-.101.293-.101.39 0l1.222 1.16-.245.202-.048.05-.293.304c-.977 1.01-2.345 1.514-3.664 1.514m.831-6.208.098.05c.147.05.244.152.44.152.39 0 .781-.354.781-.808s-.342-.808-.781-.808c-.44 0-.88.354-.88.808 0 .151.05.353.147.454zm7.23-.152c-.195 0-.293-.151-.293-.303 0 0 .195-2.22-1.417-4.189S9.231.605 9.182.605c-.146 0-.293-.15-.293-.302S8.987 0 9.182 0c.098 0 2.491.1 4.25 2.271s1.563 4.543 1.563 4.644-.098.252-.244.252m-2.59 0c-.194 0-.292-.151-.292-.353 0 0 .098-1.312-.88-2.524-.976-1.16-2.295-1.262-2.295-1.262-.147 0-.293-.151-.293-.302 0-.152.146-.303.293-.303.048 0 1.514.1 2.686 1.463 1.173 1.363 1.026 2.928 1.026 2.978.049.152-.098.303-.244.303"/>
  </g>
  <defs>
    <clipPath id="a">
      <path d="M1 0h14v16H1z"/>
    </clipPath>
  </defs>
</svg>