<svg xmlns="http://www.w3.org/2000/svg" width="16" height="16" fill="currentColor" class="si si-communications_infra_" viewBox="0 0 16 16">
  <path fill-rule="evenodd" d="M9.037.04c-.065.035-.122.133-.132.227-.019.176.096.308.289.332.544.068.865.14 1.315.296 2.217.772 3.766 2.883 3.943 5.378.015.214.02.442.011.508-.042.305.259.501.448.29l.076-.085v-.394c0-1.435-.517-2.944-1.417-4.135C12.585 1.152 11.12.273 9.543.042 9.2-.009 9.127-.009 9.037.04m-.515 2.469c-.115.1-.145.223-.084.341s.129.151.415.202c.628.11 1.211.39 1.735.831.722.608 1.229 1.662 1.269 2.637.016.393.027.452.104.543a.24.24 0 0 0 .297.07c.14-.058.151-.107.134-.598a4 4 0 0 0-.417-1.725c-.563-1.182-1.742-2.104-2.997-2.343-.299-.057-.349-.053-.456.042M3 4.578c-.424.447-.589.645-.794.955a5.08 5.08 0 0 0-.738 3.789 5 5 0 0 0 1.011 2.199c.076.095.132.19.126.212s-.367.852-.801 1.843c-.669 1.524-.791 1.822-.791 1.928 0 .143.042.238.152.342.166.158.106.154 2.479.154 1.776 0 2.187-.007 2.257-.036a.8.8 0 0 0 .198-.151.45.45 0 0 0 .142-.258c.038-.181.017-.272-.108-.488-.197-.341-.837-1.678-.814-1.701.005-.006.128.014.272.044 1.348.279 2.818.008 3.942-.728.302-.198.526-.388.989-.84l.403-.394-.621-.591c-.342-.325-.651-.602-.687-.616-.085-.032-.218.005-.301.083-.07.066-.083.21-.028.306.017.031.209.227.424.435l.393.378-.246.213c-.825.716-1.74 1.103-2.839 1.201-1.014.091-2.129-.202-3.007-.79-1.456-.975-2.217-2.53-2.038-4.168a4.6 4.6 0 0 1 .757-2.126c.223-.335.589-.767.64-.755.019.005.777.73 1.685 1.611.907.881 1.964 1.892 2.348 2.246.622.575.707.645.787.645.049 0 .117-.02.152-.043.081-.058.141-.205.12-.297-.011-.047-.194-.252-.508-.568-.483-.486-.491-.496-.439-.543.046-.041.066-.043.149-.016.465.154.958.023 1.332-.352.293-.295.414-.588.415-1.004.001-.625-.333-1.129-.873-1.315-.148-.051-.235-.062-.487-.062-.446 0-.719.103-1.021.386-.28.262-.427.606-.426 1.001 0 .202.046.418.115.547.026.05.022.068-.024.114l-.054.054L5.421 6.22A421 421 0 0 1 3.8 4.615c-.219-.221-.412-.402-.427-.402s-.183.165-.373.365m5.385 1.397a.82.82 0 0 1 .378 1.074c-.137.281-.425.471-.712.471-.155 0-.549-.188-.699-.333-.123-.12-.192-.335-.171-.535.056-.542.709-.909 1.204-.677m-5.219 6.562c.254.23.737.542 1.131.73l.336.16.194.44c.107.242.309.674.45.96l.265.54c.005.011-.875.02-1.955.02-1.285 0-1.962-.009-1.956-.027a326 326 0 0 1 1.348-2.986c.004-.001.088.073.187.163"/>
</svg>