<svg xmlns="http://www.w3.org/2000/svg" width="16" height="16" fill="currentColor" class="si si-data_analysis_status_" viewBox="0 0 16 16">
  <path fill-rule="evenodd" d="M14.992.049c-.417.149-.602.535-.474.992.017.063-.13.214-1.856 1.904a149 149 0 0 1-1.906 1.847c-.016.006-.109-.037-.206-.097a4 4 0 0 0-1.297-.526c-.334-.071-1.065-.065-1.418.012a3.8 3.8 0 0 0-1.304.533l-.202.133-.931-.974L4.18 2.599l-.286-.3.039-.113a.74.74 0 0 0-.161-.742.746.746 0 0 0-1.117 0 .73.73 0 0 0-.01.996c.178.202.46.308.685.257l.112-.025 1.226 1.28 1.225 1.28-.149.164c-.396.436-.713 1.076-.854 1.725-.07.32-.07 1.143-.002 1.466.064.296.183.651.312.925.057.122.092.221.078.221s-.923.806-2.019 1.791l-2.037 1.829c-.04.034-.063.033-.187-.009-.389-.132-.767.024-.96.397a.6.6 0 0 0-.06.299c-.008.823 1.103 1.061 1.446.31.059-.127.065-.169.052-.367l-.014-.224 2.03-1.825 2.03-1.825.078.099c.272.346.822.793 1.227.997.222.113.586.249.769.29.139.03.154.04.154.103 0 .08-.367 2.885-.379 2.895a2 2 0 0 1-.118.062c-.362.183-.523.577-.385.944.104.275.423.501.708.501a1 1 0 0 0 .218-.04.764.764 0 0 0 .5-.98.86.86 0 0 0-.341-.407c-.072-.038-.092-.064-.083-.105.007-.03.091-.661.186-1.401.096-.741.179-1.371.186-1.4.011-.05.035-.054.367-.057.195-.002.465-.023.6-.047a4 4 0 0 0 1.585-.667l.231-.172 1.72 1.165 1.72 1.164-.015.22c-.018.268.029.413.19.589a.753.753 0 1 0 .856-1.199.84.84 0 0 0-.581-.015l-.101.043-1.716-1.162-1.717-1.163.142-.19c.333-.443.538-.926.64-1.505q.083-.46-.218-.458c-.155 0-.216.085-.287.404a2.8 2.8 0 0 1-.36.892c-.57.922-1.603 1.478-2.75 1.478-1.543 0-2.809-1.015-3.134-2.511a4.3 4.3 0 0 1-.04-1.119c.074-.513.231-.941.491-1.34.849-1.302 2.59-1.792 3.99-1.122.317.153.737.427.928.606.169.16.307.348.539.732.175.29.214.327.349.327.108 0 .265-.149.265-.252 0-.148-.286-.603-.608-.965l-.216-.243 1.868-1.828 1.868-1.827.12.041a.78.78 0 0 0 .771-.197.75.75 0 0 0-.02-1.066.76.76 0 0 0-.764-.174"/>
</svg>