<svg xmlns="http://www.w3.org/2000/svg" width="16" height="16" fill="currentColor" class="si si-Data_analysis_statusicons" viewBox="0 0 16 16">
  <g clip-path="url(#a)">
    <path d="M8.594 11.617A3.75 3.75 0 0 1 4.82 7.861a3.75 3.75 0 0 1 3.773-3.757c.908 0 1.747.348 2.585 1.044.35.348.559.626.769 1.043.07.14 0 .279-.14.348-.14.07-.28 0-.35-.139-.21-.348-.349-.626-.628-.904-.769-.626-1.468-.905-2.236-.905-1.817 0-3.214 1.392-3.214 3.2s1.397 3.2 3.214 3.2c1.607 0 2.934-1.113 3.144-2.574 0-.139.14-.208.28-.208s.21.139.21.278c-.21 1.878-1.817 3.13-3.634 3.13"/>
    <path d="M10.97 5.217c-.07 0-.14 0-.21-.07-.07-.069-.07-.277 0-.347L15.022.626c.07-.07.28-.07.35 0s.069.278 0 .348l-4.263 4.174s-.07.07-.14.07m-4.822.14c-.07 0-.14 0-.21-.07L3.145 2.365a.44.44 0 0 1 0-.417c.14-.14.28-.07.42 0L6.357 4.87q.105.208 0 .417c-.07.07-.14.07-.21.07m-5.03 8.695c-.07 0-.14 0-.21-.07-.07-.138-.07-.278 0-.347L5.24 9.739c.14-.07.28-.07.35 0 .07.14.07.278 0 .348l-4.332 3.896s-.07.07-.14.07m6.568.765c-.21 0-.28-.139-.28-.278l.42-3.2c0-.139.139-.209.279-.209s.28.14.21.279l-.42 3.2c0 .07-.07.208-.21.208m6.986-1.67c-.07 0-.07 0-.14-.069l-3.493-2.365c-.14-.07-.14-.278-.07-.348.07-.139.28-.139.35-.07l3.493 2.366c.14.07.14.278.07.348s-.14.139-.21.139"/>
    <path d="M15.232 1.252a.488.488 0 1 0 .002-.976.488.488 0 0 0-.002.976"/>
    <path d="M15.232 1.53a.774.774 0 0 1-.77-.765c0-.417.35-.765.77-.765.419 0 .768.348.768.765s-.35.765-.768.765m0-.973q-.21 0-.21.208 0 .21.21.209.21 0 .21-.209 0-.208-.21-.208m0 13.287a.488.488 0 1 0 .001-.977.488.488 0 0 0-.002.976"/>
    <path d="M15.232 14.122a.774.774 0 0 1-.77-.765c0-.418.35-.766.77-.766.419 0 .768.348.768.766 0 .417-.35.765-.768.765m0-.974q-.21 0-.21.209 0 .208.21.208t.21-.208-.21-.21M.769 14.54a.488.488 0 1 0 .002-.977.488.488 0 0 0-.002.976"/>
    <path d="M.769 14.817A.774.774 0 0 1 0 14.052c0-.417.35-.765.769-.765s.768.348.768.765-.35.765-.768.765m0-.974q-.21 0-.21.21 0 .207.21.208.21 0 .21-.209t-.21-.209M3.214 2.435a.488.488 0 1 0 .002-.976.488.488 0 0 0-.002.976"/>
    <path d="M3.214 2.713a.774.774 0 0 1-.769-.765c0-.418.35-.765.769-.765s.769.347.769.765c0 .417-.35.765-.769.765m0-.974q-.21 0-.21.209t.21.209.21-.21q0-.207-.21-.208m4.402 13.983a.488.488 0 1 0 .002-.976.488.488 0 0 0-.002.976"/>
    <path d="M7.616 16a.774.774 0 0 1-.769-.765c0-.418.35-.765.769-.765s.768.347.768.765a.773.773 0 0 1-.768.765m0-.974q-.21 0-.21.209t.21.209.21-.21-.21-.208"/>
  </g>
  <defs>
    <clipPath id="a">
      <path d="M0 0h16v16H0z"/>
    </clipPath>
  </defs>
</svg>