<svg xmlns="http://www.w3.org/2000/svg" width="16" height="16" fill="currentColor" class="si si-document_contract_" viewBox="0 0 16 16">
  <path fill-rule="evenodd" d="M3.371 1.131a.9.9 0 0 0-.419.301c-.164.237-.153-.266-.146 6.715l.007 6.373.059.109a.84.84 0 0 0 .353.328c.086.039.503.043 4.655.043 4.278 0 4.568-.003 4.693-.047.285-.1.524-.356.567-.606.011-.066.014-2.467.007-5.336l-.014-5.215-.08-.156c-.063-.125-.163-.234-.493-.537-.462-.426-.494-.44-.635-.295-.148.153-.132.184.302.578.23.209.409.394.44.455.052.102.053.176.053 5.216 0 5.108 0 5.113-.055 5.226a.33.33 0 0 1-.168.169c-.114.055-.125.055-4.601.055-3.041 0-4.503-.009-4.538-.028-.051-.027-.051-.127-.051-6.41V1.687l.069-.069a.34.34 0 0 1 .154-.085c.046-.008 1.583-.012 3.417-.007 2.903.006 3.342.012 3.405.047.039.022.223.177.409.344.372.334.418.352.547.228.092-.087.114-.144.086-.216-.036-.091-.729-.679-.887-.753l-.147-.069-3.44-.006c-2.754-.004-3.462.002-3.549.03m1.177 6.716a.3.3 0 0 0-.084.143c-.013.068-.001.1.064.173l.081.09h6.853l.067-.062a.3.3 0 0 0 .083-.127c.019-.076-.044-.211-.117-.25-.035-.018-1.175-.027-3.465-.027H4.616zm.076 1.966c-.171.069-.211.275-.076.394l.068.06H8.03c2.29 0 3.43-.009 3.465-.028.073-.039.136-.173.117-.25a.3.3 0 0 0-.083-.126l-.067-.063-3.391-.005c-1.865-.003-3.416.005-3.447.018m-.083 2.094c-.081.081-.092.106-.078.18.01.048.048.113.085.146l.068.06H8.03c2.29 0 3.43-.009 3.465-.027.074-.04.136-.174.116-.253a.3.3 0 0 0-.096-.133l-.079-.067H4.635z"/>
</svg>