<svg xmlns="http://www.w3.org/2000/svg" width="16" height="16" fill="currentColor" class="si si-Document Contracticons" viewBox="0 0 16 16">
  <path d="M12.295 15H3.474a.68.68 0 0 1-.674-.674V1.89a.81.81 0 0 1 .796-.796h6.494c.245 0 .49.061.674.245l.551.49c.123.061.123.245 0 .307-.061.122-.245.122-.306 0l-.552-.49c-.06-.062-.183-.123-.367-.123H3.596c-.183 0-.306.122-.306.306v12.497q0 .184.184.184h8.821a.42.42 0 0 0 .429-.429V4.035q0-.184-.184-.368l-.612-.551a.174.174 0 0 1 0-.307c.06-.122.245-.122.306 0l.613.552c.245.245.306.429.306.735v10.046c.061.43-.368.858-.858.858"/>
  <path d="M11.376 8.261H4.7a.264.264 0 0 1-.245-.245c0-.122.123-.245.245-.245h6.677c.123 0 .245.123.245.245a.263.263 0 0 1-.245.245m0 2.022H4.7a.263.263 0 0 1-.245-.245c0-.123.123-.245.245-.245h6.677c.123 0 .245.122.245.245a.263.263 0 0 1-.245.245m0 2.022H4.7a.263.263 0 0 1-.245-.245c0-.123.123-.245.245-.245h6.677c.123 0 .245.122.245.245a.263.263 0 0 1-.245.245"/>
</svg>