<svg xmlns="http://www.w3.org/2000/svg" width="16" height="16" fill="currentColor" class="si si-Downloadicons" viewBox="0 0 16 16">
  <g stroke="#3D3D3D" stroke-width=".1" clip-path="url(#a)">
    <path d="M15.622 7.16c.232 0 .425.175.428.4v6.14c0 .749-.645 1.35-1.433 1.35H1.423c-.787-.005-1.43-.602-1.438-1.349l-.035-6.14V7.56c0-.226.194-.404.427-.404s.427.178.427.404h-.05.05zm0 0a.42.42 0 0 0-.427.404v6.142c0 .295-.256.54-.578.54H1.424zM.84 13.7H.79z"/>
    <path d="m7.931 11.102.002.003a.46.46 0 0 0 .233.134l.006.001q.045.004.088 0h.155a.44.44 0 0 0 .234-.136l.001-.002 2.81-3.414.001-.002a.397.397 0 0 0-.069-.548l-.002-.001a.45.45 0 0 0-.603.065l-2.055 2.45V1.36a.42.42 0 0 0-.428-.41.42.42 0 0 0-.43.41v8.33L5.796 7.163a.443.443 0 0 0-.599-.066V7.1a.393.393 0 0 0-.075.549v.001z"/>
  </g>
  <defs>
    <clipPath id="a">
      <path d="M0 0h16v16H0z"/>
    </clipPath>
  </defs>
</svg>