<svg xmlns="http://www.w3.org/2000/svg" width="16" height="16" fill="currentColor" class="si si-download_" viewBox="0 0 16 16">
  <path fill-rule="evenodd" d="M8.086.963a.6.6 0 0 0-.173.14l-.06.084-.013 3.066-.013 3.067-.48.017a43 43 0 0 1-.907.02l-.427.003-.116-.145c-.178-.224-.388-.299-.603-.217a.45.45 0 0 0-.28.305l-.027.1-1.873.046c-1.031.025-1.958.052-2.061.06l-.186.014-.061-.134C.677 7.106.284 7.024.06 7.233L0 7.289v6.836l.085.171c.115.23.405.517.636.63.366.179-.178.167 7.306.167 7.524 0 6.948.014 7.313-.178.214-.113.467-.353.581-.552l.078-.136.001-3.471V7.285l-.081-.068a.45.45 0 0 0-.177-.086c-.052-.01-1.021.007-2.152.038l-2.057.057-.056-.064a.46.46 0 0 0-.357-.149.43.43 0 0 0-.355.155l-.076.079-.764.017a30 30 0 0 0-.958.032l-.194.015V1.237L8.7 1.125a.47.47 0 0 0-.614-.162"/>
</svg>