<svg xmlns="http://www.w3.org/2000/svg" width="16" height="16" fill="currentColor" class="si si-down_right_" viewBox="0 0 16 16">
  <path fill-rule="evenodd" d="M15.069.339a.5.5 0 0 0-.147.123l-.055.075-.007 6.898-.007 6.898-6.473-6.47C3.024 2.51 1.892 1.39 1.82 1.377c-.274-.05-.512.193-.448.456.012.051 2.016 2.073 6.489 6.547l6.472 6.473H7.467c-6.485 0-6.872.003-6.958.047-.263.134-.28.474-.032.639l.091.061h7.384c8.161 0 7.484.015 7.596-.168.051-.084.052-.193.052-7.472 0-7.275-.001-7.388-.052-7.472-.105-.172-.313-.237-.479-.149"/>
</svg>