<svg xmlns="http://www.w3.org/2000/svg" width="16" height="16" fill="currentColor" class="si si-Earthicons" viewBox="0 0 16 16">
  <path stroke="#3D3D3D" stroke-linecap="round" stroke-linejoin="round" stroke-width=".75" d="M9.93 7.624a19.93 19.93 0 0 1 13.533-5.217A21.59 21.59 0 0 1 43.74 15.23a21.61 21.61 0 0 1-4.079 23.648 21.59 21.59 0 0 1-23.4 5.284A21.59 21.59 0 0 1 2.423 24.56a19.83 19.83 0 0 1 3.932-12.84"/>
  <path stroke="#3D3D3D" stroke-linecap="round" stroke-linejoin="round" stroke-width=".75" d="M3.3 19.294a14.6 14.6 0 0 1 5.768 4.177l.195.243a7.9 7.9 0 0 1 1.625 5.218 25.3 25.3 0 0 0 .178 4.697 34 34 0 0 0 1.983 8.857q1.236.758 2.567 1.333c.91-2.39 1.38-5.932 3.558-7.33a17.5 17.5 0 0 0 1.82-1.414l.422-.406a5.397 5.397 0 0 0 0-7.818c-2.047-1.853-4.143-1.625-6.905-3.608l-.504-.406a2.31 2.31 0 0 1 .179-3.738 10.7 10.7 0 0 0 2.372-1.983 4.6 4.6 0 0 0 .91-2.763c-.829-3.007-6.5-6.225-7.49-6.761M40.31 37.79a4 4 0 0 1-1.153-2.536c-.012-1.202.07-2.403.244-3.592v-.163a5.35 5.35 0 0 0-2.746-4.778l-.536-.309c-2.323-1.365-3.477-2.048-4.143-3.25a4.6 4.6 0 0 1-.406-1.17 5.316 5.316 0 0 1 3.867-6.095 3.93 3.93 0 0 1 1.982-.147c1.364.31 2.193 1.366 4.127 1.48a6.4 6.4 0 0 0 2.404-.374M28.678 2.748c-1.625 1.886-.601 5.559-2.03 7.509-1.626 2.275-2.048 4.876-.082 5.705 2.534 1.121 4.744-3.25 7.165-4.47 1.218-.617 3.964-.455 7.83-.097M16.087 4.634a13.5 13.5 0 0 0 2.99 3.965c.763.667 1.25.488 2.209-.601.568-.65.243-1.398.503-2.406a5.14 5.14 0 0 1 2.275-2.844"/>
</svg>