<svg xmlns="http://www.w3.org/2000/svg" width="16" height="16" fill="currentColor" class="si si-earth_" viewBox="0 0 16 16">
  <path fill-rule="evenodd" d="M7.213.455a7.06 7.06 0 0 0-3.856 1.561c-.403.325-.467.425-.399.631.039.119.12.192.312.285.086.041.299.167.474.279.973.626 1.696 1.338 1.696 1.67 0 .375-.264.732-.826 1.117-.277.19-.382.303-.485.523-.159.339-.158.648.002.989.186.397.751.784 1.668 1.144.248.097.53.217.626.265.812.409 1.114 1.206.744 1.96-.139.284-.372.522-.869.891a3.5 3.5 0 0 0-.487.422c-.275.329-.467.735-.684 1.445a4 4 0 0 1-.144.426c-.011.012-.09-.018-.176-.068l-.156-.09-.101-.304a11 11 0 0 1-.418-1.781c-.094-.694-.114-.97-.133-1.847-.019-.901-.023-.959-.09-1.209a3.5 3.5 0 0 0-.448-.969c-.405-.572-1.105-1.162-1.787-1.504a2 2 0 0 1-.263-.142 7 7 0 0 1 .826-1.76c.205-.314.241-.385.241-.479 0-.216-.156-.363-.383-.363-.155 0-.23.063-.437.366A7.1 7.1 0 0 0 .489 6.947c-.063.431-.063 1.481.001 1.96a7.4 7.4 0 0 0 .725 2.413c.497 1.017 1.096 1.779 1.985 2.523 1.561 1.308 3.732 1.933 5.773 1.663 2.385-.315 4.498-1.752 5.645-3.839a7.57 7.57 0 0 0 .741-5.427A7.58 7.58 0 0 0 10.147.746a2.4 2.4 0 0 1-.385-.141.4.4 0 0 0-.24-.051A2.5 2.5 0 0 1 9.147.52 9 9 0 0 0 7.213.455m1.445.749c.166.017.302.04.302.052s-.017.096-.039.189a9 9 0 0 0-.094.688c-.083.769-.104.842-.338 1.204-.635.982-.567 1.931.164 2.292.411.202.835.143 1.283-.177.093-.066.38-.323.636-.571.496-.479.728-.672.883-.737.134-.056.637-.096.972-.077.483.027 1.05.067 1.138.081.07.011.105.046.208.206.178.278.5.924.483.968-.018.047-.477.053-.643.009a5 5 0 0 1-.497-.214 3.3 3.3 0 0 0-.587-.227c-.357-.076-.794.002-1.249.224-.218.106-.288.158-.507.378a2.1 2.1 0 0 0-.551.868c-.069.198-.075.243-.075.627 0 .361.007.436.062.6.189.57.467.836 1.54 1.476.495.296.629.407.788.652.203.315.247.597.185 1.194-.02.195-.03.507-.023.746.013.445.045.576.211.857.041.07.069.144.061.164-.023.06-.657.625-.924.824-.983.732-2.161 1.177-3.455 1.303-.39.038-1.235.016-1.579-.041-.582-.097-1.333-.305-1.333-.369 0-.053.237-.808.332-1.056.186-.487.327-.67.78-1.008.395-.295.751-.636.902-.863a2.195 2.195 0 0 0-.001-2.426 2.5 2.5 0 0 0-.733-.678 8 8 0 0 0-.771-.349c-.571-.227-.741-.311-1.057-.522-.324-.216-.429-.388-.36-.589.043-.129.07-.156.335-.342.322-.227.751-.66.859-.867.15-.288.205-.504.206-.8.001-.252-.004-.277-.094-.466-.255-.532-.855-1.121-1.745-1.714a10 10 0 0 1-.341-.233c-.043-.038.96-.665 1.067-.666.018 0 .059.05.091.113.252.495.899 1.227 1.21 1.37a.66.66 0 0 0 .56-.005c.149-.071.486-.4.56-.546.071-.14.087-.213.117-.546.026-.294.109-.483.304-.696.129-.142.375-.331.43-.331.014 0 .162.014.327.031m-1.578.164a1.7 1.7 0 0 0-.224.76c-.021.272-.022.276-.124.38l-.103.106-.13-.127c-.249-.243-.712-.865-.712-.956 0-.066.953-.297 1.352-.328.019-.002-.006.069-.059.165m3.04.138c.744.24 1.515.661 2.173 1.186.21.168.694.612.694.637 0 .01-.274.014-.608.009-1.168-.018-1.331.05-2.247.941-.529.515-.715.66-.906.711-.105.027-.135.025-.223-.017a.4.4 0 0 1-.153-.131c-.12-.197-.021-.642.232-1.044.355-.564.386-.673.505-1.762.023-.208.059-.439.081-.514.047-.158.017-.157.452-.016m2.722 4.299c.531.255.637.284 1.065.286.19.001.414-.008.497-.02l.15-.023.081.343c.151.632.177.867.177 1.582-.001.677-.027.944-.149 1.506a6.7 6.7 0 0 1-.934 2.233l-.215.325-.042-.078c-.05-.095-.051-.604-.002-1.061.08-.752-.064-1.316-.458-1.796-.19-.232-.379-.379-.824-.641-1.041-.614-1.24-.81-1.308-1.285a1.4 1.4 0 0 1 .743-1.408c.227-.112.45-.168.645-.16.155.006.22.028.574.197M1.821 7.233c.524.354.994.853 1.212 1.287.188.374.198.44.221 1.467.029 1.285.145 2.225.385 3.132a.7.7 0 0 1 .031.153c-.018.018-.612-.553-.783-.752-.919-1.069-1.458-2.248-1.646-3.595a8.7 8.7 0 0 1-.043-1.578c.044-.491.022-.463.264-.331.113.062.274.159.359.217"/>
</svg>