<svg xmlns="http://www.w3.org/2000/svg" width="16" height="16" fill="currentColor" class="si si-electronic_devices_" viewBox="0 0 16 16">
  <path fill-rule="evenodd" d="M1.136 1.309a.94.94 0 0 0-.715.525l-.088.178v7.335l.077.166a.94.94 0 0 0 .465.456l.152.071 1.472.007 1.473.008.007 2.179c.008 2.427-.005 2.246.191 2.455.168.179.02.169 2.346.166 2.357-.003 2.27.004 2.468-.189.218-.212.201-.016.216-2.439l.013-2.16 2.883-.014 2.883-.013.182-.093a.95.95 0 0 0 .463-.519c.056-.15.056-.155.056-3.702-.001-3.817.004-3.677-.133-3.899a1.25 1.25 0 0 0-.392-.356c-.196-.1-.371-.111-1.767-.111-1.265 0-1.355.003-1.442.05-.184.098-.257.373-.142.531.123.168.1.166 1.591.166 1.428 0 1.477.004 1.522.121.009.024.016 1.6.016 3.503v3.46l-.068.064-.069.065H9.213L9.2 8.16c-.013-1.132-.015-1.163-.072-1.27a.73.73 0 0 0-.341-.307c-.101-.046-.231-.048-2.2-.048-2.348 0-2.201-.012-2.409.196-.199.198-.19.137-.199 1.437l-.008 1.167-1.383-.007-1.384-.008-.069-.065-.068-.064V5.687c0-2.235.009-3.522.026-3.553a.23.23 0 0 1 .11-.078c.061-.021 1.238-.029 4.101-.029 3.934-.001 4.018-.002 4.101-.052.243-.148.242-.445-.002-.627-.073-.055-.078-.055-4.092-.058-2.21-.002-4.088.007-4.175.019m12.456 4.054c-.287.066-.472.289-.472.57 0 .517.623.782 1.009.431a.605.605 0 0 0 .104-.715.6.6 0 0 0-.641-.286m.226.468c.098.088.027.249-.11.249q-.135 0-.135-.137c0-.139.143-.204.245-.112M8.453 10.68v3.427H4.72V7.253h3.733zm-2.04 2.304a.516.516 0 1 0 .683.683.516.516 0 0 0-.683-.683m.353.295c.157.147.067.401-.142.401-.101 0-.224-.125-.224-.227a.3.3 0 0 1 .069-.144c.083-.098.21-.111.297-.03"/>
</svg>