<svg xmlns="http://www.w3.org/2000/svg" width="16" height="16" fill="currentColor" class="si si-Electronic_devices" viewBox="0 0 16 16">
  <g stroke="#3D3D3D" stroke-linecap="round" stroke-linejoin="round" stroke-miterlimit="10" stroke-width=".75" clip-path="url(#a)">
    <path d="M12.114 1.737h2.59c.305 0 .61.22.61.59v6.778a.59.59 0 0 1-.61.59h-5.79m-4.647 0H1.295c-.305 0-.61-.221-.61-.59V2.253a.59.59 0 0 1 .61-.59H9.22"/>
    <path d="M4.343 14.19v-7c0-.148.152-.295.305-.295h3.885c.153 0 .305.147.305.294v7c0 .148-.152.295-.305.295H4.648c-.153.074-.305-.073-.305-.294m9.371-8.032a.225.225 0 0 0 .229-.221.225.225 0 0 0-.229-.221.225.225 0 0 0-.228.22c0 .123.102.222.228.222"/>
    <path d="M6.629 13.6a.15.15 0 0 0 .152-.147.15.15 0 0 0-.152-.148.15.15 0 0 0-.153.148.15.15 0 0 0 .153.147"/>
  </g>
  <defs>
    <clipPath id="a">
      <path d="M0 1h16v14H0z"/>
    </clipPath>
  </defs>
</svg>