<svg xmlns="http://www.w3.org/2000/svg" width="16" height="16" fill="currentColor" class="si si-Electrical_Power" viewBox="0 0 16 16">
  <path stroke="#3D3D3D" stroke-width=".25" d="M38.778 9.206c-3.712-3.655-9.165-5.441-15.709-5.181-5.238 0-10.107 2.148-13.714 6.047a20.3 20.3 0 0 0-4.302 7.254 20.1 20.1 0 0 0-.96 8.345c.91 9.398 9.3 17.277 19.512 18.326a.56.56 0 0 0 .548-.284.54.54 0 0 0-.224-.743.6.6 0 0 0-.208-.063c-9.697-.996-17.656-8.451-18.518-17.338-.258-2.665.05-5.354.908-7.896a19.2 19.2 0 0 1 4.068-6.863c3.393-3.67 7.971-5.69 12.912-5.69 6.254-.251 11.414 1.427 14.9 4.861 3.378 3.329 5.11 8.2 4.874 13.693-.728 8.582-5.927 11.786-10.14 11.92-2.693 0-4.806-.846-6.278-2.515-1.647-1.87-2.016-4.244-1.955-5.36 3.188-.336 5.23-3.171 5.214-7.252h.494a.56.56 0 0 0 .393-.16.544.544 0 0 0 0-.776.56.56 0 0 0-.393-.16h-2.86V14.22a.54.54 0 0 0-.163-.388.56.56 0 0 0-.788 0 .54.54 0 0 0-.163.388v5.152h-4.977V14.22a.54.54 0 0 0-.163-.388.56.56 0 0 0-.788 0 .54.54 0 0 0-.163.388v5.152h-2.86a.56.56 0 0 0-.393.16.544.544 0 0 0 0 .776c.104.102.246.16.394.16h11.32c.005 3.055-1.35 6.077-4.524 6.212-2.34.152-3.67-1.346-4.375-2.635a.55.55 0 0 0-.33-.272.57.57 0 0 0-.598.18.55.55 0 0 0-.052.612c1.093 1.998 2.699 3.084 4.658 3.2-.05 1.47.468 4.033 2.231 6.033 1.694 1.92 4.089 2.894 7.137 2.894 4.69-.15 10.446-3.625 11.235-12.95.25-5.824-1.597-10.987-5.2-14.534z"/>
</svg>