<svg xmlns="http://www.w3.org/2000/svg" width="16" height="16" fill="currentColor" class="si si-electrical_power_" viewBox="0 0 16 16">
  <path fill-rule="evenodd" d="M7.493 1.228c-.675.029-1.139.107-1.693.284a6.23 6.23 0 0 0-2.673 1.673c-.793.825-1.318 1.737-1.65 2.864-.319 1.084-.344 2.375-.065 3.452.28 1.081.873 2.122 1.694 2.975a7.73 7.73 0 0 0 4.427 2.266c.371.054.374.054.483.002.193-.091.234-.313.084-.462-.079-.079-.11-.09-.34-.119-1.857-.236-3.613-1.236-4.71-2.683a6 6 0 0 1-1.183-2.875 9 9 0 0 1 0-1.405c.262-2.179 1.672-4.106 3.6-4.918.671-.283 1.235-.403 2.106-.446 1.897-.096 3.469.328 4.622 1.245 1.256.998 1.964 2.581 1.967 4.399a5.3 5.3 0 0 1-.258 1.747c-.54 1.707-1.946 2.696-3.521 2.477-.931-.129-1.649-.713-1.948-1.583-.082-.239-.142-.519-.142-.663v-.113l.154-.035c.084-.019.249-.08.366-.135.658-.308 1.084-1.007 1.188-1.946l.033-.296h.076c.046 0 .11-.03.163-.077.077-.069.087-.095.087-.213 0-.112-.013-.148-.074-.209l-.074-.074-.486-.013-.486-.014-.013-.853c-.01-.599-.023-.87-.046-.91a.35.35 0 0 0-.132-.104c-.09-.042-.112-.043-.207-.01a.34.34 0 0 0-.168.128c-.06.089-.061.1-.061.927v.836H7.2v-.843c0-.739-.005-.852-.045-.918-.119-.202-.424-.185-.535.03-.024.047-.033.289-.033.897v.834h-.47c-.429 0-.475.004-.545.054-.152.108-.152.37-.001.478.075.053.114.054 1.953.061l1.876.007-.008.173c-.026.547-.299 1.134-.651 1.4-.388.292-.979.337-1.429.109-.193-.097-.388-.288-.554-.54-.176-.267-.273-.328-.442-.278a.276.276 0 0 0-.209.278c0 .23.429.777.789 1.004.174.11.474.224.672.256.111.018.112.019.112.128 0 .319.16.88.361 1.267.155.298.331.53.597.784.409.391.894.634 1.509.756.336.067 1.035.067 1.346.001a3.82 3.82 0 0 0 2.298-1.484c1.44-1.934 1.287-5.302-.332-7.313q-1.695-2.105-4.921-2.262a15 15 0 0 0-.565-.021z"/>
</svg>