<svg xmlns="http://www.w3.org/2000/svg" width="16" height="16" fill="currentColor" class="si si-Email_white" viewBox="0 0 16 16">
  <path d="M13.177 13.533H2.824A2.815 2.815 0 0 1 0 10.703V5.23A2.815 2.815 0 0 1 2.824 2.4h8.282c.125 0 .25.126.25.252 0 .125-.125.251-.25.251H2.824A2.32 2.32 0 0 0 .502 5.231v5.472a2.32 2.32 0 0 0 2.322 2.327h10.353a2.32 2.32 0 0 0 2.321-2.327V5.23a2.32 2.32 0 0 0-2.321-2.328c-.126 0-.252-.126-.252-.251 0-.126.126-.252.252-.252A2.815 2.815 0 0 1 16 5.23v5.473a2.815 2.815 0 0 1-2.823 2.83"/>
  <path d="M8.031 9.005h-.125c-1.004-.504-2.07-1.07-3.137-1.573-1.067-.566-2.134-1.07-3.138-1.635-.125-.063-.188-.19-.125-.315.063-.126.188-.189.314-.126 1.066.566 2.07 1.07 3.137 1.636 1.067.503 2.07 1.069 3.137 1.572.126.063.188.189.126.315 0 .063-.126.126-.189.126"/>
  <path d="M8.031 9.005c-.062 0-.188-.063-.188-.126-.063-.126 0-.252.126-.315 1.004-.503 2.07-1.07 3.137-1.572 1.066-.566 2.133-1.07 3.137-1.636.126-.063.251 0 .314.126s0 .252-.126.315c-1.066.566-2.07 1.069-3.137 1.635-1.067.503-2.07 1.07-3.137 1.573z"/>
  <path d="M14.369 10.01h-.063c-.753-.314-1.569-.628-2.322-.943a89 89 0 0 0-2.321-.943c-.126-.063-.188-.189-.126-.315.063-.125.188-.188.314-.125.753.314 1.569.629 2.321.943.753.315 1.506.63 2.322.944.126.063.188.188.126.314a.5.5 0 0 1-.251.126m-12.863 0c-.063 0-.188-.062-.188-.125-.063-.126 0-.251.125-.314.753-.315 1.569-.63 2.322-.944s1.568-.629 2.321-.943c.126-.063.251 0 .314.125.063.126 0 .252-.125.315-.753.314-1.57.629-2.322.943-.753.315-1.569.63-2.322.944z"/>
</svg>