<svg xmlns="http://www.w3.org/2000/svg" width="16" height="16" fill="currentColor" class="si si-email_white_" viewBox="0 0 16 16">
  <path fill-rule="evenodd" d="M2.433 2.428A2.9 2.9 0 0 0 .523 3.58a3.4 3.4 0 0 0-.437.946l-.072.261L.005 7.84C0 9.993.006 10.956.027 11.107c.037.266.186.718.311.946a2.84 2.84 0 0 0 2.224 1.466c.177.018 2.053.028 5.438.028s5.261-.01 5.438-.028a2.84 2.84 0 0 0 2.224-1.466 3.5 3.5 0 0 0 .311-.946c.021-.151.027-1.114.022-3.267l-.009-3.053-.072-.261c-.234-.85-.773-1.497-1.555-1.863-.429-.201-1.105-.32-1.287-.226-.096.05-.139.116-.139.216 0 .156.126.254.326.254.511.001 1.13.265 1.528.653.303.296.488.6.619 1.018l.074.235v3.134c0 3.521.014 3.262-.202 3.729-.302.651-.834 1.095-1.546 1.289l-.225.062H2.52l-.235-.06a2.3 2.3 0 0 1-1.127-.651 2.3 2.3 0 0 1-.599-1.118c-.049-.24-.052-.384-.052-3.211 0-1.926.01-3.021.028-3.134.071-.446.307-.914.625-1.24.296-.303.6-.488 1.018-.619l.235-.074 4.396-.013 4.395-.014.078-.087c.104-.116.1-.202-.013-.315l-.09-.091-4.29.003c-2.359.002-4.364.014-4.456.025m-.862 2.983c-.108.108-.107.239.002.331.119.101.735.427 2.477 1.314 1.293.658 1.574.81 1.533.832-.027.014-.452.188-.943.387-2.624 1.06-3.219 1.307-3.273 1.358-.082.076-.083.238-.002.313.119.11.211.085 1.374-.388C5.448 8.458 6.19 8.16 6.218 8.16c.017 0 .407.192.867.427.678.346.857.426.946.426s.272-.081.942-.416l.833-.417.224.086c.123.047.661.266 1.197.487 2.262.932 3.006 1.229 3.106 1.239.233.026.394-.201.247-.348-.035-.034-.22-.124-.411-.198s-.73-.294-1.198-.487-1.234-.507-1.702-.696c-.468-.19-.862-.352-.876-.361s.278-.168.65-.354c.373-.186 1.121-.569 1.664-.852 1.826-.951 1.801-.938 1.846-1.031.036-.076.035-.093-.005-.177-.043-.092-.133-.155-.22-.155-.024 0-.164.068-.312.151-.412.23-2.901 1.504-3.696 1.891-.389.189-.827.408-.973.487s-.505.263-.795.408l-.528.265-1.694-.856a304 304 0 0 1-4.132-2.122c-.237-.123-.456-.224-.489-.224s-.095.035-.138.078"/>
</svg>