<svg xmlns="http://www.w3.org/2000/svg" width="16" height="16" fill="currentColor" class="si si-email_" viewBox="0 0 16 16">
  <path fill-rule="evenodd" d="M2.433 2.428A2.9 2.9 0 0 0 .523 3.58a3.4 3.4 0 0 0-.437.946l-.072.261L.005 7.84C0 9.993.006 10.956.027 11.107c.037.266.186.718.311.946a2.84 2.84 0 0 0 2.224 1.466c.177.018 2.053.028 5.438.028s5.261-.01 5.438-.028a2.84 2.84 0 0 0 2.224-1.466 3.5 3.5 0 0 0 .311-.946c.021-.151.027-1.114.022-3.267l-.009-3.053-.072-.261c-.234-.85-.773-1.497-1.555-1.863-.429-.201-1.105-.32-1.287-.226-.096.05-.139.116-.139.216 0 .156.126.254.326.254.511.001 1.13.265 1.528.653.303.296.488.6.619 1.018l.074.235v3.134c0 3.521.014 3.262-.202 3.729-.302.651-.834 1.095-1.546 1.289l-.225.062H2.52l-.235-.06a2.3 2.3 0 0 1-1.127-.651 2.3 2.3 0 0 1-.599-1.118c-.049-.24-.052-.384-.052-3.211 0-1.926.01-3.021.028-3.134.071-.446.307-.914.625-1.24.296-.303.6-.488 1.018-.619l.235-.074 4.396-.013 4.395-.014.078-.087c.104-.116.1-.202-.013-.315l-.09-.091-4.29.003c-2.359.002-4.364.014-4.456.025m-.862 2.983c-.098.099-.106.233-.018.315.033.031.234.151.447.268.446.244 2.905 1.502 3.36 1.719.306.146.307.147.227.178l-1.494.607-2.04.827c-.406.164-.647.276-.686.319-.131.144-.029.356.172.356.07 0 .484-.155 1.341-.503l2.268-.92a26 26 0 0 1 1.065-.417c.02 0 .417.192.883.427.622.313.872.426.942.426s.32-.112.933-.418l.838-.419.329.13c.181.071.719.291 1.195.488C13.069 9.512 14.299 10 14.371 10c.119 0 .254-.107.264-.207.013-.131-.071-.191-.515-.365-.22-.086-.958-.387-1.64-.668a188 188 0 0 0-1.673-.682 4 4 0 0 1-.433-.186 5 5 0 0 1 .486-.254c.507-.25 3.437-1.767 3.584-1.855.105-.063.155-.175.119-.268-.038-.102-.162-.189-.244-.172a4 4 0 0 0-.454.225c-.544.297-2.877 1.487-3.625 1.847-.345.166-.67.328-.723.361-.054.033-.412.218-.796.41l-.699.35-.631-.317a339 339 0 0 1-3.578-1.818L2.45 5.69c-.376-.196-.71-.357-.742-.357s-.094.035-.137.078"/>
</svg>