<svg xmlns="http://www.w3.org/2000/svg" width="16" height="16" fill="currentColor" class="si si-gas_" viewBox="0 0 16 16">
  <path fill-rule="evenodd" d="M7.8.331a.36.36 0 0 0-.199.214c-.017.043-1.046 1.753-2.288 3.8C2.929 8.274 2.881 8.36 2.696 8.981c-.145.488-.199.889-.198 1.472.001.565.046.902.182 1.374a5.23 5.23 0 0 0 2.177 2.948 5.68 5.68 0 0 0 5.582.359c.948-.459 1.761-1.168 2.273-1.983a5.3 5.3 0 0 0 .757-2.098 7 7 0 0 0 0-1.346 5.4 5.4 0 0 0-.423-1.453c-.192-.419-.962-1.683-2.477-4.067C9.27 2.144 8.373.687 8.333.558 8.27.349 8.01.238 7.8.331m.659 1.896c.488.792.938 1.508 1.728 2.746.976 1.532 1.954 3.124 2.116 3.447.448.889.575 1.906.364 2.909a4.3 4.3 0 0 1-1.143 2.117c-.34.351-.627.578-1.04.824a4.96 4.96 0 0 1-4.231.383c-.883-.329-1.69-.936-2.211-1.664a4.9 4.9 0 0 1-.72-1.642 4.5 4.5 0 0 1 .269-2.662c.074-.17 4.356-7.283 4.372-7.263zM7.83 7.751c-.094.04-.197.186-1.184 1.673-.594.896-1.122 1.717-1.171 1.824-.334.715-.278 1.626.138 2.272.147.229.46.6.619.735a2.7 2.7 0 0 0 2.752.448c.348-.138.586-.3.896-.61.524-.525.772-1.067.805-1.76.026-.536-.089-.95-.406-1.457-.336-.539-.943-1.415-1.052-1.521-.133-.129-.254-.153-.407-.078a.34.34 0 0 0-.207.333c0 .107.023.154.19.396.395.573.938 1.399 1 1.52.198.39.185 1.073-.029 1.487-.347.672-.947 1.081-1.673 1.138a1.98 1.98 0 0 1-1.192-.316c-.263-.177-.604-.567-.761-.871-.086-.169-.124-.338-.139-.617a1.6 1.6 0 0 1 .121-.758c.026-.06.532-.839 1.123-1.731.964-1.455 1.076-1.634 1.087-1.746a.363.363 0 0 0-.51-.361"/>
</svg>