<svg xmlns="http://www.w3.org/2000/svg" width="16" height="16" fill="currentColor" class="si si-Gasicons" viewBox="0 0 16 16">
  <path stroke="#3D3D3D" stroke-linecap="round" stroke-miterlimit="10" stroke-width=".75" d="M23.939 2 10.265 24.544a14.34 14.34 0 0 0-.234 13.07 14.8 14.8 0 0 0 1.674 2.662A15.78 15.78 0 0 0 23.939 46a16.05 16.05 0 0 0 12.803-6.444l.301-.451a14.43 14.43 0 0 0 .77-14.561C33.361 16.879 28.307 9.665 23.855 2"/>
  <path stroke="#3D3D3D" stroke-linecap="round" stroke-miterlimit="10" stroke-width=".75" d="m23.939 24.26-6.326 9.556a6.26 6.26 0 0 0-.1 5.74A12 12 0 0 0 18.6 41.08a6.85 6.85 0 0 0 5.339 2.51 7.01 7.01 0 0 0 5.623-2.828l.134-.2a6.53 6.53 0 0 0 .787-6.377c-1.071-1.841-2.327-3.598-3.565-5.372"/>
</svg>