<svg width="48" height="48" viewBox="0 0 48 48" fill="none" xmlns="http://www.w3.org/2000/svg">
<path d="M23.9389 2L10.2653 24.5438C9.19331 26.5482 8.61305 28.7785 8.57231 31.0511C8.53157 33.3237 9.03153 35.5735 10.031 37.6149C10.4928 38.5589 11.0538 39.4509 11.7046 40.276C13.1932 42.0759 15.0628 43.523 17.1785 44.5128C19.2941 45.5027 21.6031 46.0105 23.9389 45.9998C26.4263 45.9914 28.8778 45.4049 31.0997 44.2867C33.3217 43.1684 35.2533 41.5491 36.7422 39.5563L37.0434 39.1045C38.4534 36.9645 39.2679 34.4877 39.4033 31.9286C39.5386 29.3695 38.9898 26.8205 37.8133 24.5438C33.3614 16.8786 28.3071 9.66524 23.8552 2" stroke="#3D3D3D" stroke-width="0.75" stroke-miterlimit="10" stroke-linecap="round"/>
<path d="M23.9389 24.2593L17.6125 33.8158C17.139 34.6952 16.8828 35.6752 16.8653 36.6739C16.8478 37.6725 17.0696 38.6609 17.5121 39.5563C17.8354 40.091 18.199 40.6002 18.6 41.0793C19.2464 41.8694 20.0613 42.5049 20.9851 42.9393C21.9088 43.3736 22.9181 43.5959 23.9389 43.5898C25.0318 43.5892 26.1094 43.3331 27.0858 42.842C28.0621 42.3509 28.9102 41.6384 29.5623 40.7614L29.6962 40.5605C30.366 39.6557 30.7905 38.5931 30.9284 37.4757C31.0662 36.3584 30.9127 35.2244 30.4828 34.184C29.4116 32.343 28.1564 30.5857 26.9179 28.8116" stroke="#3D3D3D" stroke-width="0.75" stroke-miterlimit="10" stroke-linecap="round"/>
</svg>
