<svg xmlns="http://www.w3.org/2000/svg" width="16" height="16" fill="currentColor" class="si si-grid_biogas_" viewBox="0 0 16 16">
  <path fill-rule="evenodd" d="M6.717.04C5.29.269 3.936.891 3.018 1.74l-.195.18h-.391c-.216 0-.47.013-.564.028a1.03 1.03 0 0 0-.77.581l-.071.151v12.453l.073.149c.099.203.29.389.5.489l.173.082h12.4l.153-.071c.179-.084.398-.28.493-.442a1.6 1.6 0 0 0 .117-.277c.049-.154.051-.307.051-3.6V8.024l-.066-.065a.21.21 0 0 0-.285-.015l-.063.051-.013 3.476-.013 3.476-.058.107a.7.7 0 0 1-.316.309c-.102.047-.346.049-6.201.05H1.877l-.138-.068a.61.61 0 0 1-.326-.422c-.021-.097-.027-1.863-.021-6.136l.008-6 .059-.111a.74.74 0 0 1 .377-.325c.077-.023 1.632-.031 6.127-.031l6.024.001.134.062c.144.067.265.19.323.329.028.068.036.316.036 1.141 0 1.123.008 1.2.129 1.265a.215.215 0 0 0 .26-.038l.066-.066-.007-1.167-.008-1.167-.071-.151a1.03 1.03 0 0 0-.77-.581 5 5 0 0 0-.578-.028h-.406l-.046-.07c-.081-.124-.547-.515-.875-.735a7.7 7.7 0 0 0-1.414-.71A11 11 0 0 0 9.467.063C9.151.002 7.064-.016 6.717.04m2.489.385a8.6 8.6 0 0 1 1.421.353c.62.225 1.342.631 1.778 1l.152.129-2.276.006a873 873 0 0 1-4.578 0l-2.3-.006.246-.184C4.614 1.005 5.78.551 7.092.385c.439-.056 1.644-.033 2.114.04m-4.732 5.04c-.086.077-.087.08-.086.313.001.198.027.339.166.889.436 1.727.858 2.728 1.535 3.645.662.895 1.216 1.3 1.95 1.424.222.038.665.016.792-.038.232-.099.304-.376.124-.475-.034-.018-.218-.042-.408-.053-.676-.037-1.066-.235-1.619-.822-.673-.713-1.112-1.576-1.473-2.891a25 25 0 0 1-.308-1.261c0-.055.814.118 1.279.272 1.564.521 2.731 1.6 3.041 2.812.068.268.119.788.086.878-.025.068-.071.001-.865-1.258-.395-.625-.698-.943-1.162-1.218-.233-.138-.7-.322-.817-.322-.182 0-.35.236-.286.404a.5.5 0 0 0 .129.152l.22.179c.065.053.233.163.373.245s.307.185.37.23c.207.147.997 1.253 1.563 2.19.159.264.353.564.43.667.318.424.83.862 1.261 1.078.197.099.825.256.924.231.115-.029.23-.152.233-.25.004-.135-.088-.209-.513-.414-.802-.386-1.03-.539-1.148-.77-.073-.141-.081-.232-.088-.955-.007-.717-.037-.93-.208-1.464q-.447-1.395-1.822-2.296a7.5 7.5 0 0 0-1.374-.652c-.451-.15-1.988-.548-2.117-.548-.068 0-.12.022-.182.078"/>
</svg>