<svg xmlns="http://www.w3.org/2000/svg" width="16" height="16" fill="currentColor" class="si si-Grid_Biogas" viewBox="0 0 16 16">
  <g clip-path="url(#a)">
    <path d="M11.656 12.186c.397.17.34.454 0 .567-.284-.057-.51-.113-.737-.17-.737-.34-1.304-.907-1.7-1.587a20 20 0 0 0-1.53-2.267c-.228-.284-.68-.397-.964-.68-.17-.114-.397-.227-.284-.51.17-.284.397-.17.51-.114.737.227 1.304.737 1.7 1.417.284.454.568.907.908 1.417.17-2.324-2.268-3.854-4.421-4.08.34 1.473.68 2.947 1.7 4.08.453.51 1.02.964 1.814.907.113 0 .453 0 .397.283 0 .17-.227.284-.34.284-.85.113-1.53-.17-2.154-.85C5.25 9.466 4.798 7.765 4.4 6.008c-.114-.51.056-.737.567-.567.85.227 1.7.397 2.437.737 1.587.737 2.607 1.927 2.777 3.741v.624c-.056.68.057.963.68 1.247.227.17.51.226.794.396"/>
    <path d="M13.923 15.87H2.02c-.567 0-1.02-.453-1.02-1.02V2.947c0-.566.453-1.02 1.02-1.02h11.903c.567 0 1.02.454 1.02 1.02v1.984a.244.244 0 0 1-.226.227.244.244 0 0 1-.227-.227V2.947a.63.63 0 0 0-.624-.623H2.02a.63.63 0 0 0-.623.623v11.846c0 .34.283.624.623.624h11.903a.63.63 0 0 0 .624-.623V8.105c0-.113.113-.226.226-.226.114 0 .227.113.227.226v6.688c-.057.624-.51 1.078-1.077 1.078"/>
    <path d="M3.04 2.21c-.056 0-.113 0-.17-.056-.113-.057-.113-.227 0-.284.057-.056 1.814-1.927 5.102-1.927 3.514 0 5.044 1.87 5.1 1.927.058.114.058.227-.056.284-.113.057-.226.057-.283-.057 0 0-1.474-1.757-4.761-1.757C4.91.34 3.21 2.097 3.21 2.097c-.057.114-.114.114-.17.114"/>
  </g>
  <defs>
    <clipPath id="a">
      <path d="M0 0h16v16H0z"/>
    </clipPath>
  </defs>
</svg>