<svg xmlns="http://www.w3.org/2000/svg" width="16" height="16" fill="currentColor" class="si si-Ground_area" viewBox="0 0 16 16">
  <g clip-path="url(#a)">
    <path d="M.81 14.427c-.096 0-.174-.07-.174-.156V2.156C.641 2.07.72 2 .81 2c.092 0 .174.07.174.156v12.12c0 .085-.078.155-.174.155z"/>
    <path d="M1.41 3.126a.17.17 0 0 1-.142-.07l-.6-.819a.147.147 0 0 1 .05-.212c.084-.045.189-.025.24.045l.595.819c.05.07.027.167-.05.212a.2.2 0 0 1-.092.025"/>
    <path d="M.17 3.126a.2.2 0 0 1-.092-.024.147.147 0 0 1-.05-.213l.595-.819c.05-.07.155-.09.238-.045.077.045.1.143.05.213l-.595.819a.17.17 0 0 1-.142.07zm15.615 11.301H2.738c-.097 0-.174-.07-.174-.156s.077-.155.174-.155h13.047c.096 0 .174.07.174.155 0 .086-.078.156-.174.156"/>
    <path d="M14.91 15a.2.2 0 0 1-.142-.066c-.054-.07-.036-.163.042-.212l.915-.574a.183.183 0 0 1 .238.037c.055.07.037.164-.04.213l-.916.573a.17.17 0 0 1-.097.029"/>
    <path d="M15.826 14.427a.16.16 0 0 1-.096-.029l-.916-.573c-.078-.05-.096-.143-.04-.213a.18.18 0 0 1 .237-.037l.916.573c.078.05.096.144.041.213a.18.18 0 0 1-.142.066M2.55 2.307h-.916c-.096 0-.174-.07-.174-.155 0-.086.083-.152.174-.152h.916c.096 0 .174.07.174.156s-.078.155-.174.155zm10.204 0h-1.272c-.097 0-.174-.07-.174-.155 0-.086.077-.152.174-.152h1.272c.096 0 .174.07.174.156s-.078.155-.174.155zm-2.55 0H8.932c-.097 0-.174-.07-.174-.155 0-.086.077-.152.174-.152h1.272c.096 0 .174.07.174.156s-.078.155-.174.155zm-2.55 0H6.382c-.096 0-.174-.07-.174-.155 0-.086.082-.152.174-.152h1.272c.096 0 .174.07.174.156s-.078.155-.174.155zm-2.55 0H3.832c-.096 0-.174-.07-.174-.155 0-.086.082-.152.178-.152H5.11c.096 0 .174.07.174.156s-.078.155-.174.155zm9.856 0h-.915c-.096 0-.174-.07-.174-.155 0-.086.078-.152.174-.152h.916c.096 0 .174.07.174.156s-.078.155-.174.155zm.866.86c-.096 0-.174-.07-.174-.156v-.814c0-.086.078-.156.174-.156s.174.07.174.156v.818c0 .086-.078.156-.174.156zm0 8.758c-.096 0-.174-.07-.174-.156v-1.093c0-.086.078-.155.174-.155s.174.07.174.155v1.093c0 .086-.078.156-.174.156m0-2.186c-.096 0-.174-.07-.174-.156V8.49c0-.086.078-.156.174-.156s.174.07.174.156v1.093c0 .086-.078.156-.174.156m0-2.187c-.096 0-.174-.07-.174-.155V6.303c0-.086.078-.155.174-.155s.174.07.174.155v1.094c0 .086-.078.155-.174.155m0-2.186c-.096 0-.174-.07-.174-.156V4.117c0-.086.078-.156.174-.156s.174.07.174.156V5.21c0 .086-.078.156-.174.156m0 8.447c-.096 0-.174-.07-.174-.156v-.819c0-.086.078-.155.174-.155s.174.07.174.155v.819c0 .086-.078.156-.174.156"/>
  </g>
  <defs>
    <clipPath id="a">
      <path d="M0 2h16v13H0z"/>
    </clipPath>
  </defs>
</svg>