<svg xmlns="http://www.w3.org/2000/svg" width="16" height="16" fill="currentColor" class="si si-ground_area_" viewBox="0 0 16 16">
  <path fill-rule="evenodd" d="M.642 2.073C.538 2.17 0 2.926 0 2.975c0 .055.098.145.158.145.096 0 .133-.032.301-.262l.168-.231.006 5.853.006 5.853.057.047c.075.062.172.059.237-.007.053-.053.054-.09.055-5.873L.99 2.68l.058.078c.186.248.281.35.335.357.084.013.19-.064.19-.136-.001-.032-.126-.233-.28-.446C.925 2.023.904 2 .803 2a.25.25 0 0 0-.161.073m.884-.031c-.072.05-.077.147-.011.207.042.038.124.044.583.044.483 0 .538-.004.578-.048q.089-.096-.009-.192C2.617 2.004 2.578 2 2.099 2c-.422 0-.524.007-.573.042m2.189.023c-.072.063-.073.068-.034.14l.041.075.73.007c.651.006.735.002.779-.037.064-.058.062-.13-.004-.197C5.176 2.003 5.138 2 4.481 2H3.79zm2.558-.023c-.072.05-.077.147-.011.207.043.039.136.044.768.044.772 0 .783-.002.783-.137 0-.147-.048-.156-.8-.156-.573 0-.691.007-.74.042m2.56 0c-.076.053-.081.185-.008.224.032.017.321.027.756.027.648 0 .708-.004.748-.048q.088-.096-.009-.192c-.051-.05-.089-.053-.741-.053-.579 0-.696.007-.746.042m2.527.011c-.064.065-.067.103-.012.181.041.059.048.059.773.059h.731l.043-.065c.048-.073.021-.153-.067-.201-.031-.016-.319-.027-.733-.027-.646 0-.684.003-.735.053m2.56 0c-.064.065-.067.103-.012.181.041.058.053.059.595.059.594 0 .617-.005.617-.137 0-.14-.063-.156-.633-.156-.478 0-.517.004-.567.053m1.777.05c-.039.043-.044.109-.038.51l.008.461.07.053q.114.084.223-.024c.06-.06.059-.905-.002-.99-.052-.076-.197-.081-.261-.01m0 1.919c-.038.042-.044.127-.044.64 0 .556.004.595.054.645a.2.2 0 0 0 .12.053c.036 0 .09-.024.12-.053.05-.05.053-.089.053-.634 0-.483-.007-.591-.042-.64-.052-.075-.197-.081-.261-.011m0 2.187c-.038.042-.044.127-.044.64 0 .555.004.594.054.644.029.03.083.054.12.054s.09-.024.12-.054c.05-.05.053-.089.053-.634 0-.482-.007-.59-.042-.64-.052-.074-.197-.08-.261-.01m0 2.186c-.038.043-.044.128-.044.64 0 .556.004.595.054.645a.2.2 0 0 0 .12.053c.036 0 .09-.024.12-.053.05-.05.053-.089.053-.634 0-.483-.007-.591-.042-.64-.052-.075-.197-.081-.261-.011m0 2.187c-.038.042-.044.127-.044.64 0 .556.004.595.054.645a.2.2 0 0 0 .12.053c.036 0 .09-.024.12-.053.05-.05.053-.089.053-.634 0-.483-.007-.591-.042-.64-.052-.075-.197-.081-.261-.011m-.002 2.171c-.034.048-.042.144-.042.506 0 .419.004.451.056.504.043.043.076.052.14.039.141-.027.151-.063.151-.548 0-.506-.017-.561-.173-.561-.063 0-.103.018-.132.06m-.895.847c-.112.112-.068.173.28.39l.187.116H9.008c-4.021.001-6.282.01-6.327.027a.2.2 0 0 0-.099.094c-.027.059-.024.077.027.127l.059.059 6.299.014 6.299.013-.213.131a4 4 0 0 0-.26.171c-.098.084-.022.245.117.245.037 0 .278-.133.558-.307.506-.315.582-.387.507-.478-.031-.038-.837-.552-.98-.625-.084-.044-.134-.038-.195.023"/>
</svg>