<svg xmlns="http://www.w3.org/2000/svg" width="16" height="16" fill="currentColor" class="si si-home_electricity_" viewBox="0 0 16 16">
  <path fill-rule="evenodd" d="M4.547 1.945C1.874 3.467 1.12 3.907 1.073 3.975a.34.34 0 0 0-.019.346c.068.132.158.159.531.159h.334l.008 3.447c.008 3.901-.012 3.554.234 4.06.28.577.751.967 1.376 1.137.19.052.294.059 1.116.069.899.012.908.011.98-.046.087-.068.095-.155.023-.244l-.051-.063-.969-.014c-1.071-.016-1.043-.012-1.423-.208a2 2 0 0 1-.711-.711 3 3 0 0 1-.159-.374l-.063-.186-.007-3.434-.008-3.433H13.76v3.353c-.001 3.706.006 3.542-.173 3.914a1.84 1.84 0 0 1-1.189.989c-.135.034-.356.046-1.051.056-.747.011-.887.02-.927.055-.063.056-.059.181.009.248.054.055.072.056.98.045.975-.011.999-.014 1.37-.153.209-.078.51-.28.697-.469.28-.281.469-.61.586-1.022.057-.202.057-.214.065-3.609l.008-3.407h.307c.344 0 .437-.029.504-.159a.4.4 0 0 0 .003-.342c-.028-.055-.435-.301-1.655-1.001-1.745-1.001-1.737-.998-1.825-.84-.031.055-.033.085-.01.136.023.049.437.299 1.586.956l1.555.89-3.302.007c-1.816.003-4.78.003-6.586 0L1.428 4.12l3.279-1.864A283 283 0 0 1 8.016.391c.016 0 .451.243.968.539 1.021.587 1.063.604 1.149.45.077-.139.035-.171-1.053-.797C8.523.263 8.043.001 8.013.001c-.029.001-1.589.876-3.466 1.944M7.04 6.373c-.051.051-.053.089-.053.88v.827h-.574c-.537 0-.576.003-.626.053a.2.2 0 0 0-.054.12c0 .037.024.091.054.12.052.053.089.054 1.973.054h1.92v.165c0 .586-.387 1.197-.935 1.475-.409.208-.998.19-1.447-.045-.203-.107-.563-.458-.678-.662a2 2 0 0 1-.142-.328c-.035-.106-.081-.193-.11-.208-.084-.045-.189-.017-.233.06-.087.157.171.716.484 1.052.295.315.695.532 1.108.602l.193.032v.987c0 .947-.002.991-.056 1.102a.67.67 0 0 1-.368.297 1.2 1.2 0 0 1-.295.031c-.282 0-.435.057-.603.225-.412.412-.307 1.116.202 1.346.116.052.171.054 1.536.055h1.416l.117.062c.165.087.268.26.27.45.002.235-.137.447-.328.502-.056.016-1.081.026-2.696.026H4.51l-.042.06c-.061.087-.051.169.029.232.07.055.08.055 2.702.055 3.005 0 2.791.016 3.032-.23.414-.423.305-1.144-.214-1.418l-.137-.072-1.471-.013c-1.427-.013-1.474-.015-1.544-.068-.172-.128-.222-.398-.116-.617.092-.191.174-.23.52-.251.237-.015.33-.032.447-.086a1 1 0 0 0 .463-.441l.074-.151.008-1.043.008-1.044.111-.017c.585-.094 1.148-.516 1.416-1.061a1.9 1.9 0 0 0 .222-.815l.017-.246h.102c.121 0 .21-.074.21-.174a.2.2 0 0 0-.054-.12c-.049-.049-.089-.053-.56-.053h-.506v-.838c0-.837 0-.839-.06-.88-.087-.061-.169-.051-.232.028-.053.068-.055.101-.055.88v.81H7.333v-.802c0-.791-.009-.883-.09-.938-.055-.036-.149-.02-.203.033"/>
</svg>