<svg xmlns="http://www.w3.org/2000/svg" width="16" height="16" fill="currentColor" class="si si-Home_Electricity" viewBox="0 0 16 16">
  <g clip-path="url(#a)">
    <path d="M11.989 13.145h-1.44a.18.18 0 0 1-.177-.18c0-.1.079-.181.177-.181h1.44c.98 0 1.78-.819 1.78-1.818v-6.47c0-.1.079-.18.176-.18.098 0 .177.08.177.18v6.47c0 1.2-.953 2.175-2.128 2.175zm-6.459.048H4.043c-1.17 0-2.123-.975-2.123-2.179V4.496c0-.1.079-.18.177-.18s.176.08.176.18v6.518c0 1.004.8 1.822 1.775 1.822h1.487c.098 0 .177.081.177.18 0 .1-.08.182-.177.182z"/>
    <path d="M14.684 4.486H1.35c-.163 0-.293-.09-.335-.233a.35.35 0 0 1 .144-.38L7.844.066a.25.25 0 0 1 .344 0l1.887 1.085a.176.176 0 0 1 .065.243.17.17 0 0 1-.237.066L8.016.38 1.428 4.125h13.177L11.53 2.369a.176.176 0 0 1-.065-.242.17.17 0 0 1 .237-.067l3.197 1.836c.098.1.125.257.074.39a.31.31 0 0 1-.288.2m-4.508 3.949H5.902a.18.18 0 0 1-.176-.18c0-.1.079-.181.176-.181h4.275c.098 0 .177.08.177.18s-.08.181-.177.181"/>
    <path d="M7.157 8.388a.18.18 0 0 1-.177-.181V6.494c0-.1.08-.18.177-.18s.176.08.176.18v1.713c0 .1-.079.18-.176.18m1.905.001a.18.18 0 0 1-.177-.181V6.494c0-.1.08-.18.177-.18s.176.08.176.18v1.713c0 .1-.079.18-.176.18"/>
    <path d="M8.077 10.576c-.93 0-1.733-.628-1.97-1.565a.18.18 0 0 1 .125-.219.176.176 0 0 1 .214.129 1.7 1.7 0 0 0 1.728 1.294c.86-.043 1.548-.852 1.51-1.765 0-.1.07-.181.168-.186.097-.01.176.071.18.171.052 1.123-.775 2.084-1.84 2.137h-.11z"/>
    <path d="M9.759 16H4.6a.18.18 0 0 1-.176-.18c0-.1.078-.182.176-.182h5.16c.167 0 .385-.238.385-.485 0-.295-.213-.533-.478-.533H7.064c-.41 0-.73-.352-.73-.794s.349-.847.776-.847h.233c.25 0 .571-.228.571-.49v-1.95c0-.1.079-.182.177-.182s.176.081.176.181v1.95c0 .477-.492.848-.92.848h-.232c-.237 0-.428.219-.428.49 0 .219.144.438.381.438H9.67c.456 0 .828.4.828.894 0 .433-.358.842-.735.842z"/>
  </g>
  <defs>
    <clipPath id="a">
      <path d="M0 0h16v16H0z"/>
    </clipPath>
  </defs>
</svg>