<svg xmlns="http://www.w3.org/2000/svg" width="16" height="16" fill="currentColor" class="si si-hydrogen_" viewBox="0 0 16 16">
  <path fill-rule="evenodd" d="M10.133.255c-.269.084-.523.37-.585.656-.018.084-.028.676-.028 1.633v1.501l-.062.117a.7.7 0 0 1-.176.198c-.097.068-.138.08-.28.08q-.313 0-.439-.26c-.048-.1-.056-.165-.056-.453 0-.255-.013-.375-.051-.499a.9.9 0 0 0-.483-.558l-.146-.07-1.056-.008-1.056-.008-.045-.161a1.36 1.36 0 0 0-.859-.935c-.152-.057-.199-.06-1.261-.069L2.447 1.41l-.124-.127c-.162-.166-.309-.216-.631-.216-.513 0-.754.198-.78.643L.9 1.92H.544c-.381 0-.467.021-.514.124-.044.096-.037.138.035.211.064.063.078.065.454.065h.388v.827H.519c-.376 0-.39.002-.454.065-.086.086-.082.162.013.257l.078.078h.751v.18c0 .241.038.363.153.49.174.193.264.223.66.223.306 0 .359-.007.457-.059.116-.062.235-.186.263-.274.017-.052.04-.054 1.022-.054.769 0 1.047-.01 1.185-.039.474-.1.872-.462 1.008-.915l.034-.114 1.046.007L7.782 3l.102.083c.187.151.208.213.223.677.013.371.022.429.083.561a.82.82 0 0 0 .418.432c.159.078.202.087.405.087s.247-.009.407-.088a.86.86 0 0 0 .426-.447c.06-.131.061-.138.074-1.736L9.933.965l.081-.116c.122-.173.255-.24.456-.229.194.01.325.094.41.26.052.102.053.161.053 2.528v2.424l-.286.016a4.7 4.7 0 0 0-1.687.448c-1.59.759-2.648 2.245-2.856 4.01a5.8 5.8 0 0 0 .067 1.495c.463 2.213 2.279 3.815 4.517 3.984 2.368.179 4.572-1.432 5.167-3.775a5.2 5.2 0 0 0-.063-2.656c-.117-.39-.182-.459-.358-.371-.11.055-.125.154-.049.345.197.5.295 1.252.243 1.859a4.62 4.62 0 0 1-2.759 3.873c-1.814.8-4.006.303-5.298-1.201-1.182-1.378-1.462-3.218-.742-4.881a4.4 4.4 0 0 1 .983-1.405 4.5 4.5 0 0 1 2.575-1.295c.402-.061 1.189-.041 1.573.041.841.18 1.625.58 2.22 1.132.206.191.261.229.335.229.112 0 .152-.041.152-.155 0-.075-.03-.121-.18-.277-.74-.769-1.862-1.302-2.94-1.396l-.213-.019-.007-2.483L11.32.867l-.075-.152a.97.97 0 0 0-.487-.447 1.1 1.1 0 0 0-.625-.013M1.919 1.457a.34.34 0 0 1 .161.273v.081l1.273.008 1.274.008.152.071c.185.087.362.259.449.436.083.17.105.511.043.691a.93.93 0 0 1-.65.591c-.117.028-.428.037-1.293.037H2.189l-.029.114c-.065.26-.174.34-.466.34-.214 0-.354-.056-.407-.16-.041-.082-.047-2.255-.007-2.361a.3.3 0 0 1 .113-.119c.113-.069.416-.075.526-.01m6.801 8.41v1.92h.48V9.973h1.893v1.814h.507v-3.84h-.507v1.626H9.2V7.947h-.48zm3.673 1.655c-.125.03-.366.151-.366.184 0 .104.106.2.147.134s.23-.133.373-.133c.264 0 .413.135.413.376 0 .157-.039.268-.157.45-.107.165-.558.625-.772.787-.128.097-.139.115-.132.2l.008.093.673.007.673.008v-.268l-.46-.001c-.452 0-.458-.001-.366-.046a2.5 2.5 0 0 0 .362-.313c.337-.335.44-.522.459-.835.01-.174.002-.226-.049-.335-.124-.264-.455-.39-.806-.308"/>
</svg>