<svg xmlns="http://www.w3.org/2000/svg" width="16" height="16" fill="currentColor" class="si si-Hydrogenicons" viewBox="0 0 16 16">
  <g clip-path="url(#a)">
    <path d="M11.039 15.8a4.97 4.97 0 0 1-4.964-4.964c0-2.735 2.229-5.014 4.964-5.014 1.367 0 2.684.557 3.596 1.57.05.102.05.203 0 .253-.05.051-.203.051-.253 0a4.6 4.6 0 0 0-3.343-1.418c-2.532 0-4.61 2.077-4.61 4.61 0 2.532 2.078 4.608 4.61 4.608s4.61-2.076 4.61-4.609c0-.557-.102-1.114-.305-1.62-.05-.102 0-.203.101-.254s.203 0 .254.102a5.2 5.2 0 0 1 .304 1.772c0 2.685-2.229 4.964-4.964 4.964"/>
    <path d="M9.216 7.95v1.62h1.874V7.95h.506v3.849h-.506V9.975H9.216V11.8h-.507V7.95zm2.684 5.672v-.203l.253-.202c.557-.507.81-.81.81-1.114 0-.203-.1-.406-.404-.406a.64.64 0 0 0-.456.203L12 11.697c.152-.1.355-.202.608-.202.456 0 .659.304.659.608 0 .405-.254.76-.76 1.165-.05.05-.203.1-.203.1h.963v.254zM4.404 4.05H2.175v-.405h2.229a.91.91 0 0 0 .912-.912.91.91 0 0 0-.912-.911H2.175v-.405h2.229a1.34 1.34 0 0 1 1.317 1.316A1.34 1.34 0 0 1 4.404 4.05"/>
    <path d="M1.871 4.455h-.303c-.355 0-.659-.254-.659-.608V1.669c0-.355.304-.608.659-.608h.253c.304 0 .608.203.658.507v.253h-.405v-.152c-.05-.152-.152-.253-.304-.253h-.202c-.152 0-.304.1-.304.253v2.178c0 .152.152.253.304.253h.253a.34.34 0 0 0 .304-.203l.05-.202.355.05-.05.203c0 .304-.305.507-.609.507"/>
    <path d="M1.061 2.327H.2a.22.22 0 0 1-.203-.202c0-.102.102-.203.203-.203h.861c.101 0 .203.101.203.203a.22.22 0 0 1-.203.202m0 1.216H.2a.22.22 0 0 1-.203-.203c0-.101.102-.202.203-.202h.861c.101 0 .203.101.203.202a.22.22 0 0 1-.203.203m10.08 2.482a.22.22 0 0 1-.203-.203v-4.71a.51.51 0 0 0-.507-.507c-.253 0-.506.253-.506.507v.911a.22.22 0 0 1-.203.203.22.22 0 0 1-.202-.203v-.911c0-.507.405-.912.911-.912.507 0 .912.405.912.912v4.71a.22.22 0 0 1-.203.203"/>
    <path d="M9.013 4.86a.91.91 0 0 1-.912-.912v-.506c0-.102.102-.203.203-.203s.203.101.203.203v.506c0 .304.253.507.506.507s.507-.254.507-.507V2.023c0-.1.1-.202.202-.202.101 0 .203.101.203.202v1.925a.91.91 0 0 1-.912.912"/>
    <path d="M8.304 3.695a.22.22 0 0 1-.203-.203.51.51 0 0 0-.506-.506H5.67a.22.22 0 0 1-.202-.203c0-.101.1-.202.202-.202h1.925c.506 0 .912.405.912.911a.22.22 0 0 1-.203.203"/>
  </g>
  <defs>
    <clipPath id="a">
      <path d="M0 0h16v16H0z"/>
    </clipPath>
  </defs>
</svg>