<svg width="48" height="48" viewBox="0 0 48 48" fill="currentColor" xmlns="http://www.w3.org/2000/svg">
<path d="M22.7644 11.2003C25.305 11.2003 27.3645 9.14075 27.3645 6.60015C27.3645 4.05956 25.305 2 22.7644 2C20.2238 2 18.1642 4.05956 18.1642 6.60015C18.1642 9.14075 20.2238 11.2003 22.7644 11.2003Z" stroke="#3D3D3D" stroke-width="0.75" stroke-miterlimit="10"/>
<path d="M13.09 19.909H21.0613V40.557H13.09V46H34.9144V40.9784H27.3645L27.6981 20.2777C27.7074 19.5271 27.5676 18.7821 27.2868 18.0859C27.0059 17.3897 26.5897 16.7562 26.0621 16.2221C25.5346 15.688 24.9062 15.264 24.2136 14.9746C23.5209 14.6852 22.7776 14.5363 22.0269 14.5363H13.09" stroke="#3D3D3D" stroke-width="0.75" stroke-linecap="round" stroke-linejoin="round"/>
</svg>
