<svg xmlns="http://www.w3.org/2000/svg" width="16" height="16" fill="currentColor" class="si si-infopoint_" viewBox="0 0 16 16">
  <path fill-rule="evenodd" d="M7.32.311c-.432.069-.748.233-1.071.556-.208.209-.261.281-.364.495-.156.326-.191.481-.191.838 0 .358.035.512.192.839.104.217.155.287.364.495.408.405.77.556 1.337.556.367 0 .555-.041.866-.191.286-.138.695-.547.832-.832.151-.314.193-.5.193-.867s-.042-.553-.193-.867c-.077-.16-.15-.253-.364-.467-.287-.288-.493-.413-.828-.505a3 3 0 0 0-.773-.05m.687.808c.287.109.548.369.664.664.085.216.085.62-.001.837a1.17 1.17 0 0 1-1.363.702c-.86-.22-1.167-1.289-.551-1.919.259-.265.524-.37.884-.352.131.006.272.032.367.068M4.168 4.532c-.226.138-.221.482.01.633.068.045.194.049 1.794.062 1.899.015 1.758.002 2.117.193.352.186.661.612.742 1.024.025.131.02.886-.025 3.72-.054 3.362-.055 3.561-.012 3.649.025.051.087.12.137.153.09.061.091.061 1.206.061h1.116v.933H4.747v-1.067h1.161c1.255 0 1.266-.001 1.399-.145l.066-.072.007-3.56c.008-3.904.017-3.661-.148-3.783-.07-.051-.12-.053-1.507-.06-1.598-.009-1.561-.012-1.674.172-.076.122-.061.325.032.426.13.141.144.142 1.396.142H6.64v6.132l-1.207.008c-1.159.007-1.209.009-1.277.06-.158.119-.156.103-.156 1.214 0 1.138-.003 1.116.188 1.224l.099.056h7.426l.101-.057c.191-.107.19-.104.181-1.188l-.008-.964-.067-.073c-.133-.143-.149-.145-1.334-.145H9.49l.016-.54c.034-1.168.099-5.941.084-6.167a2.24 2.24 0 0 0-1.387-1.922c-.417-.168-.451-.171-2.289-.171-1.6 0-1.664.002-1.746.052"/>
</svg>