<svg xmlns="http://www.w3.org/2000/svg" width="16" height="16" fill="currentColor" class="si si-Instagramicons" viewBox="0 0 16 16">
  <g clip-path="url(#a)">
    <path d="M14.005 3.047a1.052 1.052 0 1 0-1.052 1.051c.58 0 1.052-.472 1.052-1.051m-1.569 0a.517.517 0 1 1 1.035 0 .517.517 0 0 1-1.034 0m-.143 4.917a4.19 4.19 0 0 0-4.187-4.187A4.19 4.19 0 0 0 3.92 7.964a4.19 4.19 0 0 0 4.187 4.187 4.19 4.19 0 0 0 4.187-4.187m-7.84 0a3.656 3.656 0 0 1 3.653-3.653 3.656 3.656 0 0 1 3.652 3.653 3.656 3.656 0 0 1-3.652 3.653 3.657 3.657 0 0 1-3.653-3.653"/>
    <path d="M11.6 0H4.4A4.406 4.406 0 0 0 0 4.4v7.2c0 2.071 1.433 3.849 3.485 4.323a.267.267 0 1 0 .12-.52C1.797 14.985.535 13.421.535 11.6V4.4A3.87 3.87 0 0 1 4.4.535h7.198A3.87 3.87 0 0 1 15.466 4.4v7.198a3.87 3.87 0 0 1-3.867 3.866H5.755a.267.267 0 0 0 0 .535H11.6a4.404 4.404 0 0 0 4.4-4.4V4.4C16 1.974 14.026 0 11.6 0"/>
  </g>
  <defs>
    <clipPath id="a">
      <path d="M0 0h16v16H0z"/>
    </clipPath>
  </defs>
</svg>