<svg xmlns="http://www.w3.org/2000/svg" width="16" height="16" fill="currentColor" class="si si-instagram_" viewBox="0 0 16 16">
  <path fill-rule="evenodd" d="M3.927.03a4.56 4.56 0 0 0-1.993.736c-.366.242-.926.802-1.168 1.168a4.5 4.5 0 0 0-.738 2.035c-.037.368-.038 7.735-.001 8.071a4.42 4.42 0 0 0 2.639 3.602c.281.124.765.278.872.278.168 0 .298-.156.263-.315-.026-.118-.09-.161-.368-.244-.725-.218-1.272-.537-1.764-1.03a3.94 3.94 0 0 1-1.074-2.025c-.046-.225-.048-.477-.048-4.319v-4.08l.06-.272C.95 2.085 2.085.95 3.635.607l.272-.06h8.186l.272.06c1.55.343 2.685 1.478 3.028 3.028l.06.272v8.186l-.06.272c-.341 1.543-1.468 2.674-3.014 3.027-.258.059-.266.059-3.459.067-2.3.006-3.221.017-3.275.038-.129.053-.184.216-.12.357.07.153-.084.146 3.214.146 1.798-.001 3.136-.012 3.283-.027a4.5 4.5 0 0 0 2.044-.739c.366-.242.926-.802 1.168-1.168a4.5 4.5 0 0 0 .738-2.035c.039-.38.039-7.682 0-8.062a4.5 4.5 0 0 0-.738-2.035c-.242-.366-.802-.926-1.168-1.168a4.5 4.5 0 0 0-2.035-.738c-.338-.034-7.774-.032-8.104.002m8.774 1.994a1.13 1.13 0 0 0-.684.556c-.32.632.066 1.378.779 1.503.433.077.902-.172 1.105-.587.079-.163.086-.196.086-.443 0-.244-.007-.281-.085-.445a1.01 1.01 0 0 0-.896-.597 1.5 1.5 0 0 0-.305.013m.439.551a.51.51 0 0 1 .271.697.502.502 0 0 1-.786.163.45.45 0 0 1-.175-.381c0-.377.351-.621.69-.479M7.627 3.804c-.583.077-1.297.33-1.744.618A4.8 4.8 0 0 0 4.75 5.475a4.18 4.18 0 0 0-.719 3.418 4.183 4.183 0 0 0 5.857 2.852c1.686-.787 2.662-2.66 2.339-4.491a4.1 4.1 0 0 0-1.153-2.224 4 4 0 0 0-1.606-1.015c-.457-.159-.726-.205-1.268-.214a8 8 0 0 0-.573.003m1.095.558a3.66 3.66 0 0 1 2.667 5.207 3.7 3.7 0 0 1-2.652 1.996 4.5 4.5 0 0 1-1.261 0 3.7 3.7 0 0 1-2.652-1.996 3.5 3.5 0 0 1-.361-1.449 3.6 3.6 0 0 1 .618-2.2A3.7 3.7 0 0 1 7.48 4.362a5 5 0 0 1 1.242 0"/>
</svg>