<svg xmlns="http://www.w3.org/2000/svg" width="16" height="16" fill="currentColor" class="si si-inteview_" viewBox="0 0 16 16">
  <path fill-rule="evenodd" d="M6.061 1.521a3.9 3.9 0 0 0-1.482.477c-.258.148-.716.511-.883.699a5 5 0 0 0-.537.799c-.114.225-.259.702-.32 1.051-.122.688-.014 1.51.284 2.17.095.211.096.297.008.753-.086.444-.095.744-.027.883.113.232.338.273.934.169.559-.097.654-.093.912.036.458.229.913.332 1.463.333.409 0 .608-.033 1.126-.185a3.3 3.3 0 0 0 1.294-.716 3.67 3.67 0 0 0 1.219-2.242c.045-.33.035-.851-.025-1.202-.134-.781-.437-1.362-1.011-1.935a3.9 3.9 0 0 0-1.534-.955 4 4 0 0 0-1.421-.135m1.063.342c.482.103.843.259 1.292.559.68.456 1.256 1.385 1.384 2.237.069.456.036 1.061-.077 1.421-.077.245-.284.72-.393.903-.483.806-1.443 1.413-2.479 1.565a3.03 3.03 0 0 1-1.792-.298l-.192-.097-.374.014a7 7 0 0 0-.671.06 1.6 1.6 0 0 1-.368.029c-.138-.035-.14-.191-.013-.864.08-.419.071-.594-.038-.823a3.1 3.1 0 0 1-.322-1.422c-.002-.765.23-1.445.711-2.083.491-.652 1.192-1.074 2.061-1.24.272-.052.942-.032 1.271.039m3.361 2.996c-.06.06-.032.15.09.292.344.402.598.907.732 1.462.079.324.087.947.019 1.324a4 4 0 0 1-.28.876c-.1.198-.106.405-.024.854.094.508.108.652.073.743l-.03.077-.219-.015a8 8 0 0 1-.593-.072c-.454-.071-.586-.061-.829.061-.415.209-.837.298-1.411.297-1.132-.002-2.007-.462-2.735-1.438-.216-.289-.289-.332-.383-.229-.043.048-.045.064-.014.138.085.204.49.687.799.952.563.482 1.134.755 1.796.859.268.042.858.035 1.137-.013.298-.052.646-.172.899-.309.232-.126.279-.128.758-.035.459.089.775.098.901.024a.6.6 0 0 0 .146-.129c.082-.11.089-.405.019-.791a7 7 0 0 1-.073-.508.6.6 0 0 1 .064-.387c.335-.766.415-1.737.207-2.509a3.7 3.7 0 0 0-.716-1.369c-.123-.149-.17-.187-.228-.187-.04 0-.087.014-.105.032m2.893 4.568a1.4 1.4 0 0 0-1.009 1.114c-.074.474.16 1.007.555 1.269.104.069.115.085.073.099a2.2 2.2 0 0 0-.865.561 2.2 2.2 0 0 0-.557.929c-.068.222-.114.621-.078.687.041.077.121.107.19.071.083-.044.099-.075.1-.197.003-.409.274-.983.617-1.31.243-.231.6-.423.918-.492a2.2 2.2 0 0 1 .903.026c.364.101.608.247.898.535.214.213.274.292.367.485.118.244.189.513.19.724 0 .1.014.142.065.193.08.08.095.081.188.008.072-.057.073-.06.054-.271a2.27 2.27 0 0 0-.704-1.452c-.177-.173-.359-.289-.656-.418l-.204-.089.115-.08c.454-.316.676-.888.542-1.4a1.38 1.38 0 0 0-.988-.992 1.75 1.75 0 0 0-.714 0m.524.279c.34.055.631.264.793.568.075.14.09.201.1.386.014.272-.023.416-.162.624a1.1 1.1 0 0 1-1.45.326 1.3 1.3 0 0 1-.432-.484c-.061-.132-.071-.187-.071-.406 0-.223.009-.272.074-.403.151-.308.423-.526.742-.596.213-.046.217-.046.406-.015m-11.944.065c-.605.138-1.078.701-1.078 1.282 0 .382.23.83.554 1.08l.115.088-.168.067c-.321.127-.648.38-.906.699-.236.292-.427.779-.464 1.183-.017.19-.015.202.051.268.085.085.11.086.193.003.048-.049.065-.094.065-.18.003-.699.626-1.51 1.329-1.728.36-.112.635-.13.959-.064.872.178 1.525.881 1.595 1.715.016.189.027.225.085.27.081.065.091.065.168.003.055-.045.061-.07.055-.234-.011-.293-.077-.535-.238-.863-.136-.28-.173-.33-.419-.577s-.295-.283-.568-.415l-.299-.146.121-.087c.253-.181.462-.526.521-.859.085-.474-.168-1.033-.591-1.304a1.5 1.5 0 0 0-1.08-.201m.63.325c.29.084.533.293.662.567.061.131.07.185.07.417 0 .241-.008.282-.078.427a1.2 1.2 0 0 1-.51.506c-.149.075-.178.08-.465.08-.294 0-.314-.003-.47-.085a1.14 1.14 0 0 1-.496-.508c-.081-.164-.088-.199-.088-.433 0-.227.009-.271.079-.413a1.1 1.1 0 0 1 1.296-.558"/>
</svg>