<svg xmlns="http://www.w3.org/2000/svg" width="16" height="16" fill="currentColor" class="si si-Inteviewicons" viewBox="0 0 16 16">
  <path d="M6.432 8.899a3.26 3.26 0 0 1-1.668-.437c-.08-.04-.397 0-.635.04-.397.079-.754.158-.953-.04-.198-.199-.119-.596-.04-.993.04-.239.12-.517.04-.636-.238-.477-.357-.993-.397-1.589 0-.556.12-1.112.318-1.629.278-.556.595-.993.992-1.27.397-.358.914-.597 1.509-.756a3.9 3.9 0 0 1 1.668 0q.714.18 1.429.715a3.7 3.7 0 0 1 1.032 1.272c.238.476.357 1.072.357 1.628 0 .517-.079.993-.278 1.43-.158.437-.436.835-.794 1.192a3.7 3.7 0 0 1-1.19.795c-.398.119-.834.278-1.39.278m-1.787-.755c.12 0 .199 0 .278.04.437.238.953.397 1.509.397.476 0 .953-.12 1.31-.278.397-.159.754-.397 1.112-.715.317-.318.595-.715.714-1.112.199-.398.278-.835.278-1.311 0-.517-.119-1.033-.357-1.47-.278-.517-.556-.914-.953-1.192-.437-.318-.913-.556-1.39-.636a3.2 3.2 0 0 0-1.508 0c-.516.12-.993.358-1.35.676-.357.278-.675.715-.913 1.192a3.9 3.9 0 0 0-.318 1.47c.04.555.159 1.032.397 1.47.08.198.04.516-.04.833-.04.278-.119.636-.04.715.08.08.477 0 .715-.04.199 0 .397-.039.556-.039"/>
  <path d="M8.02 11.084c-.635 0-1.31-.16-1.826-.517a4.1 4.1 0 0 1-1.31-1.31c-.04-.08-.04-.16.04-.2.078-.039.158-.039.198.04.317.477.714.914 1.23 1.232a3.37 3.37 0 0 0 1.668.437c.556 0 1.072-.12 1.509-.358.198-.119.516-.04.833 0 .239.04.636.12.715.04.08-.08 0-.437-.04-.715-.08-.318-.119-.636-.04-.834.318-.596.437-1.311.358-2.026a3.43 3.43 0 0 0-.874-1.828c-.04-.04-.04-.158 0-.198s.16-.04.199 0a3.6 3.6 0 0 1 .953 1.986c.08.755-.04 1.55-.358 2.185-.04.12 0 .397.04.636.08.397.159.794-.04.993-.198.198-.595.119-.992.04-.238-.04-.556-.12-.635-.04-.437.278-.993.437-1.628.437m-5.757 1.35c-.715 0-1.35-.596-1.39-1.35 0-.755.636-1.351 1.39-1.351s1.39.596 1.39 1.35c0 .716-.636 1.351-1.39 1.351m0-2.383c-.596 0-1.072.476-1.072 1.033.04.596.516 1.033 1.072 1.033.596 0 1.072-.477 1.072-1.033 0-.596-.476-1.033-1.072-1.033"/>
  <path d="M4.367 14.5a.17.17 0 0 1-.159-.159 1.78 1.78 0 0 0-.595-1.35 1.96 1.96 0 0 0-1.35-.557 1.9 1.9 0 0 0-1.35.557c-.397.397-.595.873-.595 1.35a.17.17 0 0 1-.16.159.17.17 0 0 1-.158-.159c0-.596.238-1.152.675-1.589s.953-.636 1.588-.636c.596 0 1.191.239 1.588.636.437.437.675.993.675 1.59a.17.17 0 0 1-.159.158m9.37-2.423c-.754 0-1.39-.596-1.39-1.35 0-.756.636-1.352 1.39-1.352s1.39.596 1.39 1.351-.636 1.35-1.39 1.35m0-2.384c-.596 0-1.072.477-1.072 1.033s.476 1.033 1.072 1.033c.595 0 1.072-.477 1.072-1.033s-.476-1.033-1.072-1.033"/>
  <path d="M15.841 14.182a.17.17 0 0 1-.159-.159 1.78 1.78 0 0 0-.595-1.35 1.96 1.96 0 0 0-1.35-.556 1.9 1.9 0 0 0-1.35.556c-.397.397-.595.874-.595 1.35a.17.17 0 0 1-.16.16.17.17 0 0 1-.158-.16c0-.596.238-1.152.675-1.589s.953-.635 1.588-.635c.595 0 1.191.238 1.588.635.437.437.675.993.675 1.59a.17.17 0 0 1-.159.158"/>
</svg>