<svg xmlns="http://www.w3.org/2000/svg" width="16" height="16" fill="currentColor" class="si si-LED_Bulb" viewBox="0 0 16 16">
  <g clip-path="url(#a)">
    <path d="M5.089 7.782c.009.01.013.022.022.031-.009-.013-.013-.022-.022-.03M7.99 13.89c-.929 0-2.169-1.058-2.169-1.542V9.636a.58.58 0 0 0-.106-.352c-.05-.075-.032-.182.044-.23a.165.165 0 0 1 .231.044c.111.169.16.333.16.538v2.71c0 .236 1 1.21 1.836 1.21.937 0 1.92-1.005 1.92-1.21V9.592a.9.9 0 0 1 .16-.493c.08-.142.222-.382.364-.622.116-.196.231-.387.316-.538H5.19c.067.102.133.209.196.338.04.08.009.182-.076.222a.165.165 0 0 1-.222-.076c-.085-.169-.173-.298-.258-.426-.044-.04-.062-.138-.027-.227a.27.27 0 0 1 .254-.165h5.822c.111 0 .213.067.253.165a.24.24 0 0 1-.026.231l-.378.644c-.142.24-.28.476-.369.632a.6.6 0 0 0-.111.315v2.756c0 .506-1.245 1.542-2.258 1.542M5.458 6.244a.17.17 0 0 1-.165-.128.167.167 0 0 1 .125-.2l5.11-1.156a.165.165 0 0 1 .2.124.17.17 0 0 1-.124.2L5.494 6.24c-.01 0-.023.004-.036.004m0-1.155a.167.167 0 0 1-.036-.329l5.111-1.2a.165.165 0 0 1 .2.124.167.167 0 0 1-.124.2l-5.111 1.2c-.014 0-.027.005-.04.005m0-1.022a.167.167 0 0 1-.036-.329l5.067-1.2a.165.165 0 0 1 .2.124.167.167 0 0 1-.125.2l-5.066 1.2c-.014 0-.027.005-.04.005m0-1.023a.167.167 0 0 1-.036-.329l2.667-.622c.04-.013.049-.03.049-.066v-.218a.169.169 0 1 1 .338 0v.222c0 .173-.107.333-.272.373l-2.706.636z"/>
    <path d="M8.969 7.933a.166.166 0 0 1-.16-.129c-.009-.03-.178-.777.262-1.328.293-.374.787-.565 1.458-.565a.169.169 0 1 1 0 .338c-.565 0-.965.147-1.191.435-.338.427-.2 1.045-.2 1.05a.167.167 0 0 1-.125.2c-.017-.005-.03 0-.044 0m-1.911-.001q-.02.001-.04-.004a.167.167 0 0 1-.125-.2c0-.005.138-.622-.2-1.049-.23-.289-.63-.436-1.19-.436a.169.169 0 1 1 0-.337c.67 0 1.16.19 1.457.564.44.556.271 1.298.262 1.329a.174.174 0 0 1-.164.133m2.266 2.045H6.702a.169.169 0 1 1 0-.338h2.622a.169.169 0 1 1 0 .338m0 2.355H6.702a.169.169 0 1 1 0-.337h2.622a.169.169 0 1 1 0 .337m0-1.155H6.702a.17.17 0 0 1-.169-.165.17.17 0 0 1 .17-.169h2.621a.17.17 0 0 1 .17.17.17.17 0 0 1-.17.164m-1.333 3.333q-.454 0-.689-.267c-.23-.262-.19-.617-.19-.635.012-.093.092-.16.186-.142a.17.17 0 0 1 .146.186s-.022.227.112.374c.088.097.235.15.435.15q.301.002.436-.15c.133-.147.11-.374.11-.374a.17.17 0 0 1 .147-.186.17.17 0 0 1 .187.142c0 .013.045.369-.187.635q-.24.267-.693.267"/>
  </g>
  <defs>
    <clipPath id="a">
      <path d="M0 0h16v16H0z"/>
    </clipPath>
  </defs>
</svg>