<svg xmlns="http://www.w3.org/2000/svg" width="16" height="16" fill="currentColor" class="si si-led_bulb_" viewBox="0 0 16 16">
  <path fill-rule="evenodd" d="M8.183 1.697a.6.6 0 0 0-.05.219l-.013.175-1.36.317c-.803.187-1.379.334-1.407.358-.09.082-.028.274.089.274.08 0 2.785-.646 2.854-.681.157-.082.249-.495.142-.646-.05-.073-.2-.082-.255-.016m-.24 1.446c-1.403.333-2.57.622-2.594.642-.054.045-.055.172 0 .226a.17.17 0 0 0 .104.042c.035 0 1.207-.27 2.605-.601 2.657-.628 2.635-.621 2.635-.757 0-.061-.097-.162-.154-.16-.025.001-1.193.275-2.596.608m.03 1.022c-1.917.45-2.609.622-2.634.656a.2.2 0 0 0-.027.125c.018.181-.096.2 2.738-.465 1.556-.365 2.613-.626 2.637-.65.078-.078.038-.236-.068-.264-.026-.007-1.216.262-2.646.598m.04 1.168c-1.408.318-2.585.587-2.616.597-.109.035-.129.198-.033.274.02.016.15.036.289.045q.9.058 1.157.629c.077.171.141.541.113.652l-.017.07h-.948c-1.054 0-1.075.003-1.147.174-.045.109-.039.127.17.466.145.236.162.254.25.261.189.016.216-.143.068-.392l-.097-.162h2.759c1.518 0 2.759.008 2.759.017s-.15.274-.334.586-.367.637-.407.722l-.072.155-.014 1.507-.013 1.508-.086.109c-.221.279-.63.604-.984.78-.525.263-.981.283-1.471.067-.348-.154-.873-.564-1.087-.849l-.079-.105-.013-1.509c-.013-1.491-.014-1.51-.074-1.658-.076-.189-.135-.243-.249-.232-.063.006-.1.029-.128.078-.035.064-.033.079.026.187l.065.117.013 1.52.014 1.52.074.134c.159.287.521.626.966.905l.24.15.016.147c.052.458.421.73.944.697.246-.015.405-.074.556-.207.125-.11.189-.234.231-.447l.033-.165.176-.098c.416-.231.776-.521.975-.786.214-.284.202-.182.203-1.767 0-.818.011-1.464.026-1.529.014-.061.218-.439.453-.839.44-.749.467-.816.385-.941-.073-.112-.157-.121-1.099-.121h-.893l.012-.273c.011-.238.024-.297.097-.45.185-.389.533-.575 1.177-.631.209-.018.229-.025.267-.093.037-.066.037-.08-.001-.146-.04-.072-.045-.074-.293-.072-.973.008-1.596.586-1.598 1.485l-.001.18H7.261l-.015-.273c-.023-.42-.14-.705-.391-.956a1.5 1.5 0 0 0-.323-.239c-.095-.048-.16-.091-.145-.096.014-.005.98-.224 2.146-.488 1.596-.36 2.128-.49 2.153-.525.065-.089.027-.222-.073-.256-.022-.007-1.192.247-2.6.566m-1.438 4.38c-.056.079-.052.143.012.207.052.052.089.053 1.426.053 1.338 0 1.375-.001 1.427-.053.064-.064.068-.128.012-.207l-.042-.06H6.616zm.012 1.194a.18.18 0 0 0-.054.106c0 .03.024.078.054.107.052.052.089.053 1.426.053 1.338 0 1.375-.001 1.427-.053a.2.2 0 0 0 .053-.107.2.2 0 0 0-.053-.106c-.052-.052-.089-.054-1.427-.054-1.337 0-1.374.002-1.426.054m0 1.146c-.064.064-.068.128-.012.208l.041.059H9.41l.042-.059c.056-.08.052-.144-.012-.208-.052-.052-.089-.053-1.427-.053-1.337 0-1.374.001-1.426.053m1.106 1.802c.205.048.406.048.638-.002a1 1 0 0 1 .197-.028c.006.007-.017.063-.052.125-.092.164-.222.223-.489.222-.293-.001-.461-.099-.52-.303-.022-.077-.019-.085.021-.07.025.01.117.035.205.056"/>
</svg>