<svg xmlns="http://www.w3.org/2000/svg" width="16" height="16" fill="currentColor" class="si si-lightbulb_" viewBox="0 0 16 16">
  <path fill-rule="evenodd" d="m8.088.464-.075.065-.007.919-.008.919.069.082c.086.102.155.125.256.083.152-.063.157-.096.157-1.075V.564L8.411.482C8.323.378 8.197.371 8.088.464M3.156 2.347c-.032.012-.071.064-.088.116-.063.19-.028.224.767.759.397.266.746.485.776.485.114 0 .203-.15.184-.31-.007-.068-.085-.128-.635-.499-.858-.577-.892-.596-1.004-.551m9.893 0c-.12.048-1.422.935-1.462.995-.057.087-.026.217.072.299.086.072.193.086.226.03.012-.02.33-.242.707-.493s.699-.482.716-.514c.044-.082.008-.226-.073-.29-.075-.059-.099-.062-.186-.027m-5.156.748c-1.971.177-3.339 1.563-3.616 3.662-.06.451-.038 1.306.043 1.683.163.765.41 1.247 1.107 2.16.693.908.948 1.398 1.067 2.053.052.291.102.4.2.441.059.024.09.022.156-.012.137-.071.143-.111.07-.441-.179-.812-.448-1.367-1.053-2.175C4.998 9.304 4.741 8.74 4.664 7.82c-.066-.798.101-1.727.431-2.384.586-1.168 1.665-1.851 3.014-1.907.979-.041 1.796.225 2.402.782.086.078.173.142.196.142.022 0 .084-.04.138-.089.18-.165.13-.264-.294-.586-.482-.365-1.177-.619-1.871-.684a3.4 3.4 0 0 0-.787.001m3.705 2.526c-.103.091-.105.144-.019.432.12.401.159.694.173 1.32.012.512.007.628-.041.907-.072.421-.181.75-.39 1.173-.215.437-.362.669-.845 1.334-.822 1.133-.998 1.447-1.062 1.899-.028.2.005.317.109.391q.125.085.24-.007c.054-.044.065-.083.08-.296a.96.96 0 0 1 .127-.467c.124-.25.401-.647.857-1.227.424-.541.692-.949.909-1.386.576-1.16.673-2.304.311-3.681-.064-.244-.101-.337-.157-.393-.093-.094-.187-.093-.292.001M1.733 6.925a.32.32 0 0 0-.173.196c-.019.088.042.224.119.265.032.017.372.027.911.027h.86l.075-.071a.24.24 0 0 0-.058-.395c-.065-.034-.214-.04-.886-.038-.444.001-.826.008-.848.016m11.225.14c-.147.147-.07.376.139.415.049.009.448.013.885.008l.796-.008.078-.087q.155-.174-.001-.328l-.078-.078h-1.741zm-.771 3.254a.3.3 0 0 0-.069.12c-.04.157-.015.18.733.68.395.263.725.491.735.506.03.049.089.031.186-.054.076-.067.095-.102.094-.18a.3.3 0 0 0-.02-.126c-.024-.036-1.296-.895-1.411-.955-.113-.057-.184-.055-.248.009m-8.606.547c-.697.465-.781.538-.781.677 0 .077.128.217.197.217.033 0 .391-.222.797-.494.561-.375.742-.509.755-.56a.32.32 0 0 0-.062-.259c-.095-.105-.176-.068-.906.419m4.446 2.747c-.668.122-1.233.23-1.257.239-.05.02-.103.126-.103.205 0 .029.035.089.079.133.07.07.092.077.198.065.163-.02 2.482-.438 2.53-.457.051-.019.099-.128.099-.224 0-.103-.109-.188-.237-.185a38 38 0 0 0-1.309.224m.226.69c-1.337.277-1.209.241-1.255.35-.05.122-.049.129.031.225.05.06.092.082.153.082.095 0 2.184-.417 2.279-.455.11-.045.152-.274.064-.354a.3.3 0 0 0-.127-.056c-.043-.007-.558.087-1.145.208m.107.846c-.455.087-.842.164-.861.171s-.053.056-.075.108c-.036.088-.036.103.01.181.027.046.08.095.119.109.099.035 1.827-.288 1.895-.354a.3.3 0 0 0 .063-.144c.021-.133-.077-.235-.223-.231-.056.002-.473.074-.928.16"/>
</svg>