<svg xmlns="http://www.w3.org/2000/svg" width="16" height="16" fill="currentColor" class="si si-Lightbulbicons" viewBox="0 0 16 16">
  <g clip-path="url(#a)">
    <path d="M9.643 13.12c-.121 0-.243-.128-.243-.256 0-.64.426-1.152.913-1.856.67-.896 1.46-1.92 1.46-3.392 0-.64-.06-1.216-.243-1.728-.06-.128 0-.256.122-.32s.244 0 .305.128c.182.576.304 1.216.304 1.856 0 1.664-.852 2.816-1.583 3.712-.426.576-.852 1.088-.852 1.536.061.192-.06.32-.183.32m-2.86 0c-.122 0-.183-.064-.244-.192-.122-1.024-.609-1.664-1.096-2.304-.608-.768-1.217-1.6-1.217-3.136 0-2.624 1.644-4.416 4.078-4.416.974 0 1.887.32 2.557.96.122.064.122.256 0 .32a.169.169 0 0 1-.305 0c-.608-.576-1.4-.832-2.252-.832-2.191 0-3.652 1.6-3.652 3.968 0 1.344.548 2.048 1.096 2.816.548.704 1.035 1.408 1.217 2.56.061.064 0 .192-.182.256m.121 1.152c-.121 0-.182-.064-.243-.192 0-.128.06-.256.182-.256l2.496-.448c.122 0 .244.064.244.192s-.061.256-.183.256zc.061 0 .061-.064 0 0m.305.704c-.122 0-.183-.064-.244-.192 0-.128.061-.256.183-.256l2.191-.448c.122 0 .244.064.244.192s-.061.256-.183.256zm.426.768c-.122 0-.183-.064-.244-.192 0-.128.061-.256.183-.256l1.704-.32c.122 0 .244.064.244.192s-.061.256-.183.256zM8.243 2.56C8.122 2.56 8 2.432 8 2.304V.64c0-.128.122-.256.243-.256.122 0 .244.128.244.256v1.664c0 .128-.122.256-.244.256m6.453 4.928h-1.583c-.122 0-.243-.128-.243-.256s.121-.256.243-.256h1.583c.121 0 .243.128.243.256s-.122.256-.243.256M3.374 7.424H1.79c-.121 0-.243-.128-.243-.256s.122-.256.243-.256h1.583c.122 0 .243.128.243.256s-.121.256-.243.256m1.218-3.712c-.06 0-.06 0-.121-.064l-1.34-.896c-.06-.064-.121-.192-.06-.32.06-.128.182-.128.304-.064l1.339.896c.122.064.122.192.06.32-.06.128-.12.128-.182.128m7.183 0c-.061 0-.122-.064-.183-.128-.06-.128-.06-.256.061-.32l1.34-.896c.121-.064.243-.064.304.064.06.128.06.256-.061.32l-1.34.896c0 .064-.06.064-.121.064m-8.765 8.064c-.061 0-.122-.064-.183-.128-.06-.128 0-.256.061-.32l1.34-.896c.12-.064.243-.064.303.064.061.128.061.256-.06.32l-1.34.896s-.06.064-.121.064m10.651-.128c-.06 0-.06 0-.12-.064l-1.34-.896c-.122-.064-.122-.192-.06-.32.06-.128.182-.128.303-.064l1.34.896c.121.064.121.192.06.32-.06.064-.121.128-.182.128"/>
  </g>
  <defs>
    <clipPath id="a">
      <path d="M1 0h14v16H1z"/>
    </clipPath>
  </defs>
</svg>