<svg xmlns="http://www.w3.org/2000/svg" width="16" height="16" fill="currentColor" class="si si-mail_" viewBox="0 0 16 16">
  <path fill-rule="evenodd" d="M.856 2.549c-.33.089-.665.353-.799.631L0 3.297v4.638l.001 4.638.08.14c.169.296.462.518.802.608.216.058 14.018.058 14.233 0 .333-.088.638-.319.803-.608l.08-.14L16 7.965V3.357l-.073-.152a1.35 1.35 0 0 0-.855-.668c-.103-.022-2.042-.03-7.107-.029-5.994.002-6.985.008-7.109.041m13.462.82-3.165 2.335L8 8.03 4.807 5.705c-1.757-1.28-3.199-2.33-3.205-2.336S4.457 3.36 7.96 3.36s6.364.004 6.358.009m.849 8.87a.35.35 0 0 1-.18.181l-.119.06-6.907-.007-6.908-.006-.089-.064a.5.5 0 0 1-.14-.174c-.048-.105-.05-.27-.05-4.262 0-2.285.004-4.154.011-4.154s1.587 1.154 3.513 2.565S7.845 8.96 7.899 8.982c.082.032.119.033.213.006.083-.023 1.071-.743 3.608-2.628l3.493-2.595.007 4.176.007 4.177z"/>
</svg>