<svg xmlns="http://www.w3.org/2000/svg" width="16" height="16" fill="currentColor" class="si si-Mailicons" viewBox="0 0 16 16">
  <g clip-path="url(#a)">
    <mask id="b" width="18" height="12" x="-1" y="1.6" maskUnits="userSpaceOnUse">
      <path d="M-1 1.6h18v12H-1z"/>
      <path fill-rule="evenodd" d="M14.809 2.6H1.19C.511 2.6 0 3.12 0 3.814v8.239c0 .65.51 1.214 1.191 1.214H14.81A1.2 1.2 0 0 0 16 12.053V3.814c-.043-.694-.553-1.214-1.191-1.214m-.17.65-6.64 4.9-6.723-4.9zm.17 9.323c.255 0 .51-.217.51-.52V3.814c0-.087 0-.173-.042-.217L8.213 8.844a.314.314 0 0 1-.383 0L.723 3.64c-.042.043-.042.13-.042.173v8.239c0 .26.212.52.51.52z"/>
    </mask>
    <path fill-rule="evenodd" d="M14.809 2.6H1.19C.511 2.6 0 3.12 0 3.814v8.239c0 .65.51 1.214 1.191 1.214H14.81A1.2 1.2 0 0 0 16 12.053V3.814c-.043-.694-.553-1.214-1.191-1.214m-.17.65-6.64 4.9-6.723-4.9zm.17 9.323c.255 0 .51-.217.51-.52V3.814c0-.087 0-.173-.042-.217L8.213 8.844a.314.314 0 0 1-.383 0L.723 3.64c-.042.043-.042.13-.042.173v8.239c0 .26.212.52.51.52z"/>
    <path d="M16 3.814h.1v-.006zM8 8.15l-.059.081.06.043.058-.043zm6.638-4.9.06.08.244-.18h-.304zm-13.362 0v-.1H.97l.249.181zm14 .347.072-.07-.061-.062-.07.052zM8.214 8.844l.056.083.003-.003zm-.383 0-.06.08.004.003zM.723 3.64l.06-.081-.07-.051-.061.062zm.468-.941H14.81v-.2H1.19zM.1 3.814C.1 3.174.568 2.7 1.19 2.7v-.2C.454 2.5-.1 3.067-.1 3.814zm0 8.239V3.814h-.2v8.239zm1.091 1.114C.57 13.167.1 12.652.1 12.053h-.2c0 .701.551 1.314 1.291 1.314zm13.618 0H1.19v.2h13.62zm1.091-1.114a1.1 1.1 0 0 1-1.091 1.114v.2a1.3 1.3 0 0 0 1.291-1.314zm0-8.239v8.239h.2V3.814zM14.809 2.7c.578 0 1.051.472 1.091 1.12l.2-.012c-.046-.74-.593-1.308-1.292-1.308zm-6.75 5.53 6.639-4.9-.12-.16-6.637 4.9zM1.218 3.332l6.723 4.9.118-.162-6.724-4.9zm13.42-.18H1.276v.2h13.362zm.581 8.902c0 .244-.207.42-.41.42v.2c.306 0 .61-.258.61-.62zm0-8.239v8.239h.2v-8.24zm-.014-.147c-.001-.001.005.005.01.036q.005.044.004.111h.2c0-.041 0-.092-.006-.138a.26.26 0 0 0-.065-.149zM8.272 8.924l7.064-5.246-.12-.161-7.063 5.247zm-.498.003c.076.052.16.082.247.082a.44.44 0 0 0 .248-.082l-.113-.166a.24.24 0 0 1-.135.048.24.24 0 0 1-.135-.048zM.664 3.72l7.107 5.204.118-.162L.782 3.56zm.117.093q-.001-.034.004-.07c.004-.026.01-.034.01-.033l-.143-.14a.26.26 0 0 0-.065.14c-.006.042-.006.082-.006.103zm0 8.239V3.814h-.2v8.239zm.41.42a.423.423 0 0 1-.41-.42h-.2c0 .308.25.62.61.62zm13.618 0H1.19v.2h13.62z" mask="url(#b)"/>
  </g>
  <defs>
    <clipPath id="a">
      <path d="M0 0h16v16H0z"/>
    </clipPath>
  </defs>
</svg>