<svg xmlns="http://www.w3.org/2000/svg" width="16" height="16" fill="currentColor" class="si si-Neutral_line" viewBox="0 0 16 16">
  <g clip-path="url(#a)">
    <path d="M15.975 7.361c-.173-2.002-.921-3.604-2.245-4.862-.057-.115-.23-.115-.287 0a.162.162 0 0 0 0 .286c1.266 1.201 1.956 2.688 2.129 4.634.345 4.176-2.705 7.78-6.963 8.18-4.201.344-7.884-2.745-8.23-6.922C.034 4.501 3.084.897 7.343.497c1.726-.172 3.222.17 4.603 1.086.115.057.23.057.288-.057s0-.229-.057-.286Q10.018-.22 7.343.039C2.853.439-.37 4.272.034 8.677.379 12.854 3.89 16 8.091 16h.633c4.373-.4 7.596-4.233 7.25-8.639"/>
    <path fill-rule="evenodd" d="M4.02 7.989c0-.118.097-.214.217-.213l7.71.057c.12.001.216.098.215.216a.215.215 0 0 1-.217.213l-7.712-.057a.215.215 0 0 1-.214-.216"/>
  </g>
  <defs>
    <clipPath id="a">
      <path d="M0 0h16v16H0z"/>
    </clipPath>
  </defs>
</svg>