<svg xmlns="http://www.w3.org/2000/svg" width="16" height="16" fill="currentColor" class="si si-neutral_line_" viewBox="0 0 16 16">
  <path fill-rule="evenodd" d="M7.64.017a9 9 0 0 0-1.613.25C2.555 1.149.131 4.131.009 7.667c-.077 2.237.717 4.31 2.256 5.889 1.259 1.293 2.818 2.079 4.695 2.368.337.052.494.059 1.227.06.811.001.853-.001 1.213-.072 1.026-.203 1.919-.539 2.731-1.03a8.02 8.02 0 0 0 3.86-7.122 8 8 0 0 0-.337-2.114c-.33-1.127-.882-2.066-1.745-2.973-.201-.21-.247-.246-.32-.246a.2.2 0 0 0-.157.074c-.118.123-.098.182.144.42a6.6 6.6 0 0 1 1.607 2.599c.529 1.598.543 3.376.038 4.89a7.58 7.58 0 0 1-4.647 4.75 7.6 7.6 0 0 1-5.641-.164c-1.387-.59-2.626-1.658-3.445-2.969C.259 10.058.017 7.572.84 5.373a7.5 7.5 0 0 1 2.92-3.628C4.819 1.052 5.945.656 7.293.502c.436-.05 1.448-.042 1.84.015a6.6 6.6 0 0 1 2.686.986c.081.052.178.102.215.111.148.037.259-.108.206-.268-.023-.07-.083-.121-.314-.265A7.1 7.1 0 0 0 8.709.027 9 9 0 0 0 7.64.017M4.096 7.848c-.091.091-.091.202-.001.287l.069.065 2.418.017 3.923.031 1.504.014.076-.076c.092-.092.097-.193.013-.277l-.061-.061-1.305-.017a781 781 0 0 0-3.936-.035l-2.631-.017z"/>
</svg>