<svg xmlns="http://www.w3.org/2000/svg" width="16" height="16" fill="currentColor" class="si si-No_X" viewBox="0 0 16 16">
  <g clip-path="url(#a)">
    <path d="M15.966 7.335c-.172-1.995-.917-3.591-2.236-4.845-.058-.057-.23-.114-.287 0-.057.057-.115.228 0 .285 1.262 1.197 1.95 2.679 2.122 4.617.344 4.162-2.695 7.753-6.939 8.152-4.185.342-7.855-2.736-8.2-6.898C.084 4.485 3.123.894 7.366.495c1.72-.171 3.211.228 4.587 1.083.115.057.23.057.287-.057s0-.228-.057-.285Q10.03-.22 7.365.038C2.892.495-.32 4.257.025 8.703.37 12.865 3.867 16 8.053 16h.63c4.473-.456 7.685-4.275 7.283-8.665"/>
    <path fill-rule="evenodd" d="M4.065 4.063a.22.22 0 0 1 .308.001l7.564 7.567a.215.215 0 0 1-.002.306.22.22 0 0 1-.308-.001L4.063 4.369a.216.216 0 0 1 .002-.306"/>
    <path fill-rule="evenodd" d="M11.94 4.068a.227.227 0 0 1-.005.313l-7.573 7.557a.21.21 0 0 1-.302-.006.227.227 0 0 1 .005-.313l7.573-7.557a.21.21 0 0 1 .302.006"/>
  </g>
  <defs>
    <clipPath id="a">
      <path d="M0 0h16v16H0z"/>
    </clipPath>
  </defs>
</svg>