<svg xmlns="http://www.w3.org/2000/svg" width="16" height="16" fill="currentColor" class="si si-no_x_" viewBox="0 0 16 16">
  <path fill-rule="evenodd" d="m7.653.015-.386.04a10 10 0 0 0-1.421.281 8.2 8.2 0 0 0-3.627 2.181Q.433 4.377.063 7.027c-.06.426-.068 1.504-.015 1.933.443 3.562 3.103 6.327 6.672 6.931.76.129 1.932.143 2.543.032.932-.171 1.886-.505 2.624-.919 2.271-1.275 3.73-3.436 4.064-6.017.053-.411.045-1.519-.014-1.96-.241-1.798-.882-3.182-2.003-4.327-.228-.233-.28-.273-.352-.273-.06 0-.101.02-.14.07-.102.129-.077.19.187.464 1.102 1.144 1.698 2.45 1.905 4.172.064.524.043 1.614-.039 2.091q-.416 2.43-2.12 4.123c-1.478 1.467-3.569 2.29-5.628 2.217a7.62 7.62 0 0 1-5.671-2.809 8.5 8.5 0 0 1-1.117-1.889 7.63 7.63 0 0 1-.042-5.595c.868-2.22 2.754-3.893 5.11-4.533.304-.083.864-.187 1.266-.235a9 9 0 0 1 1.85.028 7.2 7.2 0 0 1 2.519.878c.178.101.351.193.384.203.127.039.237-.09.208-.243-.015-.081-.048-.113-.262-.252a8.4 8.4 0 0 0-1.28-.648C9.931.168 9.209.032 8.293.015a10 10 0 0 0-.64 0M4.078 4.078c-.071.071-.082.097-.067.17.013.068.381.45 1.849 1.919L7.693 8 5.847 9.847C4.279 11.416 4 11.706 4 11.769c0 .091.13.231.213.231.079 0 .153-.071 2.087-1.999L8 8.307l1.833 1.833c1.469 1.468 1.851 1.836 1.919 1.849.073.015.099.004.17-.067s.082-.097.067-.17c-.013-.068-.381-.45-1.849-1.919L8.307 8l1.846-1.847c2.023-2.024 1.93-1.914 1.769-2.075-.093-.093-.155-.098-.258-.021-.043.032-.884.863-1.871 1.847L8 7.693 6.167 5.86C4.698 4.392 4.316 4.024 4.248 4.011c-.073-.015-.099-.004-.17.067"/>
</svg>