<svg xmlns="http://www.w3.org/2000/svg" width="16" height="16" fill="currentColor" class="si si-nuclear_akw_" viewBox="0 0 16 16">
  <path fill-rule="evenodd" d="M7.333.388c-.488.077-.984.27-1.307.51-.287.212-.584.559-.813.95-.38.651-.519.847-.71 1.005-.465.386-.979.569-1.707.61-.186.011-.354.032-.373.047a.6.6 0 0 1-.147.059.8.8 0 0 0-.243.151c-.227.203-.232.228-.339 1.497-.166 1.968-.298 3.227-.39 3.73a160 160 0 0 1-.784 3.64c-.586 2.607-.533 2.337-.495 2.519.054.264.122.36.333.467l.183.094h8.272l.14-.078a.88.88 0 0 0 .384-.476c.04-.147.059-.05-.265-1.326-.408-1.611-.905-3.771-1.122-4.881-.173-.888-.317-2-.522-4.026-.05-.491-.104-.929-.121-.973-.04-.107-.176-.246-.307-.314-.084-.044-.175-.059-.432-.071l-.326-.015.184-.209c.101-.115.265-.341.365-.503.101-.162.242-.357.316-.433.225-.234.626-.423 1.051-.495.184-.031.196-.037.232-.125.105-.251-.101-.313-.606-.185-.625.158-.948.433-1.352 1.15-.074.132-.185.29-.246.351-.208.209-.639.375-1.039.399a2 2 0 0 0-.294.039 1.6 1.6 0 0 1-.341.019l-.249-.008.171-.112c.093-.062.289-.23.435-.374.215-.213.301-.324.462-.595.421-.707.641-.981.964-1.201A3.2 3.2 0 0 1 7.637.733C7.852.71 7.92.659 7.92.522c0-.176-.132-.206-.587-.134m7.187.67c-.413.061-.84.229-1.123.444-.306.232-.487.455-.687.846a7 7 0 0 1-.259.469c-.18.262-.528.487-.902.583a4 4 0 0 1-.538.067c-.422.026-.542.07-.651.235-.092.14-.107.239-.215 1.471-.204 2.314-.246 2.563-.963 5.73-.23 1.014-.252 1.139-.225 1.229.042.142.225.341.345.375.068.02 1.057.026 3.205.021l3.106-.008.142-.075c.223-.117.298-.342.204-.608-.103-.291-.621-2.465-.92-3.864-.169-.788-.184-.826-.344-.826-.096 0-.167.082-.166.191.001.185.697 3.218.994 4.336.044.165.073.324.063.353-.043.137.053.133-3.106.133-3.323 0-3.113.013-3.079-.195.009-.061.185-.884.389-1.829.524-2.424.574-2.679.636-3.245.057-.531.187-1.863.187-1.923 0-.028.328-.035 1.787-.035h1.787v.122c0 .264.296.353.381.114.024-.069-.083-1.192-.129-1.347-.073-.248-.257-.355-.608-.355h-.183l.082-.094c.045-.051.129-.193.188-.314.177-.372.439-.564.936-.688.254-.063.284-.083.308-.202s-.058-.196-.211-.196c-.156 0-.487.088-.677.178-.196.094-.518.408-.601.586-.033.071-.124.21-.202.309a.76.76 0 0 1-.306.259 1.5 1.5 0 0 1-.64.162h-.157l.144-.117c.168-.137.357-.407.49-.701.052-.115.118-.258.147-.317.192-.395.811-.788 1.404-.893.215-.038.276-.084.279-.211.004-.139-.108-.2-.312-.17M6.954 3.98c.052.056.112.304.112.467l.001.06H2.186l.015-.154c.024-.236.033-.263.121-.351l.082-.082h4.493zm7.135.027c.008.047.023.179.033.293l.018.207h-3.481l.019-.26c.011-.143.032-.275.047-.293.022-.027.387-.034 1.689-.034h1.66zm-6.969.951c0 .089.229 2.211.295 2.735.12.952.231 1.463 1.16 5.36l.458 1.927c.027.125-.013.183-.176.256l-.157.071H4.69c-3.764 0-4.016-.003-4.103-.047a.24.24 0 0 1-.13-.153c-.034-.102-.021-.17.287-1.538.677-2.998 1.006-4.573 1.08-5.169.054-.438.158-1.48.242-2.427.037-.418.074-.823.082-.9l.016-.14h2.478c1.498 0 2.478.01 2.478.025"/>
</svg>