<svg xmlns="http://www.w3.org/2000/svg" width="16" height="16" fill="currentColor" class="si si-Nuclear akwicons" viewBox="0 0 16 16">
  <g clip-path="url(#a)">
    <path d="M8.637 15.673H.702c-.216 0-.378-.108-.54-.216a1.04 1.04 0 0 1-.162-.54c0-.054 1.08-4.696 1.35-6.208.162-1.134.431-4.48.431-4.534.054-.378.378-.648.702-.648h4.265c.27 0 .54.216.594.486 0 .054.324 3.454.54 4.534.27 1.566 1.403 6.208 1.457 6.262a.61.61 0 0 1-.162.594.67.67 0 0 1-.54.27m-6.1-11.768c-.162 0-.27.108-.324.27 0 .107-.27 3.4-.432 4.534-.27 1.566-1.35 6.208-1.35 6.262s0 .162.055.216c.054.054.108.108.216.108h7.99c.107 0 .161-.054.27-.108.107-.054.107-.162.053-.27 0-.054-1.134-4.696-1.457-6.262-.216-1.134-.486-4.427-.54-4.588 0-.054-.108-.162-.216-.162zm12.848 8.637H9.501a.49.49 0 0 1-.432-.216.42.42 0 0 1-.108-.432c0-.054.81-3.455.972-4.589.108-.81.324-3.292.324-3.346.054-.324.27-.486.594-.486h3.13c.27 0 .432.162.486.432 0 0 .054.54.108 1.187 0 .108-.054.216-.162.216s-.216-.054-.216-.162c-.054-.648-.108-1.187-.108-1.187 0-.054-.053-.054-.107-.054H10.85q-.163 0-.163.162c0 .107-.215 2.483-.323 3.346-.216 1.134-.972 4.481-.972 4.589 0 .054 0 .108.054.108s.054.054.108.054h5.83c.054 0 .108-.054.162-.054 0 0 .054-.054.054-.162-.054-.108-.864-3.455-1.08-4.589 0-.107.054-.215.162-.215s.216.054.216.161c.216 1.134 1.026 4.589 1.08 4.589a.52.52 0 0 1-.108.486.87.87 0 0 1-.486.162"/>
    <path d="M2.537 3.905a.23.23 0 0 1-.216-.216c0-.108.108-.216.216-.216.864 0 1.512-.216 1.998-.648.27-.216.377-.486.54-.756.161-.27.323-.594.647-.917C6.208.666 6.856.396 7.72.342c.107 0 .215.054.215.162S7.881.72 7.773.72a2.95 2.95 0 0 0-1.727.701c-.27.27-.432.54-.594.81s-.324.594-.648.864q-.81.81-2.267.81m2.375 0a.23.23 0 0 1-.216-.216c0-.108.108-.216.216-.216.54 0 .972-.162 1.242-.378.162-.162.216-.27.324-.486.108-.162.216-.378.432-.594.324-.324.756-.486 1.295-.54.108 0 .216.054.216.162s-.054.216-.162.216c-.432.054-.81.216-1.08.432-.161.162-.27.324-.377.486a2.1 2.1 0 0 1-.432.594c-.27.378-.81.54-1.458.54m5.993 0c-.108 0-.162-.108-.162-.216s.107-.216.162-.216c.593 0 1.08-.162 1.403-.486.162-.162.27-.378.378-.594s.216-.486.486-.702q.567-.566 1.457-.647c.108 0 .216.054.216.162 0 .107-.054.215-.162.215a2.37 2.37 0 0 0-1.241.54c-.216.216-.324.378-.378.594-.108.216-.216.432-.432.702-.486.432-1.026.648-1.727.648"/>
    <path d="M12.416 3.905a.23.23 0 0 1-.216-.216c0-.108.108-.216.216-.216.378 0 .702-.108.918-.27.108-.108.162-.216.27-.324q.081-.243.324-.486c.27-.27.593-.378 1.025-.432.108 0 .216.054.216.162s-.054.216-.162.216a1.8 1.8 0 0 0-.81.324c-.107.108-.215.216-.27.378a1.3 1.3 0 0 1-.323.486c-.27.216-.702.378-1.188.378M7.072 4.93H1.997a.23.23 0 0 1-.216-.216c0-.108.108-.216.216-.216h5.075c.108 0 .216.108.216.216a.23.23 0 0 1-.216.216m7.18 0h-3.78a.23.23 0 0 1-.215-.216c0-.108.108-.216.216-.216h3.778c.108 0 .216.108.216.216a.23.23 0 0 1-.216.216"/>
  </g>
  <defs>
    <clipPath id="a">
      <path d="M0 0h16v16H0z"/>
    </clipPath>
  </defs>
</svg>