<svg xmlns="http://www.w3.org/2000/svg" width="16" height="16" fill="currentColor" class="si si-pv_panel_sun_" viewBox="0 0 16 16">
  <path fill-rule="evenodd" d="M10.32.053c-.051.051-.053.089-.053.774 0 .684.002.722.053.773a.167.167 0 0 0 .24 0c.051-.051.053-.089.053-.761V.131l-.065-.066q-.12-.119-.228-.012M7.067 1.235c-.053.026-.067.054-.067.128 0 .087.042.138.498.609.536.554.587.587.694.455.076-.094.059-.146-.109-.34-.237-.272-.869-.887-.912-.887a.3.3 0 0 0-.104.035m6.429.346c-.185.181-.414.399-.509.485a1 1 0 0 0-.193.205c-.046.12.109.254.238.207.032-.012.281-.24.553-.507.523-.512.551-.555.442-.664s-.172-.077-.531.274m-3.189.768a2.78 2.78 0 0 0-1.646.846 2.7 2.7 0 0 0-.67 1.115c-.46 1.459.45 3.066 1.969 3.478.301.081.826.1 1.142.04a2.82 2.82 0 0 0 2.302-2.577 2.9 2.9 0 0 0-.219-1.243c-.064-.147-.137-.191-.251-.155s-.119.119-.031.376c.203.591.211 1.073.029 1.622-.122.365-.288.625-.599.936-.36.36-.695.551-1.177.671-.269.068-.808.06-1.089-.015a2.51 2.51 0 0 1-1.789-1.816 2 2 0 0 1-.051-.534c0-.241.014-.388.051-.533a2.48 2.48 0 0 1 2.238-1.883c.445-.03.881.081 1.327.337.127.073.249.133.271.133.074 0 .159-.093.159-.174 0-.1-.093-.178-.385-.326a2.6 2.6 0 0 0-1.141-.31 3 3 0 0 0-.44.012m-4.61 2.633a.185.185 0 0 0 .01.245c.05.05.089.053.748.053h.694l.068-.068c.053-.053.064-.084.051-.14-.033-.135-.052-.139-.816-.139-.654 0-.714.004-.755.049m8.358.022c-.071.091-.069.131.01.211l.066.065h.689c.773 0 .807-.007.807-.171 0-.172-.016-.176-.807-.176h-.709zm-.891 2.225c-.137.107-.112.149.429.701.528.538.592.582.703.481.108-.098.071-.172-.275-.543-.351-.376-.696-.695-.752-.695a.25.25 0 0 0-.105.056m-11.737.195c-.254.08-.533.342-.622.584-.054.147-.492 3.518-.488 3.756.006.376.31.758.7.879.15.047.271.05 1.812.05H4.48v2.105l-1.233.007-1.234.008-.141.064c-.12.054-.192.124-.473.453-.185.218-.332.414-.332.444 0 .076.065.16.152.196.055.023.936.029 3.399.024l3.324-.007.069-.065c.115-.108.093-.169-.215-.599-.245-.342-.3-.404-.406-.453-.119-.055-.163-.057-1.343-.064l-1.22-.008v-2.103l1.686-.007L8.2 12.68l.165-.076c.276-.128.52-.414.63-.739.04-.118.035-.175-.141-1.547-.101-.784-.203-1.593-.228-1.798a3 3 0 0 0-.098-.514c-.07-.188-.293-.426-.492-.527L7.88 7.4l-3.173-.005c-2.498-.004-3.196.002-3.28.029m.253.963v.653h-.333c-.184 0-.334-.009-.333-.02.002-.16.112-.851.146-.923.078-.165.333-.359.473-.363.044-.001.047.048.047.653m.752.001-.007.654-.193-.008-.192-.007-.007-.647-.007-.647h.414zm1.664-.612a7 7 0 0 0-.016.653v.611H2.802l-.008-.653-.007-.654h.663c.593 0 .661.005.646.043m.757.611v.653h-.398l-.007-.653-.008-.654h.413zm1.6 0v.653H5.2V7.733h1.253zm.753.001-.008.654-.192-.008-.193-.007-.007-.647-.007-.647h.414zm.61-.618c.289.103.4.291.461.78.024.192.043.381.043.42v.07h-.745l-.007-.653-.008-.654.08.001a.7.7 0 0 1 .176.036m2.691.843c-.05.05-.052.089-.05.764l.002.711.065.065c.051.051.082.061.137.048a.3.3 0 0 0 .099-.044c.045-.044.064-.441.047-.981-.014-.454-.022-.524-.065-.567a.166.166 0 0 0-.235.004M1.68 9.96v.573h-.427c-.336 0-.426-.007-.426-.035 0-.019.03-.265.066-.546s.067-.523.067-.538c0-.017.133-.027.36-.027h.36zm.747 0v.573h-.4V9.387h.4zm1.653 0v.573H2.8V9.387h1.28zm.773 0v.573h-.4V9.387h.4zm1.6 0v.573H5.2V9.387h1.253zm.747 0v.573h-.4V9.387h.4zm1.185-.513c.007.033.038.258.068.5.029.242.059.473.066.513l.013.073h-.959V9.387h.4c.392 0 .4.001.412.06M1.68 11.613v.734h-.208c-.29 0-.464-.057-.604-.197a.9.9 0 0 1-.16-.236c-.045-.117-.044-.139.009-.56.031-.241.056-.447.056-.456s.204-.018.454-.018h.453zm.747.002v.734l-.194-.008-.193-.008-.007-.693a11 11 0 0 1 .006-.726q.01-.034.2-.034h.188zm1.653-.002v.734H2.8V10.88h1.28zm.773-.001v.731l-.2-.001-.2-.001V10.88h.4zm1.6.001v.734H5.2V10.88h1.253zm.747.002v.734l-.193-.008-.194-.008-.007-.693a11 11 0 0 1 .006-.726q.012-.034.2-.034H7.2zm1.424-.299.051.422-.069.142a.87.87 0 0 1-.35.394c-.086.045-.17.059-.396.068l-.287.011v-1.474l.5.007.5.007zm-1.352 3.89c.028.025.114.136.191.247l.14.2H1.57l.178-.206a1.3 1.3 0 0 1 .275-.253c.09-.043.274-.046 2.648-.04 2.369.006 2.554.009 2.601.052"/>
</svg>