<svg xmlns="http://www.w3.org/2000/svg" width="16" height="16" fill="currentColor" class="si si-PV_Panel_Sun" viewBox="0 0 16 16">
  <g clip-path="url(#a)">
    <path d="M8.001 12.691h-6.71c-.524 0-.982-.458-.982-.978l.425-3.378c0-.501.458-.96.978-.96h5.911c.52 0 .978.459.978.979l.43 3.364v.028c-.109.468-.496.94-1.03.94zM1.717 7.73a.65.65 0 0 0-.624.624l-.425 3.378c0 .307.298.605.628.605h6.71c.335 0 .59-.317.67-.633l-.42-3.322c0-.35-.298-.647-.628-.647H1.717zm6.005 8.278q-.079.001-.18-.005c-.075 0-.16-.005-.25-.005H2q-.13-.001-.26.005c-.35.014-.51.014-.609-.08l-.052-.052-.01-.16.61-.714c.028-.029.213-.203.605-.203h4.678c.34 0 .576.094.633.24l.486.68v.133l-.066.08c-.066.067-.16.08-.293.08m-5.438-.865c-.241 0-.345.09-.35.095l-.354.415h.146c.09 0 .185-.004.274-.004h5.292q.144-.001.265.005h.047l-.326-.454a.8.8 0 0 0-.316-.047H2.284z"/>
    <path d="M8.658 10.896H.63a.18.18 0 1 1 0-.36h8.028a.18.18 0 1 1 0 .36m-.279-1.512H.866a.18.18 0 1 1 0-.36H8.38a.18.18 0 1 1 0 .36"/>
    <path d="M1.859 12.691a.18.18 0 0 1-.18-.18V7.787a.18.18 0 1 1 .36 0v4.724c0 .1-.081.18-.18.18m.756 0a.18.18 0 0 1-.18-.18V7.787a.18.18 0 1 1 .36 0v4.724c0 .1-.081.18-.18.18m1.653 0a.18.18 0 0 1-.18-.18V7.787a.18.18 0 1 1 .36 0v4.724c0 .1-.08.18-.18.18m.378 2.409a.18.18 0 0 1-.18-.179v-2.41a.18.18 0 1 1 .36 0v2.41c0 .1-.08.18-.18.18m.378-2.41a.18.18 0 0 1-.18-.18V7.787a.18.18 0 1 1 .36 0v4.724c0 .1-.08.18-.18.18m1.606 0a.18.18 0 0 1-.179-.18V7.787a.18.18 0 1 1 .36 0v4.724c0 .1-.081.18-.18.18m.756 0a.18.18 0 0 1-.18-.18V7.787a.18.18 0 1 1 .36 0v4.724c0 .1-.081.18-.18.18m3.255-4.81c-1.502 0-2.778-1.27-2.778-2.778 0-1.507 1.271-2.778 2.778-2.778.544 0 1.059.165 1.564.5.08.057.104.166.047.246a.175.175 0 0 1-.245.047c-.454-.302-.889-.444-1.366-.444-1.313 0-2.424 1.11-2.424 2.42 0 1.308 1.11 2.419 2.424 2.419s2.42-1.11 2.42-2.42c0-.326-.076-.68-.223-1.015a.173.173 0 0 1 .095-.232c.09-.038.194 0 .231.095.166.382.25.784.25 1.157 0 1.503-1.27 2.778-2.777 2.778zm4.82-2.599h-1.276a.18.18 0 1 1 0-.359h1.276a.18.18 0 1 1 0 .36m-8.363-.001H5.823a.18.18 0 1 1 0-.359h1.276a.18.18 0 1 1 0 .36m5.858-2.788a.18.18 0 0 1-.141-.071.174.174 0 0 1 .037-.246c.005-.005.199-.156.927-.879.07-.07.184-.07.25 0 .07.071.07.18 0 .25-.756.757-.954.908-.964.917a.2.2 0 0 1-.104.033zm-2.523-.837h-.019a.177.177 0 0 1-.155-.198c0-.01.023-.25 0-1.28 0-.1.075-.18.174-.18.1 0 .18.076.18.175.023 1.068 0 1.318 0 1.328a.175.175 0 0 1-.175.155zm.194 8.552h-.019a.177.177 0 0 1-.156-.198c0-.01.024-.25 0-1.28 0-.1.076-.18.175-.18.1 0 .18.076.18.175.023 1.068 0 1.318 0 1.328a.174.174 0 0 1-.175.155zm-2.57-7.715a.18.18 0 0 1-.142-.071c-.005-.005-.156-.199-.893-.917a.174.174 0 0 1 0-.25.173.173 0 0 1 .25 0c.766.746.922.945.926.954a.176.176 0 0 1-.033.25.2.2 0 0 1-.108.039zm6.118 5.972a.18.18 0 0 1-.141-.07c-.005-.01-.156-.2-.893-.917a.174.174 0 0 1 0-.25.17.17 0 0 1 .25 0c.766.746.921.944.926.954a.176.176 0 0 1-.033.25.2.2 0 0 1-.109.038z"/>
  </g>
  <defs>
    <clipPath id="a">
      <path d="M0 0h16v16H0z"/>
    </clipPath>
  </defs>
</svg>