<svg xmlns="http://www.w3.org/2000/svg" width="16" height="16" fill="currentColor" class="si si-Renewablesicons" viewBox="0 0 16 16">
  <g clip-path="url(#a)">
    <path d="M14.76 15.685H9.228a.675.675 0 0 1-.691-.69l.444-2.664c0-.345.296-.641.691-.641h4.691c.395 0 .692.296.692.69l.444 2.615c-.05.345-.346.69-.74.69m-5.087-3.65c-.148 0-.247.148-.247.296l-.444 2.664c0 .099.099.197.247.197h5.53c.149 0 .247-.098.247-.247l-.444-2.614c0-.148-.099-.296-.247-.296z"/>
    <path d="m9.823 15.274.196-3.35.444.027-.197 3.348zm1.332-3.337h.444v3.255h-.444z"/>
    <path d="m8.979 13.32 6.024-.1.007.443-6.023.1z"/>
    <path d="M12.34 11.937h.444v3.255h-.444zm1.184.007.445-.013.099 3.254-.445.013zM5.081 6.758l-.395-.05.346-5.08c0-.444.345-.79.84-.79.493 0 .839.346.839.84l.296 5.03-.444.05-.346-5.08c0-.198-.148-.396-.346-.396a.337.337 0 0 0-.345.346z"/>
    <path d="M10.315 11.098c-.148 0-.345-.05-.444-.148L5.575 8.435l.148-.444 4.395 2.565c.197.098.395.098.493-.1a.38.38 0 0 0-.098-.492l-3.95-3.207.246-.345 4 3.206c.346.247.445.74.198 1.135a.94.94 0 0 1-.692.345"/>
    <path d="M1.328 11.098c-.246.05-.493-.099-.69-.345-.248-.395-.149-.888.197-1.135l3.95-3.206.296.345-4 3.207c-.197.098-.197.345-.098.493a.38.38 0 0 0 .494.098l4.246-2.564.247.394-4.247 2.516c-.197.098-.197.148-.395.197"/>
    <path d="M5.822 7.695a.444.444 0 1 0 0-.888.444.444 0 0 0 0 .888m.691 8.138H5.328c-.247 0-.494-.197-.494-.69l.346-4.785c0-.148.099-.246.247-.197.148 0 .247.099.197.247l-.345 4.784c0 .148.05.197.05.197h1.184c.05 0 .05-.049.05-.049l-.346-4.932c0-.148.099-.247.197-.247.149 0 .247.099.247.197l.346 4.933c0 .296-.247.542-.494.542m5.234-14.255a.21.21 0 0 1-.197-.197V.247c0-.099.098-.198.197-.198s.198.099.198.198V1.43c0 .1-.099.148-.198.148"/>
    <path d="M11.747 1.677c-.148 0-.247-.099-.247-.247V.247c0-.148.1-.247.247-.247.148 0 .247.099.247.247V1.43c0 .1-.099.247-.247.247m0-1.578c-.05 0-.099.049-.099.098v1.184c0 .05.05.099.1.099.049 0 .098-.05.098-.099V.247c0-.05-.05-.148-.099-.148m0 6.856a.21.21 0 0 1-.197-.197V5.574c0-.099.098-.198.197-.198s.197.1.197.198v1.184c0 .148-.098.197-.197.197"/>
    <path d="M11.747 7.054a.234.234 0 0 1-.247-.247V5.623c0-.148.1-.247.247-.247.148 0 .247.1.247.247v1.184c0 .099-.099.246-.247.246m0-1.579c-.05 0-.098.05-.098.099v1.184c0 .049.049.098.098.098.05 0 .099-.05.099-.098V5.574c0-.05-.05-.099-.099-.099m1.926-1.973c0-.099.099-.197.197-.197h1.186c.098 0 .197.098.197.197a.21.21 0 0 1-.197.197H13.87c-.149 0-.198-.098-.198-.197"/>
    <path d="M13.574 3.502c0-.148.099-.247.247-.247h1.185c.148 0 .247.1.247.247 0 .148-.099.247-.247.247h-1.185c-.099 0-.247-.099-.247-.247m1.58 0c0-.05-.049-.099-.098-.099H13.87c-.05 0-.1.05-.1.1 0 .048.05.098.1.098h1.185c0 .05.098 0 .098-.099m-6.863 0c0-.099.1-.197.198-.197h1.185c.1 0 .198.098.198.197a.21.21 0 0 1-.198.197H8.488c-.148 0-.197-.098-.197-.197"/>
    <path d="M8.192 3.502c0-.148.099-.247.247-.247h1.185c.148 0 .247.1.247.247 0 .148-.099.247-.247.247H8.439c-.099 0-.247-.099-.247-.247m1.58 0c0-.05-.05-.099-.099-.099H8.488c-.05 0-.098.05-.098.1 0 .048.049.098.098.098h1.185c.05.05.1 0 .1-.099m3.307-1.381c-.049-.05-.098-.197 0-.247l.79-.838c.05-.05.198-.099.247 0 .05.05.1.197 0 .246l-.79.839c-.049.099-.197.099-.246 0"/>
    <path d="M13.031 2.17a.24.24 0 0 1 0-.345l.79-.839a.24.24 0 0 1 .346 0 .24.24 0 0 1 0 .346l-.79.838a.24.24 0 0 1-.346 0m1.086-1.085a.15.15 0 0 0-.197 0l-.79.839a.15.15 0 0 0 0 .197c.05.05.148.05.197 0l.79-.839c.05-.098.05-.148 0-.197M9.328 6.018c-.05-.05-.1-.198 0-.247l.79-.839c.05-.049.197-.098.247 0 .049.05.098.198 0 .247l-.79.839c-.05.049-.149.049-.247 0"/>
    <path d="M9.328 6.067a.24.24 0 0 1 0-.345l.79-.839a.24.24 0 0 1 .345 0 .24.24 0 0 1 0 .345l-.79.839c-.098.099-.296.099-.345 0m1.037-1.135a.15.15 0 0 0-.198 0l-.79.839a.15.15 0 0 0 0 .197c.05.05.148.05.198 0l.79-.838a.15.15 0 0 0 0-.198m.049-2.811c.05-.05.099-.197 0-.247l-.79-.838c-.05-.05-.198-.099-.247 0-.05.05-.099.197 0 .246l.79.839c.05.099.198.099.247 0"/>
    <path d="m10.118 2.17-.79-.838a.24.24 0 0 1 0-.345.24.24 0 0 1 .345 0l.79.838a.24.24 0 0 1 0 .345.24.24 0 0 1-.345 0m-.74-.937.79.839c.049.049.147.049.197 0a.15.15 0 0 0 0-.198l-.79-.838a.15.15 0 0 0-.198 0 .15.15 0 0 0 0 .197m4.74 4.785c.05-.05.1-.198 0-.247l-.79-.839c-.05-.049-.197-.098-.247 0-.049.05-.098.198 0 .247l.79.839c.1.049.198.049.247 0"/>
    <path d="m13.821 6.067-.79-.839a.24.24 0 0 1 0-.345.24.24 0 0 1 .346 0l.79.839a.24.24 0 0 1 0 .345.24.24 0 0 1-.346 0m-.691-.937.79.838c.05.05.148.05.197 0a.15.15 0 0 0 0-.197l-.79-.839a.15.15 0 0 0-.197 0 .15.15 0 0 0 0 .198m-1.383-.296c-.74 0-1.333-.592-1.333-1.332s.593-1.332 1.333-1.332c.247 0 .494.05.692.198.098.049.098.148.049.246-.05.099-.148.099-.247.05a.95.95 0 0 0-.494-.148.937.937 0 0 0-.938.937c0 .493.445.937.938.937.494 0 .938-.444.938-.937 0-.099 0-.198-.049-.296-.05-.099 0-.197.099-.247s.197 0 .247.099c.05.148.05.246.05.394 0 .839-.544 1.43-1.285 1.43"/>
  </g>
  <defs>
    <clipPath id="a">
      <path d="M0 0h16v16H0z"/>
    </clipPath>
  </defs>
</svg>