<svg xmlns="http://www.w3.org/2000/svg" width="16" height="16" fill="currentColor" class="si si-renewable-energy-seal" viewBox="0 0 16 16">
  <g clip-path="url(#a)">
    <path d="M83.504.791H.595v72.13c0 .39.298.782.794.782.495 0 .793-.293.793-.783V2.26h81.421c19.24 0 34.909 15.462 34.909 34.449v36.31H14.082c-.396 0-.793.293-.793.782s.298.783.794.783H120V36.807C120 16.939 103.636.79 83.504.79"/>
    <path d="M17.554 58.73h-1.786l-2.181-3.133h-1.29v3.132H10.71v-8.22h4.265c1.388 0 2.678 1.174 2.678 2.544 0 1.468-.992 2.544-2.281 2.642zm-2.777-4.405c.892 0 1.289-.685 1.289-1.272s-.496-1.272-1.091-1.272h-2.678v2.544zm9.521 1.762h-4.562c.099.979.793 1.468 1.487 1.468.496 0 .893-.196 1.19-.685H24c-.496 1.272-1.587 1.957-2.876 1.957-1.587 0-3.074-1.174-3.074-3.132 0-1.957 1.487-3.131 3.074-3.131s3.075 1.174 3.075 3.131c.099.098.099.294.099.392M22.71 55.01c-.298-.783-.893-1.174-1.488-1.174s-1.19.391-1.487 1.174zm8.034-.293v4.012h-1.488v-3.914c0-.49-.496-.98-1.19-.98s-1.19.49-1.19.98v3.914h-1.488v-6.068h1.488v.783c.198-.391.595-.783 1.389-.88.991-.196 2.479.587 2.479 2.153m7.041 1.37h-4.562c.1.979.793 1.468 1.488 1.468.495 0 .892-.196 1.19-.685h1.586c-.495 1.272-1.586 1.957-2.876 1.957-1.586 0-3.074-1.174-3.074-3.132 0-1.957 1.488-3.131 3.074-3.131 1.587 0 3.075 1.174 3.075 3.131.099.098.099.294.099.392m-1.488-1.077c-.297-.783-.892-1.174-1.487-1.174s-1.19.391-1.488 1.174zm10.81-2.348-1.785 6.067h-1.686l-.991-4.306-.992 4.306h-1.686l-1.785-6.068h1.785l.892 4.405.893-4.405h1.686l.893 4.405.892-4.405zm5.653 1.565v4.502h-1.487v-.88c-.1.391-.596.978-1.587 1.076-1.488 0-2.281-1.076-2.281-1.957 0-1.273.992-1.958 2.28-1.958h.893c.397 0 .595-.195.595-.489 0-.49-.396-.685-.991-.685-.397 0-.794.294-.893.587h-1.488c.298-1.272 1.389-1.762 2.38-1.762 1.092-.195 2.58.392 2.58 1.566m-1.487 1.566c-.199.098-.397.098-.695.098h-.595c-.396 0-.991.098-1.09.783-.1.49.396.979 1.09.979s1.29-.49 1.29-.979zm8.626 0c0 1.86-1.288 3.132-2.776 3.132-.794 0-1.389-.587-1.587-1.076v.88H54.05v-8.22h1.487v3.033c.298-.489.893-.88 1.587-.88 1.388 0 2.777 1.174 2.777 3.131m-1.487 0c0-.978-.595-1.86-1.487-1.86s-1.488.784-1.488 1.86.595 1.86 1.488 1.86c.892 0 1.487-.881 1.487-1.86m2.478 2.937v-8.222h1.488v8.221zm8.628-2.643h-4.56c.099.979.793 1.468 1.487 1.468.496 0 .893-.196 1.19-.685h1.587c-.496 1.272-1.587 1.957-2.876 1.957-1.587 0-3.074-1.174-3.074-3.132 0-1.957 1.487-3.131 3.074-3.131s3.074 1.174 3.074 3.131c.1.098.1.294.1.392m-1.586-1.077c-.298-.783-.893-1.174-1.488-1.174s-1.19.391-1.487 1.174zm7.535-3.23v2.154h4.165v1.272h-4.165v2.153h4.562v1.273h-6.149V50.41h6.149v1.272h-4.562zm11.107 2.937v4.012h-1.487v-3.914c0-.49-.496-.98-1.19-.98s-1.19.49-1.19.98v3.914h-1.488v-6.068h1.488v.783c.198-.391.595-.783 1.388-.88.893-.196 2.48.587 2.48 2.153m7.041 1.37h-4.562c.099.979.793 1.468 1.487 1.468.496 0 .893-.196 1.19-.685h1.587c-.496 1.272-1.586 1.957-2.876 1.957-1.587 0-3.074-1.174-3.074-3.132 0-1.957 1.487-3.131 3.074-3.131s3.075 1.174 3.075 3.131c.099.098.099.294.099.392m-1.587-1.077c-.297-.783-.892-1.174-1.487-1.174s-1.19.391-1.488 1.174zm6.247-2.349v1.37s-.297-.097-.793-.097c-.892 0-1.289.49-1.289 1.076v3.72h-1.487v-6.07h1.487v.881c.199-.49.695-1.076 1.29-1.076.198.098.495.098.793.195m6.347 6.167c0 1.175-1.388 2.056-2.876 2.056s-2.876-.881-2.876-2.056v-.195h1.488v.097c0 .49.694.783 1.487.783s1.389-.391 1.389-.88c0-.49-.298-.98-1.389-.98-2.082 0-2.975-1.174-2.975-2.446 0-1.37 1.488-2.545 2.975-2.545.298 0 .695.098.992.196l.992-.978.992.978-.695.685c.496.49.794 1.077.794 1.664 0 .979-.595 1.664-1.29 1.957.397.294.992.881.992 1.664m-1.388-3.62c0-.588-.694-1.273-1.488-1.273-.892 0-1.487.587-1.487 1.272 0 .783.495 1.37 1.487 1.37.893 0 1.488-.685 1.488-1.37m8.231-2.544-2.876 7.242c-.297.685-.595.978-1.587.978h-.694v-1.37h.595a.55.55 0 0 0 .496-.293l.198-.49-2.38-6.068h1.587l1.488 4.111 1.487-4.11z"/>
    <path stroke="#85BE4C" stroke-miterlimit="10" stroke-width="1.4" d="M20.231 18.114v25.054h-4.76V26.237c-1.19.294-2.876.587-5.256.587v-4.013c5.355 0 5.85-3.033 5.85-4.697zM43.14 30.837c0 7.242-3.074 13.114-9.421 13.114s-9.422-5.872-9.422-13.114 3.075-13.115 9.422-13.115c6.446 0 9.422 5.872 9.422 13.115Zm-4.76 0c0-4.796-1.587-9.102-4.562-9.102s-4.562 4.306-4.562 9.102c0 4.795 1.587 9.101 4.562 9.101s4.562-4.306 4.562-9.101Zm27.471 0c0 7.242-3.074 13.114-9.421 13.114s-9.422-5.872-9.422-13.114 3.075-13.115 9.422-13.115c6.446 0 9.421 5.872 9.421 13.115Zm-4.76 0c0-4.796-1.587-9.102-4.562-9.102s-4.562 4.306-4.562 9.102c0 4.795 1.587 9.101 4.562 9.101s4.562-4.306 4.562-9.101Zm16.463-1.272c-3.273 0-6.15-2.35-6.15-6.362s2.976-6.361 6.15-6.361c3.173 0 6.148 2.348 6.148 6.361-.099 4.013-2.975 6.361-6.148 6.361Zm19.537-12.43L78.347 42.287h-4.264l18.743-25.152zm-19.537 9.69c1.487 0 2.975-1.175 2.975-3.622 0-2.251-1.388-3.523-2.975-3.621-1.488 0-2.975 1.272-2.975 3.621 0 2.447 1.388 3.621 2.975 3.621Zm22.314 9.101c0 4.013-2.876 6.361-6.15 6.361-3.272 0-6.148-2.348-6.148-6.361s2.975-6.362 6.149-6.362 6.149 2.35 6.149 6.362Zm-3.174 0c0-2.251-1.388-3.523-2.975-3.621-1.488 0-2.975 1.272-2.975 3.621 0 2.447 1.487 3.621 2.975 3.621s2.975-1.174 2.975-3.621Z"/>
  </g>
  <defs>
    <clipPath id="a">
      <path d="M0 0h120v75H0z"/>
    </clipPath>
  </defs>
</svg>