<svg xmlns="http://www.w3.org/2000/svg" width="16" height="16" fill="currentColor" class="si si-schweiz_" viewBox="0 0 16 16">
  <path fill-rule="evenodd" d="M9 3.223c-.258.068-.503.244-.589.424a1.2 1.2 0 0 0-.066.359c-.011.156-.033.278-.054.304-.04.047.03.048-1.038-.015-.421-.025-.581-.067-.816-.211A.6.6 0 0 0 6.23 4c-.185 0-.392.156-.583.44-.131.194-.232.307-.276.307-.018 0-.163-.063-.321-.14-.28-.136-.295-.14-.516-.139-.203.001-.246.011-.396.088-.214.11-.389.285-.48.479-.066.141-.071.177-.072.525-.002.335-.008.385-.062.489-.092.174-.251.334-.591.591-.633.478-.851.842-.853 1.416v.204l-.111.015c-.181.024-.482.19-.657.362-.284.28-.391.593-.348 1.019.011.109.02.296.021.417l.002.219-.098.087c-.295.263-.381.399-.382.602 0 .146.051.246.179.345.123.096.158.109.365.138q.33.046.643-.1c.347-.163.52-.369.659-.785.092-.273.152-.371.277-.448.098-.06.505-.156.668-.157.109-.001.113.003.184.147.068.14.073.176.093.69.028.702.048.816.206 1.165.105.232.208.344.411.447.366.185.887.158 2.261-.118.568-.114.821-.196 1.013-.326.288-.196.374-.419.374-.97 0-.186.012-.37.026-.408.036-.094.215-.173.396-.174.196-.001.374.049.418.117.02.031.063.17.095.309.106.459.219.63.46.697.092.025.15.023.325-.015a4 4 0 0 1 .267-.051c.084-.007.139.148.172.487.039.392.071.54.144.647q.14.21.374.208c.285 0 .566-.22.743-.582.081-.167.087-.197.093-.496l.006-.319.132-.13c.072-.071.16-.186.194-.254.058-.118.062-.154.062-.647 0-.404.008-.533.036-.567.02-.024.046-.044.057-.044s.057.119.104.265c.131.413.308.604.672.723.375.123.732.07.951-.142l.087-.084.126.122c.152.147.225.188.339.188.166 0 .328-.122.417-.312.092-.199.056-.39-.164-.867a3 3 0 0 1-.147-.357c-.019-.075-.018-.077.071-.06.05.009.218.025.375.034.258.015.295.012.405-.042.158-.076.22-.204.243-.508.009-.125.036-.371.059-.547.122-.948-.181-1.43-.737-1.172a1.3 1.3 0 0 0-.339.268c-.225.231-.312.274-.43.213-.092-.047-.219-.189-.219-.245 0-.075-.13-.296-.222-.377-.138-.121-.255-.15-.535-.132l-.24.016-.098-.103c-.103-.108-.141-.236-.103-.339a1.5 1.5 0 0 1 .142-.221c.257-.349.297-.679.124-1.029-.132-.269-.466-.572-.629-.572-.092 0-.222.086-.264.175-.072.15-.035.252.149.412.189.164.275.315.254.445a.9.9 0 0 1-.149.272c-.074.1-.153.225-.175.277-.175.42.038.956.472 1.184.127.067.168.075.405.075h.264l.087.191c.102.225.264.399.469.506a.6.6 0 0 0 .343.075c.277.001.493-.101.693-.327.079-.09.153-.157.165-.149.038.024.024.21-.074.967l-.015.117-.111-.017-.274-.04q-.465-.071-.638.275c-.112.223-.082.488.1.895l.042.093-.164.001c-.193.002-.295.048-.448.206-.096.1-.119.11-.234.108-.155-.002-.36-.088-.403-.17a3 3 0 0 1-.109-.295c-.112-.346-.212-.479-.433-.576-.291-.127-.698.108-.844.488-.051.133-.06.201-.054.425l.01.473.004.206-.164.167a1.7 1.7 0 0 0-.199.234c-.023.045-.035.179-.036.413-.001.331-.004.352-.072.45l-.071.103-.017-.156c-.042-.386-.075-.541-.144-.69-.185-.396-.433-.51-.863-.398-.089.023-.17.032-.182.02a1.2 1.2 0 0 1-.066-.235c-.11-.508-.237-.677-.596-.796-.509-.168-1.126-.031-1.344.298-.119.18-.155.334-.155.657.001.376-.028.564-.094.614-.101.077-.335.146-.856.25-1.058.213-1.628.266-1.821.17-.067-.033-.114-.088-.165-.193-.104-.211-.125-.337-.144-.871-.025-.704-.095-.975-.317-1.23-.188-.216-.395-.27-.784-.204-.536.092-.758.184-.961.398-.151.16-.208.264-.308.569-.045.135-.107.26-.157.318-.086.097-.257.191-.349.192-.044.001-.036-.016.045-.099.053-.055.129-.17.168-.256.082-.179.094-.365.055-.871-.022-.285-.019-.316.032-.416a.9.9 0 0 1 .361-.343c.046-.019.138-.043.204-.054a.66.66 0 0 0 .365-.178c.108-.115.148-.259.162-.582.02-.467.09-.58.591-.959.17-.128.393-.322.495-.431.33-.349.42-.594.408-1.102l-.008-.311.108-.101c.176-.165.253-.164.593.001.334.162.537.195.737.119.13-.05.384-.3.51-.503.043-.069.088-.126.1-.126.011 0 .065.019.12.043.325.141.498.164 1.594.214.319.014.397.01.517-.03.304-.101.449-.331.474-.751l.015-.249.115-.056c.073-.035.137-.049.173-.037.032.01.166.12.299.243.189.177.292.25.483.341.308.147.47.188.591.148a.28.28 0 0 0 .198-.28c0-.172-.068-.238-.329-.318-.239-.073-.3-.112-.633-.411a1.8 1.8 0 0 0-.339-.25A.95.95 0 0 0 9 3.223"/>
</svg>