<svg xmlns="http://www.w3.org/2000/svg" width="16" height="16" fill="currentColor" class="si si-Schweizicons" viewBox="0 0 16 16">
  <path stroke="#3D3D3D" stroke-linecap="round" stroke-miterlimit="10" stroke-width=".6" d="M10.514 4.256a1.5 1.5 0 0 1-.596-.255c-.17-.127-.34-.383-.553-.468-.212-.085-.467 0-.638.17s-.042.426-.127.681c-.17.468-.893.17-1.361.213-.383 0-.723-.085-1.02-.298"/>
  <path stroke="#3D3D3D" stroke-linecap="round" stroke-miterlimit="10" stroke-width=".6" d="M6.218 4.299c-.255.042-.383.51-.638.68-.255.213-.595-.127-.893-.212-.34-.085-.723.17-.808.51-.043.213.042.425 0 .638-.043.298-.255.553-.51.766-.256.212-.51.34-.723.595-.17.213-.298.51-.256.808 0 .128 0 .298-.085.383s-.17.085-.255.085c-.425.085-.808.468-.808.893 0 .383.17.808-.085 1.106-.085.085-.17.127-.255.213s-.128.212-.085.297c.042.043.085.043.127.085.426.128.893-.085 1.064-.468.085-.17.085-.382.212-.552.128-.213.383-.34.638-.383s.596-.17.766.042c.425.468.127 1.276.34 1.872.085.17.128.383.298.468.17.127.382.127.595.127.638-.042 1.234-.17 1.829-.298.255-.042.553-.127.723-.297.255-.298.043-.766.17-1.149.128-.382.723-.467 1.148-.297.383.127.256.638.468.978.17.255.638-.17.85.042.299.256.213.723.299 1.106 0 .043.042.128.085.17.085.085.212 0 .297-.042.256-.213.383-.51.34-.808 0-.128-.042-.213 0-.34.043-.086.17-.17.256-.256.17-.17.17-.467.127-.723a.96.96 0 0 1 .043-.595c.085-.17.298-.34.468-.255.255.127.212.51.383.765.212.298.85.425 1.063.128.085-.128.255-.213.383-.128.127.085.255.383.382.298.426-.298-.467-1.063-.212-1.489.127-.255.553 0 .85-.042.085 0 .128 0 .17-.043s.043-.127.043-.212c0-.468.213-1.021 0-1.446-.085-.17-.34 0-.468.127-.127.128-.213.298-.383.34-.34.17-.723-.127-.808-.467-.042-.085-.042-.17-.127-.213-.128-.128-.34-.043-.51-.043-.383 0-.681-.467-.554-.85.085-.213.298-.34.34-.553.086-.213-.042-.51-.212-.68a1 1 0 0 0-.213-.17"/>
</svg>