<svg xmlns="http://www.w3.org/2000/svg" width="16" height="16" fill="currentColor" class="si si-screen_" viewBox="0 0 16 16">
  <path fill-rule="evenodd" d="M1.32 1.568a.86.86 0 0 0-.527.55C.767 2.203.76 3.196.76 6.573v4.347l.075.16a.82.82 0 0 0 .428.431l.164.076h13.146l.148-.07a.82.82 0 0 0 .432-.419l.087-.177V6.574c0-3.378-.007-4.371-.033-4.456a.96.96 0 0 0-.309-.438c-.233-.172.266-.16-6.91-.159-6.127.001-6.543.004-6.668.047m13.271.494c.166.112.156-.192.156 4.497 0 4.717.013 4.372-.168 4.482-.084.051-.186.052-6.574.052-7.169 0-6.588.015-6.699-.168-.051-.083-.052-.167-.053-4.361 0-3.849.005-4.285.043-4.365a.33.33 0 0 1 .212-.18c.029-.007 2.968-.011 6.532-.009 6.204.003 6.483.005 6.551.052M6.65 11.885a.3.3 0 0 0-.114.072c-.061.065-.723 2.004-.723 2.118q0 .136.133.205c.068.035.361.04 2.214.04s2.146-.005 2.214-.04q.133-.069.133-.208c0-.086-.58-2.016-.629-2.091a.27.27 0 0 0-.138-.086c-.096-.027-2.958-.036-3.09-.01m3.064 1.189c.114.384.207.708.207.719-.001.018-3.521.031-3.521.013 0-.008.444-1.341.466-1.399.01-.026.299-.034 1.326-.033h1.315z"/>
</svg>