<svg xmlns="http://www.w3.org/2000/svg" width="16" height="16" fill="currentColor" class="si si-search_white_" viewBox="0 0 16 16">
  <path fill-rule="evenodd" d="M6.147.885c-3.077.309-5.412 3-5.284 6.088.062 1.493.638 2.841 1.664 3.892a5.84 5.84 0 0 0 3.22 1.697 7.5 7.5 0 0 0 1.615.053 6 6 0 0 0 3.05-1.239l.16-.124 1.907 1.906c1.335 1.334 1.937 1.919 2.007 1.948.133.055.23.051.405-.014.124-.046.154-.072.201-.168a.6.6 0 0 0 .054-.206c-.001-.221-.026-.249-2.004-2.228-1.043-1.044-1.888-1.91-1.878-1.925.009-.016.095-.133.191-.262a6.1 6.1 0 0 0 1.12-2.716 7.3 7.3 0 0 0 .002-1.652 6 6 0 0 0-1.241-2.882 7.5 7.5 0 0 0-.896-.898A5.97 5.97 0 0 0 6.147.885m1.4 1.033a4.85 4.85 0 0 1 2.514 1.232c.462.425.81.896 1.086 1.469a4.9 4.9 0 0 1 .239 3.734c-.607 1.825-2.221 3.113-4.165 3.325-1.149.126-2.41-.195-3.328-.845a6.8 6.8 0 0 1-1.085-1.06 4.96 4.96 0 0 1 .156-6.186c.792-.951 1.969-1.573 3.252-1.718a6 6 0 0 1 1.331.049"/>
</svg>