<svg xmlns="http://www.w3.org/2000/svg" width="16" height="16" fill="currentColor" class="si si-Search_white" viewBox="0 0 16 16">
  <g clip-path="url(#a)">
    <mask id="b" width="16" height="16" x="0" y="0" maskUnits="userSpaceOnUse">
      <path d="M0 0h16v16H0z"/>
      <path fill-rule="evenodd" d="m11.032 10.596 3.86 3.865c.135.134.135.36.045.45-.09.044-.18.089-.269.089a.34.34 0 0 1-.224-.09l-3.86-3.865c-2.29 2.022-5.746 1.932-7.9-.225a5.756 5.756 0 0 1 0-8.135 5.74 5.74 0 0 1 8.124 0c2.154 2.158 2.244 5.618.224 7.91m-7.9-7.416c-1.975 1.977-1.975 5.213 0 7.19.943.99 2.244 1.484 3.591 1.484s2.648-.54 3.591-1.483c1.975-1.978 1.975-5.214 0-7.191a5.09 5.09 0 0 0-7.182 0"/>
    </mask>
    <path fill-rule="evenodd" d="m11.032 10.596 3.86 3.865c.135.134.135.36.045.45-.09.044-.18.089-.269.089a.34.34 0 0 1-.224-.09l-3.86-3.865c-2.29 2.022-5.746 1.932-7.9-.225a5.756 5.756 0 0 1 0-8.135 5.74 5.74 0 0 1 8.124 0c2.154 2.158 2.244 5.618.224 7.91m-7.9-7.416c-1.975 1.977-1.975 5.213 0 7.19.943.99 2.244 1.484 3.591 1.484s2.648-.54 3.591-1.483c1.975-1.978 1.975-5.214 0-7.191a5.09 5.09 0 0 0-7.182 0"/>
    <path d="m14.893 14.46.106-.105zm-3.86-3.865-.113-.099-.093.106.1.1zm3.904 4.315.068.134.021-.01.018-.018zm-.493 0-.107.106zm-3.86-3.865.106-.106-.1-.1-.106.093zm-7.9-.225-.107.106zm0-8.135.105.106zm8.124 0-.106.106zm-7.676 7.686.109-.104-.003-.002zm0-7.191-.106-.106zm7.182 7.19-.106-.105zm0-7.19-.106.106zm4.685 11.175-3.86-3.866-.213.212 3.86 3.866zm.045.661a.42.42 0 0 0 .105-.324.53.53 0 0 0-.15-.337l-.213.212a.23.23 0 0 1 .064.145c.003.059-.015.088-.019.092zm-.376.134c.132 0 .256-.065.337-.106l-.135-.268c-.098.05-.154.074-.202.074zm-.33-.134a.5.5 0 0 0 .33.134v-.3a.2.2 0 0 1-.07-.016.2.2 0 0 1-.048-.03zm-3.86-3.865 3.86 3.865.212-.212-3.86-3.865zm-7.9-.225c2.21 2.214 5.757 2.306 8.105.231l-.199-.225c-2.23 1.971-5.597 1.883-7.695-.218zm0-8.347a5.906 5.906 0 0 0 0 8.347l.211-.212a5.606 5.606 0 0 1 0-7.923zm8.336 0a5.89 5.89 0 0 0-8.337 0l.212.212a5.59 5.59 0 0 1 7.913 0zm.23 8.116c2.072-2.351 1.981-5.902-.23-8.116l-.212.212c2.098 2.101 2.186 5.472.218 7.705zm-7.906-.43c-1.916-1.92-1.916-5.06 0-6.98l-.212-.211C.992 5.11.992 8.44 3.026 10.477zm3.485 1.439c-1.31 0-2.571-.48-3.482-1.437l-.217.207c.974 1.022 2.316 1.53 3.7 1.53zm3.485-1.44a4.94 4.94 0 0 1-3.485 1.44v.3a5.24 5.24 0 0 0 3.697-1.527zm0-6.978c1.916 1.919 1.916 5.06 0 6.979l.212.212c2.034-2.036 2.034-5.367 0-7.403zm-6.97 0a4.94 4.94 0 0 1 6.97 0l.212-.212a5.24 5.24 0 0 0-7.394 0z" mask="url(#b)"/>
  </g>
  <defs>
    <clipPath id="a">
      <path d="M0 0h16v16H0z"/>
    </clipPath>
  </defs>
</svg>