<svg xmlns="http://www.w3.org/2000/svg" width="16" height="16" fill="currentColor" class="si si-search_" viewBox="0 0 16 16">
  <path fill-rule="evenodd" d="M6.147.885a6 6 0 0 0-3.182 1.349A5.9 5.9 0 0 0 .863 6.96c.037.889.217 1.6.603 2.387.33.672.665 1.131 1.2 1.649a5.8 5.8 0 0 0 4.081 1.644 5.94 5.94 0 0 0 3.665-1.264l.159-.124 1.921 1.918c2.052 2.048 1.998 2 2.23 1.969.235-.031.39-.165.416-.358.032-.234.076-.183-1.962-2.242a191 191 0 0 1-1.917-1.951c-.005-.012.076-.133.18-.268.583-.764.976-1.712 1.137-2.744.062-.396.062-1.219.001-1.641a5.92 5.92 0 0 0-3.33-4.521 6.03 6.03 0 0 0-3.1-.529m1.145.995a4.85 4.85 0 0 1 3.005 1.502c.675.71 1.098 1.556 1.282 2.565.08.44.079 1.216-.002 1.666a4.9 4.9 0 0 1-.724 1.854 4.97 4.97 0 0 1-5.733 1.985 5.5 5.5 0 0 1-1.225-.619c-.93-.662-1.65-1.701-1.932-2.789a5.4 5.4 0 0 1-.112-1.988C2.256 3.399 4.639 1.57 7.292 1.88"/>
</svg>