<svg width="16" height="16" viewBox="0 0 16 16" fill="currentColor" xmlns="http://www.w3.org/2000/svg">
<g clip-path="url(#clip0_4_954)">
<path fill-rule="evenodd" clip-rule="evenodd" d="M1.59998 6.99999C1.59998 4.01766 4.01764 1.59999 6.99998 1.59999C9.98232 1.59999 12.4 4.01766 12.4 6.99999C12.4 9.98233 9.98232 12.4 6.99998 12.4C4.01764 12.4 1.59998 9.98233 1.59998 6.99999ZM6.99998 0.399994C3.3549 0.399994 0.399979 3.35491 0.399979 6.99999C0.399979 10.6451 3.3549 13.6 6.99998 13.6C8.69334 13.6 10.2378 12.9623 11.4062 11.9139C11.3801 12.0947 11.4366 12.2851 11.5757 12.4243L14.5757 15.4243C14.81 15.6586 15.1899 15.6586 15.4242 15.4243C15.6586 15.1899 15.6586 14.81 15.4242 14.5757L12.4242 11.5757C12.2851 11.4366 12.0947 11.3801 11.9139 11.4062C12.9623 10.2378 13.6 8.69335 13.6 6.99999C13.6 3.35491 10.6451 0.399994 6.99998 0.399994Z" fill="#3D3D3D"/>
</g>
<defs>
<clipPath id="clip0_4_954">
<rect width="16" height="16" fill="white"/>
</clipPath>
</defs>
</svg>
