<svg xmlns="http://www.w3.org/2000/svg" width="16" height="16" fill="currentColor" class="si si-search_nav_" viewBox="0 0 16 16">
  <path fill-rule="evenodd" d="M6.547.416c-1.12.111-1.955.363-2.792.842a6 6 0 0 0-1.39 1.057A6.5 6.5 0 0 0 .59 5.441a6 6 0 0 0-.181 1.346 6.59 6.59 0 0 0 2.446 5.344 6.6 6.6 0 0 0 5.652 1.294 6.75 6.75 0 0 0 2.853-1.466c.035-.03.041-.019.045.082a.6.6 0 0 0 .058.217c.031.059.736.783 1.648 1.693C14.801 15.636 14.759 15.6 15 15.6c.315 0 .6-.284.6-.598-.001-.244.038-.199-1.649-1.89-.875-.878-1.627-1.615-1.671-1.638a.8.8 0 0 0-.218-.058l-.138-.016.186-.227a6.6 6.6 0 0 0 1.236-5.977 6.5 6.5 0 0 0-1.66-2.832A6.55 6.55 0 0 0 7.907.465c-.262-.038-1.15-.07-1.36-.049m1.271 1.249a5.37 5.37 0 0 1 2.996 1.521 5.4 5.4 0 0 1 1.535 3.081c.046.326.046 1.14 0 1.466a5.4 5.4 0 0 1-1.535 3.081c-2.609 2.609-6.991 1.892-8.648-1.416a5.39 5.39 0 0 1 1.02-6.212 5.4 5.4 0 0 1 3.267-1.558 7.6 7.6 0 0 1 1.365.037"/>
</svg>