<svg xmlns="http://www.w3.org/2000/svg" width="16" height="16" fill="currentColor" class="si si-settings_" viewBox="0 0 16 16">
  <path fill-rule="evenodd" d="M6.158.783c-.644.164-.76.228-.867.484-.039.095-.042.193-.026.893.009.433.024.82.032.86.007.04.003.073-.01.073s-.371-.199-.796-.443c-.424-.244-.818-.46-.874-.48a.7.7 0 0 0-.486.018c-.072.034-.251.2-.499.461-.327.344-.395.43-.433.548-.084.254-.06.323.363 1.048l.446.765.067.116-.744-.023c-1.077-.033-1.102-.03-1.283.146-.083.08-.117.146-.176.338-.119.39-.213.842-.211 1.005a.72.72 0 0 0 .217.508c.053.048.4.255.769.46s.672.381.672.391c.001.009-.322.199-.716.421s-.747.431-.784.465a.6.6 0 0 0-.179.401c0 .161.082.504.228.949.098.299.139.389.226.488.187.212.216.217 1.18.187a19 19 0 0 1 .843-.018c.006.004-.174.323-.4.708-.406.694-.501.893-.503 1.048-.002.21.044.278.484.723.386.39.44.435.573.477.278.088.318.073 1.141-.422.405-.245.744-.445.752-.445s.004.333-.008.74-.02.809-.017.892a.6.6 0 0 0 .25.484c.161.105 1.027.311 1.301.31a.7.7 0 0 0 .476-.192c.048-.046.254-.392.467-.784.209-.386.386-.702.394-.702.007-.001.199.325.427.723.443.777.499.847.725.907.15.039.326.011.794-.13.65-.195.862-.333.931-.606.018-.074.029-.416.029-.91 0-.622.007-.788.034-.778.018.007.314.189.657.404.669.42.738.456.917.483.243.036.316-.007.741-.436.424-.429.523-.579.55-.837.02-.201-.018-.276-.481-.949a9 9 0 0 1-.391-.594c0-.015.334-.025.828-.025.91 0 .945-.005 1.11-.165.106-.102.106-.103.298-.781.143-.504.157-.574.137-.697a.9.9 0 0 0-.179-.402c-.026-.032-.351-.225-.723-.429s-.676-.38-.677-.393c0-.013.304-.201.676-.419s.716-.434.763-.48c.206-.199.209-.366.024-1.129-.128-.525-.155-.593-.288-.729-.166-.169-.181-.171-1.115-.149-.706.016-.834.014-.81-.017.089-.113.816-1.342.85-1.437a.66.66 0 0 0-.011-.466c-.028-.063-.213-.273-.446-.51-.369-.375-.408-.406-.553-.45-.285-.085-.324-.071-1.123.427-.392.244-.717.439-.722.434-.005-.004.004-.38.019-.835.03-.904.024-.968-.108-1.151-.101-.139-.161-.165-.816-.353C9.588.657 9.53.646 9.4.667a.7.7 0 0 0-.394.181c-.04.038-.249.391-.464.784-.216.394-.4.706-.41.695s-.189-.332-.398-.714a17 17 0 0 0-.442-.777.56.56 0 0 0-.44-.194c-.08.002-.392.065-.694.141M7.2 2.178c.227.414.447.79.489.836.233.259.698.25.922-.017.047-.057.267-.434.487-.837l.408-.741c.01-.01.759.197.777.216.008.008.001.415-.016.906-.034.973-.029 1.027.104 1.211.145.201.488.302.708.21.058-.024.433-.248.835-.499l.73-.455.081.076c.044.042.152.157.24.256l.16.179-.442.729c-.243.401-.46.773-.482.826-.122.292.017.645.314.797.127.065.221.068 1.152.04l.748-.023.09.372c.05.205.084.389.076.409-.008.021-.337.226-.731.457-.395.23-.756.458-.802.506a.644.644 0 0 0 .079.944c.062.045.407.241.766.436s.663.363.675.373c.019.018-.135.627-.195.768l-.025.06-.887.001c-.808 0-.897.005-.994.05a.7.7 0 0 0-.32.331.74.74 0 0 0-.007.474c.022.051.239.383.483.738s.444.657.444.672-.111.141-.247.28l-.247.254-.68-.429c-.802-.507-.899-.557-1.08-.557a.67.67 0 0 0-.582.371c-.021.046-.035.383-.044 1.002l-.014.933-.293.098a5 5 0 0 1-.388.116l-.094.017-.411-.722a13 13 0 0 0-.486-.813c-.233-.283-.727-.278-.956.011-.04.051-.256.428-.48.836l-.407.743-.109-.017c-.222-.033-.597-.126-.635-.157-.033-.027-.036-.114-.019-.565.035-.92.03-1.309-.016-1.421-.115-.275-.471-.442-.749-.352-.057.019-.45.243-.874.499l-.772.465-.251-.251-.25-.251.459-.785c.253-.431.476-.837.496-.903a.64.64 0 0 0-.219-.657c-.177-.135-.272-.146-1.022-.117-.376.014-.77.026-.876.026h-.193l-.098-.311a2.6 2.6 0 0 1-.101-.405l-.002-.093.74-.417c.407-.23.778-.453.823-.496.176-.164.24-.483.144-.712-.073-.175-.231-.288-.988-.712l-.738-.413.017-.128c.017-.13.134-.602.152-.616.005-.004.244.002.53.012.947.036 1.306.03 1.426-.025a.63.63 0 0 0 .312-.316.76.76 0 0 0 .025-.466 22 22 0 0 0-.483-.852l-.456-.78.252-.252.251-.252.901.517.901.517.175-.002a.61.61 0 0 0 .571-.344c.054-.103.056-.132.044-.707-.007-.33-.013-.755-.013-.944v-.344l.32-.088c.176-.048.35-.085.387-.082.058.004.118.099.48.756m.4 1.877C5.782 4.259 4.357 5.65 4.081 7.49a6 6 0 0 0 0 1.153c.303 2.013 1.963 3.467 3.957 3.463a3.97 3.97 0 0 0 3.757-2.719 4.1 4.1 0 0 0 .08-2.374c-.154-.565-.532-1.29-.737-1.415-.167-.101-.386-.04-.5.142-.081.13-.056.271.089.506q.387.625.503 1.274c.043.242.044.822.002 1.082-.259 1.593-1.607 2.758-3.192 2.758a3.2 3.2 0 0 1-2.804-1.607c-.635-1.081-.592-2.483.11-3.54.812-1.222 2.321-1.731 3.747-1.263.11.036.359.144.552.241.413.206.48.21.654.037.088-.089.101-.118.101-.226 0-.176-.056-.263-.238-.374A4.24 4.24 0 0 0 7.6 4.055"/>
</svg>