<svg xmlns="http://www.w3.org/2000/svg" width="16" height="16" fill="currentColor" class="si si-Settingsicons" viewBox="0 0 16 16">
  <g stroke="#3D3D3D" stroke-miterlimit="10" stroke-width=".75" clip-path="url(#a)">
    <path d="M13.37 8.303a.275.275 0 0 1 0-.466l1.493-.874c.114-.058.172-.175.114-.291-.057-.35-.172-.699-.23-.99-.057-.117-.114-.175-.229-.175l-1.723.058a.261.261 0 0 1-.23-.407l.92-1.514c.057-.117.057-.233 0-.292-.23-.233-.46-.524-.69-.698-.115-.059-.23-.059-.287 0l-1.493.931c-.172.117-.402 0-.402-.233l.057-1.805c0-.116-.057-.233-.172-.233-.287-.116-.632-.175-.976-.291a.44.44 0 0 0-.287.116l-.862 1.573a.267.267 0 0 1-.46 0l-.86-1.573c-.058-.116-.173-.174-.288-.116-.344.058-.631.175-.976.233-.115.058-.172.116-.172.233l.057 1.805c0 .233-.23.35-.402.233l-1.723-.99c-.115-.058-.23-.058-.287 0l-.689.699c-.057.116-.057.233 0 .291L3.492 5.1a.261.261 0 0 1-.23.407l-1.78-.058c-.115 0-.23.058-.23.175-.115.29-.172.64-.23.931 0 .117.058.233.115.292l1.55.873a.275.275 0 0 1 0 .466l-1.55.874c-.114.058-.172.174-.114.29.057.35.172.642.287.99.057.117.115.176.23.176l1.78-.059c.23 0 .344.233.23.408l-.92 1.572c-.057.117-.057.234 0 .292l.69.699c.114.058.23.058.287 0l1.55-.932c.173-.117.402 0 .402.233l-.057 1.805c0 .117.057.233.172.233.287.117.632.175.976.233.115 0 .23-.058.288-.117l.861-1.572a.267.267 0 0 1 .46 0l.86 1.514c.058.117.173.175.288.117.345-.059.69-.175.976-.291.115-.059.173-.117.173-.233V12.67c0-.233.23-.35.402-.233l1.493.931c.114.059.23.059.287 0 .23-.233.517-.466.689-.757.057-.116.057-.233 0-.291l-.919-1.34a.261.261 0 0 1 .23-.407h1.723c.114 0 .23-.058.23-.175.114-.35.172-.64.286-.99a.45.45 0 0 0-.114-.291l-1.493-.815Z"/>
    <path stroke-linecap="round" d="M10.958 5.915a3.84 3.84 0 0 1 .689 2.155c0 2.038-1.608 3.669-3.618 3.669S4.41 10.108 4.41 8.069s1.608-3.668 3.618-3.668c.746 0 1.435.233 2.01.582"/>
  </g>
  <defs>
    <clipPath id="a">
      <path d="M0 0h16v16H0z"/>
    </clipPath>
  </defs>
</svg>