<svg xmlns="http://www.w3.org/2000/svg" width="16" height="16" fill="currentColor" class="si si-Shareicons" viewBox="0 0 16 16">
  <path d="M11.904 10.804a2.08 2.08 0 0 0-1.54.62 2 2 0 0 0-.244.302L5.782 9.05q.107-.194.168-.411a2.12 2.12 0 0 0-.159-1.544l4.385-2.707a.2.2 0 0 0 .05-.046 2.08 2.08 0 0 0 2.22.734 2.06 2.06 0 0 0 1.539-1.758c.034-.278.011-.56-.066-.83-.306-.975-1.28-1.594-2.326-1.472a.207.207 0 0 0 .048.413c.843-.103 1.636.398 1.88 1.177a1.653 1.653 0 0 1-1.184 2.068 1.68 1.68 0 0 1-1.295-.156 1.66 1.66 0 0 1-.778-1.037c-.129-.386-.077-.817.155-1.28a.21.21 0 0 0-.024-.234.208.208 0 0 0-.347.048c-.282.565-.343 1.102-.182 1.584q.059.217.157.412a.2.2 0 0 0-.065.023l-4.392 2.71a2 2 0 0 0-1.03-.685C3.53 5.764 2.472 6.252 2.02 7.22a.208.208 0 1 0 .376.177c.365-.783 1.215-1.178 2.026-.94.424.118.774.399.987.792.211.39.261.844.14 1.277a1.6 1.6 0 0 1-.79.987c-.389.21-.843.263-1.268.145a1.8 1.8 0 0 1-.992-.791.205.205 0 0 0-.283-.078.207.207 0 0 0-.078.282c.257.45.702.807 1.232.984.532.15 1.101.087 1.586-.177.227-.123.428-.288.593-.486l4.354 2.688c.01.006.022.005.033.009a2.17 2.17 0 0 0 .299 2.098.206.206 0 0 0 .291.038.21.21 0 0 0 .074-.218.2.2 0 0 0-.036-.073c-.51-.662-.468-1.656.093-2.217a1.65 1.65 0 0 1 1.239-.5c.433.008.83.184 1.124.5.326.325.508.778.5 1.24a1.55 1.55 0 0 1-.5 1.123 1.6 1.6 0 0 1-1.181.492.207.207 0 1 0 0 .416c.579 0 1.062-.201 1.469-.61a1.96 1.96 0 0 0 .627-1.415 2.13 2.13 0 0 0-.616-1.534 1.96 1.96 0 0 0-1.415-.626"/>
</svg>