<svg xmlns="http://www.w3.org/2000/svg" width="16" height="16" fill="currentColor" class="si si-share_" viewBox="0 0 16 16">
  <path fill-rule="evenodd" d="M11.479 1.079a.22.22 0 0 0-.049.24q.047.123.343.102c.456-.033.984.166 1.313.494.326.325.461.627.48 1.072a1.5 1.5 0 0 1-.185.861c-.207.397-.555.674-1.034.822-.291.09-.678.084-.979-.014a1.7 1.7 0 0 1-1.16-1.612c0-.258.046-.466.167-.749.086-.204.085-.262-.009-.349-.126-.118-.265-.053-.366.17-.162.359-.199.533-.199.937.001.363.004.382.101.663.056.16.097.293.093.296s-1.002.62-2.217 1.369L5.57 6.743l-.097-.108c-.231-.255-.606-.479-.98-.586-.3-.085-.79-.086-1.088-.001a2.17 2.17 0 0 0-1.321 1.047c-.101.18-.106.272-.019.36.132.131.249.075.404-.193.224-.389.663-.722 1.081-.821.219-.052.576-.051.797.001.591.138 1.073.62 1.211 1.211.052.22.053.605.002.82a1.7 1.7 0 0 1-.737 1.001c-.28.166-.548.239-.876.239-.324 0-.504-.047-.792-.208a2.4 2.4 0 0 1-.642-.605c-.078-.115-.095-.127-.191-.127-.081 0-.117.016-.16.071-.082.104-.069.168.075.372.498.702 1.328 1.045 2.122.877a2.13 2.13 0 0 0 1.053-.558.6.6 0 0 1 .143-.122c.014 0 1.002.603 2.196 1.34 1.854 1.144 2.17 1.348 2.16 1.394a6 6 0 0 1-.061.226c-.067.236-.067.768.001 1.014.093.338.328.792.443.854.125.066.277 0 .306-.134.014-.065-.004-.115-.103-.273a1.78 1.78 0 0 1-.108-1.729c.135-.281.431-.569.734-.714.267-.127.433-.164.725-.164.472.001.799.138 1.139.479.373.372.516.708.518 1.214.001.241-.01.329-.063.492a1.78 1.78 0 0 1-1.055 1.07c-.086.03-.265.067-.398.081-.211.022-.251.035-.305.096-.075.084-.063.207.029.284.128.107.742.001 1.087-.187.359-.196.701-.53.89-.869.301-.539.318-1.269.042-1.857a2.22 2.22 0 0 0-.968-1.004 1.9 1.9 0 0 0-.771-.214c-.4-.033-.868.081-1.223.297-.18.109-.474.372-.582.521l-.07.096-2.133-1.317L5.817 9.07c-.029-.018-.025-.042.02-.131.122-.239.176-.504.176-.872 0-.366-.054-.633-.173-.867l-.052-.103L7.7 5.917c1.053-.649 2.051-1.266 2.22-1.371l.306-.191.16.165c.643.659 1.595.815 2.454.4a2.05 2.05 0 0 0 1.086-1.312c.077-.27.084-.783.013-1.048-.245-.915-1.098-1.547-2.09-1.547-.288 0-.308.004-.37.066"/>
</svg>