<svg xmlns="http://www.w3.org/2000/svg" width="16" height="16" fill="currentColor" class="si si-Solar2-icons" viewBox="0 0 16 16">
  <g clip-path="url(#a)">
    <path d="M7.97 1.726a.22.22 0 0 0 .22-.22V.22A.22.22 0 0 0 7.97 0a.22.22 0 0 0-.22.22v1.286c0 .121.1.22.22.22m7.81 6.055h-1.292a.22.22 0 0 0-.22.219.22.22 0 0 0 .22.22h1.292A.22.22 0 0 0 16 8a.22.22 0 0 0-.22-.22m-3.17-4.125a.22.22 0 0 0 .168-.079l.881-1.053a.22.22 0 0 0-.272-.337.2.2 0 0 0-.066.057l-.88 1.053a.218.218 0 0 0 .05.325.2.2 0 0 0 .118.034M1.452 7.781H.22A.22.22 0 0 0 0 8a.22.22 0 0 0 .22.22h1.233a.22.22 0 0 0 .22-.22.22.22 0 0 0-.22-.22m1.773-4.198a.22.22 0 0 0 .312.018.22.22 0 0 0 .017-.31l-.94-1.053a.22.22 0 0 0-.328.292zm4.745 10.691a.22.22 0 0 0-.22.22v1.287a.22.22 0 0 0 .22.219.22.22 0 0 0 .22-.22v-1.286a.22.22 0 0 0-.22-.22m4.803-1.797a.22.22 0 0 0-.385.13.22.22 0 0 0 .055.16l.88.994a.22.22 0 0 0 .374-.216.2.2 0 0 0-.043-.074zm-9.543-.006-.94.995a.22.22 0 0 0 .007.313.22.22 0 0 0 .314-.013l.94-.994a.219.219 0 0 0-.167-.373.22.22 0 0 0-.154.072m7.41-7.265a.22.22 0 0 0-.014.31c.64.693.997 1.6.999 2.543 0 2.008-1.614 3.641-3.597 3.641-2.017 0-3.596-1.6-3.596-3.641s1.58-3.642 3.596-3.642c.459 0 .862.075 1.135.21a.22.22 0 0 0 .288-.1.22.22 0 0 0-.091-.292c-.427-.212-.96-.257-1.332-.257-2.263 0-4.036 1.793-4.036 4.08 0 2.289 1.773 4.08 4.036 4.08 2.226 0 4.037-1.83 4.037-4.08a4.2 4.2 0 0 0-1.114-2.84.22.22 0 0 0-.312-.012"/>
  </g>
  <defs>
    <clipPath id="a">
      <path d="M0 0h16v16H0z"/>
    </clipPath>
  </defs>
</svg>