<svg xmlns="http://www.w3.org/2000/svg" width="16" height="16" fill="currentColor" class="si si-solar_2_" viewBox="0 0 16 16">
  <path fill-rule="evenodd" d="M7.825.065 7.76.131V.85c0 .395.007.738.017.762.024.063.165.128.238.11a.3.3 0 0 0 .118-.074c.051-.055.054-.092.054-.788V.131L8.121.065a.2.2 0 0 0-.296 0M2.36 2.191c-.084.046-.12.106-.12.2 0 .076.063.159.469.615.258.29.498.554.535.587a.21.21 0 0 0 .356-.152c0-.093-.037-.142-.497-.658-.273-.306-.522-.571-.553-.589-.07-.04-.121-.041-.19-.003m11.004.016c-.03.025-.259.291-.509.591-.411.492-.455.554-.455.645 0 .174.211.276.342.164.03-.026.259-.293.509-.593.389-.466.456-.558.456-.634 0-.178-.211-.285-.343-.173M7.613 4.001c-.975.11-1.75.479-2.428 1.157a3.8 3.8 0 0 0-.993 1.616c-.149.467-.178.676-.178 1.293-.001.486.007.595.06.83.336 1.501 1.314 2.601 2.71 3.048.46.147.838.197 1.363.18.795-.026 1.428-.223 2.061-.64 1.264-.835 1.961-2.248 1.842-3.738-.073-.913-.467-1.849-1.024-2.432-.181-.19-.254-.21-.377-.105-.123.106-.102.211.082.429q.611.72.818 1.694c.085.397.085 1.068.002 1.46-.27 1.262-1.15 2.279-2.338 2.699-.424.151-.696.196-1.173.197-.462.002-.723-.036-1.116-.16-1.26-.398-2.203-1.493-2.432-2.822A4.6 4.6 0 0 1 4.493 7.4c.306-1.744 1.763-2.973 3.525-2.973.416 0 .685.037.972.135.278.095.343.097.42.014.093-.098.071-.249-.048-.329-.113-.076-.437-.179-.682-.217a5.5 5.5 0 0 0-1.067-.029M.065 7.852A.22.22 0 0 0 0 8c0 .052.024.107.065.148l.066.065h.692c.381 0 .712-.007.736-.016.063-.024.128-.166.11-.239a.3.3 0 0 0-.074-.117c-.056-.052-.092-.054-.761-.054H.131zm14.267 0a.22.22 0 0 0-.065.148c0 .052.024.107.065.148l.066.065h1.471l.066-.065A.22.22 0 0 0 16 8a.22.22 0 0 0-.065-.148l-.066-.065h-1.471zM3.25 12.46c-.16.138-.984 1.031-1.005 1.09-.033.09-.002.183.082.246.138.103.204.057.75-.52.273-.289.508-.556.522-.594.033-.086-.001-.181-.083-.239-.085-.06-.184-.053-.266.017m9.22 0c-.063.057-.08.106-.073.213.002.025.221.291.487.592.349.394.505.55.558.562.084.019.223-.042.248-.108.052-.136.024-.182-.454-.721-.258-.292-.495-.546-.526-.564a.19.19 0 0 0-.24.026m-4.593 1.845c-.045.02-.09.056-.1.081a10 10 0 0 0-.017.764v.719l.065.066a.22.22 0 0 0 .148.065.22.22 0 0 0 .148-.065l.066-.066v-.73c0-.723-.001-.73-.06-.785-.085-.077-.154-.09-.25-.049"/>
</svg>