<svg xmlns="http://www.w3.org/2000/svg" width="16" height="16" fill="currentColor" class="si si-Spainicons" viewBox="0 0 16 16">
  <g clip-path="url(#a)">
    <g clip-path="url(#b)">
      <path d="M1.291 14.643a.22.22 0 0 1-.129-.048l-.505-.414a.22.22 0 0 1-.04-.308.21.21 0 0 1 .298-.042l.505.415a.24.24 0 0 1 .04.314.22.22 0 0 1-.169.083m3.779.711a.22.22 0 0 1-.158-.071.227.227 0 0 1 .017-.314l.562-.534a.2.2 0 0 1 .297.018.227.227 0 0 1-.017.314l-.561.534a.2.2 0 0 1-.14.053m1.122-1.126a.2.2 0 0 1-.157-.077.227.227 0 0 1 .023-.314l.449-.415a.2.2 0 0 1 .297.024.227.227 0 0 1-.022.314l-.45.415a.2.2 0 0 1-.14.053m9.275-7.941a.2.2 0 0 1-.14-.053l-.45-.415a.233.233 0 0 1-.022-.314.21.21 0 0 1 .297-.024l.45.415c.09.083.095.22.022.314a.2.2 0 0 1-.157.077m-2.465 3.112a.2.2 0 0 1-.168-.09.226.226 0 0 1 .045-.308l.449-.355a.2.2 0 0 1 .292.047.227.227 0 0 1-.045.308l-.45.356a.2.2 0 0 1-.123.042m.511.853a.2.2 0 0 1-.152-.065q-.026-.035-.045-.077a.22.22 0 0 1 .045-.237.2.2 0 0 1 .23-.048.13.13 0 0 1 .068.048.22.22 0 0 1 .045.237.2.2 0 0 1-.045.077.3.3 0 0 1-.067.047.2.2 0 0 1-.079.018M.747 15.864a.2.2 0 0 1-.152-.066.2.2 0 0 1-.045-.07.2.2 0 0 1-.017-.084c0-.059.023-.118.062-.16a.21.21 0 0 1 .23-.047q.042.02.068.047a.24.24 0 0 1 .061.16q0 .047-.016.083a.15.15 0 0 1-.045.072.2.2 0 0 1-.146.065m1.145-.468a.18.18 0 0 1-.152-.066.22.22 0 0 1-.061-.154c0-.059.022-.118.061-.154a.2.2 0 0 1 .23-.053q.034.018.068.053a.2.2 0 0 1 .062.154q0 .047-.017.083a.15.15 0 0 1-.045.071.3.3 0 0 1-.067.054c-.029.006-.051.011-.08.011m1.23-.503c-.129.107-.022.409 0 .468.062.071.45.213.562.172.04-.03.095-.237.123-.338.034-.124.068-.243.118-.338.028-.047.062-.095.09-.142-.253.024-.78.119-.893.178m.523 1.09c-.332 0-.82-.201-.916-.456-.168-.439-.112-.806.152-1.002.174-.13 1.24-.337 1.476-.183a.32.32 0 0 1 .146.213c.029.16-.056.296-.146.42l-.072.113a1.3 1.3 0 0 0-.073.232c-.068.248-.146.55-.393.64a.5.5 0 0 1-.175.023m9.674-8.746c.01.284.387.681.51.705.13-.024.55-.462.607-.599.005-.1-.101-.515-.186-.575-.151.006-.808.309-.931.469m.505 1.143c-.22 0-.444-.213-.556-.338-.09-.106-.393-.474-.37-.865.027-.438 1.14-.847 1.375-.847.084 0 .208.03.32.178.19.249.286.758.247.942-.05.243-.674.93-1.016.93"/>
      <path d="M5.423 13.215a.5.5 0 0 1-.09-.012c-.27-.06-.634-.385-1.05-.776a4 4 0 0 0-.28-.25c-.017-.005-.14-.011-.236-.023-.45-.036-1.201-.1-1.359-.67-.14-.527.169-.977.354-1.25.04-.06.096-.136.101-.166.028-.1-.028-.545-.056-.776a5 5 0 0 1-.04-.35c-.039-.03-.117-.065-.162-.089-.14-.065-.258-.124-.309-.254-.028-.078-.017-.143.006-.232.045-.195.04-.266.028-.29-.05-.071-.107-.1-.169-.142-.174-.107-.33-.231-.454-.634a.29.29 0 0 1 .039-.261c.118-.178.376-.184.825-.19.107 0 .258 0 .343-.011.134-.433.348-2.406.27-2.85-.32-.066-.517-.143-.624-.315a.54.54 0 0 1-.062-.391c-.196-.036-.69.006-.943.03-.51.047-.696.059-.814-.03-.168-.13-.225-.409-.28-.7C.437 2.478.42 2.37.392 2.3c-.112-.308.062-1.126.32-1.262.152-.083.37-.089.578-.095.084 0 .197-.006.258-.018a1 1 0 0 0 .068-.183c.112-.302.236-.646.5-.7.477-.1 1.184.226 1.442.486.287.149 2.796.048 3.868.006.45-.017.792-.03.932-.03q.118.001.253-.005c.539-.018 1.437-.048 1.64.936.078.036.269.065.431.071a.22.22 0 0 1 .208.225c-.005.125-.09.226-.213.22-.505-.012-.786-.143-.825-.38C9.746.954 9.297.924 8.629.942q-.143.007-.27.006c-.134.006-.477.012-.91.03-2.98.118-3.957.089-4.17-.13C3.088.657 2.515.414 2.2.473c-.045.036-.146.308-.186.427-.067.178-.106.284-.168.35-.112.118-.292.124-.545.13-.134.006-.33.006-.404.047-.045.077-.157.58-.112.705.034.09.062.22.084.35.023.118.068.332.112.415.101.006.349-.018.54-.036.785-.07 1.167-.083 1.341.125.068.083.09.183.068.29-.029.119-.012.148-.012.148.017.024.09.077.438.142.079.012.18.072.225.25.129.473-.118 3.128-.37 3.365-.107.101-.281.107-.63.113-.112 0-.291 0-.41.018.068.148.13.19.22.243a.9.9 0 0 1 .286.243c.146.19.107.45.067.622.017.012.04.018.056.03.174.082.388.183.405.408.01.101.028.231.045.374.061.491.1.806.039.983-.028.083-.084.166-.157.279-.158.23-.377.55-.292.87.073.274.668.32.988.35.219.018.325.03.404.078.073.041.174.13.36.302.235.22.679.634.864.675.095-.03.264-.438.32-.569.095-.219.14-.325.241-.379.062-.035.135-.07 1.538-.1h.085c.045 0 .123.011.224.023.22.03.579.09.82.006.135-.047.264-.468.354-.747.112-.355.219-.687.415-.847.213-.172.584-.172.943-.172.14 0 .331 0 .432-.018-.005-.035-.01-.083-.016-.118-.05-.35-.152-1.008.544-1.416l.096-.06c.527-.308.584-.42.572-.462-.028-.077-.196-.267-.32-.403-.325-.361-.662-.729-.516-1.078.292-.706.73-1.577 1.128-1.701.28-.089.331-.231.399-.433.056-.16.118-.361.325-.468l.191-.1c1.454-.771 1.83-1.073 1.887-1.192.14-.296.162-.705.117-.794-.112-.03-1.094-.1-1.375-.053a2 2 0 0 1-.28.018c-.36.006-.534.035-.556.19a.4.4 0 0 1-.152.272c-.202.154-.51.095-.758.053l-.118-.018a.22.22 0 0 1-.18-.248c.017-.119.118-.208.236-.19q.06.008.135.024c.101.017.37.065.438.03.056-.528.612-.54.949-.546.084 0 .163 0 .224-.012.32-.053 1.404.006 1.64.113.061.03.146.089.196.23.107.303.011.825-.14 1.139-.152.32-.91.77-2.077 1.386l-.191.101c-.05.03-.079.089-.124.225-.073.225-.185.557-.68.711-.145.042-.493.57-.858 1.452-.006.107.292.433.432.593.191.207.354.391.41.557.163.468-.393.788-.764 1.001l-.09.054c-.404.243-.392.563-.33.96.016.124.033.237.016.337-.062.315-.426.315-.847.315-.236 0-.59 0-.69.082-.09.072-.192.398-.265.629-.14.45-.286.912-.617 1.03-.332.12-.758.054-1.01.019-.068-.012-.13-.024-.158-.018h-.09c-.887.018-1.218.041-1.336.059-.022.041-.05.113-.073.16-.168.32-.382.818-.73.818"/>
    </g>
  </g>
  <defs>
    <clipPath id="a">
      <path d="M0 0h16v16H0z"/>
    </clipPath>
    <clipPath id="b">
      <path d="M0 0h16v16H0z"/>
    </clipPath>
  </defs>
</svg>