<svg xmlns="http://www.w3.org/2000/svg" width="16" height="16" fill="currentColor" class="si si-spain_" viewBox="0 0 16 16">
  <path fill-rule="evenodd" d="M2.088.054c-.098.031-.23.154-.294.275a5 5 0 0 0-.141.338L1.557.92l-.345.031c-.48.042-.55.075-.67.312-.164.324-.21.768-.118 1.152l.094.397c.057.248.138.409.239.473.076.048.114.051.483.037.22-.009.544-.027.72-.04s.369-.018.428-.01l.109.014.001.125c.004.268.173.44.526.537l.163.045-.004.49c-.005.625-.118 1.708-.231 2.21l-.033.147-.426.016a3.3 3.3 0 0 0-.541.051c-.156.048-.245.159-.245.302 0 .176.15.462.318.606l.234.2.095.082-.03.174c-.062.352-.029.422.26.568l.179.09.031.235c.017.13.046.382.063.561l.032.326-.163.248c-.269.408-.371.705-.344.999.02.212.068.324.203.47.191.207.509.317 1.075.37l.346.032.364.332c.699.638.978.788 1.228.659.134-.069.305-.292.469-.611.109-.212.177-.316.214-.325.031-.008.355-.023.72-.033.494-.014.731-.01.919.017.276.038.697.027.863-.022.147-.044.316-.213.416-.416.047-.096.156-.386.242-.644s.178-.5.206-.538c.092-.125.164-.141.737-.16.586-.021.69-.046.797-.192.058-.079.061-.14.032-.627-.02-.33-.017-.357.038-.472.075-.155.175-.242.5-.436.306-.183.558-.406.626-.555.115-.253.037-.459-.325-.867-.382-.431-.486-.582-.47-.682.017-.106.319-.738.47-.985.195-.318.279-.404.492-.502.297-.138.441-.311.56-.675a.5.5 0 0 1 .09-.176c.025-.022.22-.133.433-.247 1.027-.549 1.561-.892 1.768-1.134.165-.193.31-.756.274-1.063-.028-.236-.101-.37-.235-.428-.219-.096-.5-.122-1.301-.118-.788.003-1.022.026-1.201.117-.132.068-.259.219-.281.335-.01.052-.035.102-.057.111-.034.013-.357-.024-.546-.064-.057-.012-.09.003-.154.066-.097.097-.103.189-.02.286.054.062.097.076.356.114.483.069.688-.012.783-.31.056-.173.115-.195.6-.225.395-.024 1.307-.011 1.527.023l.113.017v.172c0 .219-.067.514-.142.626-.129.191-.694.56-1.591 1.037-.664.353-.655.345-.79.705-.099.263-.167.342-.376.44-.281.132-.466.338-.74.824-.145.258-.398.807-.438.951-.062.224.066.486.443.91.301.338.408.475.408.522 0 .062-.188.213-.522.42-.606.377-.782.713-.708 1.347.017.143.026.266.019.272s-.25.021-.541.033c-.462.018-.546.028-.669.081-.249.107-.347.268-.564.929-.259.784-.276.8-.809.767-1.016-.063-2.057-.036-2.213.058-.09.053-.094.06-.323.542-.095.2-.193.371-.217.38s-.077-.001-.119-.022c-.111-.058-.43-.318-.734-.6-.402-.372-.398-.37-.831-.417-.762-.081-.969-.183-.969-.476 0-.209.061-.375.243-.654.09-.14.181-.292.2-.339.052-.123.046-.451-.019-.994-.067-.555-.092-.611-.34-.743l-.161-.086.015-.181c.026-.306-.051-.459-.323-.649-.235-.165-.322-.286-.209-.29.934-.04.956-.045 1.036-.232.156-.366.33-1.77.334-2.69.002-.673-.039-.773-.347-.834a1.4 1.4 0 0 1-.26-.076l-.091-.044.017-.15c.022-.193-.028-.297-.183-.377-.156-.082-.537-.093-1.207-.036-.363.031-.534.036-.553.017C.93 2.834.788 2.181.787 2c0-.191.055-.482.106-.551.026-.035.104-.049.377-.067.189-.013.382-.036.429-.051.122-.04.205-.151.299-.404.137-.364.181-.444.254-.462.179-.045.731.148.991.346.157.121.316.167.69.202.359.033 1.532.034 2.414.001C8.574.931 9.046.923 9.257.967c.339.07.508.225.586.54.045.182.092.246.234.318.127.064.4.122.573.122.131 0 .23-.096.23-.221 0-.142-.082-.198-.334-.23-.277-.034-.299-.044-.32-.145a1.07 1.07 0 0 0-.543-.696C9.357.49 8.977.474 7.12.549 5.972.596 3.997.613 3.756.578a.55.55 0 0 1-.293-.129C3.154.217 2.735.057 2.391.039a1.3 1.3 0 0 0-.303.015m12.793 5.439c-.073.072-.092.169-.05.246.048.086.499.501.578.531.139.053.3-.116.251-.264-.013-.039-.146-.183-.294-.319-.293-.267-.378-.302-.485-.194m-.708.856c-.32.059-.851.313-1.065.508-.174.159-.211.243-.196.447.031.436.569 1.068.908 1.069.237.001.799-.474.971-.821.092-.185.035-.583-.131-.91-.126-.248-.267-.333-.487-.293m.169.595c.035.087.069.219.076.294.013.132.01.139-.135.314a2 2 0 0 1-.297.291c-.139.105-.152.109-.217.075-.157-.084-.462-.518-.462-.658 0-.099.746-.494.906-.479.055.005.078.034.129.163m-1.209 1.858a3 3 0 0 0-.286.243c-.106.124-.012.342.148.342.065 0 .143-.045.325-.187a4 4 0 0 0 .287-.243c.105-.127.011-.344-.149-.343-.064 0-.143.046-.325.188m.239 1.077c-.129.129-.044.361.132.361.189 0 .28-.255.132-.371-.093-.074-.184-.07-.264.01m-6.79 3.503c-.025.01-.166.13-.313.267-.253.233-.269.255-.269.353 0 .132.073.211.195.211.074 0 .13-.037.34-.231.267-.246.316-.307.317-.401.002-.116-.166-.24-.27-.199m-5.911.447q-.245.17.122.467c.462.375.499.392.63.289.054-.042.07-.079.069-.154-.001-.12-.01-.132-.292-.366-.368-.305-.406-.322-.529-.236m2.902.504c-.334.056-.639.149-.723.221-.148.124-.197.257-.195.526.003.289.075.505.207.616.288.244.852.354 1.052.206.102-.075.192-.249.277-.535.04-.135.122-.326.181-.424.137-.228.159-.337.092-.462-.076-.141-.194-.188-.464-.185a3 3 0 0 0-.427.037m1.996.062c-.09.037-.683.618-.7.686-.039.155.122.307.267.251.04-.015.215-.168.389-.34.354-.352.376-.402.237-.541-.079-.079-.113-.089-.193-.056M4 14.73c0 .005-.029.062-.064.127a2 2 0 0 0-.123.33c-.102.369-.121.388-.333.33-.349-.095-.413-.164-.413-.44 0-.121.009-.149.063-.184.099-.065.87-.209.87-.163m-2.238.277a.27.27 0 0 0-.073.144c-.038.242.307.332.387.102.07-.201-.154-.377-.314-.246m-1.086.433a.25.25 0 0 0-.143.208c0 .077.136.219.21.219.03 0 .087-.029.128-.064.173-.149.014-.446-.195-.363"/>
</svg>