<svg xmlns="http://www.w3.org/2000/svg" width="16" height="16" fill="currentColor" class="si si-Spotifyicons" viewBox="0 0 16 16">
  <path d="M7.995 15C4.14 15 1 11.86 1 8s3.16-7 7.044-7a6.5 6.5 0 0 1 3.658 1.12c.084.06.109.173.05.257a.19.19 0 0 1-.257.05 6.14 6.14 0 0 0-3.45-1.052c-3.683 0-6.675 2.972-6.675 6.63a6.63 6.63 0 0 0 6.625 6.625c3.653 0 6.63-2.972 6.63-6.625 0-1.703-.696-3.387-1.866-4.507a.18.18 0 0 1-.005-.262.186.186 0 0 1 .261-.005C14.276 4.436 15 6.178 15 8.005 14.995 11.86 11.855 15 7.995 15"/>
  <path d="M8.138 8.198h.09c1.322.014 2.388.33 3.257.641a.17.17 0 0 0 .217-.103.17.17 0 0 0-.005-.129.18.18 0 0 0-.098-.089c-.894-.32-1.995-.646-3.372-.661-1.49-.03-2.794.306-3.623.587a.16.16 0 0 0-.1.09.18.18 0 0 0-.009.132c.03.09.128.139.217.11a10.9 10.9 0 0 1 3.426-.578m3.406 1.021a.6.6 0 0 1-.182-.03c-.84-.3-1.866-.606-3.135-.621a10.7 10.7 0 0 0-3.386.548.54.54 0 0 1-.687-.336.55.55 0 0 1 .025-.415.53.53 0 0 1 .311-.271 11.2 11.2 0 0 1 3.747-.607c1.432.014 2.567.355 3.49.68a.53.53 0 0 1 .306.277c.06.129.07.277.02.415a.54.54 0 0 1-.509.36M8.03 10.286c1.051 0 1.97.261 2.735.513a.167.167 0 0 0 .217-.109.167.167 0 0 0-.109-.212c-.84-.281-1.762-.518-2.868-.533-1.086.01-1.97.158-2.853.484a.14.14 0 0 0-.094.089.17.17 0 0 0-.005.128.18.18 0 0 0 .222.104c.844-.311 1.693-.454 2.74-.46 0-.004.01-.004.015-.004m2.789.893a.5.5 0 0 1-.173-.03c-.77-.256-1.62-.493-2.616-.493h-.02c-1.002.01-1.807.143-2.616.44a.545.545 0 0 1-.682-.736.52.52 0 0 1 .306-.282c.928-.34 1.847-.493 2.982-.503 1.165.01 2.162.276 2.987.553a.53.53 0 0 1 .31.271.55.55 0 0 1 .03.415.53.53 0 0 1-.508.365M7.99 5.744c-1.604 0-3.258.346-4.295.913a.17.17 0 0 0-.069.232.175.175 0 0 0 .232.07c1.052-.573 2.849-.919 4.453-.864 1.506.044 2.913.345 3.954.849a.18.18 0 0 0 .133.01.17.17 0 0 0 .1-.084.18.18 0 0 0 .01-.134.16.16 0 0 0-.09-.098c-1.086-.524-2.537-.84-4.092-.884-.114-.005-.222-.01-.336-.01M3.78 7.348a.54.54 0 0 1-.257-1.017c1.16-.631 3.045-1.007 4.813-.952 1.604.05 3.115.375 4.245.923a.55.55 0 0 1 .277.31.53.53 0 0 1-.025.416.56.56 0 0 1-.306.276.53.53 0 0 1-.415-.025c-.997-.484-2.345-.77-3.806-.814-1.555-.055-3.263.276-4.265.82a.6.6 0 0 1-.262.063"/>
</svg>