<svg xmlns="http://www.w3.org/2000/svg" width="16" height="16" fill="currentColor" class="si si-spotify_" viewBox="0 0 16 16">
  <path fill-rule="evenodd" d="M7.267 1.043a9 9 0 0 0-.627.103 7.07 7.07 0 0 0-5.039 4.027 8.4 8.4 0 0 0-.438 1.334 7.25 7.25 0 0 0-.014 2.93 7.06 7.06 0 0 0 3.744 4.831c.998.492 1.965.72 3.067.723a6.5 6.5 0 0 0 1.935-.258 6.77 6.77 0 0 0 2.981-1.731c1.15-1.12 1.852-2.522 2.071-4.132a7.8 7.8 0 0 0-.026-1.9c-.218-1.384-.888-2.738-1.785-3.606-.179-.173-.212-.194-.276-.179-.086.02-.167.106-.167.178 0 .027.103.161.228.297a6.3 6.3 0 0 1 1.369 2.324c.227.69.323 1.299.323 2.035a6.6 6.6 0 0 1-2.657 5.29 6.64 6.64 0 0 1-5.076 1.225 6.65 6.65 0 0 1-4.825-3.611c-.453-.93-.637-1.688-.661-2.73-.028-1.188.157-2.062.645-3.06a6 6 0 0 1 1.28-1.787 6.2 6.2 0 0 1 1.805-1.293c.885-.432 1.701-.629 2.719-.659.815-.023 1.426.062 2.154.301a7 7 0 0 1 1.33.623c.235.15.316.165.402.074.12-.128.072-.212-.228-.399a6.4 6.4 0 0 0-2.394-.904c-.371-.063-1.429-.09-1.84-.046m-.254 4.373c-.469.043-1.137.147-1.597.25-.717.16-1.601.479-1.92.692a.533.533 0 0 0-.079.834c.206.195.368.192.832-.015.76-.339 1.654-.561 2.711-.676.449-.049 1.704-.04 2.213.015 1.075.117 1.93.326 2.75.674.366.155.458.169.626.092a.53.53 0 0 0 .135-.899 2.3 2.3 0 0 0-.397-.207c-.816-.348-1.796-.592-2.914-.723-.443-.053-1.931-.076-2.36-.037m1.534.345c.884.047 1.549.141 2.285.321.615.151 1.391.426 1.613.572.12.079.055.306-.088.306-.034 0-.169-.047-.3-.105-2.276-1.002-5.866-1.002-7.974 0a3 3 0 0 1-.309.132c-.066 0-.174-.111-.174-.177 0-.099.106-.179.422-.318.897-.395 2.078-.658 3.281-.73a8.5 8.5 0 0 1 1.244-.001M7.36 7.51c-.854.063-2.075.309-2.78.56-.323.115-.464.299-.439.575.017.191.094.321.241.407.186.109.286.11.631.006a10 10 0 0 1 1.551-.362 8.3 8.3 0 0 1 1.583-.12c.704.002 1.068.039 1.704.173.414.087.996.25 1.329.372.358.132.579.108.75-.081a.52.52 0 0 0 .1-.574c-.088-.194-.198-.261-.695-.425a11 11 0 0 0-2.055-.482c-.298-.041-1.579-.074-1.92-.049m1.161.356c.966.049 1.77.205 2.743.533.411.138.448.163.438.288-.007.073-.026.108-.079.137-.065.036-.098.03-.48-.097-1.195-.398-2.049-.531-3.234-.506a10.4 10.4 0 0 0-2.943.476c-.297.095-.401.093-.459-.01-.036-.066-.036-.081 0-.147.052-.092.282-.177.933-.344a11 11 0 0 1 2.293-.338c.11-.004.218-.01.24-.012.022-.003.269.006.548.02M7.507 9.591a8.7 8.7 0 0 0-2.249.413c-.271.088-.346.124-.429.207a.533.533 0 0 0 .071.813c.175.123.306.122.705-.006A7.4 7.4 0 0 1 7.6 10.67c.973-.042 1.719.062 2.766.386.393.122.498.135.635.082a.531.531 0 0 0 .041-.977c-.124-.063-.838-.274-1.219-.36a8.3 8.3 0 0 0-2.316-.21m1.46.42c.549.078 1.466.298 1.846.442.169.064.225.193.13.298-.063.069-.141.062-.49-.046-.909-.281-1.679-.412-2.424-.412-.897 0-1.828.144-2.57.398-.129.044-.255.073-.28.064-.135-.048-.181-.184-.094-.28.052-.058.594-.234 1.01-.328a9 9 0 0 1 1.132-.173c.36-.033 1.399-.011 1.74.037"/>
</svg>