<svg xmlns="http://www.w3.org/2000/svg" width="16" height="16" fill="currentColor" class="si si-Staricons" viewBox="0 0 16 16">
  <g clip-path="url(#a)">
    <path stroke="#3D3D3D" stroke-linecap="round" stroke-linejoin="round" d="m10.044 4.128.256.534c.073.115.146.229.255.343.11.077.256.153.366.153l3.358.534c.146.038.292.076.438.19.11.115.22.23.256.382.036.153.036.305 0 .496a.9.9 0 0 1-.22.42l-2.445 2.48a.9.9 0 0 0-.22.343c-.036.152-.036.267-.036.42l.584 3.509c.037.152 0 .343-.036.496a.96.96 0 0 1-.292.381c-.11.115-.292.153-.438.153a.84.84 0 0 1-.438-.115l-3.03-1.64A.7.7 0 0 0 8 13.093a.8.8 0 0 0-.402.114l-3.03 1.679A.94.94 0 0 1 4.13 15c-.146 0-.292-.076-.438-.153a1.5 1.5 0 0 1-.292-.381c-.073-.153-.073-.305-.036-.496l.584-3.51c.036-.152 0-.267-.037-.42a.56.56 0 0 0-.219-.342l-2.446-2.48a.9.9 0 0 1-.219-.42 1.1 1.1 0 0 1 0-.496.7.7 0 0 1 .256-.381.6.6 0 0 1 .438-.19l3.359-.497c.146-.038.255-.076.365-.152.11-.077.182-.191.255-.305l1.57-3.32a.73.73 0 0 1 .328-.343A.94.94 0 0 1 8.037 1c.146 0 .328.038.438.114s.219.191.292.344l.365.8m0 0 .11.23"/>
  </g>
  <defs>
    <clipPath id="a">
      <path d="M0 0h16v16H0z"/>
    </clipPath>
  </defs>
</svg>