<svg xmlns="http://www.w3.org/2000/svg" width="16" height="16" fill="currentColor" class="si si-star_" viewBox="0 0 16 16">
  <path fill-rule="evenodd" d="M7.707.55c-.34.091-.619.278-.778.52-.052.079-.439.875-.861 1.77a63 63 0 0 1-.832 1.729.4.4 0 0 1-.156.139c-.049.021-.868.152-1.818.292a71 71 0 0 0-1.848.285c-.065.017-.17.061-.234.096-.161.09-.463.396-.533.539-.194.403-.184.901.027 1.332.076.154.238.329 1.406 1.515.968.983 1.329 1.367 1.354 1.438.031.089.006.267-.273 1.957-.17 1.027-.308 1.937-.308 2.032 0 .339.149.652.452.954.275.273.738.4 1.129.308.228-.053.18-.028 1.969-1.02 1.113-.616 1.533-.836 1.596-.836s.526.238 1.711.879c.908.492 1.691.899 1.777.924.193.057.559.058.746.002.409-.122.798-.568.876-1.005.02-.11.036-.25.037-.312 0-.061-.131-.904-.293-1.873-.161-.97-.293-1.833-.293-1.92 0-.132.012-.172.073-.246.04-.049.639-.662 1.331-1.363 1.34-1.359 1.378-1.404 1.479-1.766.057-.205.049-.688-.015-.853a1.5 1.5 0 0 0-.351-.521 1.8 1.8 0 0 0-.61-.316 86 86 0 0 0-1.8-.296 133 133 0 0 1-1.736-.282c-.066-.02-.186-.209-.352-.55-.163-.336-.221-.398-.426-.453a.485.485 0 0 0-.556.283c-.079.174-.064.265.107.632.17.366.309.588.476.759.119.123.43.29.585.314 2.608.413 3.46.554 3.533.585q.273.114.172.485c-.014.054-.265.326-.786.853-1.842 1.862-1.88 1.903-1.986 2.12a1.2 1.2 0 0 0-.126.453l-.029.254.309 1.849c.212 1.267.304 1.88.292 1.944a.5.5 0 0 1-.097.183c-.154.176-.11.194-1.928-.791-.894-.484-1.691-.9-1.771-.923a1.3 1.3 0 0 0-.735.021c-.106.037-.868.442-1.773.943-1.798.997-1.718.965-1.897.763-.058-.065-.103-.144-.103-.179s.138-.892.307-1.905.306-1.894.306-1.958-.018-.203-.04-.307c-.084-.401-.039-.347-1.489-1.814-.983-.994-1.345-1.377-1.384-1.464-.102-.227-.001-.488.205-.522.045-.008.82-.121 1.722-.253.902-.131 1.71-.258 1.795-.281.177-.047.389-.148.52-.248.211-.161.317-.355 1.137-2.087.445-.94.83-1.731.856-1.76.05-.055.195-.104.31-.105.13 0 .2.103.462.675.139.305.279.589.31.631a.65.65 0 0 0 .377.188c.178 0 .368-.12.446-.28.097-.2.078-.277-.215-.913a16 16 0 0 0-.33-.687 1.7 1.7 0 0 0-.489-.464A1.42 1.42 0 0 0 7.707.55"/>
</svg>