<svg xmlns="http://www.w3.org/2000/svg" width="16" height="16" fill="currentColor" class="si si-Sun_stroke_icons" viewBox="0 0 16 16">
  <path stroke="#3D3D3D" stroke-linecap="round" stroke-miterlimit="10" stroke-width=".75" d="M23.934 2v3.55M46 24.041h-3.581M39.585 8.136l-2.587 2.853M2 24.041h3.581M8.4 8.136l2.602 2.853M23.934 46v-3.566m15.651-2.57-2.587-2.853M8.4 39.864l2.602-2.853m20.84-20.565a10.97 10.97 0 0 1 3.017 7.579 10.82 10.82 0 0 1-6.757 9.925 10.806 10.806 0 0 1-14.668-7.992 10.82 10.82 0 0 1 4.67-11.063 10.8 10.8 0 0 1 6.012-1.783 10.5 10.5 0 0 1 3.531.597"/>
</svg>