<svg xmlns="http://www.w3.org/2000/svg" width="16" height="16" fill="currentColor" class="si si-sun_stroke__" viewBox="0 0 16 16">
  <path fill-rule="evenodd" d="M7.815.339a.5.5 0 0 0-.146.123c-.052.07-.056.117-.064.733-.005.405.002.695.019.753.093.315.541.359.68.068.036-.076.043-.201.043-.767-.001-.623-.005-.682-.052-.761-.105-.172-.313-.237-.48-.149M2.667 2.364a.5.5 0 0 0-.203.201.34.34 0 0 0-.003.292c.045.1.95 1.087 1.038 1.132.101.053.26.047.36-.015a.376.376 0 0 0 .095-.539 34 34 0 0 0-.951-1.032c-.048-.04-.27-.066-.336-.039m10.356.029c-.07.039-.73.744-.976 1.042a.374.374 0 0 0 .094.539.41.41 0 0 0 .35.022c.095-.043.997-1.043 1.045-1.159.127-.303-.224-.606-.513-.444M7.499 4.031c-.638.08-1.338.37-1.881.779-1.356 1.02-1.905 2.808-1.362 4.438a3.976 3.976 0 0 0 5.586 2.257c.713-.356 1.383-1.044 1.751-1.8.678-1.392.461-3.084-.551-4.292-.205-.244-.275-.293-.425-.293-.22 0-.364.143-.364.364 0 .116.014.154.087.24.331.394.52.691.659 1.035.359.89.324 1.839-.098 2.662a3.22 3.22 0 0 1-2.153 1.702 3.7 3.7 0 0 1-1.239.04c-.74-.127-1.267-.402-1.789-.934a3.3 3.3 0 0 1-.436-.53 3.25 3.25 0 0 1 .168-3.692c.161-.214.519-.55.753-.707.41-.274.912-.466 1.388-.529a3.6 3.6 0 0 1 1.22.071c.348.094.468.106.564.056a.33.33 0 0 0 .19-.245c.053-.238-.063-.385-.38-.478a4.1 4.1 0 0 0-1.688-.144M.467 7.706a.4.4 0 0 0-.174.303c0 .115.076.25.173.311.082.05.132.053.81.053h.722l.093-.081c.183-.161.183-.396.001-.556l-.094-.083-.726.001c-.677 0-.731.003-.805.052m13.441.03c-.185.162-.184.393.001.556l.093.081h.722c.678 0 .728-.003.81-.053a.4.4 0 0 0 .173-.307.4.4 0 0 0-.173-.306c-.082-.05-.132-.054-.81-.054h-.722zM3.493 12.012c-.085.047-.989 1.037-1.032 1.131-.067.149-.028.299.112.43.059.055.098.067.225.067.097 0 .172-.015.202-.04a34 34 0 0 0 .954-1.035c.136-.166.078-.453-.111-.55a.43.43 0 0 0-.35-.003m8.648.014a.374.374 0 0 0-.094.539c.246.298.906 1.003.976 1.042.289.162.64-.141.513-.444-.048-.116-.95-1.116-1.045-1.159a.41.41 0 0 0-.35.022m-4.362 1.808a.4.4 0 0 0-.127.154c-.047.099-.052.167-.052.76 0 .568.006.664.047.743.134.263.474.28.639.032.059-.089.061-.108.061-.768 0-.755-.012-.821-.165-.914a.44.44 0 0 0-.403-.007"/>
</svg>