<svg xmlns="http://www.w3.org/2000/svg" width="16" height="16" fill="currentColor" class="si si-Targeticons" viewBox="0 0 16 16">
  <g clip-path="url(#a)">
    <path d="M7.994 16C3.586 16 0 12.41 0 8.003 0 3.589 3.608 0 8.05 0a7.2 7.2 0 0 1 2.267.35c.113.04.17.158.135.265a.21.21 0 0 1-.265.136 6.7 6.7 0 0 0-2.13-.328C3.85.423.427 3.821.427 7.997S3.822 15.571 8 15.571c4.172 0 7.571-3.397 7.571-7.574 0-.728-.135-1.546-.383-2.365a.212.212 0 1 1 .406-.124c.265.858.406 1.722.406 2.49C15.989 12.415 12.403 16 7.994 16"/>
    <path d="M7.994 13.297a5.24 5.24 0 0 1-5.232-5.238 5.24 5.24 0 0 1 5.232-5.237c.615 0 1.116.079 1.494.243a.21.21 0 0 1 .113.276.213.213 0 0 1-.276.113c-.322-.136-.767-.209-1.325-.209a4.815 4.815 0 0 0-4.81 4.809A4.816 4.816 0 0 0 8 12.868a4.81 4.81 0 0 0 4.803-4.814c0-.486-.084-.949-.27-1.513a.205.205 0 0 1 .135-.265.204.204 0 0 1 .265.135c.197.599.293 1.123.293 1.648-.006 2.884-2.35 5.238-5.232 5.238"/>
    <path d="M7.994 10.475a2.474 2.474 0 0 1-2.47-2.472 2.474 2.474 0 0 1 2.47-2.472.214.214 0 0 1 0 .429c-1.127 0-2.04.92-2.04 2.043 0 1.128.918 2.043 2.04 2.043s2.047-.92 2.047-2.043a.214.214 0 1 1 .428 0 2.486 2.486 0 0 1-2.475 2.472"/>
    <path d="M11.81 4.126h1.732l1.55-1.592-1.51.04a.26.26 0 0 1-.159-.063.22.22 0 0 1-.062-.158l.04-1.5-1.59 1.59zM7.995 8.217a.2.2 0 0 1-.146-.062.21.21 0 0 1 0-.299l3.546-3.606V2.359q.001-.084.062-.152l2.03-2.032a.21.21 0 0 1 .23-.045c.08.034.13.113.13.197l-.05 1.806 1.803-.05c.108-.006.164.045.198.124a.21.21 0 0 1-.045.231L13.778 4.47a.22.22 0 0 1-.152.062h-1.94L8.142 8.138a.17.17 0 0 1-.147.08"/>
  </g>
  <defs>
    <clipPath id="a">
      <path d="M0 0h16v16H0z"/>
    </clipPath>
  </defs>
</svg>