<svg xmlns="http://www.w3.org/2000/svg" width="16" height="16" fill="currentColor" class="si si-target_" viewBox="0 0 16 16">
  <path fill-rule="evenodd" d="m7.56.016-.4.039C5.218.246 3.266 1.266 1.969 2.768.923 3.979.302 5.349.063 6.973c-.067.453-.067 1.602 0 2.054.242 1.643.869 3.032 1.898 4.21q1.946 2.225 4.945 2.69c.295.046.489.056 1.067.058.758.001 1.056-.027 1.68-.161a8.03 8.03 0 0 0 5.959-5.395 7.7 7.7 0 0 0 .268-3.722c-.072-.427-.233-1.075-.301-1.213-.082-.168-.298-.177-.375-.016-.034.069-.028.11.058.426.107.392.21.91.261 1.309.044.345.044 1.251 0 1.627-.357 3.039-2.493 5.578-5.406 6.427-.726.212-1.29.29-2.104.291-.898.001-1.563-.102-2.373-.37C2.823 14.259.83 11.808.477 8.84a10.5 10.5 0 0 1 0-1.68A7.62 7.62 0 0 1 5.693.801c.398-.13.898-.244 1.36-.312C7.455.431 8.576.423 8.96.476c.344.048.85.155 1.088.231.156.049.212.056.275.035a.202.202 0 0 0 .07-.336C10.289.308 9.64.146 9.027.065 8.741.027 7.774-.005 7.56.016m6.013.109c-.06.021-2.104 2.064-2.148 2.147-.031.059-.038.249-.038 1.033v.96L9.6 6.08C8.523 7.175 7.807 7.923 7.797 7.963c-.035.14.099.277.234.24.034-.01.866-.838 1.849-1.841l1.787-1.824 1-.003c.731-.003 1.014-.012 1.054-.036.068-.041 1.994-2.02 2.054-2.111a.2.2 0 0 0 .025-.148c-.035-.161-.037-.162-1.063-.13-.51.016-.932.024-.937.019s.003-.415.018-.91c.03-.972.025-1.025-.101-1.082-.071-.033-.083-.034-.144-.012m-.189 1.496c-.013.451-.012.78.002.818.048.126.088.13.931.11l.785-.018-.781.801-.781.801h-1.727V2.44l.792-.792c.436-.436.794-.79.797-.787.002.003-.006.345-.018.76M7.36 2.865a5.27 5.27 0 0 0-4.374 3.703 5.6 5.6 0 0 0-.188 2.046 5.24 5.24 0 0 0 3.869 4.503 5.4 5.4 0 0 0 2.586.017 5.3 5.3 0 0 0 3.357-2.629 5.9 5.9 0 0 0 .567-1.758 6 6 0 0 0-.025-1.467c-.077-.426-.226-.907-.3-.966q-.117-.094-.248.008c-.091.071-.09.131.009.473.149.516.173.693.173 1.272.001.841-.138 1.442-.5 2.16a4.81 4.81 0 0 1-5.797 2.399 4.84 4.84 0 0 1-3.071-3.109c-.176-.55-.203-.745-.203-1.464 0-.58.007-.684.061-.933.323-1.492 1.252-2.702 2.588-3.372.687-.344 1.338-.495 2.144-.495.586 0 .761.026 1.318.191.103.03.12.028.187-.021a.22.22 0 0 0 .051-.287c-.048-.074-.361-.182-.701-.244-.324-.059-1.142-.074-1.503-.027m.133 2.723c-.26.056-.527.16-.762.298a2.9 2.9 0 0 0-.872.887c-.234.42-.362.963-.326 1.387a2.5 2.5 0 0 0 1.434 2.08c.336.158.633.222 1.02.221.358-.001.596-.044.913-.167.863-.334 1.5-1.203 1.546-2.109l.014-.282-.076-.06c-.056-.045-.098-.056-.157-.045-.12.023-.167.099-.186.302-.072.773-.461 1.376-1.106 1.711a2.04 2.04 0 0 1-2.818-1.002 2.5 2.5 0 0 1-.17-.8 2.3 2.3 0 0 1 .264-1.005c.35-.609.942-.975 1.689-1.045.225-.021.297-.073.297-.212 0-.155-.075-.201-.327-.198a2.3 2.3 0 0 0-.377.039"/>
</svg>