<svg xmlns="http://www.w3.org/2000/svg" width="16" height="16" fill="currentColor" class="si si-tiktok_" viewBox="0 0 16 16">
  <path fill-rule="evenodd" d="m8.538 1.075-.058.062-.026 4.371c-.032 5.237-.033 5.297-.094 5.559-.193.822-.819 1.303-1.761 1.352-.99.051-1.808-.544-2.042-1.486a2.8 2.8 0 0 1-.001-.88c.052-.215.248-.603.396-.786.169-.207.394-.387.631-.502.255-.125.437-.175.737-.202.378-.035.347.085.347-1.326 0-1.406.03-1.291-.34-1.29-.472.001-1.075.124-1.598.324-.329.127-.409.184-.409.293 0 .112.039.173.133.205.07.025.117.014.341-.075a5 5 0 0 1 1.319-.331l.127-.015v1.806l-.152.019c-.503.063-1.101.399-1.444.812a2.33 2.33 0 0 0-.426 2.261c.346 1.044 1.384 1.696 2.516 1.581.367-.038.643-.113.933-.253.684-.333 1.077-.937 1.157-1.78.014-.152.033-1.898.041-3.914.009-2.002.023-4.051.032-4.553l.017-.914h1.61l.045.269c.206 1.261 1.074 2.263 2.315 2.676.274.091.677.175.843.175h.086v1.901l-.22-.018c-.778-.064-1.695-.404-2.467-.913-.186-.123-.366-.223-.4-.223a.2.2 0 0 0-.123.062c-.062.061-.062.068-.079.926-.009.476-.024 1.645-.032 2.599-.016 1.805-.033 2.176-.119 2.601a4.2 4.2 0 0 1-.607 1.463c-.3.449-.903.983-1.385 1.225a4.48 4.48 0 0 1-3.342.246 3.9 3.9 0 0 1-1.627-1.014 3.8 3.8 0 0 1-.795-1.085c-.577-1.148-.569-2.555.02-3.65.147-.272.222-.386.416-.626.136-.168.174-.234.174-.304 0-.115-.08-.187-.206-.187-.083 0-.114.02-.227.145-.67.749-1.08 1.943-1.025 2.986a4.55 4.55 0 0 0 2.585 3.894c.179.086.438.193.575.238a4.93 4.93 0 0 0 2.701.071c1.83-.465 3.066-1.937 3.248-3.87.015-.161.04-1.366.055-2.678s.033-2.39.038-2.396c.006-.006.113.051.237.125.793.478 1.866.802 2.652.802.197 0 .252-.009.304-.051l.063-.051.007-1.23.008-1.23-.079-.079c-.071-.071-.096-.079-.251-.079-.223 0-.591-.064-.857-.149a3 3 0 0 1-1.953-1.891 3 3 0 0 1-.142-.786c0-.115-.014-.171-.055-.223l-.056-.071H8.596z"/>
</svg>