<svg xmlns="http://www.w3.org/2000/svg" width="16" height="16" fill="currentColor" class="si si-TikTok" viewBox="0 0 16 16">
  <path d="M6.36 15.026c-2.53 0-4.594-2.038-4.594-4.549 0-1.077.405-2.131 1.11-2.884a.21.21 0 0 1 .294-.011.206.206 0 0 1 .011.291c-.633.681-.999 1.632-.999 2.61 0 2.28 1.876 4.137 4.178 4.137 2.425 0 4.117-1.698 4.117-4.137l.056-5a.2.2 0 0 1 .117-.181.2.2 0 0 1 .216.022c.904.67 1.942 1.06 2.94 1.11V4.538c-1.753-.099-3.162-1.445-3.267-3.126H8.896l-.055 9.082c0 1.73-1.227 2.346-2.375 2.346-1.332 0-2.375-1.033-2.375-2.352 0-1.225.954-2.236 2.164-2.34V6.35a4.6 4.6 0 0 0-1.648.418.21.21 0 0 1-.277-.105.206.206 0 0 1 .105-.274 4.95 4.95 0 0 1 2.03-.456.21.21 0 0 1 .212.208V8.34a.21.21 0 0 1-.211.209 1.95 1.95 0 0 0-1.959 1.94c0 1.087.86 1.939 1.959 1.939.46 0 1.958-.138 1.958-1.94l.056-9.285c0-.115.094-.203.21-.203h2.054a.21.21 0 0 1 .21.209c0 1.615 1.377 2.928 3.07 2.928a.21.21 0 0 1 .21.209v2.307a.21.21 0 0 1-.21.21c-1.033 0-2.11-.341-3.07-.968l-.05 4.61c-.01 2.648-1.875 4.521-4.544 4.521"/>
</svg>