<svg xmlns="http://www.w3.org/2000/svg" width="16" height="16" fill="currentColor" class="si si-Time_stroke" viewBox="0 0 16 16">
  <path stroke="#3D3D3D" stroke-linecap="round" stroke-linejoin="round" stroke-width=".75" d="M40.373 23.822H38.87m-31.384.032h1.486m3.392-11.702 1.081 1.195m22.307-1.162-1.194 1.081m-10.58 27.133v-1.485m0-29.877V7.552m11.71 28.021-1.082-1.195m-22.404 1.243 1.082-1.178m10.742-20.112v9.653m.049.032h9.449m6.267-15.334a20.15 20.15 0 0 1 6.122 13.38 21.97 21.97 0 0 1-2.611 12.503 22 22 0 0 1-9.127 8.942 22.01 22.01 0 0 1-24.316-2.65 21.968 21.968 0 0 1 .393-34.003c3.4-2.72 7.53-4.37 11.868-4.741A20.3 20.3 0 0 1 35.414 5.34"/>
</svg>