<svg xmlns="http://www.w3.org/2000/svg" width="16" height="16" fill="currentColor" class="si si-time_stroke__" viewBox="0 0 16 16">
  <path fill-rule="evenodd" d="M7.587.312c-1.179.101-2.069.34-3.014.807-.78.386-1.344.795-2.002 1.453-.613.611-.972 1.086-1.346 1.778a7.69 7.69 0 0 0 .193 7.646c.359.588.675.985 1.183 1.487 1.211 1.196 2.686 1.913 4.452 2.161.465.066 1.431.066 1.905 0 1.734-.24 3.234-.97 4.437-2.159a7.2 7.2 0 0 0 1.231-1.562c.595-1.006.936-2.078 1.047-3.296a8.7 8.7 0 0 0-.169-2.48A7.8 7.8 0 0 0 14.626 4c-.342-.552-1.024-1.362-1.212-1.44a.37.37 0 0 0-.506.418c.011.055.102.176.261.347.464.501.773.934 1.057 1.482.367.71.595 1.46.679 2.24.25 2.301-.449 4.344-2.021 5.907a6.93 6.93 0 0 1-5.124 1.997c-2.389-.087-4.493-1.333-5.744-3.4-.95-1.569-1.224-3.577-.733-5.364a6.98 6.98 0 0 1 5.344-4.998c1.724-.344 3.365-.075 4.786.785.314.19.39.209.541.135a.35.35 0 0 0 .213-.341c-.003-.157-.056-.229-.277-.372C10.812.698 9.35.281 8.044.298a8 8 0 0 0-.457.014m.333 1.843a.4.4 0 0 0-.256.196c-.033.064-.04.155-.033.45.009.366.01.37.087.45.197.206.49.164.604-.088.057-.124.071-.569.025-.738a.39.39 0 0 0-.427-.27M3.95 3.726c-.121.059-.19.179-.19.33 0 .144.051.222.351.535.166.173.213.207.309.222a.367.367 0 0 0 .425-.337c.016-.139-.031-.216-.318-.533-.241-.265-.376-.316-.577-.217m7.871-.028c-.063.013-.456.345-.575.487-.088.104-.111.185-.088.308a.376.376 0 0 0 .468.284c.061-.019.191-.121.366-.289.228-.219.275-.278.29-.365.044-.249-.202-.476-.461-.425m-3.987.757c-.203.107-.194.018-.194 1.932 0 1.592.003 1.712.048 1.794a.44.44 0 0 0 .133.14c.083.05.146.052 1.766.052 1.629 0 1.682-.001 1.767-.053a.363.363 0 0 0-.023-.647c-.083-.042-.212-.046-1.524-.046H8.375l-.008-1.505-.007-1.504-.067-.073a.46.46 0 0 0-.299-.144.5.5 0 0 0-.16.054M2.359 7.611a.36.36 0 0 0-.226.331c.001.157.07.274.199.336.081.038.158.045.454.037.338-.008.36-.012.428-.075.214-.201.182-.494-.068-.62-.117-.059-.659-.065-.787-.009m10.454-.012a.38.38 0 0 0-.181.506c.091.173.159.201.529.211.292.008.344.003.446-.046a.35.35 0 0 0 .213-.34.37.37 0 0 0-.194-.317c-.085-.044-.715-.055-.813-.014m-1.472 3.547c-.11.067-.168.181-.168.331 0 .105.017.14.132.275.271.32.387.428.488.456a.37.37 0 0 0 .463-.43c-.02-.106-.426-.581-.553-.646a.4.4 0 0 0-.362.014m-7.101.021a4.4 4.4 0 0 0-.461.482c-.186.228-.013.591.282.591.149 0 .223-.049.453-.303.298-.327.336-.424.243-.619-.085-.179-.361-.26-.517-.151m3.51 1.534a.44.44 0 0 0-.11.158c-.01.038-.014.225-.009.416.008.328.013.352.076.419.102.109.207.154.325.138.249-.033.34-.191.341-.592 0-.333-.029-.44-.148-.544-.08-.071-.115-.083-.237-.083-.126 0-.156.011-.238.088"/>
</svg>