<svg xmlns="http://www.w3.org/2000/svg" width="16" height="16" fill="currentColor" class="si si-Timei" viewBox="0 0 16 16">
  <g stroke="#3D3D3D" stroke-linecap="round" stroke-linejoin="round" clip-path="url(#a)">
    <path stroke-width=".65" d="M13.458 7.94h-.501m-10.462.011h.496m1.13-3.901.36.399m7.436-.387-.398.36m-3.526 9.044v-.495m0-9.959v-.495m3.903 9.341-.36-.399m-7.469.415.36-.393m3.582-6.704v3.218m.016.01h3.15"/>
    <path stroke-width=".75" d="M13.264 2.894a6.72 6.72 0 0 1 2.04 4.46 7.32 7.32 0 0 1-3.912 7.148 7.338 7.338 0 0 1-10.433-4.45 7.32 7.32 0 0 1 2.458-7.767A7.34 7.34 0 0 1 7.373.705a6.77 6.77 0 0 1 4.432 1.075"/>
  </g>
  <defs>
    <clipPath id="a">
      <path d="M0 0h16v16H0z"/>
    </clipPath>
  </defs>
</svg>