<svg xmlns="http://www.w3.org/2000/svg" width="16" height="16" fill="currentColor" class="si si-time_" viewBox="0 0 16 16">
  <path fill-rule="evenodd" d="M7.587.312c-1.179.101-2.069.34-3.014.807-.78.386-1.344.795-2.002 1.453-.613.611-.972 1.086-1.346 1.778a7.69 7.69 0 0 0 .193 7.646c.359.588.675.985 1.183 1.487 1.211 1.196 2.686 1.913 4.452 2.161.465.066 1.431.066 1.905 0 1.734-.24 3.234-.97 4.437-2.159a7.2 7.2 0 0 0 1.231-1.562c.595-1.006.936-2.078 1.047-3.296a8.7 8.7 0 0 0-.169-2.48A7.8 7.8 0 0 0 14.626 4c-.342-.552-1.024-1.362-1.212-1.44a.37.37 0 0 0-.506.418c.011.055.102.176.261.347.464.501.773.934 1.057 1.482.367.71.595 1.46.679 2.24.25 2.301-.449 4.344-2.021 5.907a6.93 6.93 0 0 1-5.124 1.997c-2.389-.087-4.493-1.333-5.744-3.4-.95-1.569-1.224-3.577-.733-5.364a6.98 6.98 0 0 1 5.344-4.998c1.724-.344 3.365-.075 4.786.785.314.19.39.209.541.135a.35.35 0 0 0 .213-.341c-.003-.157-.056-.229-.277-.372C10.812.698 9.35.281 8.044.298a8 8 0 0 0-.457.014m.291 1.912a.4.4 0 0 0-.14.11c-.053.066-.058.105-.058.418 0 .384.026.472.159.541a.323.323 0 0 0 .443-.159c.051-.124.052-.623 0-.746a.31.31 0 0 0-.404-.164m-3.923 1.56c-.11.069-.142.132-.142.281 0 .117.011.135.244.391.134.147.275.28.313.294.174.067.396-.07.421-.259.02-.144-.019-.21-.29-.5-.204-.218-.23-.237-.341-.248-.089-.009-.142.001-.205.041m7.871-.023c-.094.028-.542.423-.596.524-.056.107-.023.268.075.366.067.067.105.082.198.082.136 0 .234-.062.515-.328.15-.142.195-.203.21-.283a.315.315 0 0 0-.402-.361m-3.981.746c-.168.103-.165.069-.165 1.88 0 1.781-.002 1.758.147 1.875l.074.058h1.677c1.848 0 1.79.005 1.878-.165a.33.33 0 0 0-.068-.379l-.082-.083-1.493-.007-1.493-.007V6.185c0-1.652.005-1.605-.17-1.688-.121-.058-.198-.055-.305.01M2.359 7.663c-.113.051-.172.153-.172.296 0 .095.016.138.077.207l.078.087.36.009c.403.01.492-.015.564-.154a.3.3 0 0 0-.051-.368l-.091-.1-.342-.007c-.244-.004-.365.004-.423.03m10.435.005c-.092.05-.154.168-.154.291 0 .071.023.12.091.195l.091.099.343.008c.402.009.496-.022.578-.19.043-.088.046-.118.02-.205a.4.4 0 0 0-.112-.171c-.079-.066-.094-.068-.433-.067-.259.001-.371.011-.424.04m-8.462 3.509c-.104.028-.513.469-.559.603-.071.206.077.407.301.407.124 0 .13-.004.35-.233.256-.266.322-.363.323-.469a.4.4 0 0 0-.118-.256c-.061-.051-.205-.076-.297-.052m6.99.059c-.08.076-.095.108-.095.202 0 .062.014.138.031.17.063.12.455.522.535.55a.32.32 0 0 0 .412-.258c.019-.143-.023-.214-.303-.507-.232-.243-.237-.247-.36-.247-.105.001-.14.015-.22.09m-3.444 1.442a.4.4 0 0 0-.14.109c-.053.067-.058.105-.058.418 0 .388.026.472.165.544.102.053.268.037.347-.033.098-.087.128-.205.128-.503 0-.309-.035-.436-.138-.502a.33.33 0 0 0-.304-.033"/>
</svg>