<svg xmlns="http://www.w3.org/2000/svg" width="16" height="16" fill="currentColor" class="si si-Transmissionicons" viewBox="0 0 16 16">
  <path stroke="#3D3D3D" stroke-linecap="round" stroke-linejoin="round" stroke-width=".75" d="m15.698 30.308 16.45 15.847h4.093L26.715 2.034l11.74 7.043.72.42a1.56 1.56 0 0 1-.771 2.934H9.61a1.41 1.41 0 0 1-.738-2.616l1.677-1.107L21.4 2l-9.66 44.155h4.076L32.182 30.19"/>
  <path stroke="#3D3D3D" stroke-linecap="round" stroke-linejoin="round" stroke-width=".75" d="M18.414 13.52 9.51 20.23l-.905.687a1.476 1.476 0 0 0 .872 2.667H38.27a1.577 1.577 0 0 0 .905-2.901l-.687-.487-9.224-6.825"/>
</svg>