<svg xmlns="http://www.w3.org/2000/svg" width="16" height="16" fill="currentColor" class="si si-transformator_" viewBox="0 0 16 16">
  <path fill-rule="evenodd" d="M11.149.472c-.181.095-.201.152-.211.591l-.008.393-.379-.001c-.422-.002-.479.016-.579.18a.37.37 0 0 0 .136.503c.076.04.154.049.458.049h.367v.362c0 .278.01.384.043.453.125.262.537.262.661 0 .033-.068.043-.174.043-.439v-.35h.361c.387 0 .451-.016.569-.143.096-.102.107-.295.025-.417-.106-.158-.199-.186-.602-.186h-.353V1.1c0-.296-.009-.384-.047-.458-.095-.186-.31-.262-.484-.17M3.486 1.503c-.264.133-.266.482-.003.635.067.04.214.048 1.171.064 1.026.018 1.101.016 1.197-.029a.35.35 0 0 0 .202-.333.44.44 0 0 0-.05-.202c-.098-.161-.122-.164-1.317-.179-1.071-.013-1.089-.012-1.2.044M2.16 3.396c-.282.083-.49.21-.711.433a1.6 1.6 0 0 0-.434.796C.996 4.733.987 6.249.987 9.438c.001 3.982.006 4.682.04 4.842a1.6 1.6 0 0 0 .833 1.073c.345.173.506.198 1.226.188l.617-.008.082-.078c.19-.182.145-.475-.092-.61-.033-.02-.284-.036-.68-.045-.606-.013-.631-.016-.773-.083a1 1 0 0 1-.429-.418l-.064-.126V4.707l.061-.125a.93.93 0 0 1 .717-.502c.123-.019 1.915-.026 5.595-.021l5.413.008.152.061c.199.08.4.271.487.462l.069.149-.007 4.744c-.007 4.544-.009 4.747-.056 4.833a1.3 1.3 0 0 1-.355.38c-.217.134-.083.13-4.423.13-3.806.001-4.059.004-4.145.047a.34.34 0 0 0-.202.327.34.34 0 0 0 .202.327c.087.044.325.046 4.252.04 3.961-.007 4.167-.009 4.306-.056.564-.189.997-.63 1.133-1.152.036-.138.041-.73.041-4.897 0-3.335-.009-4.781-.03-4.881-.114-.551-.622-1.058-1.209-1.207-.14-.036-.843-.04-5.774-.039l-5.614.001zM7.627 5.47a.5.5 0 0 0-.13.085c-.082.076-1.737 3.386-1.737 3.473a.47.47 0 0 0 .145.305l.073.067.924.017a205 205 0 0 0 1.345.02l.42.003-.683 1.366c-.66 1.32-.683 1.369-.671 1.494.03.311.4.439.613.213.038-.04.436-.808.885-1.706.881-1.764.878-1.757.765-1.942-.103-.17-.112-.171-1.42-.174-.65-.001-1.234-.01-1.297-.02l-.115-.018.685-1.373c.516-1.036.684-1.397.684-1.471a.36.36 0 0 0-.486-.339"/>
</svg>