<svg xmlns="http://www.w3.org/2000/svg" width="16" height="16" fill="currentColor" class="si si-Transformator" viewBox="0 0 16 16">
  <path stroke="#3D3D3D" stroke-linecap="round" stroke-linejoin="round" stroke-width=".75" d="m17.088 5.524-6.122-.063M33.92 2.4v6.121m3.061-2.997-6.12-.063M10.619 45.552H7.932a4.1 4.1 0 0 1-1.484-.291 3.9 3.9 0 0 1-1.254-.806 3.7 3.7 0 0 1-.831-1.197 3.5 3.5 0 0 1-.283-1.407v-27.12a3.57 3.57 0 0 1 1.132-2.573 4 4 0 0 1 2.72-1.08h32.1a4 4 0 0 1 2.727 1.103 3.56 3.56 0 0 1 1.109 2.598V41.9c.009.97-.39 1.905-1.109 2.598a4 4 0 0 1-2.727 1.103H16.246"/>
  <path stroke="#3D3D3D" stroke-linecap="round" stroke-linejoin="round" stroke-width=".75" d="m23.25 17.444-4.842 9.699 9.39.048-4.792 9.587"/>
</svg>