<svg xmlns="http://www.w3.org/2000/svg" width="16" height="16" fill="currentColor" class="si si-transmission_" viewBox="0 0 16 16">
  <path fill-rule="evenodd" d="M6.853.408C6.492.616 3.3 2.599 2.97 2.82c-.362.243-.494.378-.56.577a.85.85 0 0 0 .395 1.018l.142.078 1.277.014 1.278.013-1.398 1.053a55 55 0 0 0-1.535 1.181c-.191.18-.261.346-.26.619 0 .16.015.245.058.34a.9.9 0 0 0 .44.437l.166.077 1.063.008 1.062.008-.014.059c-.109.447-1.537 7.045-1.537 7.103 0 .107.099.251.214.308.081.041.181.047.839.047.662 0 .757-.005.831-.047.046-.025.631-.58 1.301-1.233a73 73 0 0 1 1.24-1.195c.012-.004.585.534 1.272 1.197s1.288 1.221 1.335 1.241c.066.028.259.037.827.037.652 0 .752-.006.832-.047a.36.36 0 0 0 .203-.274c.009-.062-.238-1.254-.755-3.644l-.768-3.552 1.028-.008 1.027-.008.16-.075a.89.89 0 0 0 .518-.978c-.048-.247-.163-.415-.411-.601l-1.494-1.106-1.279-.947 1.293-.013c1.255-.013 1.297-.015 1.418-.071.363-.168.586-.588.509-.958a.9.9 0 0 0-.257-.485c-.061-.057-1.076-.682-2.257-1.388C9.193.42 9.016.32 8.906.32a.4.4 0 0 0-.201.05.42.42 0 0 0-.171.301c.001.034.148.74.328 1.569l.326 1.507-.596.007c-.327.004-.856.004-1.174 0l-.579-.007.325-1.48c.179-.814.327-1.533.328-1.597a.37.37 0 0 0-.363-.377.9.9 0 0 0-.276.115M6.573 1.5c-.006.018-.114.507-.24 1.087L6.089 3.7l-.015.06H4.6c-1.286 0-1.476-.005-1.49-.04-.028-.075.014-.117.312-.311.424-.277 3.119-1.942 3.143-1.942.011 0 .015.015.008.033m4.643.997c1.793 1.075 1.79 1.073 1.719 1.207-.03.056-.036.056-1.509.056-.814 0-1.479-.004-1.479-.009s-.108-.508-.24-1.118c-.245-1.13-.252-1.166-.225-1.166.008 0 .788.463 1.734 1.03M9.36 4.525c0 .025.611 2.861.629 2.922.014.044-.092.046-1.974.046-1.094 0-1.988-.008-1.988-.018s.144-.675.32-1.479c.176-.805.32-1.468.32-1.476 0-.007.606-.013 1.346-.013s1.347.008 1.347.018M5.498 6.413 5.263 7.48l-1.059.007c-.72.005-1.077-.002-1.113-.022-.038-.02-.052-.05-.046-.099.007-.058.236-.242 1.342-1.075.733-.552 1.336-.991 1.339-.974.003.016-.099.51-.228 1.096m6.075-.15c.638.471 1.205.893 1.26.938.112.092.126.16.047.239-.052.052-.089.053-1.093.053-.572 0-1.04-.01-1.04-.023s-.102-.494-.227-1.07-.227-1.053-.227-1.06c0-.021.077.034 1.28.923M10.196 8.42l.166.767.124.586-.529.522c-1.008.993-1.964 1.918-1.981 1.918-.033 0-2.456-2.348-2.457-2.381-.001-.018.074-.383.167-.812l.167-.78h4.303zm.949 4.393c.252 1.174.463 2.149.469 2.167.008.026-.077.033-.368.033h-.38l-.946-.908c-.521-.5-1.049-1.011-1.173-1.135l-.227-.227 1.067-1.049c.586-.577 1.074-1.042 1.083-1.032s.223.978.475 2.151m-4.754-1.08c.57.549 1.036 1.006 1.036 1.015s-.518.522-1.152 1.141l-1.151 1.124h-.377c-.347 0-.376-.003-.364-.046a666 666 0 0 0 .924-4.234c0-.01.011-.013.024-.009.013.005.49.459 1.06 1.009"/>
</svg>