<svg xmlns="http://www.w3.org/2000/svg" width="16" height="16" fill="currentColor" class="si si-twitter_" viewBox="0 0 16 16">
  <path fill-rule="evenodd" d="M10.573 1.616c-1.067.156-1.813.526-2.364 1.171a3.35 3.35 0 0 0-.769 2.427c.043.489.102.7.212.759a.32.32 0 0 0 .302-.027c.096-.075.109-.172.06-.43a4 4 0 0 1-.013-1.067 2.77 2.77 0 0 1 .749-1.461c.573-.572 1.415-.881 2.303-.846.735.029 1.331.281 1.834.777.176.173.218.201.298.201.206 0 .797-.167 1.197-.337.115-.05.222-.09.237-.09s-.006.045-.047.1a2.5 2.5 0 0 1-.761.663 2 2 0 0 0-.23.151c-.134.122-.086.336.093.411.173.072.779-.002 1.213-.149l.232-.079-.06.081c-.192.26-.669.57-1.04.676a.7.7 0 0 0-.225.104l-.07.061-.005.651c-.006.867-.074 1.414-.265 2.144-.623 2.379-2.259 4.379-4.493 5.495a8.5 8.5 0 0 1-2.521.786c-.529.081-1.551.1-2.12.041a10.3 10.3 0 0 1-1.68-.337c-.334-.1-1.019-.358-1.173-.441-.065-.034-.063-.036.053-.037.526-.005 1.64-.287 2.373-.6.496-.212 1.17-.619 1.333-.804.107-.122.11-.252.007-.354-.065-.065-.099-.076-.3-.09a3.55 3.55 0 0 1-1.823-.67c-.119-.09-.355-.3-.523-.468l-.307-.306.233-.021c.327-.028.552-.085.809-.205.165-.078.231-.124.263-.185.054-.106.053-.16-.01-.262-.044-.072-.088-.095-.326-.169q-.842-.26-1.396-.813a2.4 2.4 0 0 1-.52-.728 3.4 3.4 0 0 1-.249-.695c-.015-.078-.011-.087.029-.07.365.157.886.279 1.186.279.146 0 .167-.007.25-.09.067-.067.091-.114.091-.18 0-.076-.026-.112-.18-.249-.687-.613-1.117-1.327-1.251-2.077-.06-.33-.058-.913.004-1.239l.047-.249.363.357c.413.405.577.547.937.813.728.537 1.618.988 2.625 1.331.318.108.412.113.514.026.061-.053.074-.086.074-.186 0-.087-.015-.137-.053-.174-.029-.029-.245-.121-.48-.204-.975-.345-1.854-.814-2.573-1.373a8.7 8.7 0 0 1-1.086-1.052c-.281-.339-.374-.388-.542-.289q-.138.081-.276.602a3.88 3.88 0 0 0 .673 3.391l.12.157-.078-.019a3 3 0 0 1-.368-.164C.95 5.905.785 5.84.744 5.84c-.047 0-.11.03-.164.078-.085.076-.087.082-.083.289.008.399.129.874.332 1.31.302.648.813 1.177 1.493 1.548.194.105.196.108.101.108-.053 0-.202-.018-.331-.041-.218-.038-.243-.049-.333-.146-.079-.086-.116-.106-.193-.106-.116 0-.247.101-.267.206-.019.099.043.24.122.276.036.017.078.071.098.127.073.209.333.553.68.899.669.669 1.132.94 2.065 1.21.055.015.021.04-.24.168-.826.409-1.78.676-2.597.727a6 6 0 0 1-.68-.017c-.581-.047-.582-.047-.671.053-.159.178-.09.311.275.528a9.8 9.8 0 0 0 3.676 1.268c.59.08 1.742.086 2.293.012 1.161-.156 2.224-.495 3.16-1.01 2.408-1.324 4.072-3.56 4.601-6.181a9 9 0 0 0 .177-1.605l.017-.526.096-.031c.398-.129.878-.489 1.174-.881.085-.112.223-.345.307-.518.172-.354.182-.454.054-.565-.101-.088-.207-.075-.465.057a4 4 0 0 1-.42.186l-.193.069.16-.216c.219-.295.36-.538.481-.83.127-.304.132-.396.026-.501-.126-.127-.244-.111-.485.065a3.6 3.6 0 0 1-.844.455c-.29.119-.74.255-.842.255-.028 0-.122-.066-.209-.147-.39-.361-.938-.631-1.516-.747-.198-.039-.873-.073-1.026-.05"/>
</svg>