<svg xmlns="http://www.w3.org/2000/svg" width="16" height="16" fill="currentColor" class="si si-Twittericons" viewBox="0 0 16 16">
  <g clip-path="url(#a)">
    <path d="M15.91 3.02a.26.26 0 0 0-.32-.022c-.153.101-.41.213-.784.343q.158-.168.297-.387c.244-.325.393-.714.46-.918a.264.264 0 0 0-.408-.293c-.271.203-.526.395-.944.537-.315.157-.638.23-.896.289l-.02.006c-.85-.887-2.195-1.203-3.467-.806-1.748.476-2.736 2.212-2.297 4.038a.263.263 0 0 0 .513-.123c-.37-1.543.456-3.007 1.932-3.41 1.14-.354 2.326-.055 3.027.763a.26.26 0 0 0 .264.085l.166-.04c.271-.062.642-.146.98-.317q.132-.043.246-.096c-.344.541-.845.792-1.011.875a.264.264 0 0 0 .118.498c.227 0 .605 0 1.068-.154q.16-.054.296-.103-.125.166-.284.3c-.233.232-.538.392-.932.491a.264.264 0 0 0-.2.273c.203 3.171-1.392 6.172-4.165 7.833-2.42 1.472-5.514 1.576-8.154.335a5.5 5.5 0 0 0 1.322-.206c1.435-.358 2.274-.991 2.497-1.177a.264.264 0 0 0-.169-.465c-.157 0-.982-.028-1.814-.582a5.2 5.2 0 0 1-.967-.898c.421.039.844-.055 1.21-.268a.264.264 0 0 0-.053-.491 3.47 3.47 0 0 1-1.629-.906 3 3 0 0 1-.727-1.472c.663.299 1.116.299 1.307.299a.264.264 0 0 0 .146-.483c-.258-.172-1.05-.911-1.294-2.01a3.5 3.5 0 0 1 .044-1.6 8.2 8.2 0 0 0 2.886 2.1c.441.219.877.364 1.3.505a.265.265 0 0 0 .307-.366.26.26 0 0 0-.14-.134c-.405-.134-.824-.274-1.244-.483a7.66 7.66 0 0 1-2.992-2.307.264.264 0 0 0-.444.044c-.052.102-.495 1.04-.233 2.35a4.1 4.1 0 0 0 .865 1.72 4 4 0 0 1-.686-.319.265.265 0 0 0-.396.228c0 .302.066 1.361.921 2.292q.49.488 1.113.781a2.4 2.4 0 0 1-.714-.096.263.263 0 1 0-.328.317c.089.353.61 1.023 1.446 1.63.424.28.897.48 1.393.588a6.8 6.8 0 0 1-1.741.695c-.896.255-1.659.209-2.286.132a.264.264 0 0 0-.174.483A9.54 9.54 0 0 0 5.214 14.4a8.85 8.85 0 0 0 4.609-1.268c2.878-1.724 4.561-4.815 4.429-8.104q.586-.19.949-.555c.395-.33.572-.711.7-.99l.07-.147a.26.26 0 0 0-.061-.316"/>
  </g>
  <defs>
    <clipPath id="a">
      <path d="M0 0h16v16H0z"/>
    </clipPath>
  </defs>
</svg>