<svg xmlns="http://www.w3.org/2000/svg" width="16" height="16" fill="currentColor" class="si si-user_" viewBox="0 0 16 16">
  <path fill-rule="evenodd" d="M7.617.135A3.26 3.26 0 0 0 4.881 2.56a3.26 3.26 0 0 0 .798 3.024 3.25 3.25 0 0 0 3.545.777 3.34 3.34 0 0 0 1.703-1.574 3.3 3.3 0 0 0-.106-3.067A3.28 3.28 0 0 0 8.653.174 4 4 0 0 0 7.617.135M8.64.932a2.52 2.52 0 0 1 1.826 1.908c.057.276.057.737 0 1.013-.191.924-.866 1.645-1.792 1.913-.18.053-.266.06-.661.059-.414-.001-.473-.008-.688-.073A2.53 2.53 0 0 1 5.581 3.9c-.069-.276-.062-.833.014-1.137A2.52 2.52 0 0 1 7.582.891 3 3 0 0 1 8.64.932M7.547 7.547a6 6 0 0 0-3.814 1.759c-.886.887-1.435 1.94-1.683 3.227-.055.282-.061.404-.07 1.494-.012 1.331-.016 1.299.179 1.409.099.056.128.057 1.159.057 1.143 0 1.163-.002 1.295-.145.056-.06.067-.099.067-.228s-.011-.168-.067-.227c-.135-.145-.143-.146-1.065-.146h-.855l.001-.554c.001-1.368.128-2.056.534-2.907a5.2 5.2 0 0 1 2.43-2.458 5.24 5.24 0 0 1 3.988-.29 5.3 5.3 0 0 1 3.126 2.748c.406.851.533 1.539.534 2.907l.001.554H9.692c-3.021 0-3.628.006-3.702.037-.271.113-.282.518-.017.66.089.047.238.049 3.93.049h3.836l.102-.057c.195-.11.191-.079.179-1.396-.009-1.08-.015-1.2-.071-1.507a6.08 6.08 0 0 0-2.669-4.032 6.16 6.16 0 0 0-3.733-.954"/>
</svg>