<svg xmlns="http://www.w3.org/2000/svg" width="16" height="16" fill="currentColor" class="si si-user_nav_" viewBox="0 0 16 16">
  <path fill-rule="evenodd" d="M7.427.03A3.5 3.5 0 0 0 6.24.59 3.3 3.3 0 0 0 5 2.632c-.051.29-.051.853-.001 1.186.146.966.626 2.101 1.2 2.834.19.243.58.628.765.755 1.122.771 2.355.377 3.305-1.058.698-1.052 1.118-2.481 1.016-3.453a3.27 3.27 0 0 0-.969-2.033A3.2 3.2 0 0 0 8.911.054C8.726.007 8.62 0 8.116.003a6 6 0 0 0-.689.027m1.24.839c.207.052.559.212.738.333.458.313.813.824.961 1.383.085.319.095.834.024 1.223-.238 1.305-1.032 2.645-1.783 3.013-.356.174-.617.17-.987-.014-.248-.124-.683-.552-.913-.9A6.1 6.1 0 0 1 5.88 3.92c-.069-.316-.083-.929-.028-1.202a2.36 2.36 0 0 1 1.89-1.88c.237-.046.685-.031.925.031M5.36 7.964c-.857.084-1.586.339-2.245.786-.368.249-.893.784-1.149 1.17-.621.938-.959 2.137-.998 3.538l-.016.564.068.116c.331.564 1.528 1.096 3.074 1.366 1.34.234 3.166.339 4.921.284 1.733-.054 2.829-.181 3.939-.456.979-.243 1.698-.578 2.101-.979.242-.242.263-.31.241-.805-.079-1.799-.51-3.093-1.359-4.085-.586-.687-1.504-1.215-2.447-1.411-.384-.08-.978-.123-1.115-.082-.061.018-.58.345-1.153.727s-1.058.7-1.076.707-.506-.302-1.083-.687c-.578-.385-1.092-.716-1.143-.734-.087-.032-.342-.04-.56-.019M6.778 9.55c.619.413 1.167.768 1.218.789a.36.36 0 0 0 .188.022c.064-.012.491-.28 1.263-.794l1.167-.776.293.032c1.315.143 2.336.842 2.917 1.997.36.719.536 1.441.603 2.487l.029.44-.111.099c-.137.124-.617.362-.98.486-.995.341-2.347.534-4.218.604-3.296.122-6.167-.302-7.22-1.067l-.114-.083.001-.246c0-.284.06-.889.12-1.22.106-.577.315-1.194.549-1.619a3.64 3.64 0 0 1 2.77-1.872c.404-.052.276-.112 1.525.721"/>
</svg>