<svg xmlns="http://www.w3.org/2000/svg" width="16" height="16" fill="currentColor" class="si si-user_stroke__" viewBox="0 0 16 16">
  <path fill-rule="evenodd" d="M7.617.322a3.26 3.26 0 0 0-2.736 2.425 3.28 3.28 0 0 0 .441 2.577 3.25 3.25 0 0 0 3.902 1.224 3.34 3.34 0 0 0 1.703-1.575 3.3 3.3 0 0 0-.106-3.066A3.3 3.3 0 0 0 8.653.36 4 4 0 0 0 7.617.322m1.01.794c.654.181 1.147.533 1.489 1.061q.394.61.394 1.356c0 1.145-.723 2.097-1.836 2.42-.18.053-.266.06-.661.059-.414-.002-.473-.008-.688-.074a2.53 2.53 0 0 1-1.744-1.852c-.069-.275-.062-.832.014-1.136a2.52 2.52 0 0 1 1.987-1.872c.262-.05.798-.031 1.045.038m-1.08 6.431c-2.762.217-4.979 2.228-5.497 4.986-.052.278-.059.42-.069 1.494-.014 1.332-.018 1.299.178 1.409.099.056.128.057 1.159.057 1.143 0 1.163-.002 1.295-.145.056-.06.067-.099.067-.228s-.011-.168-.067-.227c-.135-.145-.143-.146-1.065-.146h-.855l.001-.554c.001-1.368.128-2.056.534-2.907a5.2 5.2 0 0 1 2.43-2.458 5.24 5.24 0 0 1 3.988-.29 5.3 5.3 0 0 1 3.126 2.748c.406.851.533 1.539.534 2.907l.001.554h-3.62c-3.394 0-3.626.003-3.713.046-.256.13-.257.514-.001.651.089.047.238.049 3.93.049h3.836l.102-.057c.196-.11.192-.077.178-1.409-.011-1.068-.018-1.218-.069-1.494-.532-2.86-2.888-4.897-5.777-4.996a7 7 0 0 0-.626.01"/>
</svg>