<svg xmlns="http://www.w3.org/2000/svg" width="16" height="16" fill="currentColor" class="si si-User-Navicons" viewBox="0 0 16 16">
  <g clip-path="url(#a)">
    <path fill-rule="evenodd" d="M6.485 1.5c.437-.45 1.027-.7 1.64-.7s1.203.25 1.64.7.685 1.063.685 1.705c0 .692-.28 1.66-.748 2.456-.231.394-.497.725-.776.953s-.548.336-.801.336c-.252 0-.521-.108-.8-.337-.28-.229-.545-.561-.777-.956C6.08 4.859 5.8 3.89 5.8 3.205c0-.642.248-1.255.685-1.705m1.64-1.55c-.846 0-1.655.346-2.25.958a3.3 3.3 0 0 0-.925 2.297c0 .866.337 1.982.865 2.882.266.453.592.873.97 1.183.38.311.834.53 1.34.53s.96-.218 1.339-.528c.378-.31.705-.728.971-1.18.528-.899.865-2.015.865-2.887 0-.86-.332-1.686-.926-2.297A3.14 3.14 0 0 0 8.125-.05M5.782 8.378l.03-.424h-.007l-.014-.001a2 2 0 0 0-.208-.002 4.64 4.64 0 0 0-2.22.636C2.11 9.329.95 10.865.95 13.913q0 .103.047.194l.378-.194c-.378.194-.378.195-.377.195v.002l.002.002.003.006.007.012.019.031q.021.034.06.082c.05.062.122.14.225.225.205.171.528.376 1.032.572 1.005.392 2.75.76 5.78.76s4.776-.368 5.78-.76c.504-.197.826-.401 1.031-.572.103-.086.175-.163.225-.226a1 1 0 0 0 .079-.112l.007-.013.003-.005.001-.003v-.001c.001 0 .001-.002-.377-.195l.378.194a.4.4 0 0 0 .047-.194c0-3.047-1.16-4.583-2.41-5.325a4.64 4.64 0 0 0-2.427-.635h-.021l.029.425-.03-.424a.4.4 0 0 0-.206.07L8.127 9.43 6.018 8.024a.4.4 0 0 0-.206-.07zm-3.924 5.437-.057-.051c.036-2.694 1.06-3.892 1.994-4.446A3.8 3.8 0 0 1 5.65 8.8l2.241 1.493a.43.43 0 0 0 .471 0L10.604 8.8h.046a3.8 3.8 0 0 1 1.806.518c.935.556 1.957 1.754 1.993 4.446l-.057.052c-.123.102-.362.263-.795.432-.87.34-2.5.702-5.47.702-2.972 0-4.602-.363-5.472-.702-.434-.169-.673-.33-.797-.433M10.5 8.802"/>
  </g>
  <defs>
    <clipPath id="a">
      <path d="M0 0h16v16H0z"/>
    </clipPath>
  </defs>
</svg>