<svg xmlns="http://www.w3.org/2000/svg" width="16" height="16" fill="currentColor" class="si si-Wifi_communication" viewBox="0 0 16 16">
  <g clip-path="url(#a)">
    <path d="M-.183 7.583c-.048 0-.095 0-.095-.048-.096-.047-.096-.19-.048-.238s3-3.966 8.145-3.966c4.668 0 8.098 3.918 8.145 3.966.048.095.048.19 0 .238-.095.048-.19.048-.238 0-.048-.047-3.382-3.822-7.86-3.822-4.953 0-7.81 3.775-7.859 3.822-.095.048-.142.048-.19.048"/>
    <path d="M1.77 9.064c-.048 0-.095 0-.095-.047-.096-.048-.096-.192-.048-.24 0-.047 2.286-3.01 6.192-3.01 3.525 0 6.05 2.867 6.192 3.01.048.096.048.192 0 .24-.095.047-.19.047-.238 0-.047-.048-2.524-2.867-5.906-2.867-3.716 0-5.859 2.819-5.907 2.867-.047.047-.095.047-.19.047"/>
    <path d="M3.77 10.498c-.047 0-.095 0-.095-.048-.095-.048-.095-.191-.048-.239.048-.095 1.572-2.054 4.192-2.054 2.43 0 4.144 1.959 4.192 2.054.047.096.047.191 0 .239-.095.048-.19.048-.238 0 0 0-1.668-1.911-3.906-1.911-2.477 0-3.906 1.863-3.906 1.91-.095.049-.143.049-.19.049"/>
    <path d="M7.82 12.6a1.11 1.11 0 0 1-1.096-1.099 1.08 1.08 0 0 1 1.095-1.099 1.11 1.11 0 0 1 1.096 1.099A1.08 1.08 0 0 1 7.819 12.6m0-1.816a.734.734 0 0 0-.715.717c0 .382.333.717.714.717a.734.734 0 0 0 .715-.717.734.734 0 0 0-.715-.717"/>
  </g>
  <defs>
    <clipPath id="a">
      <path d="M0 0h16v16H0z"/>
    </clipPath>
  </defs>
</svg>