<svg xmlns="http://www.w3.org/2000/svg" width="16" height="16" fill="currentColor" class="si si-wifi_communication_" viewBox="0 0 16 16">
  <path fill-rule="evenodd" d="m7.213 3.349-.4.039c-1.609.158-3.181.726-4.626 1.672-.639.418-1.253.917-1.82 1.476L0 6.899v.317l.001.317.138-.16a11.3 11.3 0 0 1 2.128-1.876c1.353-.918 2.755-1.473 4.25-1.682 2.399-.337 4.618.237 6.935 1.795.688.462 1.3.962 1.927 1.573.397.387.409.396.499.379.059-.011.098-.036.109-.07.041-.128-.015-.207-.425-.606-1.66-1.615-3.663-2.793-5.556-3.269a8 8 0 0 0-2.059-.269 14 14 0 0 0-.734.001m.147 2.44c-1.881.107-3.782.983-5.202 2.397-.364.363-.558.601-.558.686 0 .1.101.195.207.195.083 0 .113-.02.23-.154.251-.287.749-.766 1.043-1.002 1.099-.885 2.328-1.449 3.64-1.673.472-.081 1.453-.101 1.92-.04 1.677.22 3.371 1.096 4.789 2.475.309.301.391.367.454.367.14-.001.191-.085.134-.221-.057-.135-.685-.724-1.24-1.163-.299-.236-.9-.64-1.244-.835-1.36-.771-2.745-1.114-4.173-1.032m-.08 2.399c-.98.105-2.022.547-2.84 1.207-.243.196-.775.736-.818.831a.195.195 0 0 0 .07.242c.09.059.253.013.313-.087.064-.108.43-.474.668-.669 1.279-1.044 2.921-1.424 4.354-1.007.891.259 1.775.793 2.559 1.546.255.244.318.271.415.174.099-.098.001-.265-.347-.591C10.363 8.62 8.788 8.028 7.28 8.188m.269 2.254c-.435.117-.733.45-.808.904-.074.445.183.922.613 1.137.171.086.192.09.473.09.261-.001.31-.008.446-.072.412-.192.655-.601.628-1.061a1.1 1.1 0 0 0-.835-.999.9.9 0 0 0-.517.001m.544.396c.314.131.514.547.413.858-.133.409-.578.625-.953.464-.332-.143-.517-.508-.423-.834a.77.77 0 0 1 .532-.528.9.9 0 0 1 .431.04"/>
</svg>