<svg xmlns="http://www.w3.org/2000/svg" width="16" height="16" fill="currentColor" class="si si-wind_sun_" viewBox="0 0 16 16">
  <path fill-rule="evenodd" d="M11.318.544c-.048.036-.052.081-.059.666-.006.425.001.646.021.684.046.085.154.116.23.066l.063-.041v-.662c0-.608-.004-.666-.048-.706-.06-.054-.138-.057-.207-.007m2.695 1.316c-.176.173-.389.377-.473.456-.164.152-.19.229-.105.307.107.096.164.063.628-.372.244-.228.456-.437.47-.464.041-.076.032-.147-.022-.196-.101-.092-.163-.058-.498.269M8.09 1.748q-.045.067-.02.117c.013.028.233.249.49.493.318.301.486.442.527.442.07 0 .166-.087.166-.15 0-.05-.381-.448-.726-.76-.262-.236-.355-.267-.437-.142m2.919.811c-.879.16-1.666.813-1.967 1.633-.125.338-.147.475-.146.888.002.357.01.426.074.639.102.336.264.647.468.901.961 1.196 2.628 1.307 3.73.249q.79-.758.786-1.829a2.4 2.4 0 0 0-.192-.968c-.06-.14-.154-.199-.243-.151-.107.057-.112.118-.03.352.171.486.185 1.013.039 1.436a2.27 2.27 0 0 1-1.141 1.32 2 2 0 0 1-.96.226 2.2 2.2 0 0 1-1.862-1.031 2 2 0 0 1-.344-1.171c0-.174.018-.366.043-.473a2.31 2.31 0 0 1 1.203-1.507 1.86 1.86 0 0 1 .853-.212c.472-.019.772.056 1.198.299.239.136.284.144.361.062.118-.127.046-.219-.316-.406a2.2 2.2 0 0 0-1.07-.271 4 4 0 0 0-.484.014m-6.423.346a.7.7 0 0 0-.31.193c-.18.192-.166.083-.314 2.428-.11 1.754-.143 2.159-.175 2.19-.022.02-.73.472-1.574 1.005C.041 10.092.186 9.994.102 10.149a.7.7 0 0 0-.062.56c.09.312.411.521.739.482.094-.011.665-.264 2.082-.923 1.074-.5 1.972-.908 1.996-.908.036 0 2.997 1.362 3.69 1.697.182.088.238.103.386.102a.696.696 0 0 0 .694-.691.64.64 0 0 0-.195-.486c-.061-.059-.878-.597-1.814-1.196a123 123 0 0 1-1.752-1.13c-.043-.038-.071-.278-.239-2.123-.126-1.376-.205-2.12-.232-2.2-.055-.156-.277-.376-.425-.42a.74.74 0 0 0-.384-.008m.363.345a.4.4 0 0 1 .124.14c.031.066.094.642.231 2.13.216 2.329.211 2.287.252 2.323.017.014.829.536 1.804 1.159s1.812 1.174 1.86 1.225c.07.075.087.114.086.206-.001.214-.185.42-.375.42-.038 0-.96-.414-2.048-.92s-2-.92-2.027-.92c-.026 0-.94.416-2.032.924-1.442.672-2.017.927-2.104.935a.35.35 0 0 1-.351-.18c-.062-.115-.061-.223.001-.359.046-.099.176-.186 1.846-1.24.988-.623 1.825-1.157 1.859-1.187.048-.041.065-.088.074-.2.006-.08.066-1.064.134-2.186.093-1.535.133-2.061.163-2.126.082-.178.33-.249.503-.144m1.948 1.705c-.059.066-.055.153.01.218.05.051.089.054.691.054h.638l.055-.071c.069-.087.07-.128.002-.196-.05-.05-.089-.053-.702-.053-.595 0-.653.004-.694.048m7.651.011c-.056.08-.052.143.012.207.05.051.089.054.693.054.605 0 .643-.003.694-.054A.2.2 0 0 0 16 5.067a.2.2 0 0 0-.053-.107c-.051-.05-.089-.053-.705-.053-.644 0-.653 0-.694.059m-.936 2.113c-.096.096-.071.15.172.373.111.103.324.305.473.448.15.144.294.26.322.26.068 0 .132-.053.154-.129.016-.053-.028-.108-.311-.395-.385-.391-.599-.582-.682-.607-.044-.014-.077-.001-.128.05m-4.825.013a13 13 0 0 1-.461.446 7 7 0 0 0-.463.461c-.025.063.022.16.09.185q.06.023.139-.017c.113-.058.949-.892.948-.947 0-.105-.204-.207-.253-.128m-4.08.864a.35.35 0 0 0-.22.305c-.023.231.128.405.349.406.378 0 .53-.478.218-.682a.4.4 0 0 0-.347-.029m6.612.243-.066.065v.603c0 .591.012.687.091.739.052.035.14.022.185-.028.039-.043.044-.132.044-.705 0-.648 0-.657-.059-.698-.081-.057-.119-.052-.195.024M4.337 10.54c-.028.045-.068.587-.161 2.167-.068 1.158-.124 2.17-.123 2.247.001.242.15.449.368.514.06.018.261.026.512.021.357-.008.428-.017.52-.065a.52.52 0 0 0 .275-.421c.006-.08-.045-1.104-.115-2.275-.095-1.595-.136-2.143-.164-2.188-.047-.076-.17-.08-.236-.006-.047.052-.045.119.077 2.153.069 1.155.125 2.162.124 2.238-.001.117-.011.146-.071.193-.064.05-.106.055-.45.055-.343 0-.386-.005-.449-.055-.06-.047-.071-.076-.071-.193-.001-.076.055-1.083.124-2.238.122-2.037.124-2.101.077-2.153-.067-.074-.189-.071-.237.006"/>
</svg>