<svg xmlns="http://www.w3.org/2000/svg" width="16" height="16" fill="currentColor" class="si si-wind_" viewBox="0 0 16 16">
  <path fill-rule="evenodd" d="M7.725.652a.82.82 0 0 0-.495.493c-.017.051-.109 1.203-.206 2.56L6.85 6.173l-.072.07c-.039.039-.911.747-1.938 1.573a134 134 0 0 0-1.915 1.556c-.159.18-.208.51-.116.781a1 1 0 0 0 .395.462c.17.087.31.093.449.018.066-.035 1.044-.608 2.174-1.273a107 107 0 0 1 2.08-1.209c.037 0 4.039 2.349 4.106 2.41.084.077.189.106.382.106a.95.95 0 0 0 .62-.258c.258-.232.308-.672.11-.965-.047-.07-.749-.647-2.018-1.659-1.071-.853-1.956-1.56-1.967-1.569-.011-.01-.079-1.092-.152-2.404a216 216 0 0 0-.147-2.501.8.8 0 0 0-.454-.622.66.66 0 0 0-.36-.074c-.11 0-.246.017-.302.037m.516.489a.4.4 0 0 1 .118.194c.009.05.087 1.213.173 2.583.129 2.048.164 2.494.196 2.513.021.012.919.73 1.996 1.596 1.733 1.396 1.962 1.589 2.006 1.691.065.149.042.288-.067.396-.073.074-.09.079-.222.065-.128-.013-.359-.14-2.333-1.286C8.79 8.129 7.9 7.628 7.876 7.638c-.022.008-.989.587-2.148 1.285-2.066 1.244-2.111 1.269-2.225 1.257-.147-.017-.289-.123-.33-.246-.047-.144.002-.256.168-.381.077-.058.985-.78 2.018-1.604l1.88-1.499.007-.125c.012-.188.404-4.77.422-4.932a.4.4 0 0 1 .085-.222c.083-.099.145-.127.283-.129.085-.002.121.016.205.099m-.444 5.376c-.314.142-.32.599-.01.758.209.108.414.05.553-.155.114-.167.061-.445-.108-.565a.53.53 0 0 0-.435-.038m-.486 3.288a.25.25 0 0 0-.072.142c-.044.314-.361 4.784-.347 4.902a.64.64 0 0 0 .158.374c.12.132.155.137.883.137.765 0 .801-.007.968-.198.164-.186.166-.063-.056-2.763-.137-1.66-.214-2.471-.236-2.498-.05-.06-.156-.092-.243-.073-.164.036-.165-.055.033 2.625.099 1.342.175 2.449.169 2.46s-.286.02-.622.02h-.612l-.016-.066c-.015-.06.316-4.68.35-4.886.016-.095-.056-.194-.141-.195a.5.5 0 0 1-.102-.015c-.032-.008-.079.005-.114.034"/>
</svg>