<svg xmlns="http://www.w3.org/2000/svg" width="16" height="16" fill="currentColor" class="si si-Wind_Sun" viewBox="0 0 16 16">
  <g clip-path="url(#a)">
    <path d="M11.423 7.6c-1.375 0-2.543-1.16-2.543-2.537s1.163-2.539 2.543-2.539c.498 0 .97.151 1.432.458a.16.16 0 0 1 .043.224.16.16 0 0 1-.224.044c-.416-.277-.814-.406-1.25-.406-1.203 0-2.216 1.014-2.216 2.21s1.017 2.21 2.215 2.21 2.215-1.014 2.215-2.21c0-.298-.07-.622-.203-.928a.16.16 0 0 1 .086-.212.16.16 0 0 1 .212.087c.152.35.23.716.23 1.057 0 1.373-1.164 2.538-2.544 2.538zm0-5.61a.164.164 0 0 1-.164-.165V.664a.164.164 0 0 1 .329 0v1.165a.165.165 0 0 1-.165.165zm0 7.64a.164.164 0 0 1-.164-.164V8.3a.164.164 0 0 1 .329 0v1.166c0 .09-.074.164-.165.164m4.413-4.403h-1.168a.164.164 0 1 1 0-.329h1.168a.164.164 0 1 1 0 .329m-7.657 0H7.01a.164.164 0 1 1 0-.329h1.168a.164.164 0 1 1 0 .329m5.365-2.547a.162.162 0 0 1-.1-.29c.01-.004.182-.142.848-.807a.16.16 0 0 1 .23 0 .16.16 0 0 1 0 .23c-.693.69-.874.828-.883.832a.17.17 0 0 1-.1.035zM8.01 8.205a.162.162 0 0 1-.1-.29c.01-.003.182-.142.849-.806a.16.16 0 0 1 .229 0 .16.16 0 0 1 0 .229c-.692.69-.874.828-.883.833a.17.17 0 0 1-.095.034m6.571-.043a.18.18 0 0 1-.117-.048c-.666-.664-.839-.798-.848-.807-.069-.056-.086-.155-.03-.224a.156.156 0 0 1 .225-.03c.009.004.19.142.883.837a.16.16 0 0 1 0 .229.17.17 0 0 1-.113.047zM9.087 2.81a.18.18 0 0 1-.116-.048c-.667-.665-.84-.799-.848-.807-.07-.056-.087-.156-.03-.225a.156.156 0 0 1 .224-.03c.009.004.19.142.883.833a.16.16 0 0 1 0 .229.17.17 0 0 1-.117.047zM5.67 7.903a.163.163 0 0 1-.16-.147L5.12 3.57c0-.185-.142-.371-.358-.371a.36.36 0 0 0-.355.358l-.26 4.196a.164.164 0 0 1-.173.15.16.16 0 0 1-.151-.172l.26-4.187c0-.397.35-.669.679-.669.406 0 .683.35.683.682l.39 4.174a.16.16 0 0 1-.148.177H5.67z"/>
    <path d="M.7 11.2a.69.69 0 0 1-.623-.366c-.173-.35-.044-.786.29-.95L3.9 7.648a.16.16 0 0 1 .225.052.16.16 0 0 1-.052.224l-3.547 2.24c-.186.096-.251.338-.16.527.086.173.328.238.519.143L4.783 9.02A.165.165 0 0 1 5 9.099a.164.164 0 0 1-.077.215l-3.898 1.813a.7.7 0 0 1-.324.078z"/>
    <path d="M8.919 11.175a.6.6 0 0 1-.35-.108L4.782 9.31a.16.16 0 0 1-.078-.216.16.16 0 0 1 .217-.077l3.806 1.77q.143.09.281.051a.38.38 0 0 0 .243-.194.34.34 0 0 0 .052-.276.38.38 0 0 0-.195-.242L5.592 7.873a.164.164 0 0 1-.048-.225.16.16 0 0 1 .225-.047l3.504 2.244a.68.68 0 0 1 .346.44.65.65 0 0 1-.082.523.7.7 0 0 1-.61.367zM4.848 8.52a.216.216 0 1 0 0-.432.216.216 0 0 0 0 .432"/>
    <path d="M4.848 8.68a.38.38 0 0 1-.38-.38c0-.212.168-.38.38-.38s.38.168.38.38-.168.38-.38.38m0-.432a.053.053 0 0 0-.052.052c0 .06.108.06.108 0a.053.053 0 0 0-.052-.052zm.346 7.252h-.606a.55.55 0 0 1-.549-.553l.26-4.325c.004-.09.086-.164.173-.15a.16.16 0 0 1 .151.172l-.26 4.316c0 .117.1.216.23.216h.605a.224.224 0 0 0 .225-.229l-.26-4.307a.167.167 0 0 1 .152-.173c.087-.013.165.06.173.151l.26 4.317a.55.55 0 0 1-.55.56z"/>
  </g>
  <defs>
    <clipPath id="a">
      <path d="M0 0h16v16H0z"/>
    </clipPath>
  </defs>
</svg>