<svg xmlns="http://www.w3.org/2000/svg" width="16" height="16" fill="currentColor" class="si si-Wind" viewBox="0 0 16 16">
  <path d="m7.23 6.429-.394-.04.355-5.001c0-.434.356-.788.83-.788s.83.354.83.827l.276 4.962-.435.04-.316-5.002c0-.197-.158-.394-.355-.394a.354.354 0 0 0-.356.355z"/>
  <path d="M12.406 10.682c-.159 0-.356-.04-.435-.158l-4.227-2.48.158-.434 4.346 2.52c.197.08.395.08.474-.078s.04-.394-.08-.473l-3.91-3.15.237-.355 3.95 3.15c.356.237.435.71.198 1.104-.198.197-.474.354-.711.354"/>
  <path d="M3.557 10.682c-.237.04-.474-.079-.672-.354-.237-.394-.158-.867.198-1.103l3.91-3.15.277.354-3.95 3.15c-.198.079-.198.355-.079.473s.356.197.474.079l4.187-2.52.237.393-4.226 2.481c-.198.118-.198.158-.356.197"/>
  <path d="M7.981 7.334a.434.434 0 1 0 .002-.867.434.434 0 0 0-.002.867m.553 8.035H7.35c-.237 0-.474-.197-.474-.67l.355-4.726c0-.157.08-.236.237-.197.159 0 .238.079.198.236l-.356 4.726c0 .158.04.197.04.197h1.185c.04 0 .04-.039.04-.039l-.356-4.844c0-.158.08-.236.198-.236.158 0 .237.078.237.196l.395 4.805c0 .276-.277.552-.514.552"/>
</svg>