<svg xmlns="http://www.w3.org/2000/svg" width="16" height="16" fill="currentColor" class="si si-wind_stroke__" viewBox="0 0 16 16">
  <path fill-rule="evenodd" d="M7.713.333a.86.86 0 0 0-.452.269c-.166.166-.24.323-.275.583-.015.103-.07 1.328-.123 2.722a467 467 0 0 1-.1 2.537c-.001.003-.993.655-2.203 1.449-1.21.795-2.225 1.469-2.257 1.498a1 1 0 0 0-.133.19c-.068.123-.077.166-.077.366 0 .274.077.464.258.641a.82.82 0 0 0 .63.252h.22l2.406-1.205L8.013 8.43l2.285 1.159c2.531 1.283 2.511 1.274 2.856 1.215q.481-.084.69-.484c.05-.097.063-.162.063-.334a.66.66 0 0 0-.086-.387 1.3 1.3 0 0 0-.213-.296c-.073-.071-1.027-.701-2.235-1.476a189 189 0 0 1-2.136-1.383c-.021-.021-.067-.834-.141-2.471a182 182 0 0 0-.135-2.7c-.04-.438-.2-.69-.543-.86a1 1 0 0 0-.705-.08m.423.782.084.075.13 2.758c.076 1.615.141 2.788.158 2.829.016.038.061.1.101.137.039.036 1.055.699 2.258 1.472 1.202.773 2.213 1.431 2.246 1.461.129.119.04.252-.15.226-.055-.007-1.114-.53-2.443-1.206-1.934-.983-2.37-1.195-2.48-1.206-.132-.012-.162.002-2.576 1.217-1.344.676-2.467 1.229-2.496 1.229-.067 0-.149-.089-.137-.148.005-.025 1.008-.701 2.287-1.542C6.37 7.594 7.419 6.888 7.447 6.85c.041-.055.054-.125.062-.32l.105-2.743c.052-1.372.101-2.522.108-2.556a.3.3 0 0 1 .083-.127c.097-.089.224-.085.331.011m-.249 5.497a.5.5 0 0 0-.367.468c0 .376.429.613.739.408.289-.191.288-.638-.002-.806-.129-.076-.268-.102-.37-.07m.192.413c.05.061.022.134-.055.143-.083.01-.141-.052-.118-.127.021-.064.125-.074.173-.016M7.35 9.52a.37.37 0 0 0-.218.189c-.025.049-.082.863-.201 2.879-.164 2.79-.165 2.81-.115 2.903a.5.5 0 0 0 .143.156l.092.062.966-.008c.93-.007.969-.01 1.041-.063a.6.6 0 0 0 .126-.148c.05-.091.049-.118-.101-2.903-.131-2.431-.158-2.822-.197-2.89-.152-.26-.528-.249-.647.018-.048.11-.047.144.082 2.525.072 1.327.131 2.482.132 2.567v.153h-.906v-.113c0-.063.065-1.217.145-2.566.144-2.43.145-2.454.096-2.565a.37.37 0 0 0-.438-.196"/>
</svg>