<svg width="48" height="48" viewBox="0 0 48 48" fill="none" xmlns="http://www.w3.org/2000/svg">
<path d="M21.4232 19.9315L7.80711 28.876C6.57683 29.8735 7.94011 31.9516 9.46964 31.3531L24.0334 24.038L37.9654 31.1037C40.1267 32.068 41.6895 29.9732 39.8441 28.4936L26.5438 19.9315L25.7791 3.58884C25.7064 3.14522 25.4784 2.74187 25.1358 2.45083C24.7932 2.15979 24.3583 2 23.9087 2C23.4592 2 23.0243 2.15979 22.6817 2.45083C22.3391 2.74187 22.1111 3.14522 22.0384 3.58884L21.39 19.8983" stroke="#3D3D3D" stroke-width="0.75" stroke-linecap="round" stroke-linejoin="round"/>
<path d="M22.3875 29.6241L21.4232 46H26.5771L25.6959 29.6241" stroke="#3D3D3D" stroke-width="0.75" stroke-linecap="round" stroke-linejoin="round"/>
<path d="M24.0002 21.8268C24.3215 21.8268 24.582 21.5662 24.582 21.2449C24.582 20.9235 24.3215 20.663 24.0002 20.663C23.6788 20.663 23.4183 20.9235 23.4183 21.2449C23.4183 21.5662 23.6788 21.8268 24.0002 21.8268Z" stroke="#3D3D3D" stroke-width="0.59" stroke-miterlimit="10"/>
</svg>
