<svg xmlns="http://www.w3.org/2000/svg" width="16" height="16" fill="currentColor" class="si si-Yes_checkicons" viewBox="0 0 16 16">
  <g clip-path="url(#a)">
    <path d="M15.975 7.335c-.172-1.995-.915-3.591-2.23-4.845-.057-.057-.228-.114-.285 0-.058.057-.115.228 0 .285 1.257 1.197 1.943 2.679 2.115 4.617.286 4.162-2.744 7.753-6.975 8.152-4.173.342-7.832-2.736-8.175-6.898S3.112.894 7.343.495c1.715-.171 3.2.17 4.573 1.083.114.057.229.057.286-.057s0-.228-.057-.285Q10-.22 7.343.038C2.883.495-.317 4.257.025 8.703.368 12.865 3.855 16 8.03 16h.628c4.46-.456 7.66-4.218 7.318-8.665"/>
    <path fill-rule="evenodd" d="M4.163 8.608a.215.215 0 0 1 .303.003l2.972 3.02a.213.213 0 0 1-.002.303.215.215 0 0 1-.304-.003L4.16 8.91a.213.213 0 0 1 .003-.302"/>
    <path fill-rule="evenodd" d="M12.5 4.712c.096.07.116.204.046.299l-5.088 6.897a.215.215 0 0 1-.3.046.213.213 0 0 1-.045-.3L12.2 4.758a.215.215 0 0 1 .3-.045"/>
  </g>
  <defs>
    <clipPath id="a">
      <path d="M0 0h16v16H0z"/>
    </clipPath>
  </defs>
</svg>