<svg xmlns="http://www.w3.org/2000/svg" width="16" height="16" fill="currentColor" class="si si-yes_check_" viewBox="0 0 16 16">
  <path fill-rule="evenodd" d="M7.627.016c-2.173.188-3.934.993-5.365 2.454C1.069 3.687.338 5.181.075 6.941c-.069.461-.084 1.56-.027 2.019a7.93 7.93 0 0 0 2.539 4.943c.993.919 2.32 1.604 3.693 1.908.629.139.972.171 1.813.174.724.001.832-.004 1.128-.059 1.614-.298 2.936-.929 4.103-1.956a8.03 8.03 0 0 0 2.357-3.728 8.3 8.3 0 0 0 .036-4.401 7 7 0 0 0-1.67-3.043c-.286-.314-.394-.39-.51-.361-.059.015-.15.153-.15.228 0 .017.138.175.306.352.969 1.015 1.542 2.191 1.786 3.665.398 2.402-.341 4.8-2.01 6.526a7.2 7.2 0 0 1-2.223 1.605 7.54 7.54 0 0 1-7.482-.522C2.015 13.118.855 11.334.509 9.28a7.5 7.5 0 0 1 2.102-6.587A7.1 7.1 0 0 1 4.6 1.279C5.482.846 6.225.631 7.28.501 7.693.45 8.736.459 9.133.516a6.6 6.6 0 0 1 2.46.865c.399.236.441.253.526.215.107-.049.132-.192.054-.32-.014-.025-.17-.132-.346-.239A6.84 6.84 0 0 0 8.28.015a12 12 0 0 0-.653.001m4.633 4.703c-.036.029-1.173 1.553-2.526 3.387S7.267 11.44 7.256 11.44c-.01 0-.163-.147-.338-.327C4.661 8.806 4.41 8.56 4.315 8.56a.205.205 0 0 0-.208.207c0 .075.162.249 1.537 1.646.953.968 1.563 1.568 1.605 1.578.04.01.093.002.129-.02.09-.055 5.181-6.973 5.199-7.065.013-.062 0-.093-.065-.158-.094-.095-.159-.102-.252-.029"/>
</svg>