<svg xmlns="http://www.w3.org/2000/svg" width="16" height="16" fill="currentColor" class="si si-Youtubeicons" viewBox="0 0 16 16">
  <g clip-path="url(#a)">
    <path d="M6.46 10.454a.23.23 0 0 0 .12-.034l4.023-2.41a.24.24 0 0 0 .116-.208.24.24 0 0 0-.12-.204L6.574 5.314a.234.234 0 0 0-.32.088.24.24 0 0 0-.032.118v4.696a.24.24 0 0 0 .07.168c.044.045.104.07.167.07m.236-4.527 3.316 1.884-3.317 1.987z"/>
    <path d="M13.187 2.3H2.813c-.746 0-1.46.3-1.988.833A2.86 2.86 0 0 0 0 5.14v5.52c0 .753.298 1.475.825 2.007a2.8 2.8 0 0 0 1.988.833.24.24 0 0 0 .167-.07.24.24 0 0 0-.167-.406c-.62 0-1.216-.25-1.655-.693a2.38 2.38 0 0 1-.686-1.67V5.14c0-.627.247-1.228.686-1.67a2.33 2.33 0 0 1 1.655-.694h10.374c.62 0 1.216.25 1.655.693s.686 1.044.686 1.67v5.521a2.37 2.37 0 0 1-.686 1.67 2.33 2.33 0 0 1-1.655.694H4.888a.23.23 0 0 0-.167.07.239.239 0 0 0 .167.406h8.299a2.8 2.8 0 0 0 1.988-.833A2.86 2.86 0 0 0 16 10.66V5.14a2.85 2.85 0 0 0-.825-2.007 2.8 2.8 0 0 0-1.988-.833"/>
  </g>
  <defs>
    <clipPath id="a">
      <path d="M0 0h16v16H0z"/>
    </clipPath>
  </defs>
</svg>