<svg width="16" height="16" viewBox="0 0 16 16" fill="none" xmlns="http://www.w3.org/2000/svg">
<g clip-path="url(#clip0_4_25)">
<path d="M14.161 4.02734C15.1334 5.53309 15.5203 7.34292 15.2486 9.11459C14.9769 10.8863 14.0654 12.497 12.6864 13.6422C11.3075 14.7874 9.55675 15.3876 7.7652 15.3294C5.97365 15.2713 4.26551 14.5587 2.96378 13.3265" stroke="#3D3D3D" stroke-width="0.75" stroke-miterlimit="10" stroke-linecap="round"/>
<path d="M1.89605 12.0597C0.8918 10.552 0.481452 8.72588 0.744161 6.93353C1.00687 5.14118 1.92403 3.50959 3.31872 2.35349C4.71341 1.19738 6.48684 0.598659 8.29693 0.672804C10.107 0.746948 11.8255 1.48871 13.121 2.75501" stroke="#3D3D3D" stroke-width="0.75" stroke-miterlimit="10" stroke-linecap="round"/>
<path d="M1.89605 12.0597C0.8918 10.552 0.481452 8.72588 0.744161 6.93353C1.00687 5.14118 1.92403 3.50959 3.31872 2.35349C4.71341 1.19738 6.48684 0.598659 8.29693 0.672804C10.107 0.746948 11.8255 1.48871 13.121 2.75501" stroke="#3D3D3D" stroke-width="0.75" stroke-miterlimit="10" stroke-linecap="round"/>
<path d="M10.6702 11.7665C9.73317 12.4323 8.58131 12.7244 7.4402 12.5856C6.29909 12.4467 5.25092 11.8869 4.50093 11.0158C3.75095 10.1446 3.35319 9.02494 3.38553 7.87593C3.41786 6.72692 3.87798 5.63136 4.67577 4.80379C5.47356 3.97623 6.55157 3.47625 7.69868 3.40179C8.8458 3.32732 9.9794 3.68372 10.8775 4.4012C11.7756 5.11867 12.3735 6.14555 12.5542 7.28073C12.7348 8.41591 12.4852 9.57764 11.8541 10.5384" stroke="#3D3D3D" stroke-width="0.75" stroke-miterlimit="10" stroke-linecap="round"/>
<path d="M7.09637 5.85289C7.59602 5.63861 8.1549 5.60586 8.67616 5.76032C9.19742 5.91478 9.64822 6.24671 9.95044 6.69861C10.2527 7.1505 10.3873 7.69388 10.3309 8.23459C10.2746 8.7753 10.0309 9.27927 9.64201 9.65917C9.25312 10.0391 8.74359 10.271 8.20168 10.3147C7.65977 10.3584 7.11965 10.2112 6.67489 9.8985C6.23014 9.58584 5.90878 9.12745 5.76651 8.60276C5.62423 8.07808 5.66999 7.52015 5.89588 7.02566" stroke="#3D3D3D" stroke-width="0.75" stroke-miterlimit="10" stroke-linecap="round"/>
</g>
<defs>
<clipPath id="clip0_4_25">
<rect width="16" height="16" fill="white"/>
</clipPath>
</defs>
</svg>
