<svg width="24" height="24" viewBox="0 0 24 24" fill="none" xmlns="http://www.w3.org/2000/svg">
<path d="M9.28029 16.2933L19.0268 6.67087C19.1347 6.56436 19.2628 6.50759 19.4112 6.50058C19.5596 6.49356 19.6948 6.55033 19.8168 6.67087C19.9389 6.7914 20 6.92139 20 7.06085C20 7.20031 19.9389 7.3303 19.8168 7.45083L9.90634 17.2351C9.72747 17.4117 9.51879 17.5 9.28029 17.5C9.0418 17.5 8.83311 17.4117 8.65424 17.2351L4.1696 12.8076C4.06169 12.7011 4.00526 12.5746 4.00029 12.4281C3.99533 12.2816 4.05389 12.1481 4.17597 12.0276C4.29807 11.9071 4.42975 11.8468 4.571 11.8468C4.71226 11.8468 4.84393 11.9071 4.96601 12.0276L9.28029 16.2933Z" fill="#3D3D3D"/>
</svg>
