<svg width="16" height="16" viewBox="0 0 16 16" fill="none" xmlns="http://www.w3.org/2000/svg">
<g clip-path="url(#clip0_4_283)">
<path d="M3.3097 2.54134C4.54182 1.41558 6.15224 0.794768 7.82091 0.802284C9.24376 0.766336 10.6453 1.15321 11.8484 1.91401C13.0515 2.6748 14.0021 3.77535 14.58 5.07652C15.1579 6.37769 15.3372 7.82106 15.0952 9.22416C14.8532 10.6273 14.2008 11.9271 13.2204 12.9593C12.2401 13.9915 10.9758 14.7098 9.58742 15.0233C8.19904 15.3368 6.74892 15.2315 5.42038 14.7206C4.09183 14.2098 2.94452 13.3164 2.12348 12.1533C1.30244 10.9903 0.844546 9.60983 0.80768 8.18648C0.733633 6.65078 1.19709 5.1373 2.11826 3.90657" stroke="#3D3D3D" stroke-width="0.75" stroke-linecap="round" stroke-linejoin="round"/>
<path d="M1.10013 6.43119C1.84587 6.72974 2.5063 7.20803 3.02268 7.82352L3.08766 7.90478C3.46926 8.40155 3.66128 9.01816 3.62923 9.64383C3.60045 10.1664 3.62039 10.6906 3.6888 11.2095C3.776 12.2189 3.99822 13.2119 4.3495 14.1621C4.6239 14.3302 4.90984 14.4786 5.20517 14.6064C5.50845 13.81 5.6655 12.6289 6.39119 12.163C6.60354 12.0195 6.80616 11.862 6.99775 11.6917L7.13855 11.5562C7.31502 11.3882 7.45552 11.1861 7.55153 10.9621C7.64753 10.7382 7.69704 10.497 7.69704 10.2533C7.69704 10.0096 7.64753 9.76846 7.55153 9.54448C7.45552 9.32051 7.31502 9.11838 7.13855 8.95038C6.45618 8.33277 5.75757 8.40862 4.83691 7.74767L4.66903 7.61223C4.57383 7.5363 4.49801 7.43885 4.44782 7.32789C4.39762 7.21692 4.37448 7.09562 4.3803 6.97397C4.38611 6.85231 4.42072 6.73378 4.48127 6.62811C4.54183 6.52245 4.62659 6.43268 4.7286 6.36618C5.02264 6.18516 5.28896 5.96254 5.51928 5.70523C5.71696 5.43896 5.82334 5.11591 5.82255 4.78424C5.54636 3.78198 3.6563 2.7093 3.32595 2.53052" stroke="#3D3D3D" stroke-width="0.75" stroke-linecap="round" stroke-linejoin="round"/>
<path d="M13.4369 12.5964C13.2116 12.3699 13.0752 12.07 13.0524 11.7513C13.0484 11.3507 13.0756 10.9504 13.1336 10.554V10.4998C13.14 10.1762 13.0582 9.85697 12.897 9.57636C12.7357 9.29576 12.5011 9.06437 12.2184 8.90703L12.0397 8.80409C11.2652 8.34901 10.8807 8.12147 10.6587 7.72057C10.596 7.59733 10.5505 7.46609 10.5233 7.3305C10.443 6.89174 10.5311 6.43882 10.7701 6.06221C11.009 5.6856 11.3812 5.41301 11.8122 5.2989C12.0247 5.22631 12.2522 5.20952 12.4729 5.25014C12.9278 5.35308 13.204 5.70522 13.8485 5.74314C14.1212 5.75353 14.3933 5.71122 14.65 5.61854" stroke="#3D3D3D" stroke-width="0.75" stroke-linecap="round" stroke-linejoin="round"/>
<path d="M9.55933 0.916046C9.01777 1.54449 9.35896 2.76887 8.88238 3.41898C8.34082 4.17744 8.20001 5.04426 8.8553 5.32056C9.70014 5.69437 10.4367 4.23704 11.2436 3.83072C11.6498 3.62485 12.565 3.67902 13.8539 3.79821" stroke="#3D3D3D" stroke-width="0.75" stroke-linecap="round" stroke-linejoin="round"/>
<path d="M5.36221 1.54449C5.6095 2.04315 5.94742 2.49142 6.35869 2.86638C6.61322 3.08851 6.77569 3.02891 7.09521 2.66593C7.28476 2.44923 7.17645 2.20002 7.2631 1.86413C7.39155 1.46605 7.66126 1.1288 8.02128 0.916046" stroke="#3D3D3D" stroke-width="0.75" stroke-linecap="round" stroke-linejoin="round"/>
</g>
<defs>
<clipPath id="clip0_4_283">
<rect width="16" height="16" fill="white"/>
</clipPath>
</defs>
</svg>
