<svg width="16" height="16" viewBox="0 0 16 16" fill="none" xmlns="http://www.w3.org/2000/svg">
<path d="M12.9261 3.06875C11.6887 1.85025 9.87094 1.25489 7.68972 1.34161C5.94375 1.34161 4.32059 2.0578 3.11832 3.35718C2.47481 4.05644 1.98649 4.88 1.68451 5.77531C1.38253 6.67062 1.27352 7.61803 1.36443 8.55711C1.66797 11.6898 4.46419 14.3159 7.86848 14.6657C7.89273 14.6682 7.91725 14.6659 7.94063 14.6591C7.96401 14.6523 7.98579 14.641 8.00473 14.6259C8.02368 14.6108 8.03941 14.5921 8.05104 14.571C8.06266 14.5499 8.06995 14.5268 8.07249 14.5029C8.07502 14.4791 8.07276 14.455 8.06582 14.432C8.05888 14.409 8.0474 14.3875 8.03204 14.3689C8.01669 14.3502 7.99775 14.3348 7.97631 14.3233C7.95487 14.3119 7.93136 14.3047 7.9071 14.3022C4.67464 13.9704 2.02152 11.4852 1.73432 8.523C1.64822 7.63456 1.75126 6.73821 2.03687 5.89113C2.32248 5.04406 2.78439 4.26485 3.39314 3.60321C4.52411 2.38033 6.04972 1.70702 7.69715 1.70702C9.78181 1.62322 11.5015 2.18253 12.6637 3.32746C13.7897 4.43682 14.3671 6.06067 14.2883 7.89159C14.0457 10.7524 12.3126 11.8204 10.9083 11.8652C10.0106 11.8652 9.30645 11.5831 8.81573 11.0267C8.26659 10.4031 8.14379 9.6119 8.16409 9.24017C9.22673 9.12811 9.90709 8.18293 9.90214 6.82266H10.0665C10.1158 6.82266 10.163 6.80341 10.1978 6.76915C10.2327 6.73488 10.2522 6.68841 10.2522 6.63996C10.2522 6.5915 10.2327 6.54503 10.1978 6.51077C10.163 6.4765 10.1158 6.45726 10.0665 6.45726H9.11333V4.73986C9.11333 4.69141 9.09377 4.64494 9.05894 4.61067C9.02412 4.57641 8.97689 4.55716 8.92764 4.55716C8.8784 4.55716 8.83117 4.57641 8.79634 4.61067C8.76152 4.64494 8.74195 4.69141 8.74195 4.73986V6.45726H7.08314V4.73986C7.08314 4.69141 7.06357 4.64494 7.02875 4.61067C6.99393 4.57641 6.9467 4.55716 6.89745 4.55716C6.8482 4.55716 6.80097 4.57641 6.76615 4.61067C6.73133 4.64494 6.71176 4.69141 6.71176 4.73986V6.45726H5.75856C5.70931 6.45726 5.66208 6.4765 5.62726 6.51077C5.59244 6.54503 5.57287 6.5915 5.57287 6.63996C5.57287 6.68841 5.59244 6.73488 5.62726 6.76915C5.66208 6.80341 5.70931 6.82266 5.75856 6.82266H9.53175C9.53373 7.84092 9.08214 8.84845 8.02396 8.89328C7.24407 8.94395 6.80089 8.44456 6.56569 8.01485C6.55436 7.99331 6.53878 7.9742 6.51987 7.95864C6.50095 7.94309 6.47908 7.93139 6.45552 7.92424C6.43197 7.91709 6.4072 7.91463 6.38266 7.91699C6.35813 7.91936 6.33432 7.92651 6.31262 7.93802C6.29093 7.94954 6.27178 7.96519 6.25629 7.98406C6.24081 8.00293 6.2293 8.02465 6.22243 8.04795C6.21557 8.07124 6.21349 8.09565 6.21631 8.11975C6.21913 8.14384 6.2268 8.16714 6.23888 8.18829C6.60332 8.8543 7.1386 9.21629 7.79173 9.25527C7.77489 9.74491 7.9477 10.5995 8.53547 11.266C9.09996 11.9061 9.89817 12.2306 10.9143 12.2306C12.4775 12.1809 14.3963 11.0224 14.6592 7.914C14.7424 5.97249 14.1269 4.25168 12.9261 3.06924V3.06875Z" fill="#3D3D3D" stroke="#3D3D3D" stroke-width="0.25"/>
</svg>
