<svg width="16" height="16" viewBox="0 0 16 16" fill="none" xmlns="http://www.w3.org/2000/svg">
<path d="M7.97961 0.666672L3.42175 8.18129C3.06443 8.84939 2.87101 9.59285 2.85743 10.3504C2.84385 11.1079 3.0105 11.8578 3.34364 12.5383C3.49757 12.853 3.68459 13.1503 3.90152 13.4253C4.39773 14.0253 5.02092 14.5077 5.72615 14.8376C6.43137 15.1676 7.20103 15.3369 7.97961 15.3333C8.80877 15.3305 9.62592 15.135 10.3666 14.7622C11.1072 14.3895 11.7511 13.8497 12.2474 13.1855L12.3478 13.0348C12.8178 12.3215 13.0893 11.4959 13.1344 10.6429C13.1795 9.78983 12.9966 8.94018 12.6044 8.18129C11.1205 5.62621 9.43567 3.22175 7.95172 0.666672" stroke="#3D3D3D" stroke-width="0.75" stroke-miterlimit="10" stroke-linecap="round"/>
<path d="M7.9796 8.08644L5.87082 11.2719C5.71297 11.5651 5.62757 11.8917 5.62175 12.2246C5.61593 12.5575 5.68985 12.887 5.83735 13.1854C5.9451 13.3637 6.06633 13.5334 6.19997 13.6931C6.41544 13.9565 6.68708 14.1683 6.995 14.3131C7.30293 14.4579 7.63934 14.532 7.9796 14.5299C8.3439 14.5297 8.70311 14.4444 9.02856 14.2807C9.35402 14.117 9.63671 13.8795 9.85407 13.5871L9.8987 13.5202C10.122 13.2186 10.2635 12.8643 10.3094 12.4919C10.3554 12.1195 10.3042 11.7415 10.1609 11.3947C9.80386 10.781 9.38545 10.1952 8.97262 9.60387" stroke="#3D3D3D" stroke-width="0.75" stroke-miterlimit="10" stroke-linecap="round"/>
</svg>
