<svg width="16" height="16" viewBox="0 0 16 16" fill="none" xmlns="http://www.w3.org/2000/svg">
<path d="M7.58813 3.73343C8.435 3.73343 9.12152 3.04691 9.12152 2.20005C9.12152 1.35318 8.435 0.666664 7.58813 0.666664C6.74127 0.666664 6.05475 1.35318 6.05475 2.20005C6.05475 3.04691 6.74127 3.73343 7.58813 3.73343Z" stroke="#3D3D3D" stroke-width="0.75" stroke-miterlimit="10"/>
<path d="M4.36334 6.63634H7.02043V13.519H4.36334V15.3333H11.6381V13.6595H9.12152L9.23272 6.75924C9.23582 6.50903 9.18921 6.26069 9.0956 6.02863C9.00198 5.79656 8.86323 5.5854 8.68738 5.40737C8.51153 5.22934 8.30209 5.088 8.07119 4.99154C7.8403 4.89508 7.59256 4.84542 7.34232 4.84544H4.36334" stroke="#3D3D3D" stroke-width="0.75" stroke-linecap="round" stroke-linejoin="round"/>
</svg>
