<svg width="16" height="16" viewBox="0 0 16 16" fill="none" xmlns="http://www.w3.org/2000/svg">
<g clip-path="url(#clip0_4_2233)">
<path d="M31.5042 -28.7089H-51.4049V43.4203C-51.4049 43.8118 -51.1074 44.2032 -50.6115 44.2032C-50.1156 44.2032 -49.8181 43.9096 -49.8181 43.4203V-27.2409H31.6033C50.843 -27.2409 66.5124 -11.7776 66.5124 7.20888V43.5182H-37.9173C-38.314 43.5182 -38.7107 43.8117 -38.7107 44.3011C-38.7107 44.7904 -38.4131 45.0841 -37.9173 45.0841H68V7.30675C68 -12.5606 51.6364 -28.7089 31.5042 -28.7089Z" fill="#85BE4C"/>
<path d="M13.8511 1.33677C13.8511 8.57905 10.7767 14.4512 4.42961 14.4512C-1.91749 14.4512 -4.99187 8.57905 -4.99187 1.33677C-4.99187 -5.90551 -1.91749 -11.7776 4.42961 -11.7776C10.8759 -11.7776 13.8511 -5.90551 13.8511 1.33677ZM9.09078 1.33677C9.09078 -3.45879 7.504 -7.76501 4.52879 -7.76501C1.55359 -7.76501 -0.0331933 -3.45879 -0.0331933 1.33677C-0.0331933 6.13234 1.55359 10.4385 4.52879 10.4385C7.504 10.4385 9.09078 6.13234 9.09078 1.33677Z" stroke="#85BE4C" stroke-width="1.4" stroke-miterlimit="10"/>
</g>
<defs>
<clipPath id="clip0_4_2233">
<rect width="16" height="16" fill="white"/>
</clipPath>
</defs>
</svg>
