<svg width="16" height="16" viewBox="0 0 16 16" fill="none" xmlns="http://www.w3.org/2000/svg">
<g clip-path="url(#clip0_4_1116)">
<path d="M7.97787 0.666672V1.84973" stroke="#3D3D3D" stroke-width="0.75" stroke-miterlimit="10" stroke-linecap="round"/>
<path d="M15.3333 8.01379H14.1396" stroke="#3D3D3D" stroke-width="0.75" stroke-miterlimit="10" stroke-linecap="round"/>
<path d="M13.195 2.71214L12.3326 3.66302" stroke="#3D3D3D" stroke-width="0.75" stroke-miterlimit="10" stroke-linecap="round"/>
<path d="M0.666656 8.01379H1.86033" stroke="#3D3D3D" stroke-width="0.75" stroke-miterlimit="10" stroke-linecap="round"/>
<path d="M2.79977 2.71214L3.6674 3.66302" stroke="#3D3D3D" stroke-width="0.75" stroke-miterlimit="10" stroke-linecap="round"/>
<path d="M7.97787 15.3333V14.1447" stroke="#3D3D3D" stroke-width="0.75" stroke-miterlimit="10" stroke-linecap="round"/>
<path d="M13.195 13.2879L12.3326 12.337" stroke="#3D3D3D" stroke-width="0.75" stroke-miterlimit="10" stroke-linecap="round"/>
<path d="M2.79977 13.2879L3.6674 12.337" stroke="#3D3D3D" stroke-width="0.75" stroke-miterlimit="10" stroke-linecap="round"/>
<path d="M10.6139 5.48184C11.2616 6.16318 11.6218 7.06805 11.6197 8.00828C11.6131 8.72067 11.3957 9.41513 10.9948 10.004C10.5939 10.5928 10.0276 11.0496 9.36743 11.3167C8.70722 11.5837 7.9827 11.6491 7.28537 11.5045C6.58805 11.3599 5.9492 11.0118 5.4495 10.5042C4.94981 9.99661 4.61168 9.35226 4.47783 8.65254C4.34397 7.95282 4.42039 7.22911 4.69744 6.57281C4.97448 5.91652 5.43972 5.35707 6.0344 4.96512C6.62909 4.57317 7.32654 4.3663 8.03867 4.37064C8.43956 4.3688 8.83775 4.43613 9.21576 4.56966" stroke="#3D3D3D" stroke-width="0.75" stroke-miterlimit="10" stroke-linecap="round"/>
</g>
<defs>
<clipPath id="clip0_4_1116">
<rect width="16" height="16" fill="white"/>
</clipPath>
</defs>
</svg>
