<svg width="16" height="16" viewBox="0 0 16 16" fill="none" xmlns="http://www.w3.org/2000/svg">
<g clip-path="url(#clip0_4_1247)">
<path d="M13.4575 7.94072H12.9568" stroke="#3D3D3D" stroke-width="0.75" stroke-linecap="round" stroke-linejoin="round"/>
<path d="M2.49522 7.95148H2.99057" stroke="#3D3D3D" stroke-width="0.75" stroke-linecap="round" stroke-linejoin="round"/>
<path d="M4.12126 4.05078L4.48174 4.44892" stroke="#3D3D3D" stroke-width="0.75" stroke-linecap="round" stroke-linejoin="round"/>
<path d="M11.9174 4.06155L11.5192 4.42203" stroke="#3D3D3D" stroke-width="0.75" stroke-linecap="round" stroke-linejoin="round"/>
<path d="M7.99254 13.4663V12.9713" stroke="#3D3D3D" stroke-width="0.75" stroke-linecap="round" stroke-linejoin="round"/>
<path d="M7.99254 3.01241V2.51743" stroke="#3D3D3D" stroke-width="0.75" stroke-linecap="round" stroke-linejoin="round"/>
<path d="M11.8958 11.8576L11.5354 11.4595" stroke="#3D3D3D" stroke-width="0.75" stroke-linecap="round" stroke-linejoin="round"/>
<path d="M4.06743 11.8737L4.42791 11.4809" stroke="#3D3D3D" stroke-width="0.75" stroke-linecap="round" stroke-linejoin="round"/>
<path d="M8.00868 4.77715V7.99455" stroke="#3D3D3D" stroke-width="0.75" stroke-linecap="round" stroke-linejoin="round"/>
<path d="M8.02484 8.00531H11.1746" stroke="#3D3D3D" stroke-width="0.75" stroke-linecap="round" stroke-linejoin="round"/>
<path d="M13.2637 2.89404C14.4819 4.07081 15.2107 5.66374 15.3043 7.35428C15.4333 8.79894 15.1303 10.2494 14.4338 11.5218C13.7373 12.7943 12.6786 13.8317 11.3917 14.5025C10.1048 15.1733 8.64764 15.4474 7.20474 15.2901C5.76184 15.1328 4.3981 14.5512 3.28621 13.6189C2.17433 12.6866 1.36432 11.4456 0.958759 10.0529C0.553196 8.66032 0.570323 7.17875 1.00797 5.79586C1.44562 4.41297 2.2841 3.19096 3.41724 2.28457C4.55037 1.37819 5.92719 0.828202 7.37335 0.704262C8.93055 0.539471 10.4967 0.919792 11.8046 1.78032" stroke="#3D3D3D" stroke-width="0.75" stroke-linecap="round" stroke-linejoin="round"/>
</g>
<defs>
<clipPath id="clip0_4_1247">
<rect width="16" height="16" fill="white"/>
</clipPath>
</defs>
</svg>
