<svg width="16" height="16" viewBox="0 0 16 16" fill="none" xmlns="http://www.w3.org/2000/svg">
<path d="M5.69584 1.84146L3.65544 1.82019" stroke="#3D3D3D" stroke-width="0.75" stroke-linecap="round" stroke-linejoin="round"/>
<path d="M11.3069 0.799988V2.84039" stroke="#3D3D3D" stroke-width="0.75" stroke-linecap="round" stroke-linejoin="round"/>
<path d="M12.3271 1.84146L10.2867 1.82019" stroke="#3D3D3D" stroke-width="0.75" stroke-linecap="round" stroke-linejoin="round"/>
<path d="M3.53949 15.184H2.64406C2.47396 15.1827 2.30582 15.1496 2.14923 15.0869C1.99264 15.0241 1.85068 14.9329 1.73145 14.8183C1.61222 14.7038 1.51805 14.5681 1.45432 14.4192C1.3906 14.2703 1.35856 14.111 1.36005 13.9504V4.91045C1.36152 4.58883 1.49709 4.28071 1.73741 4.05279C1.97773 3.82487 2.30346 3.69551 2.64406 3.69272H13.3442C13.6867 3.69693 14.0135 3.8291 14.2531 4.06031C14.4927 4.29152 14.6255 4.60294 14.6225 4.9264V13.9663C14.6255 14.2898 14.4927 14.6012 14.2531 14.8324C14.0135 15.0636 13.6867 15.1958 13.3442 15.2H5.41482" stroke="#3D3D3D" stroke-width="0.75" stroke-linecap="round" stroke-linejoin="round"/>
<path d="M7.74978 5.81451L6.1361 9.04761L9.26599 9.06357L7.66855 12.2594" stroke="#3D3D3D" stroke-width="0.75" stroke-linecap="round" stroke-linejoin="round"/>
</svg>
