<svg width="16" height="16" viewBox="0 0 16 16" fill="none" xmlns="http://www.w3.org/2000/svg">
<path d="M5.23251 10.1025L10.7163 15.385H12.0802L8.90512 0.677851L12.8181 3.02564L13.0585 3.16538C13.1616 3.2205 13.2432 3.30878 13.2899 3.41596C13.3367 3.52314 13.346 3.64296 13.3163 3.75606C13.2865 3.86917 13.2195 3.96894 13.1261 4.03927C13.0327 4.10959 12.9182 4.14636 12.8013 4.14363H3.20336C3.10034 4.14453 2.99989 4.11154 2.91748 4.04972C2.83507 3.98791 2.77527 3.90071 2.7473 3.80156C2.71934 3.70241 2.72476 3.59681 2.76272 3.50104C2.80069 3.40527 2.86909 3.32465 2.9574 3.27159L3.5164 2.90266L7.1331 0.666672L3.91328 15.385H5.27164L10.7274 10.0634" stroke="#3D3D3D" stroke-width="0.75" stroke-linecap="round" stroke-linejoin="round"/>
<path d="M6.13809 4.50696L3.16982 6.74294L2.86796 6.97213C2.78427 7.03342 2.72209 7.11959 2.69032 7.21833C2.65854 7.31707 2.65879 7.42334 2.69104 7.52193C2.72328 7.62052 2.78587 7.7064 2.86985 7.76728C2.95383 7.82817 3.05491 7.86095 3.15864 7.86094H12.7566C12.8715 7.86478 12.9846 7.8308 13.0784 7.76422C13.1721 7.69764 13.2415 7.60212 13.2757 7.49234C13.31 7.38255 13.3073 7.26455 13.2681 7.15645C13.2288 7.04834 13.1552 6.9561 13.0585 6.89387L12.8293 6.73176L9.75479 4.45665" stroke="#3D3D3D" stroke-width="0.75" stroke-linecap="round" stroke-linejoin="round"/>
</svg>
