<svg width="16" height="16" viewBox="0 0 16 16" fill="none" xmlns="http://www.w3.org/2000/svg">
<path d="M7.14108 6.64385L2.60237 9.62532C2.19228 9.95783 2.6467 10.6506 3.15655 10.451L8.01114 8.01267L12.6551 10.3679C13.3756 10.6893 13.8965 9.99108 13.2814 9.49786L8.84795 6.64385L8.59302 1.19629C8.5688 1.04841 8.4928 0.913963 8.37859 0.816949C8.26439 0.719935 8.11942 0.666672 7.96957 0.666672C7.81973 0.666672 7.67476 0.719935 7.56056 0.816949C7.44635 0.913963 7.37035 1.04841 7.34612 1.19629L7.13 6.63277" stroke="#3D3D3D" stroke-width="0.75" stroke-linecap="round" stroke-linejoin="round"/>
<path d="M7.4625 9.87469L7.14108 15.3333H8.85903L8.56531 9.87469" stroke="#3D3D3D" stroke-width="0.75" stroke-linecap="round" stroke-linejoin="round"/>
<path d="M8.00005 7.27559C8.10718 7.27559 8.19402 7.18875 8.19402 7.08163C8.19402 6.9745 8.10718 6.88766 8.00005 6.88766C7.89293 6.88766 7.80609 6.9745 7.80609 7.08163C7.80609 7.18875 7.89293 7.27559 8.00005 7.27559Z" stroke="#3D3D3D" stroke-width="0.59" stroke-miterlimit="10"/>
</svg>
